<?xml version="1.0" encoding="UTF-8" standalone="no"?>
<svg
   xmlns:dc="http://purl.org/dc/elements/1.1/"
   xmlns:cc="http://creativecommons.org/ns#"
   xmlns:rdf="http://www.w3.org/1999/02/22-rdf-syntax-ns#"
   xmlns:svg="http://www.w3.org/2000/svg"
   xmlns="http://www.w3.org/2000/svg"
   xmlns:sodipodi="http://sodipodi.sourceforge.net/DTD/sodipodi-0.dtd"
   xmlns:inkscape="http://www.inkscape.org/namespaces/inkscape"
   version="1.1"
   width="15.367000cm"
   height="12.954000cm"
   viewBox="0 0 153670000 129540000"
   id="svg558"
   sodipodi:docname="knuckle-pad-swPlateOnlyFill.svg"
   inkscape:version="0.92.5 (2060ec1f9f, 2020-04-08)">
  <metadata
     id="metadata564">
    <rdf:RDF>
      <cc:Work
         rdf:about="">
        <dc:format>image/svg+xml</dc:format>
        <dc:type
           rdf:resource="http://purl.org/dc/dcmitype/StillImage" />
        <dc:title>SVG Picture created as knuckle-pad-brd.svg date 2021/11/04 15:39:42 </dc:title>
      </cc:Work>
    </rdf:RDF>
  </metadata>
  <defs
     id="defs562" />
  <sodipodi:namedview
     pagecolor="#ffffff"
     bordercolor="#666666"
     borderopacity="1"
     objecttolerance="10"
     gridtolerance="10"
     guidetolerance="10"
     inkscape:pageopacity="0"
     inkscape:pageshadow="2"
     inkscape:window-width="2560"
     inkscape:window-height="1326"
     id="namedview560"
     showgrid="false"
     inkscape:zoom="1.9281045"
     inkscape:cx="282.66338"
     inkscape:cy="243.2663"
     inkscape:window-x="0"
     inkscape:window-y="27"
     inkscape:window-maximized="1"
     inkscape:current-layer="svg558" />
  <title
     id="title2">SVG Picture created as knuckle-pad-brd.svg date 2021/11/04 15:39:42 </title>
  <desc
     id="desc4">Picture generated by PCBNEW </desc>
  <g
     style="fill:#000000; fill-opacity:1.000000;stroke:#000000; stroke-opacity:1.000000; stroke-linecap:round; stroke-linejoin:round;"
     transform="translate(0 0) scale(1 1)"
     id="g6" />
  <g
     style="fill:#000000; fill-opacity:0.0;  stroke:#000000; stroke-width:0.000000; stroke-opacity:1;  stroke-linecap:round; stroke-linejoin:round;"
     id="g8" />
  <g
     style="fill:#000000;fill-opacity:0;stroke:#000000;stroke-width:10007;stroke-linecap:round;stroke-linejoin:round;stroke-opacity:1"
     id="g488" />
  <g
     style="fill:#000000;fill-opacity:0;stroke:#000000;stroke-width:10007;stroke-linecap:round;stroke-linejoin:round;stroke-opacity:1"
     id="g490" />
  <g
     style="fill:#000000;fill-opacity:0;stroke:#000000;stroke-width:10007;stroke-linecap:round;stroke-linejoin:round;stroke-opacity:1"
     id="g492" />
  <g
     style="fill:#000000;fill-opacity:0;stroke:#000000;stroke-width:10007;stroke-linecap:round;stroke-linejoin:round;stroke-opacity:1"
     id="g494" />
  <g
     style="fill:#000000;fill-opacity:0;stroke:#000000;stroke-width:10007;stroke-linecap:round;stroke-linejoin:round;stroke-opacity:1"
     id="g496" />
  <g
     style="fill:#000000;fill-opacity:0;stroke:#000000;stroke-width:10007;stroke-linecap:round;stroke-linejoin:round;stroke-opacity:1"
     id="g498" />
  <g
     style="fill:#000000;fill-opacity:0;stroke:#000000;stroke-width:10007;stroke-linecap:round;stroke-linejoin:round;stroke-opacity:1"
     id="g500" />
  <g
     style="fill:#000000;fill-opacity:0;stroke:#000000;stroke-width:10007;stroke-linecap:round;stroke-linejoin:round;stroke-opacity:1"
     id="g502" />
  <g
     style="fill:#000000;fill-opacity:0;stroke:#000000;stroke-width:10007;stroke-linecap:round;stroke-linejoin:round;stroke-opacity:1"
     id="g504" />
  <g
     style="fill:#000000;fill-opacity:0;stroke:#000000;stroke-width:10007;stroke-linecap:round;stroke-linejoin:round;stroke-opacity:1"
     id="g506" />
  <g
     style="fill:#000000;fill-opacity:0;stroke:#000000;stroke-width:10007;stroke-linecap:round;stroke-linejoin:round;stroke-opacity:1"
     id="g508" />
  <g
     style="fill:#000000;fill-opacity:0;stroke:#000000;stroke-width:10007;stroke-linecap:round;stroke-linejoin:round;stroke-opacity:1"
     id="g510" />
  <g
     style="fill:#000000;fill-opacity:0;stroke:#000000;stroke-width:10007;stroke-linecap:round;stroke-linejoin:round;stroke-opacity:1"
     id="g512" />
  <g
     style="fill:#000000;fill-opacity:0;stroke:#000000;stroke-width:10007;stroke-linecap:round;stroke-linejoin:round;stroke-opacity:1"
     id="g514" />
  <g
     style="fill:#000000;fill-opacity:0;stroke:#000000;stroke-width:10007;stroke-linecap:round;stroke-linejoin:round;stroke-opacity:1"
     id="g516" />
  <g
     style="fill:#000000;fill-opacity:0;stroke:#000000;stroke-width:10007;stroke-linecap:round;stroke-linejoin:round;stroke-opacity:1"
     id="g518" />
  <g
     style="fill:#000000;fill-opacity:0;stroke:#000000;stroke-width:10007;stroke-linecap:round;stroke-linejoin:round;stroke-opacity:1"
     id="g520" />
  <g
     style="fill:#000000;fill-opacity:0;stroke:#000000;stroke-width:10007;stroke-linecap:round;stroke-linejoin:round;stroke-opacity:1"
     id="g522" />
  <g
     style="fill:#000000;fill-opacity:0;stroke:#000000;stroke-width:10007;stroke-linecap:round;stroke-linejoin:round;stroke-opacity:1"
     id="g524" />
  <g
     style="fill:#000000;fill-opacity:0;stroke:#000000;stroke-width:10007;stroke-linecap:round;stroke-linejoin:round;stroke-opacity:1"
     id="g526" />
  <g
     style="fill:#000000;fill-opacity:0;stroke:#000000;stroke-width:10007;stroke-linecap:round;stroke-linejoin:round;stroke-opacity:1"
     id="g528" />
  <g
     style="fill:#000000;fill-opacity:0;stroke:#000000;stroke-width:10007;stroke-linecap:round;stroke-linejoin:round;stroke-opacity:1"
     id="g530" />
  <g
     style="fill:#000000;fill-opacity:0;stroke:#000000;stroke-width:10007;stroke-linecap:round;stroke-linejoin:round;stroke-opacity:1"
     id="g532" />
  <g
     style="fill:#000000;fill-opacity:0;stroke:#000000;stroke-width:10007;stroke-linecap:round;stroke-linejoin:round;stroke-opacity:1"
     id="g534" />
  <g
     style="fill:#000000;fill-opacity:0;stroke:#000000;stroke-width:10007;stroke-linecap:round;stroke-linejoin:round;stroke-opacity:1"
     id="g536" />
  <g
     style="fill:#000000;fill-opacity:0;stroke:#000000;stroke-width:10007;stroke-linecap:round;stroke-linejoin:round;stroke-opacity:1"
     id="g538" />
  <g
     style="fill:#000000;fill-opacity:0;stroke:#000000;stroke-width:10007;stroke-linecap:round;stroke-linejoin:round;stroke-opacity:1"
     id="g540" />
  <g
     style="fill:#000000;fill-opacity:0;stroke:#000000;stroke-width:10007;stroke-linecap:round;stroke-linejoin:round;stroke-opacity:1"
     id="g542" />
  <g
     style="fill:#000000;fill-opacity:0;stroke:#000000;stroke-width:10007;stroke-linecap:round;stroke-linejoin:round;stroke-opacity:1"
     id="g544" />
  <g
     style="fill:#000000;fill-opacity:0;stroke:#000000;stroke-width:10007;stroke-linecap:round;stroke-linejoin:round;stroke-opacity:1"
     id="g546" />
  <g
     style="fill:#000000;fill-opacity:0;stroke:#000000;stroke-width:10007;stroke-linecap:round;stroke-linejoin:round;stroke-opacity:1"
     id="g548"
     transform="translate(159729410,9194047)" />
  <g
     style="fill:#000000;fill-opacity:1;stroke:#000000;stroke-width:1;stroke-linecap:round;stroke-linejoin:round;stroke-opacity:1"
     id="g552"
     transform="translate(4391183.2,823347.5)">
    <path
       style="fill:#000000;fill-opacity:1;fill-rule:evenodd;stroke:#000000;stroke-width:1;stroke-linecap:round;stroke-linejoin:round;stroke-opacity:1"
       d="m 109253390,8382828 208560,24043 21500,4401 197620,58787 20410,8064 184430,92182 18700,11483 165630,122773 16420,14552 141830,149658 13650,17182 113710,171985 10460,19287 82150,189108 6950,20812 48100,200493 3240,21701 13020,212942 230,7689 v 37662503 l 120,3841 13480,220593 1620,10845 50710,211438 3470,10384 86630,199442 5220,9628 119910,181390 6810,8576 149560,157839 8190,7260 174680,129507 9320,5730 194490,97240 10180,4024 208420,62029 10710,2195 217880,25151 7210,415 25098270,-1 14470,834 208560,24111 21520,4417 197590,58901 20430,8089 184350,92332 18710,11516 165510,122953 16430,14591 141630,149834 13640,17224 113450,172167 10440,19333 81810,189250 6930,20853 47690,200587 3200,21738 12540,213130 220,7405 v 58180256 l -19100,66690 -8868780,14215390 -4450,6660 -168110,234790 -9990,12250 -193550,209030 -11450,10900 -218190,183140 -12720,9380 -239410,154360 -13800,7720 -256870,123170 -14650,5930 -270260,90020 -15280,4050 -279410,55470 -15670,2100 -284160,20040 -15810,120 -284430,-15710 -15700,-1860 -280220,-51210 -15340,-3810 -271610,-85900 -14750,-5710 -258690,-119230 -13920,-7510 -248460,-154900 -350,-210 -14219690,-8929540 -17530,-7570 -3821580,-994660 h 7715050 l 10930,113490 3680,15950 39930,106790 7690,14460 66200,92810 11170,11990 91180,75160 6640,4780 11012820,6892270 7290,3920 107490,48990 15660,4780 112450,18820 16360,570 113480,-10930 15960,-3680 106790,-39930 14460,-7690 92810,-66200 11980,-11170 75150,-91160 4810,-6690 6884580,-11017620 3890,-7250 49000,-107510 4780,-15660 18820,-112440 570,-16370 -10930,-113480 -3680,-15960 -39930,-106790 -7690,-14460 -66200,-92810 -11170,-11980 -91160,-75140 -6690,-4820 -11017620,-6884580 -7250,-3890 -107510,-48990 -15660,-4790 -112440,-18820 -16370,-570 -113480,10930 -15960,3680 -106790,39930 -14460,7690 -92810,66200 -11980,11170 -75140,91160 -4820,6690 -6879770,11009930 -3890,7240 -48990,107510 -4790,15660 -18820,112450 -570,16360 h -7715050 l -14703294,-3826890 -15809,-2020 H 73290019 l -21375,3770 -17977386,6541840 -43052,7600 -17701482,4760 -11016,-480 -204061,-17850 -21629,-3810 -192536,-51590 -20639,-7510 -180653,-84240 -19021,-10990 -163283,-114330 -16824,-14120 -140940,-140940 -14118,-16820 -114333,-163280 -10982,-19030 -84240,-180650 -7512,-20640 -51590,-192530 -3814,-21630 -17854,-204080 -479,-10980 v -5000330 l -238,-5460 -18577,-212330 -1903,-10800 -54449,-203210 -3746,-10290 -88909,-190660 -5483,-9500 -120660,-172320 -7056,-8410 -148742,-148740 -8408,-7050 -172321,-120660 -9495,-5490 -190665,-88910 -10292,-3740 -203208,-54450 -10795,-1900 -212329,-18580 -5464,-240 H 11460838 l -10843,-470 -205932,-17780 -21366,-3720 -194554,-51450 -20412,-7320 -182851,-84050 -18854,-10720 -165726,-114150 -16734,-13790 -143702,-140890 -14122,-16460 -117409,-163430 -11090,-18630 -87651,-181160 -7731,-20260 -55284,-193500 -4141,-21290 -21729,-204280 -707,-13330 v -2421920 h 2677400 l 538,8210 15421,117140 4238,15810 43630,105340 8186,14170 69411,90460 11569,11570 90457,69410 14178,8190 105333,43630 15817,4240 117158,15420 8162,540 12991756,9070 8258,-540 117110,-15420 15817,-4240 105333,-43630 14178,-8180 90457,-69410 11569,-11570 69411,-90460 8186,-14180 43630,-105330 4238,-15820 15421,-117130 538,-8210 v -5011422 h 25293730 l 1427,16311 25569,115334 2308,7919 4440332,12199718 3319,7540 54547,104780 9398,13420 77020,84060 12547,10530 96150,61250 14848,6920 108725,34280 16135,2850 113900,4970 16309,-1420 115359,-25580 7874,-2290 12211350,-4434920 7575,-3330 104769,-54540 13422,-9390 84052,-77020 10528,-12550 61255,-96150 6924,-14850 34280,-108720 2845,-16140 4973,-113900 -1427,-16310 -25569,-115330 -2308,-7920 -92388,-253840 h 26604614 l 286,16380 16852,112760 4511,15730 45463,104560 8434,14040 70974,89220 11778,11380 91649,67810 14319,7940 109945,43310 7798,2500 12603649,3151790 8140,1470 117360,13370 16380,-280 112750,-16850 15750,-4520 104550,-45460 14030,-8430 89230,-70970 11370,-11790 67820,-91640 7940,-14320 43300,-109930 2510,-7830 3142990,-12605850 1460,-8091 13370,-117388 -280,-16376 -16850,-112752 -4520,-15751 -45460,-104548 -8430,-14034 -70970,-89227 -11790,-11377 -91640,-67813 -14320,-7939 -109930,-43304 -7830,-2505 -12605850,-3142990 -8090,-1463 -117389,-13376 -16376,286 -112752,16851 -15751,4516 -104548,45460 -14034,8432 -89227,70974 -11377,11782 -67813,91644 -7939,14323 -43304,109931 -2505,7828 -3140792,12597027 -1467,8120 -13374,117370 H 69667178 l -283657,-779340 h 6674479 l 538,8210 15421,117140 4238,15810 43630,105340 8186,14170 69411,90460 11569,11570 90457,69410 14178,8190 105333,43630 15817,4240 117158,15420 8162,540 12991756,9070 8258,-540 117110,-15420 15817,-4240 105333,-43630 14178,-8180 90457,-69410 11569,-11570 69411,-90460 8186,-14180 43630,-105330 4238,-15820 15421,-117130 538,-8210 V 93326122 l -538,-8209 -15421,-117135 -4238,-15817 -43630,-105333 -8186,-14178 -69411,-90457 -11569,-11569 -90457,-69411 -14178,-8186 -105333,-43630 -15817,-4238 -117135,-15421 -8209,-538 H 76562122 l -8209,538 -117135,15421 -15817,4238 -105333,43630 -14178,8186 -90457,69411 -11569,11569 -69411,90457 -8186,14178 -43630,105333 -4238,15817 -15421,117135 -538,8209 v 12982678 h -6674479 l -4067392,-11175064 -3319,-7543 -54547,-104784 -9398,-13422 -77019,-84052 -12547,-10528 -96151,-61255 -14848,-6924 -108724,-34280 -16136,-2845 -113898,-4973 -16311,1427 -115334,25569 -7919,2308 -12208242,4443437 -7543,3319 -104784,54547 -13422,9398 -84052,77019 -10528,12547 -61255,96151 -6924,14848 -34280,108724 -2845,16136 -4973,113898 H 26837400 v -7980336 l -538,-8209 -15421,-117135 -4238,-15817 -43630,-105333 -8186,-14178 -69411,-90457 -11569,-11569 -90457,-69411 -14178,-8186 -105333,-43630 -15817,-4238 -117135,-15421 -8209,-538 H 13341522 l -8209,538 -117135,15421 -15817,4238 -105333,43630 -14178,8186 -90457,69411 -11569,11569 -69411,90457 -8186,14178 -43630,105333 -4238,15817 -15421,117135 -538,8209 v 12982678 H 10160000 V 85734802 h 2677400 l 538,8209 15421,117135 4238,15817 43630,105333 8186,14178 69411,90457 11569,11569 90457,69411 14178,8186 105333,43630 15817,4238 117158,15424 8162,538 12991756,9070 8258,-538 117110,-15418 15817,-4238 105333,-43630 14178,-8186 90457,-69411 11569,-11569 69411,-90457 8186,-14178 43630,-105333 4238,-15817 15421,-117135 538,-8209 v -1787076 h 9850600 l 538,8209 15421,117135 4238,15817 43630,105333 8186,14178 69411,90457 11569,11569 90457,69411 14178,8186 105333,43630 15817,4238 117158,15424 8162,538 12991756,9070 8258,-538 117110,-15418 15817,-4238 105333,-43630 14178,-8186 90457,-69411 11569,-11569 69411,-90457 8186,-14178 43630,-105333 4238,-15817 15421,-117135 538,-8209 v -9076 h 24100000 l 538,8209 15421,117135 4238,15817 43630,105333 8186,14178 69411,90457 11569,11569 90457,69411 14178,8186 105333,43630 15817,4238 117158,15424 8162,538 12991756,9070 8258,-538 117110,-15418 15817,-4238 105333,-43630 14178,-8186 90457,-69411 11569,-11569 69411,-90457 8186,-14178 43630,-105333 4238,-15817 15421,-117135 538,-8209 v -9076 h 5050000 l 538,8209 15421,117135 4238,15817 43630,105333 8186,14178 69411,90457 11569,11569 90457,69411 14178,8186 105333,43630 15817,4238 117158,15424 8162,538 12991752,9070 8260,-538 117110,-15418 15820,-4238 105330,-43630 14180,-8186 90460,-69411 11570,-11569 69410,-90457 8180,-14178 43630,-105333 4240,-15817 15420,-117135 540,-8209 v -9076 h 5050000 l 540,8209 15420,117135 4240,15817 43630,105333 8180,14178 69410,90457 11570,11569 90460,69411 14180,8186 105330,43630 15820,4238 117160,15424 8160,538 12991750,9070 8260,-538 117110,-15418 15820,-4238 105330,-43630 14180,-8186 90460,-69411 11570,-11569 69410,-90457 8180,-14178 43630,-105333 4240,-15817 15420,-117135 540,-8209 V 70974122 l -540,-8209 -15420,-117135 -4240,-15817 -43630,-105333 -8180,-14178 -69410,-90457 -11570,-11569 -90460,-69411 -14180,-8186 -105330,-43630 -15820,-4238 -117130,-15421 -8210,-538 h -12991760 l -8210,538 -117130,15421 -15820,4238 -105330,43630 -14180,8186 -90460,69411 -11570,11569 -69410,90457 -8180,14178 -43630,105333 -4240,15817 -15420,117135 -540,8209 v 12982680 h -5050000 V 70974122 l -540,-8209 -15420,-117135 -4240,-15817 -43630,-105333 -8180,-14178 -69410,-90457 -11570,-11569 -90460,-69411 -14180,-8186 -105330,-43630 -15820,-4238 -117130,-15421 -8210,-538 H 94342122 l -8209,538 -117135,15421 -15817,4238 -105333,43630 -14178,8186 -90457,69411 -11569,11569 -69411,90457 -8186,14178 -43630,105333 -4238,15817 -15421,117135 -538,8209 V 83956802 H 88788000 V 70974122 l -538,-8209 -15421,-117135 -4238,-15817 -43630,-105333 -8186,-14178 -69411,-90457 -11569,-11569 -90457,-69411 -14178,-8186 -105333,-43630 -15817,-4238 -117135,-15421 -8209,-538 H 75292122 l -8209,538 -117135,15421 -15817,4238 -105333,43630 -14178,8186 -90457,69411 -11569,11569 -69411,90457 -8186,14178 -43630,105333 -4238,15817 -15421,117135 -538,8209 V 83956802 H 50688000 v -2286000 h 5050000 l 538,8209 15421,117135 4238,15817 43630,105333 8186,14178 69411,90457 11569,11569 90457,69411 14178,8186 105333,43630 15817,4238 117158,15424 8162,538 12991756,9070 8258,-538 117110,-15418 15817,-4238 105333,-43630 14178,-8186 90457,-69411 11569,-11569 69411,-90457 8186,-14178 43630,-105333 4238,-15817 15421,-117135 538,-8209 V 68688122 l -538,-8209 -15421,-117135 -4238,-15817 -43630,-105333 -8186,-14178 -69411,-90457 -11569,-11569 -90457,-69411 -14178,-8186 -105333,-43630 -15817,-4238 -117135,-15421 -8209,-538 H 56242122 l -8209,538 -117135,15421 -15817,4238 -105333,43630 -14178,8186 -90457,69411 -11569,11569 -69411,90457 -8186,14178 -43630,105333 -4238,15817 -15421,117135 -538,8209 V 81670802 H 50688000 V 70974122 l -538,-8209 -15421,-117135 -4238,-15817 -43630,-105333 -8186,-14178 -69411,-90457 -11569,-11569 -90457,-69411 -14178,-8186 -105333,-43630 -15817,-4238 -117135,-15421 -8209,-538 H 37192122 l -8209,538 -117135,15421 -15817,4238 -105333,43630 -14178,8186 -90457,69411 -11569,11569 -69411,90457 -8186,14178 -43630,105333 -4238,15817 -15421,117135 -538,8209 V 83956802 H 26837400 V 72752122 l -538,-8209 -15421,-117135 -4238,-15817 -43630,-105333 -8186,-14178 -69411,-90457 -11569,-11569 -90457,-69411 -14178,-8186 -105333,-43630 -15817,-4238 -117135,-15421 -8209,-538 H 13341522 l -8209,538 -117135,15421 -15817,4238 -105333,43630 -14178,8186 -90457,69411 -11569,11569 -69411,90457 -8186,14178 -43630,105333 -4238,15817 -15421,117135 -538,8209 V 85734802 H 10160000 V 66684802 h 2677400 l 538,8209 15421,117135 4238,15817 43630,105333 8186,14178 69411,90457 11569,11569 90457,69411 14178,8186 105333,43630 15817,4238 117158,15424 8162,538 12991756,9070 8258,-538 117110,-15418 15817,-4238 105333,-43630 14178,-8186 90457,-69411 11569,-11569 69411,-90457 8186,-14178 43630,-105333 4238,-15817 15421,-117135 538,-8209 v -1787076 h 9850600 l 538,8209 15421,117135 4238,15817 43630,105333 8186,14178 69411,90457 11569,11569 90457,69411 14178,8186 105333,43630 15817,4238 117158,15424 8162,538 12991756,9070 8258,-538 117110,-15418 15817,-4238 105333,-43630 14178,-8186 90457,-69411 11569,-11569 69411,-90457 8186,-14178 43630,-105333 4238,-15817 15421,-117135 538,-8209 v -9076 h 24100000 l 538,8209 15421,117135 4238,15817 43630,105333 8186,14178 69411,90457 11569,11569 90457,69411 14178,8186 105333,43630 15817,4238 117158,15424 8162,538 12991756,9070 8258,-538 117110,-15418 15817,-4238 105333,-43630 14178,-8186 90457,-69411 11569,-11569 69411,-90457 8186,-14178 43630,-105333 4238,-15817 15421,-117135 538,-8209 v -9076 h 5050000 l 538,8209 15421,117135 4238,15817 43630,105333 8186,14178 69411,90457 11569,11569 90457,69411 14178,8186 105333,43630 15817,4238 117158,15424 8162,538 12991752,9070 8260,-538 117110,-15418 15820,-4238 105330,-43630 14180,-8186 90460,-69411 11570,-11569 69410,-90457 8180,-14178 43630,-105333 4240,-15817 15420,-117135 540,-8209 v -9076 h 5050000 l 540,8209 15420,117135 4240,15817 43630,105333 8180,14178 69410,90457 11570,11569 90460,69411 14180,8186 105330,43630 15820,4238 117160,15424 8160,538 12991750,9070 8260,-538 117110,-15418 15820,-4238 105330,-43630 14180,-8186 90460,-69411 11570,-11569 69410,-90457 8180,-14178 43630,-105333 4240,-15817 15420,-117135 540,-8209 V 51924122 l -540,-8209 -15420,-117135 -4240,-15817 -43630,-105333 -8180,-14178 -69410,-90457 -11570,-11569 -90460,-69411 -14180,-8186 -105330,-43630 -15820,-4238 -117130,-15421 -8210,-538 h -12991760 l -8210,538 -117130,15421 -15820,4238 -105330,43630 -14180,8186 -90460,69411 -11570,11569 -69410,90457 -8180,14178 -43630,105333 -4240,15817 -15420,117135 -540,8209 v 12982680 h -5050000 V 51924122 l -540,-8209 -15420,-117135 -4240,-15817 -43630,-105333 -8180,-14178 -69410,-90457 -11570,-11569 -90460,-69411 -14180,-8186 -105330,-43630 -15820,-4238 -117130,-15421 -8210,-538 H 94342122 l -8209,538 -117135,15421 -15817,4238 -105333,43630 -14178,8186 -90457,69411 -11569,11569 -69411,90457 -8186,14178 -43630,105333 -4238,15817 -15421,117135 -538,8209 V 64906802 H 88788000 V 51924122 l -538,-8209 -15421,-117135 -4238,-15817 -43630,-105333 -8186,-14178 -69411,-90457 -11569,-11569 -90457,-69411 -14178,-8186 -105333,-43630 -15817,-4238 -117135,-15421 -8209,-538 H 75292122 l -8209,538 -117135,15421 -15817,4238 -105333,43630 -14178,8186 -90457,69411 -11569,11569 -69411,90457 -8186,14178 -43630,105333 -4238,15817 -15421,117135 -538,8209 V 64906802 H 50688000 v -2286000 h 5050000 l 538,8209 15421,117135 4238,15817 43630,105333 8186,14178 69411,90457 11569,11569 90457,69411 14178,8186 105333,43630 15817,4238 117158,15424 8162,538 12991756,9070 8258,-538 117110,-15418 15817,-4238 105333,-43630 14178,-8186 90457,-69411 11569,-11569 69411,-90457 8186,-14178 43630,-105333 4238,-15817 15421,-117135 538,-8209 V 49638122 l -538,-8209 -15421,-117135 -4238,-15817 -43630,-105333 -8186,-14178 -69411,-90457 -11569,-11569 -90457,-69411 -14178,-8186 -105333,-43630 -15817,-4238 -117135,-15421 -8209,-538 H 56242122 l -8209,538 -117135,15421 -15817,4238 -105333,43630 -14178,8186 -90457,69411 -11569,11569 -69411,90457 -8186,14178 -43630,105333 -4238,15817 -15421,117135 -538,8209 V 62620802 H 50688000 V 51924122 l -538,-8209 -15421,-117135 -4238,-15817 -43630,-105333 -8186,-14178 -69411,-90457 -11569,-11569 -90457,-69411 -14178,-8186 -105333,-43630 -15817,-4238 -117135,-15421 -8209,-538 H 37192122 l -8209,538 -117135,15421 -15817,4238 -105333,43630 -14178,8186 -90457,69411 -11569,11569 -69411,90457 -8186,14178 -43630,105333 -4238,15817 -15421,117135 -538,8209 V 64906802 H 26837400 V 53702122 l -538,-8209 -15421,-117135 -4238,-15817 -43630,-105333 -8186,-14178 -69411,-90457 -11569,-11569 -90457,-69411 -14178,-8186 -105333,-43630 -15817,-4238 -117135,-15421 -8209,-538 H 13341522 l -8209,538 -117135,15421 -15817,4238 -105333,43630 -14178,8186 -90457,69411 -11569,11569 -69411,90457 -8186,14178 -43630,105333 -4238,15817 -15421,117135 -538,8209 V 66684802 H 10160000 V 47634802 h 2677400 l 538,8209 15421,117135 4238,15817 43630,105333 8186,14178 69411,90457 11569,11569 90457,69411 14178,8186 105333,43630 15817,4238 117158,15424 8162,538 12991756,9070 8258,-538 117110,-15418 15817,-4238 105333,-43630 14178,-8186 90457,-69411 11569,-11569 69411,-90457 8186,-14178 43630,-105333 4238,-15817 15421,-117135 538,-8209 v -1787076 h 9850600 l 538,8209 15421,117135 4238,15817 43630,105333 8186,14178 69411,90457 11569,11569 90457,69411 14178,8186 105333,43630 15817,4238 117158,15424 8162,538 12991756,9070 8258,-538 117110,-15418 15817,-4238 105333,-43630 14178,-8186 90457,-69411 11569,-11569 69411,-90457 8186,-14178 43630,-105333 4238,-15817 15421,-117135 538,-8209 v -9076 h 24100000 l 538,8209 15421,117135 4238,15817 43630,105333 8186,14178 69411,90457 11569,11569 90457,69411 14178,8186 105333,43630 15817,4238 117158,15424 8162,538 12991756,9070 8258,-538 117110,-15418 15817,-4238 105333,-43630 14178,-8186 90457,-69411 11569,-11569 69411,-90457 8186,-14178 43630,-105333 4238,-15817 15421,-117135 538,-8209 v -9076 h 5050000 l 538,8209 15421,117135 4238,15817 43630,105333 8186,14178 69411,90457 11569,11569 90457,69411 14178,8186 105333,43630 15817,4238 117158,15424 8162,538 12991752,9070 8260,-538 117110,-15418 15820,-4238 105330,-43630 14180,-8186 90460,-69411 11570,-11569 69410,-90457 8180,-14178 43630,-105333 4240,-15817 15420,-117135 540,-8209 V 32874122 l -540,-8209 -15420,-117135 -4240,-15817 -43630,-105333 -8180,-14178 -69410,-90457 -11570,-11569 -90460,-69411 -14180,-8186 -105330,-43630 -15820,-4238 -117130,-15421 -8210,-538 H 94342122 l -8209,538 -117135,15421 -15817,4238 -105333,43630 -14178,8186 -90457,69411 -11569,11569 -69411,90457 -8186,14178 -43630,105333 -4238,15817 -15421,117135 -538,8209 V 45856802 H 88788000 V 32874122 l -538,-8209 -15421,-117135 -4238,-15817 -43630,-105333 -8186,-14178 -69411,-90457 -11569,-11569 -90457,-69411 -14178,-8186 -105333,-43630 -15817,-4238 -117135,-15421 -8209,-538 H 75292122 l -8209,538 -117135,15421 -15817,4238 -105333,43630 -14178,8186 -90457,69411 -11569,11569 -69411,90457 -8186,14178 -43630,105333 -4238,15817 -15421,117135 -538,8209 V 45856802 H 50688000 v -2286000 h 5050000 l 538,8209 15421,117135 4238,15817 43630,105333 8186,14178 69411,90457 11569,11569 90457,69411 14178,8186 105333,43630 15817,4238 117158,15424 8162,538 12991756,9070 8258,-538 117110,-15418 15817,-4238 105333,-43630 14178,-8186 90457,-69411 11569,-11569 69411,-90457 8186,-14178 43630,-105333 4238,-15817 15421,-117135 538,-8209 V 30588122 l -538,-8209 -15421,-117135 -4238,-15817 -43630,-105333 -8186,-14178 -69411,-90457 -11569,-11569 -90457,-69411 -14178,-8186 -105333,-43630 -15817,-4238 -117135,-15421 -8209,-538 H 56242122 l -8209,538 -117135,15421 -15817,4238 -105333,43630 -14178,8186 -90457,69411 -11569,11569 -69411,90457 -8186,14178 -43630,105333 -4238,15817 -15421,117135 -538,8209 V 43570802 H 50688000 V 32874122 l -538,-8209 -15421,-117135 -4238,-15817 -43630,-105333 -8186,-14178 -69411,-90457 -11569,-11569 -90457,-69411 -14178,-8186 -105333,-43630 -15817,-4238 -117135,-15421 -8209,-538 H 37192122 l -8209,538 -117135,15421 -15817,4238 -105333,43630 -14178,8186 -90457,69411 -11569,11569 -69411,90457 -8186,14178 -43630,105333 -4238,15817 -15421,117135 -538,8209 V 45856802 H 26837400 V 34652122 l -538,-8209 -15421,-117135 -4238,-15817 -43630,-105333 -8186,-14178 -69411,-90457 -11569,-11569 -90457,-69411 -14178,-8186 -105333,-43630 -15817,-4238 -117135,-15421 -8209,-538 H 13341522 l -8209,538 -117135,15421 -15817,4238 -105333,43630 -14178,8186 -90457,69411 -11569,11569 -69411,90457 -8186,14178 -43630,105333 -4238,15817 -15421,117135 -538,8209 V 47634802 H 10160000 V 28584802 h 2677400 l 538,8209 15421,117135 4238,15817 43630,105333 8186,14178 69411,90457 11569,11569 90457,69411 14178,8186 105333,43630 15817,4238 117158,15424 8162,538 12991756,9070 8258,-538 117110,-15418 15817,-4238 105333,-43630 14178,-8186 90457,-69411 11569,-11569 69411,-90457 8186,-14178 43630,-105333 4238,-15817 15421,-117135 538,-8209 v -1787076 h 9850600 l 538,8209 15421,117135 4238,15817 43630,105333 8186,14178 69411,90457 11569,11569 90457,69411 14178,8186 105333,43630 15817,4238 117158,15424 8162,538 12991756,9070 8258,-538 117110,-15418 15817,-4238 105333,-43630 14178,-8186 90457,-69411 11569,-11569 69411,-90457 8186,-14178 43630,-105333 4238,-15817 15421,-117135 538,-8209 v -9076 h 24100000 l 538,8209 15421,117135 4238,15817 43630,105333 8186,14178 69411,90457 11569,11569 90457,69411 14178,8186 105333,43630 15817,4238 117158,15424 8162,538 12991756,9070 8258,-538 117110,-15418 15817,-4238 105333,-43630 14178,-8186 90457,-69411 11569,-11569 69411,-90457 8186,-14178 43630,-105333 4238,-15817 15421,-117135 538,-8209 v -9076 h 5050000 l 538,8209 15421,117135 4238,15817 43630,105333 8186,14178 69411,90457 11569,11569 90457,69411 14178,8186 105333,43630 15817,4238 117158,15424 8162,538 12991752,9070 8260,-538 117110,-15418 15820,-4238 105330,-43630 14180,-8186 90460,-69411 11570,-11569 69410,-90457 8180,-14178 43630,-105333 4240,-15817 15420,-117135 540,-8209 V 13824122 l -540,-8209 -15420,-117135 -4240,-15817 -43630,-105333 -8180,-14178 -69410,-90457 -11570,-11569 -90460,-69411 -14180,-8186 -105330,-43630 -15820,-4238 -117130,-15421 -8210,-538 H 94342122 l -8209,538 -117135,15421 -15817,4238 -105333,43630 -14178,8186 -90457,69411 -11569,11569 -69411,90457 -8186,14178 -43630,105333 -4238,15817 -15421,117135 -538,8209 V 26806802 H 88788000 V 13824122 l -538,-8209 -15421,-117135 -4238,-15817 -43630,-105333 -8186,-14178 -69411,-90457 -11569,-11569 -90457,-69411 -14178,-8186 -105333,-43630 -15817,-4238 -117135,-15421 -8209,-538 H 75292122 l -8209,538 -117135,15421 -15817,4238 -105333,43630 -14178,8186 -90457,69411 -11569,11569 -69411,90457 -8186,14178 -43630,105333 -4238,15817 -15421,117135 -538,8209 V 26806802 H 50688000 v -2286000 h 5050000 l 538,8209 15421,117135 4238,15817 43630,105333 8186,14178 69411,90457 11569,11569 90457,69411 14178,8186 105333,43630 15817,4238 117158,15424 8162,538 12991756,9070 8258,-538 117110,-15418 15817,-4238 105333,-43630 14178,-8186 90457,-69411 11569,-11569 69411,-90457 8186,-14178 43630,-105333 4238,-15817 15421,-117135 538,-8209 V 11538122 l -538,-8209 -15421,-117135 -4238,-15817 -43630,-105333 -8186,-14178 -69411,-90457 -11569,-11569 -90457,-69411 -14178,-8186 -105333,-43630 -15817,-4238 -117135,-15421 -8209,-538 H 56242122 l -8209,538 -117135,15421 -15817,4238 -105333,43630 -14178,8186 -90457,69411 -11569,11569 -69411,90457 -8186,14178 -43630,105333 -4238,15817 -15421,117135 -538,8209 V 24520802 H 50688000 V 13824122 l -538,-8209 -15421,-117135 -4238,-15817 -43630,-105333 -8186,-14178 -69411,-90457 -11569,-11569 -90457,-69411 -14178,-8186 -105333,-43630 -15817,-4238 -117135,-15421 -8209,-538 H 37192122 l -8209,538 -117135,15421 -15817,4238 -105333,43630 -14178,8186 -90457,69411 -11569,11569 -69411,90457 -8186,14178 -43630,105333 -4238,15817 -15421,117135 -538,8209 V 26806802 H 26837400 V 15602122 l -538,-8209 -15421,-117135 -4238,-15817 -43630,-105333 -8186,-14178 -69411,-90457 -11569,-11569 -90457,-69411 -14178,-8186 -105333,-43630 -15817,-4238 -117135,-15421 -8209,-538 H 13341522 l -8209,538 -117135,15421 -15817,4238 -105333,43630 -14178,8186 -90457,69411 -11569,11569 -69411,90457 -8186,14178 -43630,105333 -4238,15817 -15421,117135 -538,8209 V 28584802 H 10160000 V 13162707 l 479,-10981 17854,-204078 3814,-21630 51590,-192536 7512,-20639 84240,-180653 10982,-19021 114333,-163283 14118,-16824 140940,-140940 16824,-14118 163283,-114333 19021,-10982 180653,-84240 20639,-7512 192536,-51590 21630,-3814 209531,-18331 414,-35 41644331,-3504723 10567,-444 56153669,-1 z"
       id="path550"
       inkscape:connector-curvature="0" />
  </g>
</svg>
