<?xml version="1.0" standalone="no"?>
 <!DOCTYPE svg PUBLIC "-//W3C//DTD SVG 1.1//EN" 
 "http://www.w3.org/Graphics/SVG/1.1/DTD/svg11.dtd"> 
<svg
  xmlns:svg="http://www.w3.org/2000/svg"
  xmlns="http://www.w3.org/2000/svg"
  xmlns:xlink="http://www.w3.org/1999/xlink"
  version="1.1"
  width="15.367000cm" height="12.954000cm" viewBox="0 0 153670000 129540000">
<title>SVG Picture created as knuckle-pad-brd.svg date 2021/11/04 15:39:42 </title>
  <desc>Picture generated by PCBNEW </desc>
<g style="fill:#000000; fill-opacity:1.000000;stroke:#000000; stroke-opacity:1.000000;
stroke-linecap:round; stroke-linejoin:round;"
 transform="translate(0 0) scale(1 1)">
</g>
<g style="fill:#000000; fill-opacity:0.0; 
stroke:#000000; stroke-width:0.000000; stroke-opacity:1; 
stroke-linecap:round; stroke-linejoin:round;">
</g>
<g style="fill:#000000; fill-opacity:0.0; 
stroke:#000000; stroke-width:50000.000000; stroke-opacity:1; 
stroke-linecap:round; stroke-linejoin:round;">
<path d="M37541200 116031974
L55270400 116027200
" />
<path d="M11455400 108483400
L35001200 108483400
" />
<path d="M10160000 107213400
L10160000 13157200
" />
<path d="M138176000 50085562
L138176000 108305600
" />
<path d="M11430000.000000 11887200.000000 A1270000.000000 1270000.000000 0.0 0 0 10160000.000000 13157200.000000" />
<path d="M55270400 116027200
L73279000 109474000
" />
<path d="M111633000 114300000
L125861221 123234894
" />
<path d="M53080000 8382000
L11430000 11887200
" />
<path d="M110520000 47394393
L110520000 9726126
" />
<path d="M125861221.076037 123234893.893547 A2396230.000000 2396230.000000 0.0 0 0 129286000.144545 122555000.090341" />
<path d="M93091000 109474000
L111633000 114300000
" />
<path d="M53080000 8382000
L109246193 8382000
" />
<path d="M110519999.688848 9726125.991868 A1310389.000000 1310389.000000 0.0 0 0 109246192.991174 8381999.319930" />
<path d="M110519999.783389 47394392.994339 A1311839.000000 1311839.000000 0.0 0 0 111794995.998876 48740000.040515" />
<path d="M136904137 48740000
L111794996 48740000
" />
<path d="M36271200.000000 109753400.000000 A1270000.000000 1270000.000000 0.0 0 0 35001200.000000 108483400.000000" />
<path d="M129286000 122555000
L138176000 108305600
" />
<path d="M36271200 109753400
L36271200 114761974
" />
<path d="M138176000.307745 50085562.008775 A1308767.000000 1308767.000000 0.0 0 0 136904138.012964 48739998.533696" />
<path d="M73279000 109474000
L93091000 109474000
" />
<path d="M36271200.000000 114761974.000000 A1270000.000000 1270000.000000 0.0 0 0 37541200.000000 116031974.000000" />
<path d="M10160000.000000 107213400.000000 A1295654.000000 1295654.000000 0.0 0 0 11455400.000000 108483400.000000" />
</g>
<g style="fill:#000000; fill-opacity:0.0; 
stroke:#000000; stroke-width:10007.000000; stroke-opacity:1; 
stroke-linecap:round; stroke-linejoin:round;">
<path d="M26837400 15598000
L26837400 28598000
" />
<path d="M13337400 15098000
L26337400 15098000
" />
<path d="M13337400 29088924
L26337400 29098000
" />
<path d="M12837400 15598000
L12837400 28588924
" />
<path d="M26837400.000000 15598000.000000 A500000.000000 500000.000000 0.0 0 0 26337400.000000 15098000.000000" />
<path d="M13337400.000000 15098000.000000 A500000.000000 500000.000000 0.0 0 0 12837400.000000 15598000.000000" />
<path d="M26337400.000000 29098000.000000 A500000.000000 500000.000000 0.0 0 0 26837400.000000 28598000.000000" />
<path d="M12837400.000000 28588924.000000 A500000.000000 500000.000000 0.0 0 0 13337400.000000 29088924.000000" />
<path d="M13337400 34148000
L26337400 34148000
" />
<path d="M13337400 48138924
L26337400 48148000
" />
<path d="M26837400 34648000
L26837400 47648000
" />
<path d="M12837400 34648000
L12837400 47638924
" />
<path d="M26337400.000000 48148000.000000 A500000.000000 500000.000000 0.0 0 0 26837400.000000 47648000.000000" />
<path d="M13337400.000000 34148000.000000 A500000.000000 500000.000000 0.0 0 0 12837400.000000 34648000.000000" />
<path d="M26837400.000000 34648000.000000 A500000.000000 500000.000000 0.0 0 0 26337400.000000 34148000.000000" />
<path d="M12837400.000000 47638924.000000 A500000.000000 500000.000000 0.0 0 0 13337400.000000 48138924.000000" />
<path d="M26837400 53698000
L26837400 66698000
" />
<path d="M12837400 53698000
L12837400 66688924
" />
<path d="M13337400 67188924
L26337400 67198000
" />
<path d="M13337400 53198000
L26337400 53198000
" />
<path d="M13337400.000000 53198000.000000 A500000.000000 500000.000000 0.0 0 0 12837400.000000 53698000.000000" />
<path d="M26337400.000000 67198000.000000 A500000.000000 500000.000000 0.0 0 0 26837400.000000 66698000.000000" />
<path d="M26837400.000000 53698000.000000 A500000.000000 500000.000000 0.0 0 0 26337400.000000 53198000.000000" />
<path d="M12837400.000000 66688924.000000 A500000.000000 500000.000000 0.0 0 0 13337400.000000 67188924.000000" />
<path d="M13337400 72248000
L26337400 72248000
" />
<path d="M12837400 72748000
L12837400 85738924
" />
<path d="M26837400 72748000
L26837400 85748000
" />
<path d="M13337400 86238924
L26337400 86248000
" />
<path d="M12837400.000000 85738924.000000 A500000.000000 500000.000000 0.0 0 0 13337400.000000 86238924.000000" />
<path d="M13337400.000000 72248000.000000 A500000.000000 500000.000000 0.0 0 0 12837400.000000 72748000.000000" />
<path d="M26837400.000000 72748000.000000 A500000.000000 500000.000000 0.0 0 0 26337400.000000 72248000.000000" />
<path d="M26337400.000000 86248000.000000 A500000.000000 500000.000000 0.0 0 0 26837400.000000 85748000.000000" />
<path d="M12837400 91798000
L12837400 104788924
" />
<path d="M13337400 105288924
L26337400 105298000
" />
<path d="M26837400 91798000
L26837400 104798000
" />
<path d="M13337400 91298000
L26337400 91298000
" />
<path d="M26837400.000000 91798000.000000 A500000.000000 500000.000000 0.0 0 0 26337400.000000 91298000.000000" />
<path d="M26337400.000000 105298000.000000 A500000.000000 500000.000000 0.0 0 0 26837400.000000 104798000.000000" />
<path d="M12837400.000000 104788924.000000 A500000.000000 500000.000000 0.0 0 0 13337400.000000 105288924.000000" />
<path d="M13337400.000000 91298000.000000 A500000.000000 500000.000000 0.0 0 0 12837400.000000 91798000.000000" />
<path d="M50688000 13820000
L50688000 26820000
" />
<path d="M37188000 13320000
L50188000 13320000
" />
<path d="M36688000 13820000
L36688000 26810924
" />
<path d="M37188000 27310924
L50188000 27320000
" />
<path d="M37188000.000000 13320000.000000 A500000.000000 500000.000000 0.0 0 0 36688000.000000 13820000.000000" />
<path d="M50688000.000000 13820000.000000 A500000.000000 500000.000000 0.0 0 0 50188000.000000 13320000.000000" />
<path d="M50188000.000000 27320000.000000 A500000.000000 500000.000000 0.0 0 0 50688000.000000 26820000.000000" />
<path d="M36688000.000000 26810924.000000 A500000.000000 500000.000000 0.0 0 0 37188000.000000 27310924.000000" />
<path d="M50688000 32870000
L50688000 45870000
" />
<path d="M37188000 46360924
L50188000 46370000
" />
<path d="M36688000 32870000
L36688000 45860924
" />
<path d="M37188000 32370000
L50188000 32370000
" />
<path d="M37188000.000000 32370000.000000 A500000.000000 500000.000000 0.0 0 0 36688000.000000 32870000.000000" />
<path d="M50688000.000000 32870000.000000 A500000.000000 500000.000000 0.0 0 0 50188000.000000 32370000.000000" />
<path d="M50188000.000000 46370000.000000 A500000.000000 500000.000000 0.0 0 0 50688000.000000 45870000.000000" />
<path d="M36688000.000000 45860924.000000 A500000.000000 500000.000000 0.0 0 0 37188000.000000 46360924.000000" />
<path d="M37188000 65410924
L50188000 65420000
" />
<path d="M50688000 51920000
L50688000 64920000
" />
<path d="M37188000 51420000
L50188000 51420000
" />
<path d="M36688000 51920000
L36688000 64910924
" />
<path d="M37188000.000000 51420000.000000 A500000.000000 500000.000000 0.0 0 0 36688000.000000 51920000.000000" />
<path d="M36688000.000000 64910924.000000 A500000.000000 500000.000000 0.0 0 0 37188000.000000 65410924.000000" />
<path d="M50188000.000000 65420000.000000 A500000.000000 500000.000000 0.0 0 0 50688000.000000 64920000.000000" />
<path d="M50688000.000000 51920000.000000 A500000.000000 500000.000000 0.0 0 0 50188000.000000 51420000.000000" />
<path d="M36688000 70970000
L36688000 83960924
" />
<path d="M50688000 70970000
L50688000 83970000
" />
<path d="M37188000 84460924
L50188000 84470000
" />
<path d="M37188000 70470000
L50188000 70470000
" />
<path d="M37188000.000000 70470000.000000 A500000.000000 500000.000000 0.0 0 0 36688000.000000 70970000.000000" />
<path d="M50188000.000000 84470000.000000 A500000.000000 500000.000000 0.0 0 0 50688000.000000 83970000.000000" />
<path d="M50688000.000000 70970000.000000 A500000.000000 500000.000000 0.0 0 0 50188000.000000 70470000.000000" />
<path d="M36688000.000000 83960924.000000 A500000.000000 500000.000000 0.0 0 0 37188000.000000 84460924.000000" />
<path d="M56238000 25024924
L69238000 25034000
" />
<path d="M55738000 11534000
L55738000 24524924
" />
<path d="M69738000 11534000
L69738000 24534000
" />
<path d="M56238000 11034000
L69238000 11034000
" />
<path d="M56238000.000000 11034000.000000 A500000.000000 500000.000000 0.0 0 0 55738000.000000 11534000.000000" />
<path d="M55738000.000000 24524924.000000 A500000.000000 500000.000000 0.0 0 0 56238000.000000 25024924.000000" />
<path d="M69238000.000000 25034000.000000 A500000.000000 500000.000000 0.0 0 0 69738000.000000 24534000.000000" />
<path d="M69738000.000000 11534000.000000 A500000.000000 500000.000000 0.0 0 0 69238000.000000 11034000.000000" />
<path d="M55738000 30584000
L55738000 43574924
" />
<path d="M56238000 30084000
L69238000 30084000
" />
<path d="M56238000 44074924
L69238000 44084000
" />
<path d="M69738000 30584000
L69738000 43584000
" />
<path d="M55738000.000000 43574924.000000 A500000.000000 500000.000000 0.0 0 0 56238000.000000 44074924.000000" />
<path d="M69238000.000000 44084000.000000 A500000.000000 500000.000000 0.0 0 0 69738000.000000 43584000.000000" />
<path d="M69738000.000000 30584000.000000 A500000.000000 500000.000000 0.0 0 0 69238000.000000 30084000.000000" />
<path d="M56238000.000000 30084000.000000 A500000.000000 500000.000000 0.0 0 0 55738000.000000 30584000.000000" />
<path d="M55738000 49634000
L55738000 62624924
" />
<path d="M56238000 63124924
L69238000 63134000
" />
<path d="M56238000 49134000
L69238000 49134000
" />
<path d="M69738000 49634000
L69738000 62634000
" />
<path d="M56238000.000000 49134000.000000 A500000.000000 500000.000000 0.0 0 0 55738000.000000 49634000.000000" />
<path d="M69738000.000000 49634000.000000 A500000.000000 500000.000000 0.0 0 0 69238000.000000 49134000.000000" />
<path d="M55738000.000000 62624924.000000 A500000.000000 500000.000000 0.0 0 0 56238000.000000 63124924.000000" />
<path d="M69238000.000000 63134000.000000 A500000.000000 500000.000000 0.0 0 0 69738000.000000 62634000.000000" />
<path d="M56238000 82174924
L69238000 82184000
" />
<path d="M69738000 68684000
L69738000 81684000
" />
<path d="M56238000 68184000
L69238000 68184000
" />
<path d="M55738000 68684000
L55738000 81674924
" />
<path d="M69738000.000000 68684000.000000 A500000.000000 500000.000000 0.0 0 0 69238000.000000 68184000.000000" />
<path d="M69238000.000000 82184000.000000 A500000.000000 500000.000000 0.0 0 0 69738000.000000 81684000.000000" />
<path d="M56238000.000000 68184000.000000 A500000.000000 500000.000000 0.0 0 0 55738000.000000 68684000.000000" />
<path d="M55738000.000000 81674924.000000 A500000.000000 500000.000000 0.0 0 0 56238000.000000 82174924.000000" />
<path d="M52457857 99277283
L64673861 94831021
" />
<path d="M65314717 95129857
L69760979 107345861
" />
<path d="M57243035 112424451
L69462143 107986717
" />
<path d="M52159021 99918139
L56602178 112125614
" />
<path d="M69462143.108141 107986717.297116 A500000.000000 500000.000000 0.0 0 0 69760979.297116 107345860.891859" />
<path d="M56602177.646214 112125614.128767 A500001.000000 500001.000000 0.0 0 0 57243035.128767 112424451.353786" />
<path d="M65314717.297116 95129856.891859 A500000.000000 500000.000000 0.0 0 0 64673860.891859 94831020.702884" />
<path d="M52457856.891859 99277282.702884 A500000.000000 500000.000000 0.0 0 0 52159020.702884 99918139.108141" />
<path d="M75288000 27310924
L88288000 27320000
" />
<path d="M88788000 13820000
L88788000 26820000
" />
<path d="M75288000 13320000
L88288000 13320000
" />
<path d="M74788000 13820000
L74788000 26810924
" />
<path d="M88788000.000000 13820000.000000 A500000.000000 500000.000000 0.0 0 0 88288000.000000 13320000.000000" />
<path d="M75288000.000000 13320000.000000 A500000.000000 500000.000000 0.0 0 0 74788000.000000 13820000.000000" />
<path d="M74788000.000000 26810924.000000 A500000.000000 500000.000000 0.0 0 0 75288000.000000 27310924.000000" />
<path d="M88288000.000000 27320000.000000 A500000.000000 500000.000000 0.0 0 0 88788000.000000 26820000.000000" />
<path d="M75288000 32370000
L88288000 32370000
" />
<path d="M74788000 32870000
L74788000 45860924
" />
<path d="M75288000 46360924
L88288000 46370000
" />
<path d="M88788000 32870000
L88788000 45870000
" />
<path d="M75288000.000000 32370000.000000 A500000.000000 500000.000000 0.0 0 0 74788000.000000 32870000.000000" />
<path d="M88288000.000000 46370000.000000 A500000.000000 500000.000000 0.0 0 0 88788000.000000 45870000.000000" />
<path d="M74788000.000000 45860924.000000 A500000.000000 500000.000000 0.0 0 0 75288000.000000 46360924.000000" />
<path d="M88788000.000000 32870000.000000 A500000.000000 500000.000000 0.0 0 0 88288000.000000 32370000.000000" />
<path d="M75288000 51420000
L88288000 51420000
" />
<path d="M74788000 51920000
L74788000 64910924
" />
<path d="M75288000 65410924
L88288000 65420000
" />
<path d="M88788000 51920000
L88788000 64920000
" />
<path d="M88288000.000000 65420000.000000 A500000.000000 500000.000000 0.0 0 0 88788000.000000 64920000.000000" />
<path d="M88788000.000000 51920000.000000 A500000.000000 500000.000000 0.0 0 0 88288000.000000 51420000.000000" />
<path d="M74788000.000000 64910924.000000 A500000.000000 500000.000000 0.0 0 0 75288000.000000 65410924.000000" />
<path d="M75288000.000000 51420000.000000 A500000.000000 500000.000000 0.0 0 0 74788000.000000 51920000.000000" />
<path d="M88788000 70970000
L88788000 83970000
" />
<path d="M75288000 84460924
L88288000 84470000
" />
<path d="M75288000 70470000
L88288000 70470000
" />
<path d="M74788000 70970000
L74788000 83960924
" />
<path d="M75288000.000000 70470000.000000 A500000.000000 500000.000000 0.0 0 0 74788000.000000 70970000.000000" />
<path d="M88288000.000000 84470000.000000 A500000.000000 500000.000000 0.0 0 0 88788000.000000 83970000.000000" />
<path d="M88788000.000000 70970000.000000 A500000.000000 500000.000000 0.0 0 0 88288000.000000 70470000.000000" />
<path d="M74788000.000000 83960924.000000 A500000.000000 500000.000000 0.0 0 0 75288000.000000 84460924.000000" />
<path d="M90058000 93322000
L90058000 106322000
" />
<path d="M76058000 93322000
L76058000 106312924
" />
<path d="M76558000 92822000
L89558000 92822000
" />
<path d="M76558000 106812924
L89558000 106822000
" />
<path d="M76558000.000000 92822000.000000 A500000.000000 500000.000000 0.0 0 0 76058000.000000 93322000.000000" />
<path d="M89558000.000000 106822000.000000 A500000.000000 500000.000000 0.0 0 0 90058000.000000 106322000.000000" />
<path d="M90058000.000000 93322000.000000 A500000.000000 500000.000000 0.0 0 0 89558000.000000 92822000.000000" />
<path d="M76058000.000000 106312924.000000 A500000.000000 500000.000000 0.0 0 0 76558000.000000 106812924.000000" />
<path d="M93838000 13820000
L93838000 26810924
" />
<path d="M94338000 13320000
L107338000 13320000
" />
<path d="M94338000 27310924
L107338000 27320000
" />
<path d="M107838000 13820000
L107838000 26820000
" />
<path d="M107338000.000000 27320000.000000 A500000.000000 500000.000000 0.0 0 0 107838000.000000 26820000.000000" />
<path d="M94338000.000000 13320000.000000 A500000.000000 500000.000000 0.0 0 0 93838000.000000 13820000.000000" />
<path d="M107838000.000000 13820000.000000 A500000.000000 500000.000000 0.0 0 0 107338000.000000 13320000.000000" />
<path d="M93838000.000000 26810924.000000 A500000.000000 500000.000000 0.0 0 0 94338000.000000 27310924.000000" />
<path d="M93838000 32870000
L93838000 45860924
" />
<path d="M107838000 32870000
L107838000 45870000
" />
<path d="M94338000 46360924
L107338000 46370000
" />
<path d="M94338000 32370000
L107338000 32370000
" />
<path d="M94338000.000000 32370000.000000 A500000.000000 500000.000000 0.0 0 0 93838000.000000 32870000.000000" />
<path d="M107838000.000000 32870000.000000 A500000.000000 500000.000000 0.0 0 0 107338000.000000 32370000.000000" />
<path d="M93838000.000000 45860924.000000 A500000.000000 500000.000000 0.0 0 0 94338000.000000 46360924.000000" />
<path d="M107338000.000000 46370000.000000 A500000.000000 500000.000000 0.0 0 0 107838000.000000 45870000.000000" />
<path d="M107838000 51920000
L107838000 64920000
" />
<path d="M93838000 51920000
L93838000 64910924
" />
<path d="M94338000 51420000
L107338000 51420000
" />
<path d="M94338000 65410924
L107338000 65420000
" />
<path d="M107838000.000000 51920000.000000 A500000.000000 500000.000000 0.0 0 0 107338000.000000 51420000.000000" />
<path d="M93838000.000000 64910924.000000 A500000.000000 500000.000000 0.0 0 0 94338000.000000 65410924.000000" />
<path d="M107338000.000000 65420000.000000 A500000.000000 500000.000000 0.0 0 0 107838000.000000 64920000.000000" />
<path d="M94338000.000000 51420000.000000 A500000.000000 500000.000000 0.0 0 0 93838000.000000 51920000.000000" />
<path d="M94338000 84460924
L107338000 84470000
" />
<path d="M107838000 70970000
L107838000 83970000
" />
<path d="M94338000 70470000
L107338000 70470000
" />
<path d="M93838000 70970000
L93838000 83960924
" />
<path d="M107838000.000000 70970000.000000 A500000.000000 500000.000000 0.0 0 0 107338000.000000 70470000.000000" />
<path d="M107338000.000000 84470000.000000 A500000.000000 500000.000000 0.0 0 0 107838000.000000 83970000.000000" />
<path d="M93838000.000000 83960924.000000 A500000.000000 500000.000000 0.0 0 0 94338000.000000 84460924.000000" />
<path d="M94338000.000000 70470000.000000 A500000.000000 500000.000000 0.0 0 0 93838000.000000 70970000.000000" />
<path d="M96649820 107572771
L109261469 110726562
" />
<path d="M100034531 93997438
L112648375 97142422
" />
<path d="M113012562 97748531
L109867578 110362375
" />
<path d="M99428422 94361625
L96285633 106966663
" />
<path d="M100034531.199555 93997437.199632 A500000.000000 500000.000000 0.0 0 0 99428421.906370 94361624.976656" />
<path d="M96285632.906370 106966662.976656 A500000.000000 500000.000000 0.0 0 0 96649820.035181 107572770.858895" />
<path d="M109261468.800445 110726562.800368 A500000.000000 500000.000000 0.0 0 0 109867578.093630 110362375.023344" />
<path d="M113012562.800368 97748531.199555 A500000.000000 500000.000000 0.0 0 0 112648375.023344 97142421.906370" />
<path d="M126888000 51920000
L126888000 64920000
" />
<path d="M112888000 51920000
L112888000 64910924
" />
<path d="M113388000 65410924
L126388000 65420000
" />
<path d="M113388000 51420000
L126388000 51420000
" />
<path d="M112888000.000000 64910924.000000 A500000.000000 500000.000000 0.0 0 0 113388000.000000 65410924.000000" />
<path d="M126888000.000000 51920000.000000 A500000.000000 500000.000000 0.0 0 0 126388000.000000 51420000.000000" />
<path d="M126388000.000000 65420000.000000 A500000.000000 500000.000000 0.0 0 0 126888000.000000 64920000.000000" />
<path d="M113388000.000000 51420000.000000 A500000.000000 500000.000000 0.0 0 0 112888000.000000 51920000.000000" />
<path d="M113388000 84460924
L126388000 84470000
" />
<path d="M113388000 70470000
L126388000 70470000
" />
<path d="M126888000 70970000
L126888000 83970000
" />
<path d="M112888000 70970000
L112888000 83960924
" />
<path d="M112888000.000000 83960924.000000 A500000.000000 500000.000000 0.0 0 0 113388000.000000 84460924.000000" />
<path d="M126888000.000000 70970000.000000 A500000.000000 500000.000000 0.0 0 0 126388000.000000 70470000.000000" />
<path d="M113388000.000000 70470000.000000 A500000.000000 500000.000000 0.0 0 0 112888000.000000 70970000.000000" />
<path d="M126388000.000000 84470000.000000 A500000.000000 500000.000000 0.0 0 0 126888000.000000 83970000.000000" />
<path d="M122476139 102030253
L115591998 113047181
" />
<path d="M115751062 113736165
L126770878 120632812
" />
<path d="M123165122 101871188
L134189747 108760139
" />
<path d="M134348812 109449122
L127459861 120473747
" />
<path d="M134348812.318648 109449122.199113 A500000.000000 500000.000000 0.0 0 0 134189747.199113 108760138.681352" />
<path d="M126770877.800887 120632812.318648 A500000.000000 500000.000000 0.0 0 0 127459861.318648 120473747.199113" />
<path d="M123165122.199113 101871187.681352 A500000.000000 500000.000000 0.0 0 0 122476138.681352 102030252.800887" />
<path d="M115591998.130749 113047181.081701 A500000.000000 500000.000000 0.0 0 0 115751062.081701 113736164.869251" />
<g >
</g>
<g >
</g>
<g >
</g>
<g >
</g>
<g >
</g>
<g >
</g>
<g >
</g>
<g >
</g>
<g >
</g>
<g >
</g>
<g >
</g>
<g >
</g>
<g >
</g>
<g >
</g>
<g >
</g>
<g >
</g>
<g >
</g>
<g >
</g>
<g >
</g>
<g >
</g>
<g >
</g>
<g >
</g>
<g >
</g>
<g >
</g>
<g >
</g>
<g >
</g>
<g >
</g>
<g >
</g>
<g >
</g>
<g >
</g>
<g style="fill:#000000; fill-opacity:0.0; 
stroke:#000000; stroke-width:10007.000000; stroke-opacity:1; 
stroke-linecap:round; stroke-linejoin:round;">
<g >
</g>
<g style="fill:#000000; fill-opacity:1.0; 
stroke:#000000; stroke-width:1.000000; stroke-opacity:1; 
stroke-linecap:round; stroke-linejoin:round;">
<path style="fill:#000000; fill-opacity:1.0; 
stroke:#000000; stroke-width:1.000000; stroke-opacity:1; 
stroke-linecap:round; stroke-linejoin:round;fill-rule:evenodd;"
d="M 109253385.000000,8382828.000000
109461954.000000,8406871.000000
109483450.000000,8411272.000000
109681074.000000,8470059.000000
109701482.000000,8478123.000000
109885910.000000,8570305.000000
109904609.000000,8581788.000000
110070238.000000,8704561.000000
110086661.000000,8719113.000000
110228490.000000,8868771.000000
110242141.000000,8885953.000000
110355847.000000,9057938.000000
110366308.000000,9077225.000000
110448456.000000,9266333.000000
110455413.000000,9287145.000000
110503506.000000,9487638.000000
110506747.000000,9509339.000000
110519765.000000,9722281.000000
110520000.000000,9729970.000000
110520000.000000,47392473.000000
110520117.000000,47396314.000000
110533601.000000,47616907.000000
110535220.000000,47627752.000000
110585933.000000,47839190.000000
110589404.000000,47849574.000000
110676029.000000,48049016.000000
110681251.000000,48058644.000000
110801159.000000,48240034.000000
110807971.000000,48248610.000000
110957527.000000,48406449.000000
110965718.000000,48413709.000000
111140395.000000,48543216.000000
111149723.000000,48548946.000000
111344213.000000,48646186.000000
111354393.000000,48650210.000000
111562808.000000,48712239.000000
111573521.000000,48714434.000000
111791403.000000,48739585.000000
111798614.000000,48740000.000000
136896881.000000,48739999.000000
136911351.000000,48740833.000000
137119907.000000,48764944.000000
137141433.000000,48769361.000000
137339018.000000,48828262.000000
137359447.000000,48836351.000000
137543799.000000,48928683.000000
137562513.000000,48940199.000000
137728018.000000,49063152.000000
137744447.000000,49077743.000000
137886075.000000,49227577.000000
137899719.000000,49244801.000000
138013168.000000,49416968.000000
138023612.000000,49436301.000000
138105421.000000,49625551.000000
138112348.000000,49646404.000000
138160036.000000,49846991.000000
138163235.000000,49868729.000000
138175782.000000,50081859.000000
138176000.000000,50089264.000000
138176000.000000,108269519.000000
138156901.000000,108336213.000000
129288121.000000,122551601.000000
129283667.000000,122558259.000000
129115558.000000,122793047.000000
129105565.000000,122805301.000000
128912021.000000,123014328.000000
128900571.000000,123025233.000000
128682380.000000,123208365.000000
128669655.000000,123217750.000000
128430250.000000,123372113.000000
128416450.000000,123379831.000000
128159584.000000,123503000.000000
128144925.000000,123508928.000000
127874670.000000,123598952.000000
127859385.000000,123602998.000000
127579978.000000,123658466.000000
127564307.000000,123660566.000000
127280147.000000,123680605.000000
127264335.000000,123680725.000000
126979909.000000,123665017.000000
126964207.000000,123663156.000000
126683993.000000,123611950.000000
126668648.000000,123608138.000000
126397040.000000,123522236.000000
126382293.000000,123516531.000000
126123599.000000,123397296.000000
126109683.000000,123389790.000000
125861222.000000,123234894.000000
125860872.000000,123234675.000000
111641182.000000,114305138.000000
111623648.000000,114297566.000000
107802071.000000,113302909.000000
115517117.000000,113302909.000000
115528045.000000,113416395.000000
115531729.000000,113432351.000000
115571655.000000,113539139.000000
115579346.000000,113553604.000000
115645547.000000,113646413.000000
115656719.000000,113658395.000000
115747898.000000,113733557.000000
115754544.000000,113738344.000000
126767360.000000,120630611.000000
126774652.000000,120634532.000000
126882136.000000,120683515.000000
126897797.000000,120688303.000000
127010245.000000,120707120.000000
127026606.000000,120707692.000000
127140094.000000,120696764.000000
127156048.000000,120693081.000000
127262836.000000,120653154.000000
127277297.000000,120645464.000000
127370109.000000,120579262.000000
127382091.000000,120568090.000000
127457235.000000,120476933.000000
127462050.000000,120470244.000000
134346629.000000,109452615.000000
134350521.000000,109445372.000000
134399515.000000,109337864.000000
134404303.000000,109322203.000000
134423120.000000,109209755.000000
134423692.000000,109193394.000000
134412764.000000,109079906.000000
134409081.000000,109063952.000000
134369154.000000,108957164.000000
134361464.000000,108942703.000000
134295262.000000,108849891.000000
134284090.000000,108837909.000000
134192933.000000,108762765.000000
134186244.000000,108757950.000000
123168615.000000,101873371.000000
123161372.000000,101869479.000000
123053864.000000,101820485.000000
123038203.000000,101815697.000000
122925755.000000,101796880.000000
122909394.000000,101796308.000000
122795906.000000,101807236.000000
122779952.000000,101810919.000000
122673164.000000,101850846.000000
122658703.000000,101858536.000000
122565891.000000,101924738.000000
122553909.000000,101935910.000000
122478765.000000,102027067.000000
122473950.000000,102033756.000000
115594181.000000,113043688.000000
115590289.000000,113050931.000000
115541296.000000,113158438.000000
115536507.000000,113174101.000000
115517689.000000,113286549.000000
115517117.000000,113302909.000000
107802071.000000,113302909.000000
93098776.000000,109476024.000000
93082967.000000,109474000.000000
73290019.000000,109474000.000000
73268644.000000,109477768.000000
55291258.000000,116019610.000000
55248206.000000,116027206.000000
37546724.000000,116031973.000000
37535708.000000,116031494.000000
37331647.000000,116013641.000000
37310018.000000,116009827.000000
37117482.000000,115958237.000000
37096843.000000,115950725.000000
36916190.000000,115866485.000000
36897169.000000,115855503.000000
36733886.000000,115741170.000000
36717062.000000,115727052.000000
36576122.000000,115586112.000000
36562004.000000,115569288.000000
36447671.000000,115406005.000000
36436689.000000,115386984.000000
36352449.000000,115206331.000000
36344937.000000,115185692.000000
36293347.000000,114993156.000000
36289533.000000,114971526.000000
36271679.000000,114767448.000000
36271200.000000,114756467.000000
36271200.000000,109756140.000000
36270962.000000,109750676.000000
36252385.000000,109538347.000000
36250482.000000,109527552.000000
36196033.000000,109324344.000000
36192287.000000,109314052.000000
36103378.000000,109123387.000000
36097895.000000,109113892.000000
35977235.000000,108941571.000000
35970179.000000,108933163.000000
35821437.000000,108784421.000000
35813029.000000,108777365.000000
35640708.000000,108656705.000000
35631213.000000,108651222.000000
35440548.000000,108562313.000000
35430256.000000,108558567.000000
35227048.000000,108504118.000000
35216253.000000,108502215.000000
35003924.000000,108483638.000000
34998460.000000,108483400.000000
11460838.000000,108483400.000000
11449995.000000,108482933.000000
11244063.000000,108465145.000000
11222697.000000,108461426.000000
11028143.000000,108409983.000000
11007731.000000,108402655.000000
10824880.000000,108318612.000000
10806026.000000,108307892.000000
10640300.000000,108193739.000000
10623566.000000,108179947.000000
10479864.000000,108039064.000000
10465742.000000,108022604.000000
10348333.000000,107859171.000000
10337243.000000,107840535.000000
10249592.000000,107659378.000000
10241861.000000,107639115.000000
10186577.000000,107445621.000000
10182436.000000,107424333.000000
10160707.000000,107220047.000000
10160000.000000,107206720.000000
10160000.000000,104784802.000000
12837400.000000,104784802.000000
12837938.000000,104793011.000000
12853359.000000,104910146.000000
12857597.000000,104925963.000000
12901227.000000,105031296.000000
12909413.000000,105045474.000000
12978824.000000,105135931.000000
12990393.000000,105147500.000000
13080850.000000,105216911.000000
13095028.000000,105225097.000000
13200361.000000,105268727.000000
13216178.000000,105272965.000000
13333336.000000,105288389.000000
13341498.000000,105288927.000000
26333254.000000,105297997.000000
26341512.000000,105297459.000000
26458622.000000,105282041.000000
26474439.000000,105277803.000000
26579772.000000,105234173.000000
26593950.000000,105225987.000000
26684407.000000,105156576.000000
26695976.000000,105145007.000000
26765387.000000,105054550.000000
26773573.000000,105040372.000000
26817203.000000,104935039.000000
26821441.000000,104919222.000000
26836862.000000,104802087.000000
26837400.000000,104793878.000000
26837400.000000,99782458.000000
52131130.000000,99782458.000000
52132557.000000,99798769.000000
52158126.000000,99914103.000000
52160434.000000,99922022.000000
56600766.000000,112121735.000000
56604085.000000,112129278.000000
56658632.000000,112234062.000000
56668030.000000,112247484.000000
56745050.000000,112331537.000000
56757597.000000,112342065.000000
56853747.000000,112403319.000000
56868595.000000,112410242.000000
56977320.000000,112444523.000000
56993455.000000,112447368.000000
57107355.000000,112452342.000000
57123664.000000,112450915.000000
57239023.000000,112425340.000000
57246897.000000,112423049.000000
69458247.000000,107988132.000000
69465822.000000,107984802.000000
69570591.000000,107930263.000000
69584013.000000,107920865.000000
69668065.000000,107843846.000000
69678593.000000,107831299.000000
69739848.000000,107735148.000000
69746772.000000,107720300.000000
69781052.000000,107611576.000000
69783897.000000,107595440.000000
69788870.000000,107481542.000000
69787443.000000,107465231.000000
69761874.000000,107349897.000000
69759566.000000,107341978.000000
69667178.000000,107088143.000000
96271792.000000,107088143.000000
96272078.000000,107104519.000000
96288930.000000,107217277.000000
96293441.000000,107233012.000000
96338904.000000,107337570.000000
96347338.000000,107351605.000000
96418312.000000,107440831.000000
96430090.000000,107452205.000000
96521739.000000,107520022.000000
96536058.000000,107527959.000000
96646003.000000,107571267.000000
96653801.000000,107573767.000000
109257450.000000,110725557.000000
109265585.000000,110727031.000000
109382949.000000,110740404.000000
109399325.000000,110740118.000000
109512077.000000,110723267.000000
109527828.000000,110718751.000000
109632376.000000,110673291.000000
109646410.000000,110664859.000000
109735637.000000,110593885.000000
109747014.000000,110582103.000000
109814827.000000,110490459.000000
109822766.000000,110476136.000000
109866070.000000,110366205.000000
109868575.000000,110358377.000000
113011565.000000,97752530.000000
113013028.000000,97744439.000000
113026404.000000,97627051.000000
113026118.000000,97610675.000000
113009267.000000,97497923.000000
113004751.000000,97482172.000000
112959291.000000,97377624.000000
112950859.000000,97363590.000000
112879885.000000,97274363.000000
112868103.000000,97262986.000000
112776459.000000,97195173.000000
112762136.000000,97187234.000000
112652205.000000,97143930.000000
112644377.000000,97141425.000000
100038530.000000,93998435.000000
100030439.000000,93996972.000000
99913051.000000,93983596.000000
99896675.000000,93983882.000000
99783923.000000,94000733.000000
99768172.000000,94005249.000000
99663624.000000,94050709.000000
99649590.000000,94059141.000000
99560363.000000,94130115.000000
99548986.000000,94141897.000000
99481173.000000,94233541.000000
99473234.000000,94247864.000000
99429930.000000,94357795.000000
99427425.000000,94365623.000000
96286633.000000,106962654.000000
96285166.000000,106970766.000000
96271792.000000,107088143.000000
69667178.000000,107088143.000000
69383521.000000,106308802.000000
76058000.000000,106308802.000000
76058538.000000,106317011.000000
76073959.000000,106434146.000000
76078197.000000,106449963.000000
76121827.000000,106555296.000000
76130013.000000,106569474.000000
76199424.000000,106659931.000000
76210993.000000,106671500.000000
76301450.000000,106740911.000000
76315628.000000,106749097.000000
76420961.000000,106792727.000000
76436778.000000,106796965.000000
76553936.000000,106812389.000000
76562098.000000,106812927.000000
89553854.000000,106821997.000000
89562112.000000,106821459.000000
89679222.000000,106806041.000000
89695039.000000,106801803.000000
89800372.000000,106758173.000000
89814550.000000,106749987.000000
89905007.000000,106680576.000000
89916576.000000,106669007.000000
89985987.000000,106578550.000000
89994173.000000,106564372.000000
90037803.000000,106459039.000000
90042041.000000,106443222.000000
90057462.000000,106326087.000000
90058000.000000,106317878.000000
90058000.000000,93326122.000000
90057462.000000,93317913.000000
90042041.000000,93200778.000000
90037803.000000,93184961.000000
89994173.000000,93079628.000000
89985987.000000,93065450.000000
89916576.000000,92974993.000000
89905007.000000,92963424.000000
89814550.000000,92894013.000000
89800372.000000,92885827.000000
89695039.000000,92842197.000000
89679222.000000,92837959.000000
89562087.000000,92822538.000000
89553878.000000,92822000.000000
76562122.000000,92822000.000000
76553913.000000,92822538.000000
76436778.000000,92837959.000000
76420961.000000,92842197.000000
76315628.000000,92885827.000000
76301450.000000,92894013.000000
76210993.000000,92963424.000000
76199424.000000,92974993.000000
76130013.000000,93065450.000000
76121827.000000,93079628.000000
76078197.000000,93184961.000000
76073959.000000,93200778.000000
76058538.000000,93317913.000000
76058000.000000,93326122.000000
76058000.000000,106308802.000000
69383521.000000,106308802.000000
65316129.000000,95133736.000000
65312810.000000,95126193.000000
65258263.000000,95021409.000000
65248865.000000,95007987.000000
65171846.000000,94923935.000000
65159299.000000,94913407.000000
65063148.000000,94852152.000000
65048300.000000,94845228.000000
64939576.000000,94810948.000000
64923440.000000,94808103.000000
64809542.000000,94803130.000000
64793231.000000,94804557.000000
64677897.000000,94830126.000000
64669978.000000,94832434.000000
52461736.000000,99275871.000000
52454193.000000,99279190.000000
52349409.000000,99333737.000000
52335987.000000,99343135.000000
52251935.000000,99420154.000000
52241407.000000,99432701.000000
52180152.000000,99528852.000000
52173228.000000,99543700.000000
52138948.000000,99652424.000000
52136103.000000,99668560.000000
52131130.000000,99782458.000000
26837400.000000,99782458.000000
26837400.000000,91802122.000000
26836862.000000,91793913.000000
26821441.000000,91676778.000000
26817203.000000,91660961.000000
26773573.000000,91555628.000000
26765387.000000,91541450.000000
26695976.000000,91450993.000000
26684407.000000,91439424.000000
26593950.000000,91370013.000000
26579772.000000,91361827.000000
26474439.000000,91318197.000000
26458622.000000,91313959.000000
26341487.000000,91298538.000000
26333278.000000,91298000.000000
13341522.000000,91298000.000000
13333313.000000,91298538.000000
13216178.000000,91313959.000000
13200361.000000,91318197.000000
13095028.000000,91361827.000000
13080850.000000,91370013.000000
12990393.000000,91439424.000000
12978824.000000,91450993.000000
12909413.000000,91541450.000000
12901227.000000,91555628.000000
12857597.000000,91660961.000000
12853359.000000,91676778.000000
12837938.000000,91793913.000000
12837400.000000,91802122.000000
12837400.000000,104784802.000000
10160000.000000,104784802.000000
10160000.000000,85734802.000000
12837400.000000,85734802.000000
12837938.000000,85743011.000000
12853359.000000,85860146.000000
12857597.000000,85875963.000000
12901227.000000,85981296.000000
12909413.000000,85995474.000000
12978824.000000,86085931.000000
12990393.000000,86097500.000000
13080850.000000,86166911.000000
13095028.000000,86175097.000000
13200361.000000,86218727.000000
13216178.000000,86222965.000000
13333336.000000,86238389.000000
13341498.000000,86238927.000000
26333254.000000,86247997.000000
26341512.000000,86247459.000000
26458622.000000,86232041.000000
26474439.000000,86227803.000000
26579772.000000,86184173.000000
26593950.000000,86175987.000000
26684407.000000,86106576.000000
26695976.000000,86095007.000000
26765387.000000,86004550.000000
26773573.000000,85990372.000000
26817203.000000,85885039.000000
26821441.000000,85869222.000000
26836862.000000,85752087.000000
26837400.000000,85743878.000000
26837400.000000,83956802.000000
36688000.000000,83956802.000000
36688538.000000,83965011.000000
36703959.000000,84082146.000000
36708197.000000,84097963.000000
36751827.000000,84203296.000000
36760013.000000,84217474.000000
36829424.000000,84307931.000000
36840993.000000,84319500.000000
36931450.000000,84388911.000000
36945628.000000,84397097.000000
37050961.000000,84440727.000000
37066778.000000,84444965.000000
37183936.000000,84460389.000000
37192098.000000,84460927.000000
50183854.000000,84469997.000000
50192112.000000,84469459.000000
50309222.000000,84454041.000000
50325039.000000,84449803.000000
50430372.000000,84406173.000000
50444550.000000,84397987.000000
50535007.000000,84328576.000000
50546576.000000,84317007.000000
50615987.000000,84226550.000000
50624173.000000,84212372.000000
50667803.000000,84107039.000000
50672041.000000,84091222.000000
50687462.000000,83974087.000000
50688000.000000,83965878.000000
50688000.000000,83956802.000000
74788000.000000,83956802.000000
74788538.000000,83965011.000000
74803959.000000,84082146.000000
74808197.000000,84097963.000000
74851827.000000,84203296.000000
74860013.000000,84217474.000000
74929424.000000,84307931.000000
74940993.000000,84319500.000000
75031450.000000,84388911.000000
75045628.000000,84397097.000000
75150961.000000,84440727.000000
75166778.000000,84444965.000000
75283936.000000,84460389.000000
75292098.000000,84460927.000000
88283854.000000,84469997.000000
88292112.000000,84469459.000000
88409222.000000,84454041.000000
88425039.000000,84449803.000000
88530372.000000,84406173.000000
88544550.000000,84397987.000000
88635007.000000,84328576.000000
88646576.000000,84317007.000000
88715987.000000,84226550.000000
88724173.000000,84212372.000000
88767803.000000,84107039.000000
88772041.000000,84091222.000000
88787462.000000,83974087.000000
88788000.000000,83965878.000000
88788000.000000,83956802.000000
93838000.000000,83956802.000000
93838538.000000,83965011.000000
93853959.000000,84082146.000000
93858197.000000,84097963.000000
93901827.000000,84203296.000000
93910013.000000,84217474.000000
93979424.000000,84307931.000000
93990993.000000,84319500.000000
94081450.000000,84388911.000000
94095628.000000,84397097.000000
94200961.000000,84440727.000000
94216778.000000,84444965.000000
94333936.000000,84460389.000000
94342098.000000,84460927.000000
107333854.000000,84469997.000000
107342112.000000,84469459.000000
107459222.000000,84454041.000000
107475039.000000,84449803.000000
107580372.000000,84406173.000000
107594550.000000,84397987.000000
107685007.000000,84328576.000000
107696576.000000,84317007.000000
107765987.000000,84226550.000000
107774173.000000,84212372.000000
107817803.000000,84107039.000000
107822041.000000,84091222.000000
107837462.000000,83974087.000000
107838000.000000,83965878.000000
107838000.000000,83956802.000000
112888000.000000,83956802.000000
112888538.000000,83965011.000000
112903959.000000,84082146.000000
112908197.000000,84097963.000000
112951827.000000,84203296.000000
112960013.000000,84217474.000000
113029424.000000,84307931.000000
113040993.000000,84319500.000000
113131450.000000,84388911.000000
113145628.000000,84397097.000000
113250961.000000,84440727.000000
113266778.000000,84444965.000000
113383936.000000,84460389.000000
113392098.000000,84460927.000000
126383854.000000,84469997.000000
126392112.000000,84469459.000000
126509222.000000,84454041.000000
126525039.000000,84449803.000000
126630372.000000,84406173.000000
126644550.000000,84397987.000000
126735007.000000,84328576.000000
126746576.000000,84317007.000000
126815987.000000,84226550.000000
126824173.000000,84212372.000000
126867803.000000,84107039.000000
126872041.000000,84091222.000000
126887462.000000,83974087.000000
126888000.000000,83965878.000000
126888000.000000,70974122.000000
126887462.000000,70965913.000000
126872041.000000,70848778.000000
126867803.000000,70832961.000000
126824173.000000,70727628.000000
126815987.000000,70713450.000000
126746576.000000,70622993.000000
126735007.000000,70611424.000000
126644550.000000,70542013.000000
126630372.000000,70533827.000000
126525039.000000,70490197.000000
126509222.000000,70485959.000000
126392087.000000,70470538.000000
126383878.000000,70470000.000000
113392122.000000,70470000.000000
113383913.000000,70470538.000000
113266778.000000,70485959.000000
113250961.000000,70490197.000000
113145628.000000,70533827.000000
113131450.000000,70542013.000000
113040993.000000,70611424.000000
113029424.000000,70622993.000000
112960013.000000,70713450.000000
112951827.000000,70727628.000000
112908197.000000,70832961.000000
112903959.000000,70848778.000000
112888538.000000,70965913.000000
112888000.000000,70974122.000000
112888000.000000,83956802.000000
107838000.000000,83956802.000000
107838000.000000,70974122.000000
107837462.000000,70965913.000000
107822041.000000,70848778.000000
107817803.000000,70832961.000000
107774173.000000,70727628.000000
107765987.000000,70713450.000000
107696576.000000,70622993.000000
107685007.000000,70611424.000000
107594550.000000,70542013.000000
107580372.000000,70533827.000000
107475039.000000,70490197.000000
107459222.000000,70485959.000000
107342087.000000,70470538.000000
107333878.000000,70470000.000000
94342122.000000,70470000.000000
94333913.000000,70470538.000000
94216778.000000,70485959.000000
94200961.000000,70490197.000000
94095628.000000,70533827.000000
94081450.000000,70542013.000000
93990993.000000,70611424.000000
93979424.000000,70622993.000000
93910013.000000,70713450.000000
93901827.000000,70727628.000000
93858197.000000,70832961.000000
93853959.000000,70848778.000000
93838538.000000,70965913.000000
93838000.000000,70974122.000000
93838000.000000,83956802.000000
88788000.000000,83956802.000000
88788000.000000,70974122.000000
88787462.000000,70965913.000000
88772041.000000,70848778.000000
88767803.000000,70832961.000000
88724173.000000,70727628.000000
88715987.000000,70713450.000000
88646576.000000,70622993.000000
88635007.000000,70611424.000000
88544550.000000,70542013.000000
88530372.000000,70533827.000000
88425039.000000,70490197.000000
88409222.000000,70485959.000000
88292087.000000,70470538.000000
88283878.000000,70470000.000000
75292122.000000,70470000.000000
75283913.000000,70470538.000000
75166778.000000,70485959.000000
75150961.000000,70490197.000000
75045628.000000,70533827.000000
75031450.000000,70542013.000000
74940993.000000,70611424.000000
74929424.000000,70622993.000000
74860013.000000,70713450.000000
74851827.000000,70727628.000000
74808197.000000,70832961.000000
74803959.000000,70848778.000000
74788538.000000,70965913.000000
74788000.000000,70974122.000000
74788000.000000,83956802.000000
50688000.000000,83956802.000000
50688000.000000,81670802.000000
55738000.000000,81670802.000000
55738538.000000,81679011.000000
55753959.000000,81796146.000000
55758197.000000,81811963.000000
55801827.000000,81917296.000000
55810013.000000,81931474.000000
55879424.000000,82021931.000000
55890993.000000,82033500.000000
55981450.000000,82102911.000000
55995628.000000,82111097.000000
56100961.000000,82154727.000000
56116778.000000,82158965.000000
56233936.000000,82174389.000000
56242098.000000,82174927.000000
69233854.000000,82183997.000000
69242112.000000,82183459.000000
69359222.000000,82168041.000000
69375039.000000,82163803.000000
69480372.000000,82120173.000000
69494550.000000,82111987.000000
69585007.000000,82042576.000000
69596576.000000,82031007.000000
69665987.000000,81940550.000000
69674173.000000,81926372.000000
69717803.000000,81821039.000000
69722041.000000,81805222.000000
69737462.000000,81688087.000000
69738000.000000,81679878.000000
69738000.000000,68688122.000000
69737462.000000,68679913.000000
69722041.000000,68562778.000000
69717803.000000,68546961.000000
69674173.000000,68441628.000000
69665987.000000,68427450.000000
69596576.000000,68336993.000000
69585007.000000,68325424.000000
69494550.000000,68256013.000000
69480372.000000,68247827.000000
69375039.000000,68204197.000000
69359222.000000,68199959.000000
69242087.000000,68184538.000000
69233878.000000,68184000.000000
56242122.000000,68184000.000000
56233913.000000,68184538.000000
56116778.000000,68199959.000000
56100961.000000,68204197.000000
55995628.000000,68247827.000000
55981450.000000,68256013.000000
55890993.000000,68325424.000000
55879424.000000,68336993.000000
55810013.000000,68427450.000000
55801827.000000,68441628.000000
55758197.000000,68546961.000000
55753959.000000,68562778.000000
55738538.000000,68679913.000000
55738000.000000,68688122.000000
55738000.000000,81670802.000000
50688000.000000,81670802.000000
50688000.000000,70974122.000000
50687462.000000,70965913.000000
50672041.000000,70848778.000000
50667803.000000,70832961.000000
50624173.000000,70727628.000000
50615987.000000,70713450.000000
50546576.000000,70622993.000000
50535007.000000,70611424.000000
50444550.000000,70542013.000000
50430372.000000,70533827.000000
50325039.000000,70490197.000000
50309222.000000,70485959.000000
50192087.000000,70470538.000000
50183878.000000,70470000.000000
37192122.000000,70470000.000000
37183913.000000,70470538.000000
37066778.000000,70485959.000000
37050961.000000,70490197.000000
36945628.000000,70533827.000000
36931450.000000,70542013.000000
36840993.000000,70611424.000000
36829424.000000,70622993.000000
36760013.000000,70713450.000000
36751827.000000,70727628.000000
36708197.000000,70832961.000000
36703959.000000,70848778.000000
36688538.000000,70965913.000000
36688000.000000,70974122.000000
36688000.000000,83956802.000000
26837400.000000,83956802.000000
26837400.000000,72752122.000000
26836862.000000,72743913.000000
26821441.000000,72626778.000000
26817203.000000,72610961.000000
26773573.000000,72505628.000000
26765387.000000,72491450.000000
26695976.000000,72400993.000000
26684407.000000,72389424.000000
26593950.000000,72320013.000000
26579772.000000,72311827.000000
26474439.000000,72268197.000000
26458622.000000,72263959.000000
26341487.000000,72248538.000000
26333278.000000,72248000.000000
13341522.000000,72248000.000000
13333313.000000,72248538.000000
13216178.000000,72263959.000000
13200361.000000,72268197.000000
13095028.000000,72311827.000000
13080850.000000,72320013.000000
12990393.000000,72389424.000000
12978824.000000,72400993.000000
12909413.000000,72491450.000000
12901227.000000,72505628.000000
12857597.000000,72610961.000000
12853359.000000,72626778.000000
12837938.000000,72743913.000000
12837400.000000,72752122.000000
12837400.000000,85734802.000000
10160000.000000,85734802.000000
10160000.000000,66684802.000000
12837400.000000,66684802.000000
12837938.000000,66693011.000000
12853359.000000,66810146.000000
12857597.000000,66825963.000000
12901227.000000,66931296.000000
12909413.000000,66945474.000000
12978824.000000,67035931.000000
12990393.000000,67047500.000000
13080850.000000,67116911.000000
13095028.000000,67125097.000000
13200361.000000,67168727.000000
13216178.000000,67172965.000000
13333336.000000,67188389.000000
13341498.000000,67188927.000000
26333254.000000,67197997.000000
26341512.000000,67197459.000000
26458622.000000,67182041.000000
26474439.000000,67177803.000000
26579772.000000,67134173.000000
26593950.000000,67125987.000000
26684407.000000,67056576.000000
26695976.000000,67045007.000000
26765387.000000,66954550.000000
26773573.000000,66940372.000000
26817203.000000,66835039.000000
26821441.000000,66819222.000000
26836862.000000,66702087.000000
26837400.000000,66693878.000000
26837400.000000,64906802.000000
36688000.000000,64906802.000000
36688538.000000,64915011.000000
36703959.000000,65032146.000000
36708197.000000,65047963.000000
36751827.000000,65153296.000000
36760013.000000,65167474.000000
36829424.000000,65257931.000000
36840993.000000,65269500.000000
36931450.000000,65338911.000000
36945628.000000,65347097.000000
37050961.000000,65390727.000000
37066778.000000,65394965.000000
37183936.000000,65410389.000000
37192098.000000,65410927.000000
50183854.000000,65419997.000000
50192112.000000,65419459.000000
50309222.000000,65404041.000000
50325039.000000,65399803.000000
50430372.000000,65356173.000000
50444550.000000,65347987.000000
50535007.000000,65278576.000000
50546576.000000,65267007.000000
50615987.000000,65176550.000000
50624173.000000,65162372.000000
50667803.000000,65057039.000000
50672041.000000,65041222.000000
50687462.000000,64924087.000000
50688000.000000,64915878.000000
50688000.000000,64906802.000000
74788000.000000,64906802.000000
74788538.000000,64915011.000000
74803959.000000,65032146.000000
74808197.000000,65047963.000000
74851827.000000,65153296.000000
74860013.000000,65167474.000000
74929424.000000,65257931.000000
74940993.000000,65269500.000000
75031450.000000,65338911.000000
75045628.000000,65347097.000000
75150961.000000,65390727.000000
75166778.000000,65394965.000000
75283936.000000,65410389.000000
75292098.000000,65410927.000000
88283854.000000,65419997.000000
88292112.000000,65419459.000000
88409222.000000,65404041.000000
88425039.000000,65399803.000000
88530372.000000,65356173.000000
88544550.000000,65347987.000000
88635007.000000,65278576.000000
88646576.000000,65267007.000000
88715987.000000,65176550.000000
88724173.000000,65162372.000000
88767803.000000,65057039.000000
88772041.000000,65041222.000000
88787462.000000,64924087.000000
88788000.000000,64915878.000000
88788000.000000,64906802.000000
93838000.000000,64906802.000000
93838538.000000,64915011.000000
93853959.000000,65032146.000000
93858197.000000,65047963.000000
93901827.000000,65153296.000000
93910013.000000,65167474.000000
93979424.000000,65257931.000000
93990993.000000,65269500.000000
94081450.000000,65338911.000000
94095628.000000,65347097.000000
94200961.000000,65390727.000000
94216778.000000,65394965.000000
94333936.000000,65410389.000000
94342098.000000,65410927.000000
107333854.000000,65419997.000000
107342112.000000,65419459.000000
107459222.000000,65404041.000000
107475039.000000,65399803.000000
107580372.000000,65356173.000000
107594550.000000,65347987.000000
107685007.000000,65278576.000000
107696576.000000,65267007.000000
107765987.000000,65176550.000000
107774173.000000,65162372.000000
107817803.000000,65057039.000000
107822041.000000,65041222.000000
107837462.000000,64924087.000000
107838000.000000,64915878.000000
107838000.000000,64906802.000000
112888000.000000,64906802.000000
112888538.000000,64915011.000000
112903959.000000,65032146.000000
112908197.000000,65047963.000000
112951827.000000,65153296.000000
112960013.000000,65167474.000000
113029424.000000,65257931.000000
113040993.000000,65269500.000000
113131450.000000,65338911.000000
113145628.000000,65347097.000000
113250961.000000,65390727.000000
113266778.000000,65394965.000000
113383936.000000,65410389.000000
113392098.000000,65410927.000000
126383854.000000,65419997.000000
126392112.000000,65419459.000000
126509222.000000,65404041.000000
126525039.000000,65399803.000000
126630372.000000,65356173.000000
126644550.000000,65347987.000000
126735007.000000,65278576.000000
126746576.000000,65267007.000000
126815987.000000,65176550.000000
126824173.000000,65162372.000000
126867803.000000,65057039.000000
126872041.000000,65041222.000000
126887462.000000,64924087.000000
126888000.000000,64915878.000000
126888000.000000,51924122.000000
126887462.000000,51915913.000000
126872041.000000,51798778.000000
126867803.000000,51782961.000000
126824173.000000,51677628.000000
126815987.000000,51663450.000000
126746576.000000,51572993.000000
126735007.000000,51561424.000000
126644550.000000,51492013.000000
126630372.000000,51483827.000000
126525039.000000,51440197.000000
126509222.000000,51435959.000000
126392087.000000,51420538.000000
126383878.000000,51420000.000000
113392122.000000,51420000.000000
113383913.000000,51420538.000000
113266778.000000,51435959.000000
113250961.000000,51440197.000000
113145628.000000,51483827.000000
113131450.000000,51492013.000000
113040993.000000,51561424.000000
113029424.000000,51572993.000000
112960013.000000,51663450.000000
112951827.000000,51677628.000000
112908197.000000,51782961.000000
112903959.000000,51798778.000000
112888538.000000,51915913.000000
112888000.000000,51924122.000000
112888000.000000,64906802.000000
107838000.000000,64906802.000000
107838000.000000,51924122.000000
107837462.000000,51915913.000000
107822041.000000,51798778.000000
107817803.000000,51782961.000000
107774173.000000,51677628.000000
107765987.000000,51663450.000000
107696576.000000,51572993.000000
107685007.000000,51561424.000000
107594550.000000,51492013.000000
107580372.000000,51483827.000000
107475039.000000,51440197.000000
107459222.000000,51435959.000000
107342087.000000,51420538.000000
107333878.000000,51420000.000000
94342122.000000,51420000.000000
94333913.000000,51420538.000000
94216778.000000,51435959.000000
94200961.000000,51440197.000000
94095628.000000,51483827.000000
94081450.000000,51492013.000000
93990993.000000,51561424.000000
93979424.000000,51572993.000000
93910013.000000,51663450.000000
93901827.000000,51677628.000000
93858197.000000,51782961.000000
93853959.000000,51798778.000000
93838538.000000,51915913.000000
93838000.000000,51924122.000000
93838000.000000,64906802.000000
88788000.000000,64906802.000000
88788000.000000,51924122.000000
88787462.000000,51915913.000000
88772041.000000,51798778.000000
88767803.000000,51782961.000000
88724173.000000,51677628.000000
88715987.000000,51663450.000000
88646576.000000,51572993.000000
88635007.000000,51561424.000000
88544550.000000,51492013.000000
88530372.000000,51483827.000000
88425039.000000,51440197.000000
88409222.000000,51435959.000000
88292087.000000,51420538.000000
88283878.000000,51420000.000000
75292122.000000,51420000.000000
75283913.000000,51420538.000000
75166778.000000,51435959.000000
75150961.000000,51440197.000000
75045628.000000,51483827.000000
75031450.000000,51492013.000000
74940993.000000,51561424.000000
74929424.000000,51572993.000000
74860013.000000,51663450.000000
74851827.000000,51677628.000000
74808197.000000,51782961.000000
74803959.000000,51798778.000000
74788538.000000,51915913.000000
74788000.000000,51924122.000000
74788000.000000,64906802.000000
50688000.000000,64906802.000000
50688000.000000,62620802.000000
55738000.000000,62620802.000000
55738538.000000,62629011.000000
55753959.000000,62746146.000000
55758197.000000,62761963.000000
55801827.000000,62867296.000000
55810013.000000,62881474.000000
55879424.000000,62971931.000000
55890993.000000,62983500.000000
55981450.000000,63052911.000000
55995628.000000,63061097.000000
56100961.000000,63104727.000000
56116778.000000,63108965.000000
56233936.000000,63124389.000000
56242098.000000,63124927.000000
69233854.000000,63133997.000000
69242112.000000,63133459.000000
69359222.000000,63118041.000000
69375039.000000,63113803.000000
69480372.000000,63070173.000000
69494550.000000,63061987.000000
69585007.000000,62992576.000000
69596576.000000,62981007.000000
69665987.000000,62890550.000000
69674173.000000,62876372.000000
69717803.000000,62771039.000000
69722041.000000,62755222.000000
69737462.000000,62638087.000000
69738000.000000,62629878.000000
69738000.000000,49638122.000000
69737462.000000,49629913.000000
69722041.000000,49512778.000000
69717803.000000,49496961.000000
69674173.000000,49391628.000000
69665987.000000,49377450.000000
69596576.000000,49286993.000000
69585007.000000,49275424.000000
69494550.000000,49206013.000000
69480372.000000,49197827.000000
69375039.000000,49154197.000000
69359222.000000,49149959.000000
69242087.000000,49134538.000000
69233878.000000,49134000.000000
56242122.000000,49134000.000000
56233913.000000,49134538.000000
56116778.000000,49149959.000000
56100961.000000,49154197.000000
55995628.000000,49197827.000000
55981450.000000,49206013.000000
55890993.000000,49275424.000000
55879424.000000,49286993.000000
55810013.000000,49377450.000000
55801827.000000,49391628.000000
55758197.000000,49496961.000000
55753959.000000,49512778.000000
55738538.000000,49629913.000000
55738000.000000,49638122.000000
55738000.000000,62620802.000000
50688000.000000,62620802.000000
50688000.000000,51924122.000000
50687462.000000,51915913.000000
50672041.000000,51798778.000000
50667803.000000,51782961.000000
50624173.000000,51677628.000000
50615987.000000,51663450.000000
50546576.000000,51572993.000000
50535007.000000,51561424.000000
50444550.000000,51492013.000000
50430372.000000,51483827.000000
50325039.000000,51440197.000000
50309222.000000,51435959.000000
50192087.000000,51420538.000000
50183878.000000,51420000.000000
37192122.000000,51420000.000000
37183913.000000,51420538.000000
37066778.000000,51435959.000000
37050961.000000,51440197.000000
36945628.000000,51483827.000000
36931450.000000,51492013.000000
36840993.000000,51561424.000000
36829424.000000,51572993.000000
36760013.000000,51663450.000000
36751827.000000,51677628.000000
36708197.000000,51782961.000000
36703959.000000,51798778.000000
36688538.000000,51915913.000000
36688000.000000,51924122.000000
36688000.000000,64906802.000000
26837400.000000,64906802.000000
26837400.000000,53702122.000000
26836862.000000,53693913.000000
26821441.000000,53576778.000000
26817203.000000,53560961.000000
26773573.000000,53455628.000000
26765387.000000,53441450.000000
26695976.000000,53350993.000000
26684407.000000,53339424.000000
26593950.000000,53270013.000000
26579772.000000,53261827.000000
26474439.000000,53218197.000000
26458622.000000,53213959.000000
26341487.000000,53198538.000000
26333278.000000,53198000.000000
13341522.000000,53198000.000000
13333313.000000,53198538.000000
13216178.000000,53213959.000000
13200361.000000,53218197.000000
13095028.000000,53261827.000000
13080850.000000,53270013.000000
12990393.000000,53339424.000000
12978824.000000,53350993.000000
12909413.000000,53441450.000000
12901227.000000,53455628.000000
12857597.000000,53560961.000000
12853359.000000,53576778.000000
12837938.000000,53693913.000000
12837400.000000,53702122.000000
12837400.000000,66684802.000000
10160000.000000,66684802.000000
10160000.000000,47634802.000000
12837400.000000,47634802.000000
12837938.000000,47643011.000000
12853359.000000,47760146.000000
12857597.000000,47775963.000000
12901227.000000,47881296.000000
12909413.000000,47895474.000000
12978824.000000,47985931.000000
12990393.000000,47997500.000000
13080850.000000,48066911.000000
13095028.000000,48075097.000000
13200361.000000,48118727.000000
13216178.000000,48122965.000000
13333336.000000,48138389.000000
13341498.000000,48138927.000000
26333254.000000,48147997.000000
26341512.000000,48147459.000000
26458622.000000,48132041.000000
26474439.000000,48127803.000000
26579772.000000,48084173.000000
26593950.000000,48075987.000000
26684407.000000,48006576.000000
26695976.000000,47995007.000000
26765387.000000,47904550.000000
26773573.000000,47890372.000000
26817203.000000,47785039.000000
26821441.000000,47769222.000000
26836862.000000,47652087.000000
26837400.000000,47643878.000000
26837400.000000,45856802.000000
36688000.000000,45856802.000000
36688538.000000,45865011.000000
36703959.000000,45982146.000000
36708197.000000,45997963.000000
36751827.000000,46103296.000000
36760013.000000,46117474.000000
36829424.000000,46207931.000000
36840993.000000,46219500.000000
36931450.000000,46288911.000000
36945628.000000,46297097.000000
37050961.000000,46340727.000000
37066778.000000,46344965.000000
37183936.000000,46360389.000000
37192098.000000,46360927.000000
50183854.000000,46369997.000000
50192112.000000,46369459.000000
50309222.000000,46354041.000000
50325039.000000,46349803.000000
50430372.000000,46306173.000000
50444550.000000,46297987.000000
50535007.000000,46228576.000000
50546576.000000,46217007.000000
50615987.000000,46126550.000000
50624173.000000,46112372.000000
50667803.000000,46007039.000000
50672041.000000,45991222.000000
50687462.000000,45874087.000000
50688000.000000,45865878.000000
50688000.000000,45856802.000000
74788000.000000,45856802.000000
74788538.000000,45865011.000000
74803959.000000,45982146.000000
74808197.000000,45997963.000000
74851827.000000,46103296.000000
74860013.000000,46117474.000000
74929424.000000,46207931.000000
74940993.000000,46219500.000000
75031450.000000,46288911.000000
75045628.000000,46297097.000000
75150961.000000,46340727.000000
75166778.000000,46344965.000000
75283936.000000,46360389.000000
75292098.000000,46360927.000000
88283854.000000,46369997.000000
88292112.000000,46369459.000000
88409222.000000,46354041.000000
88425039.000000,46349803.000000
88530372.000000,46306173.000000
88544550.000000,46297987.000000
88635007.000000,46228576.000000
88646576.000000,46217007.000000
88715987.000000,46126550.000000
88724173.000000,46112372.000000
88767803.000000,46007039.000000
88772041.000000,45991222.000000
88787462.000000,45874087.000000
88788000.000000,45865878.000000
88788000.000000,45856802.000000
93838000.000000,45856802.000000
93838538.000000,45865011.000000
93853959.000000,45982146.000000
93858197.000000,45997963.000000
93901827.000000,46103296.000000
93910013.000000,46117474.000000
93979424.000000,46207931.000000
93990993.000000,46219500.000000
94081450.000000,46288911.000000
94095628.000000,46297097.000000
94200961.000000,46340727.000000
94216778.000000,46344965.000000
94333936.000000,46360389.000000
94342098.000000,46360927.000000
107333854.000000,46369997.000000
107342112.000000,46369459.000000
107459222.000000,46354041.000000
107475039.000000,46349803.000000
107580372.000000,46306173.000000
107594550.000000,46297987.000000
107685007.000000,46228576.000000
107696576.000000,46217007.000000
107765987.000000,46126550.000000
107774173.000000,46112372.000000
107817803.000000,46007039.000000
107822041.000000,45991222.000000
107837462.000000,45874087.000000
107838000.000000,45865878.000000
107838000.000000,32874122.000000
107837462.000000,32865913.000000
107822041.000000,32748778.000000
107817803.000000,32732961.000000
107774173.000000,32627628.000000
107765987.000000,32613450.000000
107696576.000000,32522993.000000
107685007.000000,32511424.000000
107594550.000000,32442013.000000
107580372.000000,32433827.000000
107475039.000000,32390197.000000
107459222.000000,32385959.000000
107342087.000000,32370538.000000
107333878.000000,32370000.000000
94342122.000000,32370000.000000
94333913.000000,32370538.000000
94216778.000000,32385959.000000
94200961.000000,32390197.000000
94095628.000000,32433827.000000
94081450.000000,32442013.000000
93990993.000000,32511424.000000
93979424.000000,32522993.000000
93910013.000000,32613450.000000
93901827.000000,32627628.000000
93858197.000000,32732961.000000
93853959.000000,32748778.000000
93838538.000000,32865913.000000
93838000.000000,32874122.000000
93838000.000000,45856802.000000
88788000.000000,45856802.000000
88788000.000000,32874122.000000
88787462.000000,32865913.000000
88772041.000000,32748778.000000
88767803.000000,32732961.000000
88724173.000000,32627628.000000
88715987.000000,32613450.000000
88646576.000000,32522993.000000
88635007.000000,32511424.000000
88544550.000000,32442013.000000
88530372.000000,32433827.000000
88425039.000000,32390197.000000
88409222.000000,32385959.000000
88292087.000000,32370538.000000
88283878.000000,32370000.000000
75292122.000000,32370000.000000
75283913.000000,32370538.000000
75166778.000000,32385959.000000
75150961.000000,32390197.000000
75045628.000000,32433827.000000
75031450.000000,32442013.000000
74940993.000000,32511424.000000
74929424.000000,32522993.000000
74860013.000000,32613450.000000
74851827.000000,32627628.000000
74808197.000000,32732961.000000
74803959.000000,32748778.000000
74788538.000000,32865913.000000
74788000.000000,32874122.000000
74788000.000000,45856802.000000
50688000.000000,45856802.000000
50688000.000000,43570802.000000
55738000.000000,43570802.000000
55738538.000000,43579011.000000
55753959.000000,43696146.000000
55758197.000000,43711963.000000
55801827.000000,43817296.000000
55810013.000000,43831474.000000
55879424.000000,43921931.000000
55890993.000000,43933500.000000
55981450.000000,44002911.000000
55995628.000000,44011097.000000
56100961.000000,44054727.000000
56116778.000000,44058965.000000
56233936.000000,44074389.000000
56242098.000000,44074927.000000
69233854.000000,44083997.000000
69242112.000000,44083459.000000
69359222.000000,44068041.000000
69375039.000000,44063803.000000
69480372.000000,44020173.000000
69494550.000000,44011987.000000
69585007.000000,43942576.000000
69596576.000000,43931007.000000
69665987.000000,43840550.000000
69674173.000000,43826372.000000
69717803.000000,43721039.000000
69722041.000000,43705222.000000
69737462.000000,43588087.000000
69738000.000000,43579878.000000
69738000.000000,30588122.000000
69737462.000000,30579913.000000
69722041.000000,30462778.000000
69717803.000000,30446961.000000
69674173.000000,30341628.000000
69665987.000000,30327450.000000
69596576.000000,30236993.000000
69585007.000000,30225424.000000
69494550.000000,30156013.000000
69480372.000000,30147827.000000
69375039.000000,30104197.000000
69359222.000000,30099959.000000
69242087.000000,30084538.000000
69233878.000000,30084000.000000
56242122.000000,30084000.000000
56233913.000000,30084538.000000
56116778.000000,30099959.000000
56100961.000000,30104197.000000
55995628.000000,30147827.000000
55981450.000000,30156013.000000
55890993.000000,30225424.000000
55879424.000000,30236993.000000
55810013.000000,30327450.000000
55801827.000000,30341628.000000
55758197.000000,30446961.000000
55753959.000000,30462778.000000
55738538.000000,30579913.000000
55738000.000000,30588122.000000
55738000.000000,43570802.000000
50688000.000000,43570802.000000
50688000.000000,32874122.000000
50687462.000000,32865913.000000
50672041.000000,32748778.000000
50667803.000000,32732961.000000
50624173.000000,32627628.000000
50615987.000000,32613450.000000
50546576.000000,32522993.000000
50535007.000000,32511424.000000
50444550.000000,32442013.000000
50430372.000000,32433827.000000
50325039.000000,32390197.000000
50309222.000000,32385959.000000
50192087.000000,32370538.000000
50183878.000000,32370000.000000
37192122.000000,32370000.000000
37183913.000000,32370538.000000
37066778.000000,32385959.000000
37050961.000000,32390197.000000
36945628.000000,32433827.000000
36931450.000000,32442013.000000
36840993.000000,32511424.000000
36829424.000000,32522993.000000
36760013.000000,32613450.000000
36751827.000000,32627628.000000
36708197.000000,32732961.000000
36703959.000000,32748778.000000
36688538.000000,32865913.000000
36688000.000000,32874122.000000
36688000.000000,45856802.000000
26837400.000000,45856802.000000
26837400.000000,34652122.000000
26836862.000000,34643913.000000
26821441.000000,34526778.000000
26817203.000000,34510961.000000
26773573.000000,34405628.000000
26765387.000000,34391450.000000
26695976.000000,34300993.000000
26684407.000000,34289424.000000
26593950.000000,34220013.000000
26579772.000000,34211827.000000
26474439.000000,34168197.000000
26458622.000000,34163959.000000
26341487.000000,34148538.000000
26333278.000000,34148000.000000
13341522.000000,34148000.000000
13333313.000000,34148538.000000
13216178.000000,34163959.000000
13200361.000000,34168197.000000
13095028.000000,34211827.000000
13080850.000000,34220013.000000
12990393.000000,34289424.000000
12978824.000000,34300993.000000
12909413.000000,34391450.000000
12901227.000000,34405628.000000
12857597.000000,34510961.000000
12853359.000000,34526778.000000
12837938.000000,34643913.000000
12837400.000000,34652122.000000
12837400.000000,47634802.000000
10160000.000000,47634802.000000
10160000.000000,28584802.000000
12837400.000000,28584802.000000
12837938.000000,28593011.000000
12853359.000000,28710146.000000
12857597.000000,28725963.000000
12901227.000000,28831296.000000
12909413.000000,28845474.000000
12978824.000000,28935931.000000
12990393.000000,28947500.000000
13080850.000000,29016911.000000
13095028.000000,29025097.000000
13200361.000000,29068727.000000
13216178.000000,29072965.000000
13333336.000000,29088389.000000
13341498.000000,29088927.000000
26333254.000000,29097997.000000
26341512.000000,29097459.000000
26458622.000000,29082041.000000
26474439.000000,29077803.000000
26579772.000000,29034173.000000
26593950.000000,29025987.000000
26684407.000000,28956576.000000
26695976.000000,28945007.000000
26765387.000000,28854550.000000
26773573.000000,28840372.000000
26817203.000000,28735039.000000
26821441.000000,28719222.000000
26836862.000000,28602087.000000
26837400.000000,28593878.000000
26837400.000000,26806802.000000
36688000.000000,26806802.000000
36688538.000000,26815011.000000
36703959.000000,26932146.000000
36708197.000000,26947963.000000
36751827.000000,27053296.000000
36760013.000000,27067474.000000
36829424.000000,27157931.000000
36840993.000000,27169500.000000
36931450.000000,27238911.000000
36945628.000000,27247097.000000
37050961.000000,27290727.000000
37066778.000000,27294965.000000
37183936.000000,27310389.000000
37192098.000000,27310927.000000
50183854.000000,27319997.000000
50192112.000000,27319459.000000
50309222.000000,27304041.000000
50325039.000000,27299803.000000
50430372.000000,27256173.000000
50444550.000000,27247987.000000
50535007.000000,27178576.000000
50546576.000000,27167007.000000
50615987.000000,27076550.000000
50624173.000000,27062372.000000
50667803.000000,26957039.000000
50672041.000000,26941222.000000
50687462.000000,26824087.000000
50688000.000000,26815878.000000
50688000.000000,26806802.000000
74788000.000000,26806802.000000
74788538.000000,26815011.000000
74803959.000000,26932146.000000
74808197.000000,26947963.000000
74851827.000000,27053296.000000
74860013.000000,27067474.000000
74929424.000000,27157931.000000
74940993.000000,27169500.000000
75031450.000000,27238911.000000
75045628.000000,27247097.000000
75150961.000000,27290727.000000
75166778.000000,27294965.000000
75283936.000000,27310389.000000
75292098.000000,27310927.000000
88283854.000000,27319997.000000
88292112.000000,27319459.000000
88409222.000000,27304041.000000
88425039.000000,27299803.000000
88530372.000000,27256173.000000
88544550.000000,27247987.000000
88635007.000000,27178576.000000
88646576.000000,27167007.000000
88715987.000000,27076550.000000
88724173.000000,27062372.000000
88767803.000000,26957039.000000
88772041.000000,26941222.000000
88787462.000000,26824087.000000
88788000.000000,26815878.000000
88788000.000000,26806802.000000
93838000.000000,26806802.000000
93838538.000000,26815011.000000
93853959.000000,26932146.000000
93858197.000000,26947963.000000
93901827.000000,27053296.000000
93910013.000000,27067474.000000
93979424.000000,27157931.000000
93990993.000000,27169500.000000
94081450.000000,27238911.000000
94095628.000000,27247097.000000
94200961.000000,27290727.000000
94216778.000000,27294965.000000
94333936.000000,27310389.000000
94342098.000000,27310927.000000
107333854.000000,27319997.000000
107342112.000000,27319459.000000
107459222.000000,27304041.000000
107475039.000000,27299803.000000
107580372.000000,27256173.000000
107594550.000000,27247987.000000
107685007.000000,27178576.000000
107696576.000000,27167007.000000
107765987.000000,27076550.000000
107774173.000000,27062372.000000
107817803.000000,26957039.000000
107822041.000000,26941222.000000
107837462.000000,26824087.000000
107838000.000000,26815878.000000
107838000.000000,13824122.000000
107837462.000000,13815913.000000
107822041.000000,13698778.000000
107817803.000000,13682961.000000
107774173.000000,13577628.000000
107765987.000000,13563450.000000
107696576.000000,13472993.000000
107685007.000000,13461424.000000
107594550.000000,13392013.000000
107580372.000000,13383827.000000
107475039.000000,13340197.000000
107459222.000000,13335959.000000
107342087.000000,13320538.000000
107333878.000000,13320000.000000
94342122.000000,13320000.000000
94333913.000000,13320538.000000
94216778.000000,13335959.000000
94200961.000000,13340197.000000
94095628.000000,13383827.000000
94081450.000000,13392013.000000
93990993.000000,13461424.000000
93979424.000000,13472993.000000
93910013.000000,13563450.000000
93901827.000000,13577628.000000
93858197.000000,13682961.000000
93853959.000000,13698778.000000
93838538.000000,13815913.000000
93838000.000000,13824122.000000
93838000.000000,26806802.000000
88788000.000000,26806802.000000
88788000.000000,13824122.000000
88787462.000000,13815913.000000
88772041.000000,13698778.000000
88767803.000000,13682961.000000
88724173.000000,13577628.000000
88715987.000000,13563450.000000
88646576.000000,13472993.000000
88635007.000000,13461424.000000
88544550.000000,13392013.000000
88530372.000000,13383827.000000
88425039.000000,13340197.000000
88409222.000000,13335959.000000
88292087.000000,13320538.000000
88283878.000000,13320000.000000
75292122.000000,13320000.000000
75283913.000000,13320538.000000
75166778.000000,13335959.000000
75150961.000000,13340197.000000
75045628.000000,13383827.000000
75031450.000000,13392013.000000
74940993.000000,13461424.000000
74929424.000000,13472993.000000
74860013.000000,13563450.000000
74851827.000000,13577628.000000
74808197.000000,13682961.000000
74803959.000000,13698778.000000
74788538.000000,13815913.000000
74788000.000000,13824122.000000
74788000.000000,26806802.000000
50688000.000000,26806802.000000
50688000.000000,24520802.000000
55738000.000000,24520802.000000
55738538.000000,24529011.000000
55753959.000000,24646146.000000
55758197.000000,24661963.000000
55801827.000000,24767296.000000
55810013.000000,24781474.000000
55879424.000000,24871931.000000
55890993.000000,24883500.000000
55981450.000000,24952911.000000
55995628.000000,24961097.000000
56100961.000000,25004727.000000
56116778.000000,25008965.000000
56233936.000000,25024389.000000
56242098.000000,25024927.000000
69233854.000000,25033997.000000
69242112.000000,25033459.000000
69359222.000000,25018041.000000
69375039.000000,25013803.000000
69480372.000000,24970173.000000
69494550.000000,24961987.000000
69585007.000000,24892576.000000
69596576.000000,24881007.000000
69665987.000000,24790550.000000
69674173.000000,24776372.000000
69717803.000000,24671039.000000
69722041.000000,24655222.000000
69737462.000000,24538087.000000
69738000.000000,24529878.000000
69738000.000000,11538122.000000
69737462.000000,11529913.000000
69722041.000000,11412778.000000
69717803.000000,11396961.000000
69674173.000000,11291628.000000
69665987.000000,11277450.000000
69596576.000000,11186993.000000
69585007.000000,11175424.000000
69494550.000000,11106013.000000
69480372.000000,11097827.000000
69375039.000000,11054197.000000
69359222.000000,11049959.000000
69242087.000000,11034538.000000
69233878.000000,11034000.000000
56242122.000000,11034000.000000
56233913.000000,11034538.000000
56116778.000000,11049959.000000
56100961.000000,11054197.000000
55995628.000000,11097827.000000
55981450.000000,11106013.000000
55890993.000000,11175424.000000
55879424.000000,11186993.000000
55810013.000000,11277450.000000
55801827.000000,11291628.000000
55758197.000000,11396961.000000
55753959.000000,11412778.000000
55738538.000000,11529913.000000
55738000.000000,11538122.000000
55738000.000000,24520802.000000
50688000.000000,24520802.000000
50688000.000000,13824122.000000
50687462.000000,13815913.000000
50672041.000000,13698778.000000
50667803.000000,13682961.000000
50624173.000000,13577628.000000
50615987.000000,13563450.000000
50546576.000000,13472993.000000
50535007.000000,13461424.000000
50444550.000000,13392013.000000
50430372.000000,13383827.000000
50325039.000000,13340197.000000
50309222.000000,13335959.000000
50192087.000000,13320538.000000
50183878.000000,13320000.000000
37192122.000000,13320000.000000
37183913.000000,13320538.000000
37066778.000000,13335959.000000
37050961.000000,13340197.000000
36945628.000000,13383827.000000
36931450.000000,13392013.000000
36840993.000000,13461424.000000
36829424.000000,13472993.000000
36760013.000000,13563450.000000
36751827.000000,13577628.000000
36708197.000000,13682961.000000
36703959.000000,13698778.000000
36688538.000000,13815913.000000
36688000.000000,13824122.000000
36688000.000000,26806802.000000
26837400.000000,26806802.000000
26837400.000000,15602122.000000
26836862.000000,15593913.000000
26821441.000000,15476778.000000
26817203.000000,15460961.000000
26773573.000000,15355628.000000
26765387.000000,15341450.000000
26695976.000000,15250993.000000
26684407.000000,15239424.000000
26593950.000000,15170013.000000
26579772.000000,15161827.000000
26474439.000000,15118197.000000
26458622.000000,15113959.000000
26341487.000000,15098538.000000
26333278.000000,15098000.000000
13341522.000000,15098000.000000
13333313.000000,15098538.000000
13216178.000000,15113959.000000
13200361.000000,15118197.000000
13095028.000000,15161827.000000
13080850.000000,15170013.000000
12990393.000000,15239424.000000
12978824.000000,15250993.000000
12909413.000000,15341450.000000
12901227.000000,15355628.000000
12857597.000000,15460961.000000
12853359.000000,15476778.000000
12837938.000000,15593913.000000
12837400.000000,15602122.000000
12837400.000000,28584802.000000
10160000.000000,28584802.000000
10160000.000000,13162707.000000
10160479.000000,13151726.000000
10178333.000000,12947648.000000
10182147.000000,12926018.000000
10233737.000000,12733482.000000
10241249.000000,12712843.000000
10325489.000000,12532190.000000
10336471.000000,12513169.000000
10450804.000000,12349886.000000
10464922.000000,12333062.000000
10605862.000000,12192122.000000
10622686.000000,12178004.000000
10785969.000000,12063671.000000
10804990.000000,12052689.000000
10985643.000000,11968449.000000
11006282.000000,11960937.000000
11198818.000000,11909347.000000
11220448.000000,11905533.000000
11429979.000000,11887202.000000
11430393.000000,11887167.000000
53074724.000000,8382444.000000
53085291.000000,8382000.000000
109238956.000000,8381999.000000
Z" /> 
</g>
</g>
</g> 
</svg>
