<?xml version="1.0" standalone="no"?>
 <!DOCTYPE svg PUBLIC "-//W3C//DTD SVG 1.1//EN" 
 "http://www.w3.org/Graphics/SVG/1.1/DTD/svg11.dtd"> 
<svg
  xmlns:svg="http://www.w3.org/2000/svg"
  xmlns="http://www.w3.org/2000/svg"
  xmlns:xlink="http://www.w3.org/1999/xlink"
  version="1.1"
  width="12.814300cm" height="11.612880cm" viewBox="0 0 128143000 116128800">
<title>SVG Picture created as knuckle-pad-brd.svg date 2021/10/04 19:19:16 </title>
  <desc>Picture generated by PCBNEW </desc>
<g style="fill:#000000; fill-opacity:1.000000;stroke:#000000; stroke-opacity:1.000000;
stroke-linecap:round; stroke-linejoin:round;"
 transform="translate(0 0) scale(1 1)">
</g>
<g style="fill:#000000; fill-opacity:0.0; 
stroke:#000000; stroke-width:0.000000; stroke-opacity:1; 
stroke-linecap:round; stroke-linejoin:round;">
</g>
<g style="fill:#000000; fill-opacity:0.0; 
stroke:#000000; stroke-width:50000.000000; stroke-opacity:1; 
stroke-linecap:round; stroke-linejoin:round;">
<path d="M27456200 107724975
L45185400 107720201
" />
<path d="M1370400 100176401
L24916200 100176401
" />
<path d="M75000 98906401
L75000 4850201
" />
<path d="M128091000 41778563
L128091000 99998601
" />
<path d="M1345000.000000 3580201.000000 A1270000.000000 1270000.000000 0.0 0 0 75000.000000 4850201.000000" />
<path d="M45185400 107720201
L63194000 101167001
" />
<path d="M101548000 105993001
L115776221 114927895
" />
<path d="M42995000 75001
L1345000 3580201
" />
<path d="M100435000 39087394
L100435000 1419127
" />
<path d="M115776220.861964 114927894.740638 A2396230.000000 2396230.000000 0.0 0 0 119201000.144545 114248001.090341" />
<path d="M83006000 101167001
L101548000 105993001
" />
<path d="M42995000 75001
L99161193 75001
" />
<path d="M100434999.688848 1419126.991868 A1310389.000000 1310389.000000 0.0 0 0 99161193.018809 75000.320692" />
<path d="M100434999.783389 39087393.994339 A1311839.000000 1311839.000000 0.0 0 0 101709995.998835 40433001.040514" />
<path d="M126819137 40433001
L101709996 40433001
" />
<path d="M26186200.000000 101446401.000000 A1270000.000000 1270000.000000 0.0 0 0 24916200.000000 100176401.000000" />
<path d="M119201000 114248001
L128091000 99998601
" />
<path d="M26186200 101446401
L26186200 106454975
" />
<path d="M128091000.307745 41778563.008775 A1308767.000000 1308767.000000 0.0 0 0 126819138.040806 40432999.534470" />
<path d="M63194000 101167001
L83006000 101167001
" />
<path d="M26186200.000000 106454975.000000 A1270000.000000 1270000.000000 0.0 0 0 27456200.000000 107724975.000000" />
<path d="M75000.000000 98906401.000000 A1295654.000000 1295654.000000 0.0 0 0 1370399.999994 100176401.000000" />
</g>
<g style="fill:#000000; fill-opacity:0.0; 
stroke:#000000; stroke-width:10007.000000; stroke-opacity:1; 
stroke-linecap:round; stroke-linejoin:round;">
<path d="M16752400 7291001
L16752400 20291001
" />
<path d="M3252400 6791001
L16252400 6791001
" />
<path d="M3252400 20781925
L16252400 20791001
" />
<path d="M2752400 7291001
L2752400 20281925
" />
<path d="M16752400.000000 7291001.000000 A500000.000000 500000.000000 0.0 0 0 16252400.000000 6791001.000000" />
<path d="M3252400.000000 6791001.000000 A500000.000000 500000.000000 0.0 0 0 2752400.000000 7291001.000000" />
<path d="M16252400.000000 20791001.000000 A500000.000000 500000.000000 0.0 0 0 16752400.000000 20291001.000000" />
<path d="M2752400.000000 20281925.000000 A500000.000000 500000.000000 0.0 0 0 3252400.000000 20781925.000000" />
<path d="M3252400 25841001
L16252400 25841001
" />
<path d="M3252400 39831925
L16252400 39841001
" />
<path d="M16752400 26341001
L16752400 39341001
" />
<path d="M2752400 26341001
L2752400 39331925
" />
<path d="M16252400.000000 39841001.000000 A500000.000000 500000.000000 0.0 0 0 16752400.000000 39341001.000000" />
<path d="M3252400.000000 25841001.000000 A500000.000000 500000.000000 0.0 0 0 2752400.000000 26341001.000000" />
<path d="M16752400.000000 26341001.000000 A500000.000000 500000.000000 0.0 0 0 16252400.000000 25841001.000000" />
<path d="M2752400.000000 39331925.000000 A500000.000000 500000.000000 0.0 0 0 3252400.000000 39831925.000000" />
<path d="M16752400 45391001
L16752400 58391001
" />
<path d="M2752400 45391001
L2752400 58381925
" />
<path d="M3252400 58881925
L16252400 58891001
" />
<path d="M3252400 44891001
L16252400 44891001
" />
<path d="M3252400.000000 44891001.000000 A500000.000000 500000.000000 0.0 0 0 2752400.000000 45391001.000000" />
<path d="M16252400.000000 58891001.000000 A500000.000000 500000.000000 0.0 0 0 16752400.000000 58391001.000000" />
<path d="M16752400.000000 45391001.000000 A500000.000000 500000.000000 0.0 0 0 16252400.000000 44891001.000000" />
<path d="M2752400.000000 58381925.000000 A500000.000000 500000.000000 0.0 0 0 3252400.000000 58881925.000000" />
<path d="M3252400 63941001
L16252400 63941001
" />
<path d="M2752400 64441001
L2752400 77431925
" />
<path d="M16752400 64441001
L16752400 77441001
" />
<path d="M3252400 77931925
L16252400 77941001
" />
<path d="M2752400.000000 77431925.000000 A500000.000000 500000.000000 0.0 0 0 3252400.000000 77931925.000000" />
<path d="M3252400.000000 63941001.000000 A500000.000000 500000.000000 0.0 0 0 2752400.000000 64441001.000000" />
<path d="M16752400.000000 64441001.000000 A500000.000000 500000.000000 0.0 0 0 16252400.000000 63941001.000000" />
<path d="M16252400.000000 77941001.000000 A500000.000000 500000.000000 0.0 0 0 16752400.000000 77441001.000000" />
<path d="M2752400 83491001
L2752400 96481925
" />
<path d="M3252400 96981925
L16252400 96991001
" />
<path d="M16752400 83491001
L16752400 96491001
" />
<path d="M3252400 82991001
L16252400 82991001
" />
<path d="M16752400.000000 83491001.000000 A500000.000000 500000.000000 0.0 0 0 16252400.000000 82991001.000000" />
<path d="M16252400.000000 96991001.000000 A500000.000000 500000.000000 0.0 0 0 16752400.000000 96491001.000000" />
<path d="M2752400.000000 96481925.000000 A500000.000000 500000.000000 0.0 0 0 3252400.000000 96981925.000000" />
<path d="M3252400.000000 82991001.000000 A500000.000000 500000.000000 0.0 0 0 2752400.000000 83491001.000000" />
<path d="M40603000 5513001
L40603000 18513001
" />
<path d="M27103000 5013001
L40103000 5013001
" />
<path d="M26603000 5513001
L26603000 18503925
" />
<path d="M27103000 19003925
L40103000 19013001
" />
<path d="M27103000.000000 5013001.000000 A500000.000000 500000.000000 0.0 0 0 26603000.000000 5513001.000000" />
<path d="M40603000.000000 5513001.000000 A500000.000000 500000.000000 0.0 0 0 40103000.000000 5013001.000000" />
<path d="M40103000.000000 19013001.000000 A500000.000000 500000.000000 0.0 0 0 40603000.000000 18513001.000000" />
<path d="M26603000.000000 18503925.000000 A500000.000000 500000.000000 0.0 0 0 27103000.000000 19003925.000000" />
<path d="M40603000 24563001
L40603000 37563001
" />
<path d="M27103000 38053925
L40103000 38063001
" />
<path d="M26603000 24563001
L26603000 37553925
" />
<path d="M27103000 24063001
L40103000 24063001
" />
<path d="M27103000.000000 24063001.000000 A500000.000000 500000.000000 0.0 0 0 26603000.000000 24563001.000000" />
<path d="M40603000.000000 24563001.000000 A500000.000000 500000.000000 0.0 0 0 40103000.000000 24063001.000000" />
<path d="M40103000.000000 38063001.000000 A500000.000000 500000.000000 0.0 0 0 40603000.000000 37563001.000000" />
<path d="M26603000.000000 37553925.000000 A500000.000000 500000.000000 0.0 0 0 27103000.000000 38053925.000000" />
<path d="M27103000 57103925
L40103000 57113001
" />
<path d="M40603000 43613001
L40603000 56613001
" />
<path d="M27103000 43113001
L40103000 43113001
" />
<path d="M26603000 43613001
L26603000 56603925
" />
<path d="M27103000.000000 43113001.000000 A500000.000000 500000.000000 0.0 0 0 26603000.000000 43613001.000000" />
<path d="M26603000.000000 56603925.000000 A500000.000000 500000.000000 0.0 0 0 27103000.000000 57103925.000000" />
<path d="M40103000.000000 57113001.000000 A500000.000000 500000.000000 0.0 0 0 40603000.000000 56613001.000000" />
<path d="M40603000.000000 43613001.000000 A500000.000000 500000.000000 0.0 0 0 40103000.000000 43113001.000000" />
<path d="M26603000 62663001
L26603000 75653925
" />
<path d="M40603000 62663001
L40603000 75663001
" />
<path d="M27103000 76153925
L40103000 76163001
" />
<path d="M27103000 62163001
L40103000 62163001
" />
<path d="M27103000.000000 62163001.000000 A500000.000000 500000.000000 0.0 0 0 26603000.000000 62663001.000000" />
<path d="M40103000.000000 76163001.000000 A500000.000000 500000.000000 0.0 0 0 40603000.000000 75663001.000000" />
<path d="M40603000.000000 62663001.000000 A500000.000000 500000.000000 0.0 0 0 40103000.000000 62163001.000000" />
<path d="M26603000.000000 75653925.000000 A500000.000000 500000.000000 0.0 0 0 27103000.000000 76153925.000000" />
<path d="M46153000 16717925
L59153000 16727001
" />
<path d="M45653000 3227001
L45653000 16217925
" />
<path d="M59653000 3227001
L59653000 16227001
" />
<path d="M46153000 2727001
L59153000 2727001
" />
<path d="M46153000.000000 2727001.000000 A500000.000000 500000.000000 0.0 0 0 45653000.000000 3227001.000000" />
<path d="M45653000.000000 16217925.000000 A500000.000000 500000.000000 0.0 0 0 46153000.000000 16717925.000000" />
<path d="M59153000.000000 16727001.000000 A500000.000000 500000.000000 0.0 0 0 59653000.000000 16227001.000000" />
<path d="M59653000.000000 3227001.000000 A500000.000000 500000.000000 0.0 0 0 59153000.000000 2727001.000000" />
<path d="M45653000 22277001
L45653000 35267925
" />
<path d="M46153000 21777001
L59153000 21777001
" />
<path d="M46153000 35767925
L59153000 35777001
" />
<path d="M59653000 22277001
L59653000 35277001
" />
<path d="M45653000.000000 35267925.000000 A500000.000000 500000.000000 0.0 0 0 46153000.000000 35767925.000000" />
<path d="M59153000.000000 35777001.000000 A500000.000000 500000.000000 0.0 0 0 59653000.000000 35277001.000000" />
<path d="M59653000.000000 22277001.000000 A500000.000000 500000.000000 0.0 0 0 59153000.000000 21777001.000000" />
<path d="M46153000.000000 21777001.000000 A500000.000000 500000.000000 0.0 0 0 45653000.000000 22277001.000000" />
<path d="M45653000 41327001
L45653000 54317925
" />
<path d="M46153000 54817925
L59153000 54827001
" />
<path d="M46153000 40827001
L59153000 40827001
" />
<path d="M59653000 41327001
L59653000 54327001
" />
<path d="M46153000.000000 40827001.000000 A500000.000000 500000.000000 0.0 0 0 45653000.000000 41327001.000000" />
<path d="M59653000.000000 41327001.000000 A500000.000000 500000.000000 0.0 0 0 59153000.000000 40827001.000000" />
<path d="M45653000.000000 54317925.000000 A500000.000000 500000.000000 0.0 0 0 46153000.000000 54817925.000000" />
<path d="M59153000.000000 54827001.000000 A500000.000000 500000.000000 0.0 0 0 59653000.000000 54327001.000000" />
<path d="M46153000 73867925
L59153000 73877001
" />
<path d="M59653000 60377001
L59653000 73377001
" />
<path d="M46153000 59877001
L59153000 59877001
" />
<path d="M45653000 60377001
L45653000 73367925
" />
<path d="M59653000.000000 60377001.000000 A500000.000000 500000.000000 0.0 0 0 59153000.000000 59877001.000000" />
<path d="M59153000.000000 73877001.000000 A500000.000000 500000.000000 0.0 0 0 59653000.000000 73377001.000000" />
<path d="M46153000.000000 59877001.000000 A500000.000000 500000.000000 0.0 0 0 45653000.000000 60377001.000000" />
<path d="M45653000.000000 73367925.000000 A500000.000000 500000.000000 0.0 0 0 46153000.000000 73867925.000000" />
<path d="M42372857 90970284
L54588861 86524022
" />
<path d="M55229717 86822858
L59675979 99038862
" />
<path d="M47158035 104117452
L59377143 99679718
" />
<path d="M42074021 91611140
L46517178 103818615
" />
<path d="M59377143.108141 99679718.297116 A500000.000000 500000.000000 0.0 0 0 59675979.297116 99038861.891859" />
<path d="M46517177.646214 103818615.128767 A500001.000000 500001.000000 0.0 0 0 47158035.128767 104117452.353786" />
<path d="M55229717.297116 86822857.891859 A500000.000000 500000.000000 0.0 0 0 54588860.891859 86524021.702884" />
<path d="M42372856.891859 90970283.702884 A500000.000000 500000.000000 0.0 0 0 42074020.702884 91611140.108141" />
<path d="M65203000 19003925
L78203000 19013001
" />
<path d="M78703000 5513001
L78703000 18513001
" />
<path d="M65203000 5013001
L78203000 5013001
" />
<path d="M64703000 5513001
L64703000 18503925
" />
<path d="M78703000.000000 5513001.000000 A500000.000000 500000.000000 0.0 0 0 78203000.000000 5013001.000000" />
<path d="M65203000.000000 5013001.000000 A500000.000000 500000.000000 0.0 0 0 64703000.000000 5513001.000000" />
<path d="M64703000.000000 18503925.000000 A500000.000000 500000.000000 0.0 0 0 65203000.000000 19003925.000000" />
<path d="M78203000.000000 19013001.000000 A500000.000000 500000.000000 0.0 0 0 78703000.000000 18513001.000000" />
<path d="M65203000 24063001
L78203000 24063001
" />
<path d="M64703000 24563001
L64703000 37553925
" />
<path d="M65203000 38053925
L78203000 38063001
" />
<path d="M78703000 24563001
L78703000 37563001
" />
<path d="M65203000.000000 24063001.000000 A500000.000000 500000.000000 0.0 0 0 64703000.000000 24563001.000000" />
<path d="M78203000.000000 38063001.000000 A500000.000000 500000.000000 0.0 0 0 78703000.000000 37563001.000000" />
<path d="M64703000.000000 37553925.000000 A500000.000000 500000.000000 0.0 0 0 65203000.000000 38053925.000000" />
<path d="M78703000.000000 24563001.000000 A500000.000000 500000.000000 0.0 0 0 78203000.000000 24063001.000000" />
<path d="M65203000 43113001
L78203000 43113001
" />
<path d="M64703000 43613001
L64703000 56603925
" />
<path d="M65203000 57103925
L78203000 57113001
" />
<path d="M78703000 43613001
L78703000 56613001
" />
<path d="M78203000.000000 57113001.000000 A500000.000000 500000.000000 0.0 0 0 78703000.000000 56613001.000000" />
<path d="M78703000.000000 43613001.000000 A500000.000000 500000.000000 0.0 0 0 78203000.000000 43113001.000000" />
<path d="M64703000.000000 56603925.000000 A500000.000000 500000.000000 0.0 0 0 65203000.000000 57103925.000000" />
<path d="M65203000.000000 43113001.000000 A500000.000000 500000.000000 0.0 0 0 64703000.000000 43613001.000000" />
<path d="M78703000 62663001
L78703000 75663001
" />
<path d="M65203000 76153925
L78203000 76163001
" />
<path d="M65203000 62163001
L78203000 62163001
" />
<path d="M64703000 62663001
L64703000 75653925
" />
<path d="M65203000.000000 62163001.000000 A500000.000000 500000.000000 0.0 0 0 64703000.000000 62663001.000000" />
<path d="M78203000.000000 76163001.000000 A500000.000000 500000.000000 0.0 0 0 78703000.000000 75663001.000000" />
<path d="M78703000.000000 62663001.000000 A500000.000000 500000.000000 0.0 0 0 78203000.000000 62163001.000000" />
<path d="M64703000.000000 75653925.000000 A500000.000000 500000.000000 0.0 0 0 65203000.000000 76153925.000000" />
<path d="M79973000 85015001
L79973000 98015001
" />
<path d="M65973000 85015001
L65973000 98005925
" />
<path d="M66473000 84515001
L79473000 84515001
" />
<path d="M66473000 98505925
L79473000 98515001
" />
<path d="M66473000.000000 84515001.000000 A500000.000000 500000.000000 0.0 0 0 65973000.000000 85015001.000000" />
<path d="M79473000.000000 98515001.000000 A500000.000000 500000.000000 0.0 0 0 79973000.000000 98015001.000000" />
<path d="M79973000.000000 85015001.000000 A500000.000000 500000.000000 0.0 0 0 79473000.000000 84515001.000000" />
<path d="M65973000.000000 98005925.000000 A500000.000000 500000.000000 0.0 0 0 66473000.000000 98505925.000000" />
<path d="M83753000 5513001
L83753000 18503925
" />
<path d="M84253000 5013001
L97253000 5013001
" />
<path d="M84253000 19003925
L97253000 19013001
" />
<path d="M97753000 5513001
L97753000 18513001
" />
<path d="M97253000.000000 19013001.000000 A500000.000000 500000.000000 0.0 0 0 97753000.000000 18513001.000000" />
<path d="M84253000.000000 5013001.000000 A500000.000000 500000.000000 0.0 0 0 83753000.000000 5513001.000000" />
<path d="M97753000.000000 5513001.000000 A500000.000000 500000.000000 0.0 0 0 97253000.000000 5013001.000000" />
<path d="M83753000.000000 18503925.000000 A500000.000000 500000.000000 0.0 0 0 84253000.000000 19003925.000000" />
<path d="M83753000 24563001
L83753000 37553925
" />
<path d="M97753000 24563001
L97753000 37563001
" />
<path d="M84253000 38053925
L97253000 38063001
" />
<path d="M84253000 24063001
L97253000 24063001
" />
<path d="M84253000.000000 24063001.000000 A500000.000000 500000.000000 0.0 0 0 83753000.000000 24563001.000000" />
<path d="M97753000.000000 24563001.000000 A500000.000000 500000.000000 0.0 0 0 97253000.000000 24063001.000000" />
<path d="M83753000.000000 37553925.000000 A500000.000000 500000.000000 0.0 0 0 84253000.000000 38053925.000000" />
<path d="M97253000.000000 38063001.000000 A500000.000000 500000.000000 0.0 0 0 97753000.000000 37563001.000000" />
<path d="M97753000 43613001
L97753000 56613001
" />
<path d="M83753000 43613001
L83753000 56603925
" />
<path d="M84253000 43113001
L97253000 43113001
" />
<path d="M84253000 57103925
L97253000 57113001
" />
<path d="M97753000.000000 43613001.000000 A500000.000000 500000.000000 0.0 0 0 97253000.000000 43113001.000000" />
<path d="M83753000.000000 56603925.000000 A500000.000000 500000.000000 0.0 0 0 84253000.000000 57103925.000000" />
<path d="M97253000.000000 57113001.000000 A500000.000000 500000.000000 0.0 0 0 97753000.000000 56613001.000000" />
<path d="M84253000.000000 43113001.000000 A500000.000000 500000.000000 0.0 0 0 83753000.000000 43613001.000000" />
<path d="M84253000 76153925
L97253000 76163001
" />
<path d="M97753000 62663001
L97753000 75663001
" />
<path d="M84253000 62163001
L97253000 62163001
" />
<path d="M83753000 62663001
L83753000 75653925
" />
<path d="M97753000.000000 62663001.000000 A500000.000000 500000.000000 0.0 0 0 97253000.000000 62163001.000000" />
<path d="M97253000.000000 76163001.000000 A500000.000000 500000.000000 0.0 0 0 97753000.000000 75663001.000000" />
<path d="M83753000.000000 75653925.000000 A500000.000000 500000.000000 0.0 0 0 84253000.000000 76153925.000000" />
<path d="M84253000.000000 62163001.000000 A500000.000000 500000.000000 0.0 0 0 83753000.000000 62663001.000000" />
<path d="M86564820 99265772
L99176469 102419563
" />
<path d="M89949531 85690439
L102563375 88835423
" />
<path d="M102927562 89441532
L99782578 102055376
" />
<path d="M89343422 86054626
L86200633 98659664
" />
<path d="M89949530.957632 85690439.169927 A499999.000000 499999.000000 0.0 0 0 89343423.169927 86054625.042368" />
<path d="M86200632.906370 98659663.976656 A500000.000000 500000.000000 0.0 0 0 86564820.976656 99265772.093630" />
<path d="M99176469.042368 102419562.830073 A499999.000000 499999.000000 0.0 0 0 99782576.830073 102055376.957632" />
<path d="M102927561.830073 89441531.957632 A499999.000000 499999.000000 0.0 0 0 102563375.957632 88835424.169927" />
<path d="M116803000 43613001
L116803000 56613001
" />
<path d="M102803000 43613001
L102803000 56603925
" />
<path d="M103303000 57103925
L116303000 57113001
" />
<path d="M103303000 43113001
L116303000 43113001
" />
<path d="M102803000.000000 56603925.000000 A500000.000000 500000.000000 0.0 0 0 103303000.000000 57103925.000000" />
<path d="M116803000.000000 43613001.000000 A500000.000000 500000.000000 0.0 0 0 116303000.000000 43113001.000000" />
<path d="M116303000.000000 57113001.000000 A500000.000000 500000.000000 0.0 0 0 116803000.000000 56613001.000000" />
<path d="M103303000.000000 43113001.000000 A500000.000000 500000.000000 0.0 0 0 102803000.000000 43613001.000000" />
<path d="M103303000 76153925
L116303000 76163001
" />
<path d="M103303000 62163001
L116303000 62163001
" />
<path d="M116803000 62663001
L116803000 75663001
" />
<path d="M102803000 62663001
L102803000 75653925
" />
<path d="M102803000.000000 75653925.000000 A500000.000000 500000.000000 0.0 0 0 103303000.000000 76153925.000000" />
<path d="M116803000.000000 62663001.000000 A500000.000000 500000.000000 0.0 0 0 116303000.000000 62163001.000000" />
<path d="M103303000.000000 62163001.000000 A500000.000000 500000.000000 0.0 0 0 102803000.000000 62663001.000000" />
<path d="M116303000.000000 76163001.000000 A500000.000000 500000.000000 0.0 0 0 116803000.000000 75663001.000000" />
<path d="M112391139 93723254
L105506998 104740182
" />
<path d="M105666062 105429166
L116685878 112325813
" />
<path d="M113080122 93564189
L124104747 100453140
" />
<path d="M124263812 101142123
L117374861 112166748
" />
<path d="M124263812.318648 101142123.199113 A500000.000000 500000.000000 0.0 0 0 124104747.199113 100453139.681352" />
<path d="M116685877.800887 112325813.318648 A500000.000000 500000.000000 0.0 0 0 117374861.318648 112166748.199113" />
<path d="M113080122.199113 93564188.681352 A500000.000000 500000.000000 0.0 0 0 112391138.681352 93723253.800887" />
<path d="M105506998.130749 104740182.081701 A500000.000000 500000.000000 0.0 0 0 105666062.081701 105429165.869251" />
<g >
</g>
<g >
</g>
<g >
</g>
<g >
</g>
<g >
</g>
<g >
</g>
<g >
</g>
<g >
</g>
<g >
</g>
<g >
</g>
<g >
</g>
<g >
</g>
<g >
</g>
<g >
</g>
<g >
</g>
<g >
</g>
<g >
</g>
<g >
</g>
<g >
</g>
<g >
</g>
<g >
</g>
<g >
</g>
<g >
</g>
<g >
</g>
<g >
</g>
<g >
</g>
<g >
</g>
<g >
</g>
<g >
</g>
<g >
</g>
</g> 
</svg>
