%TF.GenerationSoftware,KiCad,Pcbnew,5.99.0-unknown-5f3c67bd2b~134~ubuntu20.04.1*%
%TF.CreationDate,2021-09-28T13:01:48+02:00*%
%TF.ProjectId,knuckle-pad,6b6e7563-6b6c-4652-9d70-61642e6b6963,rev?*%
%TF.SameCoordinates,Original*%
%TF.FileFunction,Profile,NP*%
%FSLAX46Y46*%
G04 Gerber Fmt 4.6, Leading zero omitted, Abs format (unit mm)*
G04 Created by KiCad (PCBNEW 5.99.0-unknown-5f3c67bd2b~134~ubuntu20.04.1) date 2021-09-28 13:01:48*
%MOMM*%
%LPD*%
G01*
G04 APERTURE LIST*
%TA.AperFunction,Profile*%
%ADD10C,0.050000*%
%TD*%
G04 APERTURE END LIST*
D10*
X108661200Y-143129000D02*
X126619000Y-143129000D01*
X82575400Y-133883400D02*
X106121200Y-133883400D01*
X208026002Y-33781998D02*
G75*
G02*
X209296000Y-35128200I-38102J-1308100D01*
G01*
X81280000Y-132613400D02*
X81280000Y-38557200D01*
X209296000Y-35128200D02*
X209296000Y-133705600D01*
X126619000Y-143129000D02*
X126873000Y-143002000D01*
X81280000Y-38557200D02*
G75*
G02*
X82550000Y-37287200I1270000J0D01*
G01*
X183483000Y-53086000D02*
G75*
G03*
X183483000Y-53086000I-2000000J0D01*
G01*
X126873000Y-143002000D02*
X144399000Y-134874000D01*
X205959992Y-72300008D02*
G75*
G03*
X205959992Y-72300008I-1100000J0D01*
G01*
X182753000Y-139700000D02*
X196981221Y-148634894D01*
X124200000Y-33782000D02*
X82550000Y-37287200D01*
X196981221Y-148634894D02*
G75*
G03*
X200406000Y-147955000I1392780J1949893D01*
G01*
X105949500Y-91186000D02*
G75*
G03*
X105949500Y-91186000I-2000000J0D01*
G01*
X164211000Y-134874000D02*
X182753000Y-139700000D01*
X187198000Y-33782000D02*
X208026000Y-33782000D01*
X124200000Y-33782000D02*
X187198000Y-33782000D01*
X190722000Y-118364000D02*
G75*
G03*
X190722000Y-118364000I-2000000J0D01*
G01*
X205959992Y-35449993D02*
G75*
G03*
X205959992Y-35449993I-1100000J0D01*
G01*
X111435900Y-129984500D02*
G75*
G03*
X111435900Y-129984500I-2000000J0D01*
G01*
X106121200Y-133883400D02*
G75*
G02*
X107391200Y-135153400I0J-1270000D01*
G01*
X200406000Y-147955000D02*
X209296000Y-133705600D01*
X183483000Y-91186000D02*
G75*
G03*
X183483000Y-91186000I-2000000J0D01*
G01*
X191516002Y-72300008D02*
G75*
G03*
X191516002Y-72300008I-1100000J0D01*
G01*
X107391200Y-135153400D02*
X107391200Y-141859000D01*
X144399000Y-134874000D02*
X164211000Y-134874000D01*
X108661200Y-143129000D02*
G75*
G02*
X107391200Y-141859000I0J1270000D01*
G01*
X191516002Y-35450000D02*
G75*
G03*
X191516002Y-35450000I-1100000J0D01*
G01*
X105949500Y-53086000D02*
G75*
G03*
X105949500Y-53086000I-2000000J0D01*
G01*
X82575400Y-133883400D02*
G75*
G02*
X81280000Y-132613400I0J1295654D01*
G01*
M02*
