%TF.GenerationSoftware,KiCad,Pcbnew,5.99.0-unknown-5f3c67bd2b~134~ubuntu20.04.1*%
%TF.CreationDate,2021-09-29T14:39:44+02:00*%
%TF.ProjectId,knuckle-pad,6b6e7563-6b6c-4652-9d70-61642e6b6963,rev?*%
%TF.SameCoordinates,Original*%
%TF.FileFunction,Soldermask,Bot*%
%TF.FilePolarity,Negative*%
%FSLAX46Y46*%
G04 Gerber Fmt 4.6, Leading zero omitted, Abs format (unit mm)*
G04 Created by KiCad (PCBNEW 5.99.0-unknown-5f3c67bd2b~134~ubuntu20.04.1) date 2021-09-29 14:39:44*
%MOMM*%
%LPD*%
G01*
G04 APERTURE LIST*
G04 Aperture macros list*
%AMRoundRect*
0 Rectangle with rounded corners*
0 $1 Rounding radius*
0 $2 $3 $4 $5 $6 $7 $8 $9 X,Y pos of 4 corners*
0 Add a 4 corners polygon primitive as box body*
4,1,4,$2,$3,$4,$5,$6,$7,$8,$9,$2,$3,0*
0 Add four circle primitives for the rounded corners*
1,1,$1+$1,$2,$3*
1,1,$1+$1,$4,$5*
1,1,$1+$1,$6,$7*
1,1,$1+$1,$8,$9*
0 Add four rect primitives between the rounded corners*
20,1,$1+$1,$2,$3,$4,$5,0*
20,1,$1+$1,$4,$5,$6,$7,0*
20,1,$1+$1,$6,$7,$8,$9,0*
20,1,$1+$1,$8,$9,$2,$3,0*%
%AMHorizOval*
0 Thick line with rounded ends*
0 $1 width*
0 $2 $3 position (X,Y) of the first rounded end (center of the circle)*
0 $4 $5 position (X,Y) of the second rounded end (center of the circle)*
0 Add line between two ends*
20,1,$1,$2,$3,$4,$5,0*
0 Add two circle primitives to create the rounded ends*
1,1,$1,$2,$3*
1,1,$1,$4,$5*%
G04 Aperture macros list end*
%ADD10R,1.752600X1.752600*%
%ADD11C,1.752600*%
%ADD12C,1.750000*%
%ADD13C,3.987800*%
%ADD14C,2.250000*%
%ADD15C,4.000000*%
%ADD16RoundRect,0.160000X0.640000X-0.640000X0.640000X0.640000X-0.640000X0.640000X-0.640000X-0.640000X0*%
%ADD17O,1.600000X1.600000*%
%ADD18RoundRect,0.160000X0.850513X-0.309561X0.309561X0.850513X-0.850513X0.309561X-0.309561X-0.850513X0*%
%ADD19HorizOval,1.600000X0.000000X0.000000X0.000000X0.000000X0*%
%ADD20RoundRect,0.160000X0.783837X-0.452548X0.452548X0.783837X-0.783837X0.452548X-0.452548X-0.783837X0*%
%ADD21HorizOval,1.600000X0.000000X0.000000X0.000000X0.000000X0*%
%ADD22RoundRect,0.160000X0.519142X-0.741412X0.741412X0.519142X-0.519142X0.741412X-0.741412X-0.519142X0*%
%ADD23HorizOval,1.600000X0.000000X0.000000X0.000000X0.000000X0*%
%ADD24RoundRect,0.160000X0.234256X-0.874256X0.874256X0.234256X-0.234256X0.874256X-0.874256X-0.234256X0*%
%ADD25HorizOval,1.600000X0.000000X0.000000X0.000000X0.000000X0*%
%ADD26C,2.000000*%
G04 APERTURE END LIST*
D10*
%TO.C,U1*%
X187604400Y-37927763D03*
D11*
X188061600Y-40467763D03*
X187604400Y-43007763D03*
X188061600Y-45547763D03*
X187604400Y-48087763D03*
X188061600Y-50627763D03*
X187604400Y-53167763D03*
X188061600Y-55707763D03*
X187604400Y-58247763D03*
X188061600Y-60787763D03*
X187604400Y-63327763D03*
X188061600Y-65867763D03*
X202844400Y-65867763D03*
X203301600Y-63327763D03*
X202844400Y-60787763D03*
X203301600Y-58247763D03*
X202844400Y-55707763D03*
X203301600Y-53167763D03*
X202844400Y-50627763D03*
X203301600Y-48087763D03*
X202844400Y-45547763D03*
X203301600Y-43007763D03*
X202844400Y-40467763D03*
X203301600Y-37927763D03*
%TD*%
D12*
%TO.C,SW1*%
X96037400Y-47498000D03*
D13*
X90957400Y-47498000D03*
D12*
X85877400Y-47498000D03*
D14*
X87147400Y-44958000D03*
X93497400Y-42418000D03*
%TD*%
D12*
%TO.C,SW2*%
X96037400Y-66548000D03*
X85877400Y-66548000D03*
D13*
X90957400Y-66548000D03*
D14*
X87147400Y-64008000D03*
X93497400Y-61468000D03*
%TD*%
D12*
%TO.C,SW3*%
X85877400Y-85598000D03*
X96037400Y-85598000D03*
D13*
X90957400Y-85598000D03*
D14*
X87147400Y-83058000D03*
X93497400Y-80518000D03*
%TD*%
D12*
%TO.C,SW4*%
X85877400Y-104648000D03*
D13*
X90957400Y-104648000D03*
D12*
X96037400Y-104648000D03*
D14*
X87147400Y-102108000D03*
X93497400Y-99568000D03*
%TD*%
D12*
%TO.C,SW5*%
X96037400Y-123698000D03*
X85877400Y-123698000D03*
D13*
X90957400Y-123698000D03*
D14*
X87147400Y-121158000D03*
X93497400Y-118618000D03*
%TD*%
D13*
%TO.C,SW6*%
X114808000Y-45720000D03*
D12*
X119888000Y-45720000D03*
X109728000Y-45720000D03*
D14*
X110998000Y-43180000D03*
X117348000Y-40640000D03*
%TD*%
D12*
%TO.C,SW7*%
X119888000Y-64770000D03*
X109728000Y-64770000D03*
D13*
X114808000Y-64770000D03*
D14*
X110998000Y-62230000D03*
X117348000Y-59690000D03*
%TD*%
D13*
%TO.C,SW8*%
X114808000Y-83820000D03*
D12*
X119888000Y-83820000D03*
X109728000Y-83820000D03*
D14*
X110998000Y-81280000D03*
X117348000Y-78740000D03*
%TD*%
D12*
%TO.C,SW9*%
X119888000Y-102870000D03*
X109728000Y-102870000D03*
D13*
X114808000Y-102870000D03*
D14*
X110998000Y-100330000D03*
X117348000Y-97790000D03*
%TD*%
D12*
%TO.C,SW10*%
X138938000Y-43434000D03*
X128778000Y-43434000D03*
D13*
X133858000Y-43434000D03*
D14*
X130048000Y-40894000D03*
X136398000Y-38354000D03*
%TD*%
D13*
%TO.C,SW11*%
X133858000Y-62484000D03*
D12*
X128778000Y-62484000D03*
X138938000Y-62484000D03*
D14*
X130048000Y-59944000D03*
X136398000Y-57404000D03*
%TD*%
D13*
%TO.C,SW12*%
X133858000Y-81534000D03*
D12*
X138938000Y-81534000D03*
X128778000Y-81534000D03*
D14*
X130048000Y-78994000D03*
X136398000Y-76454000D03*
%TD*%
D13*
%TO.C,SW13*%
X133858000Y-100584000D03*
D12*
X128778000Y-100584000D03*
X138938000Y-100584000D03*
D14*
X130048000Y-98044000D03*
X136398000Y-95504000D03*
%TD*%
D12*
%TO.C,SW14*%
X136853639Y-127294538D03*
D13*
X132080000Y-129032000D03*
D12*
X127306361Y-130769462D03*
D14*
X127631040Y-127948277D03*
X132729357Y-123389630D03*
%TD*%
D13*
%TO.C,SW15*%
X152908000Y-45720000D03*
D12*
X147828000Y-45720000D03*
X157988000Y-45720000D03*
D14*
X149098000Y-43180000D03*
X155448000Y-40640000D03*
%TD*%
D13*
%TO.C,SW16*%
X152908000Y-64770000D03*
D12*
X157988000Y-64770000D03*
X147828000Y-64770000D03*
D14*
X149098000Y-62230000D03*
X155448000Y-59690000D03*
%TD*%
D12*
%TO.C,SW17*%
X147828000Y-83820000D03*
D13*
X152908000Y-83820000D03*
D12*
X157988000Y-83820000D03*
D14*
X149098000Y-81280000D03*
X155448000Y-78740000D03*
%TD*%
D13*
%TO.C,SW18*%
X152908000Y-102870000D03*
D12*
X157988000Y-102870000D03*
X147828000Y-102870000D03*
D14*
X149098000Y-100330000D03*
X155448000Y-97790000D03*
%TD*%
D12*
%TO.C,SW19*%
X159258000Y-125222000D03*
D13*
X154178000Y-125222000D03*
D12*
X149098000Y-125222000D03*
D14*
X150368000Y-122682000D03*
X156718000Y-120142000D03*
%TD*%
D12*
%TO.C,SW20*%
X166878000Y-45720000D03*
X177038000Y-45720000D03*
D13*
X171958000Y-45720000D03*
D14*
X168148000Y-43180000D03*
X174498000Y-40640000D03*
%TD*%
D13*
%TO.C,SW21*%
X171958000Y-64770000D03*
D12*
X166878000Y-64770000D03*
X177038000Y-64770000D03*
D14*
X168148000Y-62230000D03*
X174498000Y-59690000D03*
%TD*%
D12*
%TO.C,SW22*%
X166878000Y-83820000D03*
D13*
X171958000Y-83820000D03*
D12*
X177038000Y-83820000D03*
D14*
X168148000Y-81280000D03*
X174498000Y-78740000D03*
%TD*%
D12*
%TO.C,SW23*%
X166878000Y-102870000D03*
D13*
X171958000Y-102870000D03*
D12*
X177038000Y-102870000D03*
D14*
X168148000Y-100330000D03*
X174498000Y-97790000D03*
%TD*%
D12*
%TO.C,SW24*%
X180697102Y-128990963D03*
X170838898Y-126533037D03*
D13*
X175768000Y-127762000D03*
D14*
X172685655Y-124375726D03*
X179461514Y-123447379D03*
%TD*%
D13*
%TO.C,SW25*%
X191008000Y-83820000D03*
D12*
X196088000Y-83820000D03*
X185928000Y-83820000D03*
D14*
X187198000Y-81280000D03*
X193548000Y-78740000D03*
%TD*%
D12*
%TO.C,SW26*%
X196088000Y-102870000D03*
X185928000Y-102870000D03*
D13*
X191008000Y-102870000D03*
D14*
X187198000Y-100330000D03*
X193548000Y-97790000D03*
%TD*%
D13*
%TO.C,SW27*%
X196088000Y-136652000D03*
D12*
X191779916Y-133960010D03*
X200396084Y-139343990D03*
D14*
X194202932Y-132478965D03*
X200934032Y-133689911D03*
%TD*%
D15*
%TO.C,H2*%
X103949500Y-91186000D03*
%TD*%
%TO.C,H8*%
X204470000Y-69723000D03*
%TD*%
%TO.C,H5*%
X181483000Y-91186000D03*
%TD*%
%TO.C,H3*%
X109435900Y-129984500D03*
%TD*%
%TO.C,H6*%
X188722000Y-118364000D03*
%TD*%
%TO.C,H4*%
X181483000Y-53086000D03*
%TD*%
%TO.C,H7*%
X186436000Y-69723000D03*
%TD*%
%TO.C,H1*%
X103949500Y-53086000D03*
%TD*%
D16*
%TO.C,D1*%
X101346000Y-48514000D03*
D17*
X101346000Y-40894000D03*
%TD*%
D16*
%TO.C,D2*%
X101346000Y-67561000D03*
D17*
X101346000Y-59941000D03*
%TD*%
D16*
%TO.C,D3*%
X101346000Y-86614000D03*
D17*
X101346000Y-78994000D03*
%TD*%
D16*
%TO.C,D4*%
X101346000Y-105664000D03*
D17*
X101346000Y-98044000D03*
%TD*%
D16*
%TO.C,D5*%
X102870000Y-126492000D03*
D17*
X102870000Y-118872000D03*
%TD*%
D16*
%TO.C,D6*%
X104394000Y-48514000D03*
D17*
X104394000Y-40894000D03*
%TD*%
D16*
%TO.C,D7*%
X104394000Y-67564000D03*
D17*
X104394000Y-59944000D03*
%TD*%
D16*
%TO.C,D8*%
X104394000Y-86614000D03*
D17*
X104394000Y-78994000D03*
%TD*%
D16*
%TO.C,D9*%
X104394000Y-105664000D03*
D17*
X104394000Y-98044000D03*
%TD*%
D16*
%TO.C,D10*%
X124300000Y-48514000D03*
D17*
X124300000Y-40894000D03*
%TD*%
D16*
%TO.C,D11*%
X124300000Y-67564000D03*
D17*
X124300000Y-59944000D03*
%TD*%
D16*
%TO.C,D12*%
X124300000Y-86614000D03*
D17*
X124300000Y-78994000D03*
%TD*%
D16*
%TO.C,D13*%
X124300000Y-105664000D03*
D17*
X124300000Y-98044000D03*
%TD*%
D18*
%TO.C,D14*%
X121498176Y-137565033D03*
D19*
X118277824Y-130658967D03*
%TD*%
D16*
%TO.C,D15*%
X143383000Y-48514000D03*
D17*
X143383000Y-40894000D03*
%TD*%
D16*
%TO.C,D16*%
X143383000Y-67564000D03*
D17*
X143383000Y-59944000D03*
%TD*%
D16*
%TO.C,D17*%
X143383000Y-86614000D03*
D17*
X143383000Y-78994000D03*
%TD*%
D16*
%TO.C,D18*%
X143383000Y-105664000D03*
D17*
X143383000Y-98044000D03*
%TD*%
D20*
%TO.C,D19*%
X142923505Y-128902177D03*
D21*
X140951303Y-121541823D03*
%TD*%
D16*
%TO.C,D20*%
X162560000Y-48514000D03*
D17*
X162560000Y-40894000D03*
%TD*%
D16*
%TO.C,D21*%
X162560000Y-67564000D03*
D17*
X162560000Y-59944000D03*
%TD*%
D16*
%TO.C,D22*%
X162560000Y-86614000D03*
D17*
X162560000Y-78994000D03*
%TD*%
D16*
%TO.C,D23*%
X162560000Y-105664000D03*
D17*
X162560000Y-98044000D03*
%TD*%
D22*
%TO.C,D24*%
X164946400Y-128974118D03*
D23*
X166269600Y-121469882D03*
%TD*%
D16*
%TO.C,D25*%
X181483000Y-86614000D03*
D17*
X181483000Y-78994000D03*
%TD*%
D16*
%TO.C,D26*%
X181483000Y-105664000D03*
D17*
X181483000Y-98044000D03*
%TD*%
D24*
%TO.C,D27*%
X185293000Y-133601557D03*
D25*
X189103000Y-127002443D03*
%TD*%
D26*
%TO.C,RST1*%
X206756000Y-43001000D03*
X206756000Y-36501000D03*
%TD*%
M02*
