M48
; DRILL file {KiCad 5.99.0-unknown-5f3c67bd2b~134~ubuntu20.04.1} date Di 28 Sep 2021 13:01:52 CEST
; FORMAT={-:-/ absolute / inch / decimal}
; #@! TF.CreationDate,2021-09-28T13:01:52+02:00
; #@! TF.GenerationSoftware,Kicad,Pcbnew,5.99.0-unknown-5f3c67bd2b~134~ubuntu20.04.1
; #@! TF.FileFunction,NonPlated,1,2,NPTH
FMAT,2
INCH
; #@! TA.AperFunction,NonPlated,NPTH,ComponentDrill
T1C0.0689
; #@! TA.AperFunction,NonPlated,NPTH,ComponentDrill
T2C0.1570
%
G90
G05
T1
X3.381Y-1.87
X3.381Y-2.62
X3.381Y-3.37
X3.381Y-4.12
X3.381Y-4.87
X3.781Y-1.87
X3.781Y-2.62
X3.781Y-3.37
X3.781Y-4.12
X3.781Y-4.87
X4.32Y-1.8
X4.32Y-2.55
X4.32Y-3.3
X4.32Y-4.05
X4.72Y-1.8
X4.72Y-2.55
X4.72Y-3.3
X4.72Y-4.05
X4.9887Y-5.2145
X5.07Y-1.71
X5.07Y-2.46
X5.07Y-3.21
X5.07Y-3.96
X5.3513Y-5.0455
X5.47Y-1.71
X5.47Y-2.46
X5.47Y-3.21
X5.47Y-3.96
X5.82Y-1.8
X5.82Y-2.55
X5.82Y-3.3
X5.82Y-4.05
X5.87Y-4.93
X6.22Y-1.8
X6.22Y-2.55
X6.22Y-3.3
X6.22Y-4.05
X6.27Y-4.93
X6.57Y-1.8
X6.57Y-2.55
X6.57Y-3.3
X6.57Y-4.05
X6.7259Y-4.9816
X6.97Y-1.8
X6.97Y-2.55
X6.97Y-3.3
X6.97Y-4.05
X7.1141Y-5.0784
X7.32Y-3.3
X7.32Y-4.05
X7.5504Y-5.274
X7.72Y-3.3
X7.72Y-4.05
X7.8896Y-5.486
T2
X3.581Y-1.87
X3.581Y-2.62
X3.581Y-3.37
X3.581Y-4.12
X3.581Y-4.87
X4.52Y-1.8
X4.52Y-2.55
X4.52Y-3.3
X4.52Y-4.05
X5.17Y-5.13
X5.27Y-1.71
X5.27Y-2.46
X5.27Y-3.21
X5.27Y-3.96
X6.02Y-1.8
X6.02Y-2.55
X6.02Y-3.3
X6.02Y-4.05
X6.07Y-4.93
X6.77Y-1.8
X6.77Y-2.55
X6.77Y-3.3
X6.77Y-4.05
X6.92Y-5.03
X7.52Y-3.3
X7.52Y-4.05
X7.72Y-5.38
T0
M30
