%TF.GenerationSoftware,KiCad,Pcbnew,5.99.0-unknown-5f3c67bd2b~134~ubuntu20.04.1*%
%TF.CreationDate,2021-09-29T14:39:44+02:00*%
%TF.ProjectId,knuckle-pad,6b6e7563-6b6c-4652-9d70-61642e6b6963,rev?*%
%TF.SameCoordinates,Original*%
%TF.FileFunction,Legend,Top*%
%TF.FilePolarity,Positive*%
%FSLAX46Y46*%
G04 Gerber Fmt 4.6, Leading zero omitted, Abs format (unit mm)*
G04 Created by KiCad (PCBNEW 5.99.0-unknown-5f3c67bd2b~134~ubuntu20.04.1) date 2021-09-29 14:39:44*
%MOMM*%
%LPD*%
G01*
G04 APERTURE LIST*
G04 Aperture macros list*
%AMRoundRect*
0 Rectangle with rounded corners*
0 $1 Rounding radius*
0 $2 $3 $4 $5 $6 $7 $8 $9 X,Y pos of 4 corners*
0 Add a 4 corners polygon primitive as box body*
4,1,4,$2,$3,$4,$5,$6,$7,$8,$9,$2,$3,0*
0 Add four circle primitives for the rounded corners*
1,1,$1+$1,$2,$3*
1,1,$1+$1,$4,$5*
1,1,$1+$1,$6,$7*
1,1,$1+$1,$8,$9*
0 Add four rect primitives between the rounded corners*
20,1,$1+$1,$2,$3,$4,$5,0*
20,1,$1+$1,$4,$5,$6,$7,0*
20,1,$1+$1,$6,$7,$8,$9,0*
20,1,$1+$1,$8,$9,$2,$3,0*%
%AMHorizOval*
0 Thick line with rounded ends*
0 $1 width*
0 $2 $3 position (X,Y) of the first rounded end (center of the circle)*
0 $4 $5 position (X,Y) of the second rounded end (center of the circle)*
0 Add line between two ends*
20,1,$1,$2,$3,$4,$5,0*
0 Add two circle primitives to create the rounded ends*
1,1,$1,$2,$3*
1,1,$1,$4,$5*%
G04 Aperture macros list end*
%ADD10C,0.076200*%
%ADD11C,0.133350*%
%ADD12C,0.150000*%
%ADD13C,0.010000*%
%ADD14R,1.752600X1.752600*%
%ADD15C,1.752600*%
%ADD16C,1.750000*%
%ADD17C,3.987800*%
%ADD18C,4.000000*%
%ADD19RoundRect,0.160000X0.640000X-0.640000X0.640000X0.640000X-0.640000X0.640000X-0.640000X-0.640000X0*%
%ADD20O,1.600000X1.600000*%
%ADD21RoundRect,0.160000X0.850513X-0.309561X0.309561X0.850513X-0.850513X0.309561X-0.309561X-0.850513X0*%
%ADD22HorizOval,1.600000X0.000000X0.000000X0.000000X0.000000X0*%
%ADD23RoundRect,0.160000X0.783837X-0.452548X0.452548X0.783837X-0.783837X0.452548X-0.452548X-0.783837X0*%
%ADD24HorizOval,1.600000X0.000000X0.000000X0.000000X0.000000X0*%
%ADD25RoundRect,0.160000X0.519142X-0.741412X0.741412X0.519142X-0.519142X0.741412X-0.741412X-0.519142X0*%
%ADD26HorizOval,1.600000X0.000000X0.000000X0.000000X0.000000X0*%
%ADD27RoundRect,0.160000X0.234256X-0.874256X0.874256X0.234256X-0.234256X0.874256X-0.874256X-0.234256X0*%
%ADD28HorizOval,1.600000X0.000000X0.000000X0.000000X0.000000X0*%
%ADD29C,2.000000*%
G04 APERTURE END LIST*
D10*
X105312028Y-125361820D02*
X105312028Y-124777620D01*
X105312028Y-125334001D02*
X105250342Y-125361820D01*
X105126971Y-125361820D01*
X105065285Y-125334001D01*
X105034442Y-125306182D01*
X105003600Y-125250544D01*
X105003600Y-125083630D01*
X105034442Y-125027992D01*
X105065285Y-125000173D01*
X105126971Y-124972354D01*
X105250342Y-124972354D01*
X105312028Y-125000173D01*
X105867200Y-125334001D02*
X105805514Y-125361820D01*
X105682142Y-125361820D01*
X105620457Y-125334001D01*
X105589614Y-125278363D01*
X105589614Y-125055811D01*
X105620457Y-125000173D01*
X105682142Y-124972354D01*
X105805514Y-124972354D01*
X105867200Y-125000173D01*
X105898042Y-125055811D01*
X105898042Y-125111449D01*
X105589614Y-125167087D01*
X106144785Y-125334001D02*
X106206471Y-125361820D01*
X106329842Y-125361820D01*
X106391528Y-125334001D01*
X106422371Y-125278363D01*
X106422371Y-125250544D01*
X106391528Y-125194906D01*
X106329842Y-125167087D01*
X106237314Y-125167087D01*
X106175628Y-125139268D01*
X106144785Y-125083630D01*
X106144785Y-125055811D01*
X106175628Y-125000173D01*
X106237314Y-124972354D01*
X106329842Y-124972354D01*
X106391528Y-125000173D01*
X106699957Y-125361820D02*
X106699957Y-124972354D01*
X106699957Y-124777620D02*
X106669114Y-124805440D01*
X106699957Y-124833259D01*
X106730800Y-124805440D01*
X106699957Y-124777620D01*
X106699957Y-124833259D01*
X107285971Y-124972354D02*
X107285971Y-125445278D01*
X107255128Y-125500916D01*
X107224285Y-125528735D01*
X107162600Y-125556554D01*
X107070071Y-125556554D01*
X107008385Y-125528735D01*
X107285971Y-125334001D02*
X107224285Y-125361820D01*
X107100914Y-125361820D01*
X107039228Y-125334001D01*
X107008385Y-125306182D01*
X106977542Y-125250544D01*
X106977542Y-125083630D01*
X107008385Y-125027992D01*
X107039228Y-125000173D01*
X107100914Y-124972354D01*
X107224285Y-124972354D01*
X107285971Y-125000173D01*
X107594400Y-124972354D02*
X107594400Y-125361820D01*
X107594400Y-125027992D02*
X107625242Y-125000173D01*
X107686928Y-124972354D01*
X107779457Y-124972354D01*
X107841142Y-125000173D01*
X107871985Y-125055811D01*
X107871985Y-125361820D01*
X108427157Y-125334001D02*
X108365471Y-125361820D01*
X108242100Y-125361820D01*
X108180414Y-125334001D01*
X108149571Y-125278363D01*
X108149571Y-125055811D01*
X108180414Y-125000173D01*
X108242100Y-124972354D01*
X108365471Y-124972354D01*
X108427157Y-125000173D01*
X108458000Y-125055811D01*
X108458000Y-125111449D01*
X108149571Y-125167087D01*
X109013171Y-125361820D02*
X109013171Y-124777620D01*
X109013171Y-125334001D02*
X108951485Y-125361820D01*
X108828114Y-125361820D01*
X108766428Y-125334001D01*
X108735585Y-125306182D01*
X108704742Y-125250544D01*
X108704742Y-125083630D01*
X108735585Y-125027992D01*
X108766428Y-125000173D01*
X108828114Y-124972354D01*
X108951485Y-124972354D01*
X109013171Y-125000173D01*
X109815085Y-125361820D02*
X109815085Y-124777620D01*
X109815085Y-125000173D02*
X109876771Y-124972354D01*
X110000142Y-124972354D01*
X110061828Y-125000173D01*
X110092671Y-125027992D01*
X110123514Y-125083630D01*
X110123514Y-125250544D01*
X110092671Y-125306182D01*
X110061828Y-125334001D01*
X110000142Y-125361820D01*
X109876771Y-125361820D01*
X109815085Y-125334001D01*
X110339414Y-124972354D02*
X110493628Y-125361820D01*
X110647842Y-124972354D02*
X110493628Y-125361820D01*
X110431942Y-125500916D01*
X110401100Y-125528735D01*
X110339414Y-125556554D01*
X111850714Y-124749801D02*
X111295542Y-125500916D01*
X112344200Y-124972354D02*
X112344200Y-125445278D01*
X112313357Y-125500916D01*
X112282514Y-125528735D01*
X112220828Y-125556554D01*
X112128300Y-125556554D01*
X112066614Y-125528735D01*
X112344200Y-125334001D02*
X112282514Y-125361820D01*
X112159142Y-125361820D01*
X112097457Y-125334001D01*
X112066614Y-125306182D01*
X112035771Y-125250544D01*
X112035771Y-125083630D01*
X112066614Y-125027992D01*
X112097457Y-125000173D01*
X112159142Y-124972354D01*
X112282514Y-124972354D01*
X112344200Y-125000173D01*
X112652628Y-125361820D02*
X112652628Y-124972354D01*
X112652628Y-124777620D02*
X112621785Y-124805440D01*
X112652628Y-124833259D01*
X112683471Y-124805440D01*
X112652628Y-124777620D01*
X112652628Y-124833259D01*
X112868528Y-124972354D02*
X113115271Y-124972354D01*
X112961057Y-124777620D02*
X112961057Y-125278363D01*
X112991900Y-125334001D01*
X113053585Y-125361820D01*
X113115271Y-125361820D01*
X113331171Y-125361820D02*
X113331171Y-124777620D01*
X113608757Y-125361820D02*
X113608757Y-125055811D01*
X113577914Y-125000173D01*
X113516228Y-124972354D01*
X113423700Y-124972354D01*
X113362014Y-125000173D01*
X113331171Y-125027992D01*
X114194771Y-124972354D02*
X114194771Y-125361820D01*
X113917185Y-124972354D02*
X113917185Y-125278363D01*
X113948028Y-125334001D01*
X114009714Y-125361820D01*
X114102242Y-125361820D01*
X114163928Y-125334001D01*
X114194771Y-125306182D01*
X114503200Y-125361820D02*
X114503200Y-124777620D01*
X114503200Y-125000173D02*
X114564885Y-124972354D01*
X114688257Y-124972354D01*
X114749942Y-125000173D01*
X114780785Y-125027992D01*
X114811628Y-125083630D01*
X114811628Y-125250544D01*
X114780785Y-125306182D01*
X114749942Y-125334001D01*
X114688257Y-125361820D01*
X114564885Y-125361820D01*
X114503200Y-125334001D01*
X115089214Y-125306182D02*
X115120057Y-125334001D01*
X115089214Y-125361820D01*
X115058371Y-125334001D01*
X115089214Y-125306182D01*
X115089214Y-125361820D01*
X115675228Y-125334001D02*
X115613542Y-125361820D01*
X115490171Y-125361820D01*
X115428485Y-125334001D01*
X115397642Y-125306182D01*
X115366800Y-125250544D01*
X115366800Y-125083630D01*
X115397642Y-125027992D01*
X115428485Y-125000173D01*
X115490171Y-124972354D01*
X115613542Y-124972354D01*
X115675228Y-125000173D01*
X116045342Y-125361820D02*
X115983657Y-125334001D01*
X115952814Y-125306182D01*
X115921971Y-125250544D01*
X115921971Y-125083630D01*
X115952814Y-125027992D01*
X115983657Y-125000173D01*
X116045342Y-124972354D01*
X116137871Y-124972354D01*
X116199557Y-125000173D01*
X116230400Y-125027992D01*
X116261242Y-125083630D01*
X116261242Y-125250544D01*
X116230400Y-125306182D01*
X116199557Y-125334001D01*
X116137871Y-125361820D01*
X116045342Y-125361820D01*
X116538828Y-125361820D02*
X116538828Y-124972354D01*
X116538828Y-125027992D02*
X116569671Y-125000173D01*
X116631357Y-124972354D01*
X116723885Y-124972354D01*
X116785571Y-125000173D01*
X116816414Y-125055811D01*
X116816414Y-125361820D01*
X116816414Y-125055811D02*
X116847257Y-125000173D01*
X116908942Y-124972354D01*
X117001471Y-124972354D01*
X117063157Y-125000173D01*
X117094000Y-125055811D01*
X117094000Y-125361820D01*
X117865071Y-124749801D02*
X117309900Y-125500916D01*
X117988442Y-124972354D02*
X118235185Y-124972354D01*
X118080971Y-124777620D02*
X118080971Y-125278363D01*
X118111814Y-125334001D01*
X118173500Y-125361820D01*
X118235185Y-125361820D01*
X118451085Y-125361820D02*
X118451085Y-124972354D01*
X118451085Y-124777620D02*
X118420242Y-124805440D01*
X118451085Y-124833259D01*
X118481928Y-124805440D01*
X118451085Y-124777620D01*
X118451085Y-124833259D01*
X118852042Y-125361820D02*
X118790357Y-125334001D01*
X118759514Y-125278363D01*
X118759514Y-124777620D01*
X119345528Y-125334001D02*
X119283842Y-125361820D01*
X119160471Y-125361820D01*
X119098785Y-125334001D01*
X119067942Y-125278363D01*
X119067942Y-125055811D01*
X119098785Y-125000173D01*
X119160471Y-124972354D01*
X119283842Y-124972354D01*
X119345528Y-125000173D01*
X119376371Y-125055811D01*
X119376371Y-125111449D01*
X119067942Y-125167087D01*
X119653957Y-125361820D02*
X119653957Y-124972354D01*
X119653957Y-124777620D02*
X119623114Y-124805440D01*
X119653957Y-124833259D01*
X119684800Y-124805440D01*
X119653957Y-124777620D01*
X119653957Y-124833259D01*
X119931542Y-125334001D02*
X119993228Y-125361820D01*
X120116600Y-125361820D01*
X120178285Y-125334001D01*
X120209128Y-125278363D01*
X120209128Y-125250544D01*
X120178285Y-125194906D01*
X120116600Y-125167087D01*
X120024071Y-125167087D01*
X119962385Y-125139268D01*
X119931542Y-125083630D01*
X119931542Y-125055811D01*
X119962385Y-125000173D01*
X120024071Y-124972354D01*
X120116600Y-124972354D01*
X120178285Y-125000173D01*
X120455871Y-125334001D02*
X120517557Y-125361820D01*
X120640928Y-125361820D01*
X120702614Y-125334001D01*
X120733457Y-125278363D01*
X120733457Y-125250544D01*
X120702614Y-125194906D01*
X120640928Y-125167087D01*
X120548400Y-125167087D01*
X120486714Y-125139268D01*
X120455871Y-125083630D01*
X120455871Y-125055811D01*
X120486714Y-125000173D01*
X120548400Y-124972354D01*
X120640928Y-124972354D01*
X120702614Y-125000173D01*
X121011042Y-124972354D02*
X121011042Y-125361820D01*
X121011042Y-125027992D02*
X121041885Y-125000173D01*
X121103571Y-124972354D01*
X121196100Y-124972354D01*
X121257785Y-125000173D01*
X121288628Y-125055811D01*
X121288628Y-125361820D01*
X121843800Y-125334001D02*
X121782114Y-125361820D01*
X121658742Y-125361820D01*
X121597057Y-125334001D01*
X121566214Y-125278363D01*
X121566214Y-125055811D01*
X121597057Y-125000173D01*
X121658742Y-124972354D01*
X121782114Y-124972354D01*
X121843800Y-125000173D01*
X121874642Y-125055811D01*
X121874642Y-125111449D01*
X121566214Y-125167087D01*
X122152228Y-125361820D02*
X122152228Y-124972354D01*
X122152228Y-125083630D02*
X122183071Y-125027992D01*
X122213914Y-125000173D01*
X122275600Y-124972354D01*
X122337285Y-124972354D01*
D11*
X105043514Y-123935429D02*
X105043514Y-122894029D01*
X105142695Y-123538705D02*
X105440238Y-123935429D01*
X105440238Y-123241162D02*
X105043514Y-123637886D01*
X105886552Y-123241162D02*
X105886552Y-123935429D01*
X105886552Y-123340343D02*
X105936142Y-123290753D01*
X106035323Y-123241162D01*
X106184095Y-123241162D01*
X106283276Y-123290753D01*
X106332866Y-123389934D01*
X106332866Y-123935429D01*
X107275085Y-123241162D02*
X107275085Y-123935429D01*
X106828771Y-123241162D02*
X106828771Y-123786658D01*
X106878361Y-123885839D01*
X106977542Y-123935429D01*
X107126314Y-123935429D01*
X107225495Y-123885839D01*
X107275085Y-123836248D01*
X108217304Y-123885839D02*
X108118123Y-123935429D01*
X107919761Y-123935429D01*
X107820580Y-123885839D01*
X107770990Y-123836248D01*
X107721400Y-123737067D01*
X107721400Y-123439524D01*
X107770990Y-123340343D01*
X107820580Y-123290753D01*
X107919761Y-123241162D01*
X108118123Y-123241162D01*
X108217304Y-123290753D01*
X108663619Y-123935429D02*
X108663619Y-122894029D01*
X108762800Y-123538705D02*
X109060342Y-123935429D01*
X109060342Y-123241162D02*
X108663619Y-123637886D01*
X109655428Y-123935429D02*
X109556247Y-123885839D01*
X109506657Y-123786658D01*
X109506657Y-122894029D01*
X110448876Y-123885839D02*
X110349695Y-123935429D01*
X110151333Y-123935429D01*
X110052152Y-123885839D01*
X110002561Y-123786658D01*
X110002561Y-123389934D01*
X110052152Y-123290753D01*
X110151333Y-123241162D01*
X110349695Y-123241162D01*
X110448876Y-123290753D01*
X110498466Y-123389934D01*
X110498466Y-123489115D01*
X110002561Y-123588296D01*
X110944780Y-123538705D02*
X111738228Y-123538705D01*
X112234133Y-123241162D02*
X112234133Y-124282562D01*
X112234133Y-123290753D02*
X112333314Y-123241162D01*
X112531676Y-123241162D01*
X112630857Y-123290753D01*
X112680447Y-123340343D01*
X112730038Y-123439524D01*
X112730038Y-123737067D01*
X112680447Y-123836248D01*
X112630857Y-123885839D01*
X112531676Y-123935429D01*
X112333314Y-123935429D01*
X112234133Y-123885839D01*
X113622666Y-123935429D02*
X113622666Y-123389934D01*
X113573076Y-123290753D01*
X113473895Y-123241162D01*
X113275533Y-123241162D01*
X113176352Y-123290753D01*
X113622666Y-123885839D02*
X113523485Y-123935429D01*
X113275533Y-123935429D01*
X113176352Y-123885839D01*
X113126761Y-123786658D01*
X113126761Y-123687477D01*
X113176352Y-123588296D01*
X113275533Y-123538705D01*
X113523485Y-123538705D01*
X113622666Y-123489115D01*
X114564885Y-123935429D02*
X114564885Y-122894029D01*
X114564885Y-123885839D02*
X114465704Y-123935429D01*
X114267342Y-123935429D01*
X114168161Y-123885839D01*
X114118571Y-123836248D01*
X114068980Y-123737067D01*
X114068980Y-123439524D01*
X114118571Y-123340343D01*
X114168161Y-123290753D01*
X114267342Y-123241162D01*
X114465704Y-123241162D01*
X114564885Y-123290753D01*
D12*
%TO.C,U1*%
X189690651Y-37489667D02*
X190147794Y-37489667D01*
X189919223Y-38289667D02*
X189919223Y-37489667D01*
X190338270Y-37489667D02*
X190871604Y-38289667D01*
X190871604Y-37489667D02*
X190338270Y-38289667D01*
X191328747Y-37489667D02*
X191404937Y-37489667D01*
X191481128Y-37527763D01*
X191519223Y-37565858D01*
X191557318Y-37642048D01*
X191595413Y-37794429D01*
X191595413Y-37984905D01*
X191557318Y-38137286D01*
X191519223Y-38213477D01*
X191481128Y-38251572D01*
X191404937Y-38289667D01*
X191328747Y-38289667D01*
X191252556Y-38251572D01*
X191214461Y-38213477D01*
X191176366Y-38137286D01*
X191138270Y-37984905D01*
X191138270Y-37794429D01*
X191176366Y-37642048D01*
X191214461Y-37565858D01*
X191252556Y-37527763D01*
X191328747Y-37489667D01*
X192509699Y-37451572D02*
X191823985Y-38480143D01*
X192776366Y-38289667D02*
X192776366Y-37489667D01*
X192966842Y-37489667D01*
X193081128Y-37527763D01*
X193157318Y-37603953D01*
X193195413Y-37680143D01*
X193233508Y-37832524D01*
X193233508Y-37946810D01*
X193195413Y-38099191D01*
X193157318Y-38175382D01*
X193081128Y-38251572D01*
X192966842Y-38289667D01*
X192776366Y-38289667D01*
X193500175Y-37489667D02*
X193995413Y-37489667D01*
X193728747Y-37794429D01*
X193843032Y-37794429D01*
X193919223Y-37832524D01*
X193957318Y-37870620D01*
X193995413Y-37946810D01*
X193995413Y-38137286D01*
X193957318Y-38213477D01*
X193919223Y-38251572D01*
X193843032Y-38289667D01*
X193614461Y-38289667D01*
X193538270Y-38251572D01*
X193500175Y-38213477D01*
D13*
%TO.C,G\u002A\u002A\u002A*%
X116113248Y-112662241D02*
X116488383Y-112664663D01*
X116488383Y-112664663D02*
X116768588Y-112670162D01*
X116768588Y-112670162D02*
X116969896Y-112679932D01*
X116969896Y-112679932D02*
X117108343Y-112695171D01*
X117108343Y-112695171D02*
X117199961Y-112717074D01*
X117199961Y-112717074D02*
X117260786Y-112746837D01*
X117260786Y-112746837D02*
X117306850Y-112785655D01*
X117306850Y-112785655D02*
X117308284Y-112787084D01*
X117308284Y-112787084D02*
X117417440Y-112935703D01*
X117417440Y-112935703D02*
X117469083Y-113056959D01*
X117469083Y-113056959D02*
X117474670Y-113143010D01*
X117474670Y-113143010D02*
X117479494Y-113345600D01*
X117479494Y-113345600D02*
X117483518Y-113654273D01*
X117483518Y-113654273D02*
X117486701Y-114058569D01*
X117486701Y-114058569D02*
X117489007Y-114548032D01*
X117489007Y-114548032D02*
X117490394Y-115112202D01*
X117490394Y-115112202D02*
X117490825Y-115740623D01*
X117490825Y-115740623D02*
X117490261Y-116422836D01*
X117490261Y-116422836D02*
X117488663Y-117148384D01*
X117488663Y-117148384D02*
X117486574Y-117763203D01*
X117486574Y-117763203D02*
X117468650Y-122324957D01*
X117468650Y-122324957D02*
X117318740Y-122446328D01*
X117318740Y-122446328D02*
X117263314Y-122484483D01*
X117263314Y-122484483D02*
X117192362Y-122513724D01*
X117192362Y-122513724D02*
X117089531Y-122535224D01*
X117089531Y-122535224D02*
X116938470Y-122550158D01*
X116938470Y-122550158D02*
X116722824Y-122559697D01*
X116722824Y-122559697D02*
X116426242Y-122565016D01*
X116426242Y-122565016D02*
X116032371Y-122567288D01*
X116032371Y-122567288D02*
X115627149Y-122567700D01*
X115627149Y-122567700D02*
X115141695Y-122567046D01*
X115141695Y-122567046D02*
X114766884Y-122564304D01*
X114766884Y-122564304D02*
X114486364Y-122558299D01*
X114486364Y-122558299D02*
X114283783Y-122547858D01*
X114283783Y-122547858D02*
X114142788Y-122531809D01*
X114142788Y-122531809D02*
X114047026Y-122508977D01*
X114047026Y-122508977D02*
X113980145Y-122478190D01*
X113980145Y-122478190D02*
X113935559Y-122446328D01*
X113935559Y-122446328D02*
X113785650Y-122324957D01*
X113785650Y-122324957D02*
X113767725Y-117763203D01*
X113767725Y-117763203D02*
X113765257Y-117010123D01*
X113765257Y-117010123D02*
X113763855Y-116291872D01*
X113763855Y-116291872D02*
X113763480Y-115618907D01*
X113763480Y-115618907D02*
X113764093Y-115001687D01*
X113764093Y-115001687D02*
X113765654Y-114450669D01*
X113765654Y-114450669D02*
X113768126Y-113976312D01*
X113768126Y-113976312D02*
X113771470Y-113589074D01*
X113771470Y-113589074D02*
X113775646Y-113299411D01*
X113775646Y-113299411D02*
X113780615Y-113117784D01*
X113780615Y-113117784D02*
X113785216Y-113056959D01*
X113785216Y-113056959D02*
X113857791Y-112900573D01*
X113857791Y-112900573D02*
X113946015Y-112787084D01*
X113946015Y-112787084D02*
X113991868Y-112747951D01*
X113991868Y-112747951D02*
X114051960Y-112717913D01*
X114051960Y-112717913D02*
X114142323Y-112695773D01*
X114142323Y-112695773D02*
X114278993Y-112680336D01*
X114278993Y-112680336D02*
X114478003Y-112670406D01*
X114478003Y-112670406D02*
X114755386Y-112664787D01*
X114755386Y-112664787D02*
X115127178Y-112662284D01*
X115127178Y-112662284D02*
X115609412Y-112661700D01*
X115609412Y-112661700D02*
X115627150Y-112661700D01*
X115627150Y-112661700D02*
X116113248Y-112662241D01*
X116113248Y-112662241D02*
X116113248Y-112662241D01*
G36*
X116113248Y-112662241D02*
G01*
X116488383Y-112664663D01*
X116768588Y-112670162D01*
X116969896Y-112679932D01*
X117108343Y-112695171D01*
X117199961Y-112717074D01*
X117260786Y-112746837D01*
X117306850Y-112785655D01*
X117308284Y-112787084D01*
X117417440Y-112935703D01*
X117469083Y-113056959D01*
X117474670Y-113143010D01*
X117479494Y-113345600D01*
X117483518Y-113654273D01*
X117486701Y-114058569D01*
X117489007Y-114548032D01*
X117490394Y-115112202D01*
X117490825Y-115740623D01*
X117490261Y-116422836D01*
X117488663Y-117148384D01*
X117486574Y-117763203D01*
X117468650Y-122324957D01*
X117318740Y-122446328D01*
X117263314Y-122484483D01*
X117192362Y-122513724D01*
X117089531Y-122535224D01*
X116938470Y-122550158D01*
X116722824Y-122559697D01*
X116426242Y-122565016D01*
X116032371Y-122567288D01*
X115627149Y-122567700D01*
X115141695Y-122567046D01*
X114766884Y-122564304D01*
X114486364Y-122558299D01*
X114283783Y-122547858D01*
X114142788Y-122531809D01*
X114047026Y-122508977D01*
X113980145Y-122478190D01*
X113935559Y-122446328D01*
X113785650Y-122324957D01*
X113767725Y-117763203D01*
X113765257Y-117010123D01*
X113763855Y-116291872D01*
X113763480Y-115618907D01*
X113764093Y-115001687D01*
X113765654Y-114450669D01*
X113768126Y-113976312D01*
X113771470Y-113589074D01*
X113775646Y-113299411D01*
X113780615Y-113117784D01*
X113785216Y-113056959D01*
X113857791Y-112900573D01*
X113946015Y-112787084D01*
X113991868Y-112747951D01*
X114051960Y-112717913D01*
X114142323Y-112695773D01*
X114278993Y-112680336D01*
X114478003Y-112670406D01*
X114755386Y-112664787D01*
X115127178Y-112662284D01*
X115609412Y-112661700D01*
X115627150Y-112661700D01*
X116113248Y-112662241D01*
G37*
X116113248Y-112662241D02*
X116488383Y-112664663D01*
X116768588Y-112670162D01*
X116969896Y-112679932D01*
X117108343Y-112695171D01*
X117199961Y-112717074D01*
X117260786Y-112746837D01*
X117306850Y-112785655D01*
X117308284Y-112787084D01*
X117417440Y-112935703D01*
X117469083Y-113056959D01*
X117474670Y-113143010D01*
X117479494Y-113345600D01*
X117483518Y-113654273D01*
X117486701Y-114058569D01*
X117489007Y-114548032D01*
X117490394Y-115112202D01*
X117490825Y-115740623D01*
X117490261Y-116422836D01*
X117488663Y-117148384D01*
X117486574Y-117763203D01*
X117468650Y-122324957D01*
X117318740Y-122446328D01*
X117263314Y-122484483D01*
X117192362Y-122513724D01*
X117089531Y-122535224D01*
X116938470Y-122550158D01*
X116722824Y-122559697D01*
X116426242Y-122565016D01*
X116032371Y-122567288D01*
X115627149Y-122567700D01*
X115141695Y-122567046D01*
X114766884Y-122564304D01*
X114486364Y-122558299D01*
X114283783Y-122547858D01*
X114142788Y-122531809D01*
X114047026Y-122508977D01*
X113980145Y-122478190D01*
X113935559Y-122446328D01*
X113785650Y-122324957D01*
X113767725Y-117763203D01*
X113765257Y-117010123D01*
X113763855Y-116291872D01*
X113763480Y-115618907D01*
X113764093Y-115001687D01*
X113765654Y-114450669D01*
X113768126Y-113976312D01*
X113771470Y-113589074D01*
X113775646Y-113299411D01*
X113780615Y-113117784D01*
X113785216Y-113056959D01*
X113857791Y-112900573D01*
X113946015Y-112787084D01*
X113991868Y-112747951D01*
X114051960Y-112717913D01*
X114142323Y-112695773D01*
X114278993Y-112680336D01*
X114478003Y-112670406D01*
X114755386Y-112664787D01*
X115127178Y-112662284D01*
X115609412Y-112661700D01*
X115627150Y-112661700D01*
X116113248Y-112662241D01*
X120555554Y-113519265D02*
X120928198Y-113521134D01*
X120928198Y-113521134D02*
X121206322Y-113525941D01*
X121206322Y-113525941D02*
X121406166Y-113535070D01*
X121406166Y-113535070D02*
X121543969Y-113549905D01*
X121543969Y-113549905D02*
X121635972Y-113571832D01*
X121635972Y-113571832D02*
X121698413Y-113602233D01*
X121698413Y-113602233D02*
X121747533Y-113642493D01*
X121747533Y-113642493D02*
X121769011Y-113663588D01*
X121769011Y-113663588D02*
X121913650Y-113808227D01*
X121913650Y-113808227D02*
X121913650Y-121943920D01*
X121913650Y-121943920D02*
X121763740Y-122065310D01*
X121763740Y-122065310D02*
X121708319Y-122103470D01*
X121708319Y-122103470D02*
X121637383Y-122132715D01*
X121637383Y-122132715D02*
X121534579Y-122154219D01*
X121534579Y-122154219D02*
X121383553Y-122169154D01*
X121383553Y-122169154D02*
X121167953Y-122178695D01*
X121167953Y-122178695D02*
X120871426Y-122184015D01*
X120871426Y-122184015D02*
X120477619Y-122186287D01*
X120477619Y-122186287D02*
X120072149Y-122186700D01*
X120072149Y-122186700D02*
X119586700Y-122186046D01*
X119586700Y-122186046D02*
X119211894Y-122183305D01*
X119211894Y-122183305D02*
X118931379Y-122177301D01*
X118931379Y-122177301D02*
X118728802Y-122166862D01*
X118728802Y-122166862D02*
X118587811Y-122150813D01*
X118587811Y-122150813D02*
X118492052Y-122127983D01*
X118492052Y-122127983D02*
X118425173Y-122097196D01*
X118425173Y-122097196D02*
X118380559Y-122065310D01*
X118380559Y-122065310D02*
X118230650Y-121943920D01*
X118230650Y-121943920D02*
X118230650Y-113808227D01*
X118230650Y-113808227D02*
X118375288Y-113663588D01*
X118375288Y-113663588D02*
X118423688Y-113618573D01*
X118423688Y-113618573D02*
X118478295Y-113584024D01*
X118478295Y-113584024D02*
X118555350Y-113558556D01*
X118555350Y-113558556D02*
X118671092Y-113540784D01*
X118671092Y-113540784D02*
X118841760Y-113529326D01*
X118841760Y-113529326D02*
X119083596Y-113522796D01*
X119083596Y-113522796D02*
X119412838Y-113519811D01*
X119412838Y-113519811D02*
X119845726Y-113518985D01*
X119845726Y-113518985D02*
X120072150Y-113518950D01*
X120072150Y-113518950D02*
X120555554Y-113519265D01*
X120555554Y-113519265D02*
X120555554Y-113519265D01*
G36*
X120555554Y-113519265D02*
G01*
X120928198Y-113521134D01*
X121206322Y-113525941D01*
X121406166Y-113535070D01*
X121543969Y-113549905D01*
X121635972Y-113571832D01*
X121698413Y-113602233D01*
X121747533Y-113642493D01*
X121769011Y-113663588D01*
X121913650Y-113808227D01*
X121913650Y-121943920D01*
X121763740Y-122065310D01*
X121708319Y-122103470D01*
X121637383Y-122132715D01*
X121534579Y-122154219D01*
X121383553Y-122169154D01*
X121167953Y-122178695D01*
X120871426Y-122184015D01*
X120477619Y-122186287D01*
X120072149Y-122186700D01*
X119586700Y-122186046D01*
X119211894Y-122183305D01*
X118931379Y-122177301D01*
X118728802Y-122166862D01*
X118587811Y-122150813D01*
X118492052Y-122127983D01*
X118425173Y-122097196D01*
X118380559Y-122065310D01*
X118230650Y-121943920D01*
X118230650Y-113808227D01*
X118375288Y-113663588D01*
X118423688Y-113618573D01*
X118478295Y-113584024D01*
X118555350Y-113558556D01*
X118671092Y-113540784D01*
X118841760Y-113529326D01*
X119083596Y-113522796D01*
X119412838Y-113519811D01*
X119845726Y-113518985D01*
X120072150Y-113518950D01*
X120555554Y-113519265D01*
G37*
X120555554Y-113519265D02*
X120928198Y-113521134D01*
X121206322Y-113525941D01*
X121406166Y-113535070D01*
X121543969Y-113549905D01*
X121635972Y-113571832D01*
X121698413Y-113602233D01*
X121747533Y-113642493D01*
X121769011Y-113663588D01*
X121913650Y-113808227D01*
X121913650Y-121943920D01*
X121763740Y-122065310D01*
X121708319Y-122103470D01*
X121637383Y-122132715D01*
X121534579Y-122154219D01*
X121383553Y-122169154D01*
X121167953Y-122178695D01*
X120871426Y-122184015D01*
X120477619Y-122186287D01*
X120072149Y-122186700D01*
X119586700Y-122186046D01*
X119211894Y-122183305D01*
X118931379Y-122177301D01*
X118728802Y-122166862D01*
X118587811Y-122150813D01*
X118492052Y-122127983D01*
X118425173Y-122097196D01*
X118380559Y-122065310D01*
X118230650Y-121943920D01*
X118230650Y-113808227D01*
X118375288Y-113663588D01*
X118423688Y-113618573D01*
X118478295Y-113584024D01*
X118555350Y-113558556D01*
X118671092Y-113540784D01*
X118841760Y-113529326D01*
X119083596Y-113522796D01*
X119412838Y-113519811D01*
X119845726Y-113518985D01*
X120072150Y-113518950D01*
X120555554Y-113519265D01*
X111665554Y-113519265D02*
X112038198Y-113521134D01*
X112038198Y-113521134D02*
X112316322Y-113525941D01*
X112316322Y-113525941D02*
X112516166Y-113535070D01*
X112516166Y-113535070D02*
X112653969Y-113549905D01*
X112653969Y-113549905D02*
X112745972Y-113571832D01*
X112745972Y-113571832D02*
X112808413Y-113602233D01*
X112808413Y-113602233D02*
X112857533Y-113642493D01*
X112857533Y-113642493D02*
X112879011Y-113663588D01*
X112879011Y-113663588D02*
X113023650Y-113808227D01*
X113023650Y-113808227D02*
X113023650Y-121943920D01*
X113023650Y-121943920D02*
X112873740Y-122065310D01*
X112873740Y-122065310D02*
X112818319Y-122103470D01*
X112818319Y-122103470D02*
X112747383Y-122132715D01*
X112747383Y-122132715D02*
X112644579Y-122154219D01*
X112644579Y-122154219D02*
X112493553Y-122169154D01*
X112493553Y-122169154D02*
X112277953Y-122178695D01*
X112277953Y-122178695D02*
X111981426Y-122184015D01*
X111981426Y-122184015D02*
X111587619Y-122186287D01*
X111587619Y-122186287D02*
X111182149Y-122186700D01*
X111182149Y-122186700D02*
X110696700Y-122186046D01*
X110696700Y-122186046D02*
X110321894Y-122183305D01*
X110321894Y-122183305D02*
X110041379Y-122177301D01*
X110041379Y-122177301D02*
X109838802Y-122166862D01*
X109838802Y-122166862D02*
X109697811Y-122150813D01*
X109697811Y-122150813D02*
X109602052Y-122127983D01*
X109602052Y-122127983D02*
X109535173Y-122097196D01*
X109535173Y-122097196D02*
X109490559Y-122065310D01*
X109490559Y-122065310D02*
X109340650Y-121943920D01*
X109340650Y-121943920D02*
X109340650Y-113808227D01*
X109340650Y-113808227D02*
X109485288Y-113663588D01*
X109485288Y-113663588D02*
X109533688Y-113618573D01*
X109533688Y-113618573D02*
X109588295Y-113584024D01*
X109588295Y-113584024D02*
X109665350Y-113558556D01*
X109665350Y-113558556D02*
X109781092Y-113540784D01*
X109781092Y-113540784D02*
X109951760Y-113529326D01*
X109951760Y-113529326D02*
X110193596Y-113522796D01*
X110193596Y-113522796D02*
X110522838Y-113519811D01*
X110522838Y-113519811D02*
X110955726Y-113518985D01*
X110955726Y-113518985D02*
X111182150Y-113518950D01*
X111182150Y-113518950D02*
X111665554Y-113519265D01*
X111665554Y-113519265D02*
X111665554Y-113519265D01*
G36*
X111665554Y-113519265D02*
G01*
X112038198Y-113521134D01*
X112316322Y-113525941D01*
X112516166Y-113535070D01*
X112653969Y-113549905D01*
X112745972Y-113571832D01*
X112808413Y-113602233D01*
X112857533Y-113642493D01*
X112879011Y-113663588D01*
X113023650Y-113808227D01*
X113023650Y-121943920D01*
X112873740Y-122065310D01*
X112818319Y-122103470D01*
X112747383Y-122132715D01*
X112644579Y-122154219D01*
X112493553Y-122169154D01*
X112277953Y-122178695D01*
X111981426Y-122184015D01*
X111587619Y-122186287D01*
X111182149Y-122186700D01*
X110696700Y-122186046D01*
X110321894Y-122183305D01*
X110041379Y-122177301D01*
X109838802Y-122166862D01*
X109697811Y-122150813D01*
X109602052Y-122127983D01*
X109535173Y-122097196D01*
X109490559Y-122065310D01*
X109340650Y-121943920D01*
X109340650Y-113808227D01*
X109485288Y-113663588D01*
X109533688Y-113618573D01*
X109588295Y-113584024D01*
X109665350Y-113558556D01*
X109781092Y-113540784D01*
X109951760Y-113529326D01*
X110193596Y-113522796D01*
X110522838Y-113519811D01*
X110955726Y-113518985D01*
X111182150Y-113518950D01*
X111665554Y-113519265D01*
G37*
X111665554Y-113519265D02*
X112038198Y-113521134D01*
X112316322Y-113525941D01*
X112516166Y-113535070D01*
X112653969Y-113549905D01*
X112745972Y-113571832D01*
X112808413Y-113602233D01*
X112857533Y-113642493D01*
X112879011Y-113663588D01*
X113023650Y-113808227D01*
X113023650Y-121943920D01*
X112873740Y-122065310D01*
X112818319Y-122103470D01*
X112747383Y-122132715D01*
X112644579Y-122154219D01*
X112493553Y-122169154D01*
X112277953Y-122178695D01*
X111981426Y-122184015D01*
X111587619Y-122186287D01*
X111182149Y-122186700D01*
X110696700Y-122186046D01*
X110321894Y-122183305D01*
X110041379Y-122177301D01*
X109838802Y-122166862D01*
X109697811Y-122150813D01*
X109602052Y-122127983D01*
X109535173Y-122097196D01*
X109490559Y-122065310D01*
X109340650Y-121943920D01*
X109340650Y-113808227D01*
X109485288Y-113663588D01*
X109533688Y-113618573D01*
X109588295Y-113584024D01*
X109665350Y-113558556D01*
X109781092Y-113540784D01*
X109951760Y-113529326D01*
X110193596Y-113522796D01*
X110522838Y-113519811D01*
X110955726Y-113518985D01*
X111182150Y-113518950D01*
X111665554Y-113519265D01*
X118135400Y-121366084D02*
X118137673Y-121642166D01*
X118137673Y-121642166D02*
X118149818Y-121824050D01*
X118149818Y-121824050D02*
X118179822Y-121944528D01*
X118179822Y-121944528D02*
X118235673Y-122036389D01*
X118235673Y-122036389D02*
X118321015Y-122128084D01*
X118321015Y-122128084D02*
X118506630Y-122313700D01*
X118506630Y-122313700D02*
X121637669Y-122313700D01*
X121637669Y-122313700D02*
X121823284Y-122128084D01*
X121823284Y-122128084D02*
X121911177Y-122033233D01*
X121911177Y-122033233D02*
X121965791Y-121941283D01*
X121965791Y-121941283D02*
X121995020Y-121819642D01*
X121995020Y-121819642D02*
X122006758Y-121635722D01*
X122006758Y-121635722D02*
X122008900Y-121361805D01*
X122008900Y-121361805D02*
X122010118Y-121089121D01*
X122010118Y-121089121D02*
X122017745Y-120921014D01*
X122017745Y-120921014D02*
X122037734Y-120835060D01*
X122037734Y-120835060D02*
X122076040Y-120808837D01*
X122076040Y-120808837D02*
X122138617Y-120819921D01*
X122138617Y-120819921D02*
X122151775Y-120823807D01*
X122151775Y-120823807D02*
X122308886Y-120901662D01*
X122308886Y-120901662D02*
X122421650Y-120988600D01*
X122421650Y-120988600D02*
X122461300Y-121033027D01*
X122461300Y-121033027D02*
X122491726Y-121091087D01*
X122491726Y-121091087D02*
X122514143Y-121178806D01*
X122514143Y-121178806D02*
X122529767Y-121312212D01*
X122529767Y-121312212D02*
X122539814Y-121507332D01*
X122539814Y-121507332D02*
X122545499Y-121780193D01*
X122545499Y-121780193D02*
X122548039Y-122146823D01*
X122548039Y-122146823D02*
X122548648Y-122623248D01*
X122548648Y-122623248D02*
X122548650Y-122662950D01*
X122548650Y-122662950D02*
X122548334Y-123146357D01*
X122548334Y-123146357D02*
X122546464Y-123519004D01*
X122546464Y-123519004D02*
X122541655Y-123797131D01*
X122541655Y-123797131D02*
X122532525Y-123996979D01*
X122532525Y-123996979D02*
X122517688Y-124134786D01*
X122517688Y-124134786D02*
X122495762Y-124226793D01*
X122495762Y-124226793D02*
X122465362Y-124289240D01*
X122465362Y-124289240D02*
X122425104Y-124338367D01*
X122425104Y-124338367D02*
X122404047Y-124359811D01*
X122404047Y-124359811D02*
X122259445Y-124504450D01*
X122259445Y-124504450D02*
X118879797Y-124520271D01*
X118879797Y-124520271D02*
X118097014Y-124523283D01*
X118097014Y-124523283D02*
X117432488Y-124524302D01*
X117432488Y-124524302D02*
X116877493Y-124523169D01*
X116877493Y-124523169D02*
X116423299Y-124519724D01*
X116423299Y-124519724D02*
X116061178Y-124513806D01*
X116061178Y-124513806D02*
X115782402Y-124505257D01*
X115782402Y-124505257D02*
X115578242Y-124493917D01*
X115578242Y-124493917D02*
X115439969Y-124479625D01*
X115439969Y-124479625D02*
X115358856Y-124462223D01*
X115358856Y-124462223D02*
X115342651Y-124455519D01*
X115342651Y-124455519D02*
X115212306Y-124365126D01*
X115212306Y-124365126D02*
X115121696Y-124235458D01*
X115121696Y-124235458D02*
X115064480Y-124045008D01*
X115064480Y-124045008D02*
X115034320Y-123772266D01*
X115034320Y-123772266D02*
X115024873Y-123395722D01*
X115024873Y-123395722D02*
X115024836Y-123377325D01*
X115024836Y-123377325D02*
X115023900Y-122694700D01*
X115023900Y-122694700D02*
X117192669Y-122694700D01*
X117192669Y-122694700D02*
X117378284Y-122509084D01*
X117378284Y-122509084D02*
X117456319Y-122427196D01*
X117456319Y-122427196D02*
X117508693Y-122349170D01*
X117508693Y-122349170D02*
X117540521Y-122248753D01*
X117540521Y-122248753D02*
X117556921Y-122099690D01*
X117556921Y-122099690D02*
X117563009Y-121875727D01*
X117563009Y-121875727D02*
X117563900Y-121556584D01*
X117563900Y-121556584D02*
X117563900Y-120789700D01*
X117563900Y-120789700D02*
X118135400Y-120789700D01*
X118135400Y-120789700D02*
X118135400Y-121366084D01*
X118135400Y-121366084D02*
X118135400Y-121366084D01*
G36*
X118135400Y-121366084D02*
G01*
X118137673Y-121642166D01*
X118149818Y-121824050D01*
X118179822Y-121944528D01*
X118235673Y-122036389D01*
X118321015Y-122128084D01*
X118506630Y-122313700D01*
X121637669Y-122313700D01*
X121823284Y-122128084D01*
X121911177Y-122033233D01*
X121965791Y-121941283D01*
X121995020Y-121819642D01*
X122006758Y-121635722D01*
X122008900Y-121361805D01*
X122010118Y-121089121D01*
X122017745Y-120921014D01*
X122037734Y-120835060D01*
X122076040Y-120808837D01*
X122138617Y-120819921D01*
X122151775Y-120823807D01*
X122308886Y-120901662D01*
X122421650Y-120988600D01*
X122461300Y-121033027D01*
X122491726Y-121091087D01*
X122514143Y-121178806D01*
X122529767Y-121312212D01*
X122539814Y-121507332D01*
X122545499Y-121780193D01*
X122548039Y-122146823D01*
X122548648Y-122623248D01*
X122548650Y-122662950D01*
X122548334Y-123146357D01*
X122546464Y-123519004D01*
X122541655Y-123797131D01*
X122532525Y-123996979D01*
X122517688Y-124134786D01*
X122495762Y-124226793D01*
X122465362Y-124289240D01*
X122425104Y-124338367D01*
X122404047Y-124359811D01*
X122259445Y-124504450D01*
X118879797Y-124520271D01*
X118097014Y-124523283D01*
X117432488Y-124524302D01*
X116877493Y-124523169D01*
X116423299Y-124519724D01*
X116061178Y-124513806D01*
X115782402Y-124505257D01*
X115578242Y-124493917D01*
X115439969Y-124479625D01*
X115358856Y-124462223D01*
X115342651Y-124455519D01*
X115212306Y-124365126D01*
X115121696Y-124235458D01*
X115064480Y-124045008D01*
X115034320Y-123772266D01*
X115024873Y-123395722D01*
X115024836Y-123377325D01*
X115023900Y-122694700D01*
X117192669Y-122694700D01*
X117378284Y-122509084D01*
X117456319Y-122427196D01*
X117508693Y-122349170D01*
X117540521Y-122248753D01*
X117556921Y-122099690D01*
X117563009Y-121875727D01*
X117563900Y-121556584D01*
X117563900Y-120789700D01*
X118135400Y-120789700D01*
X118135400Y-121366084D01*
G37*
X118135400Y-121366084D02*
X118137673Y-121642166D01*
X118149818Y-121824050D01*
X118179822Y-121944528D01*
X118235673Y-122036389D01*
X118321015Y-122128084D01*
X118506630Y-122313700D01*
X121637669Y-122313700D01*
X121823284Y-122128084D01*
X121911177Y-122033233D01*
X121965791Y-121941283D01*
X121995020Y-121819642D01*
X122006758Y-121635722D01*
X122008900Y-121361805D01*
X122010118Y-121089121D01*
X122017745Y-120921014D01*
X122037734Y-120835060D01*
X122076040Y-120808837D01*
X122138617Y-120819921D01*
X122151775Y-120823807D01*
X122308886Y-120901662D01*
X122421650Y-120988600D01*
X122461300Y-121033027D01*
X122491726Y-121091087D01*
X122514143Y-121178806D01*
X122529767Y-121312212D01*
X122539814Y-121507332D01*
X122545499Y-121780193D01*
X122548039Y-122146823D01*
X122548648Y-122623248D01*
X122548650Y-122662950D01*
X122548334Y-123146357D01*
X122546464Y-123519004D01*
X122541655Y-123797131D01*
X122532525Y-123996979D01*
X122517688Y-124134786D01*
X122495762Y-124226793D01*
X122465362Y-124289240D01*
X122425104Y-124338367D01*
X122404047Y-124359811D01*
X122259445Y-124504450D01*
X118879797Y-124520271D01*
X118097014Y-124523283D01*
X117432488Y-124524302D01*
X116877493Y-124523169D01*
X116423299Y-124519724D01*
X116061178Y-124513806D01*
X115782402Y-124505257D01*
X115578242Y-124493917D01*
X115439969Y-124479625D01*
X115358856Y-124462223D01*
X115342651Y-124455519D01*
X115212306Y-124365126D01*
X115121696Y-124235458D01*
X115064480Y-124045008D01*
X115034320Y-123772266D01*
X115024873Y-123395722D01*
X115024836Y-123377325D01*
X115023900Y-122694700D01*
X117192669Y-122694700D01*
X117378284Y-122509084D01*
X117456319Y-122427196D01*
X117508693Y-122349170D01*
X117540521Y-122248753D01*
X117556921Y-122099690D01*
X117563009Y-121875727D01*
X117563900Y-121556584D01*
X117563900Y-120789700D01*
X118135400Y-120789700D01*
X118135400Y-121366084D01*
X107220554Y-114471765D02*
X107593198Y-114473634D01*
X107593198Y-114473634D02*
X107871322Y-114478441D01*
X107871322Y-114478441D02*
X108071166Y-114487570D01*
X108071166Y-114487570D02*
X108208969Y-114502405D01*
X108208969Y-114502405D02*
X108300972Y-114524332D01*
X108300972Y-114524332D02*
X108363413Y-114554733D01*
X108363413Y-114554733D02*
X108412533Y-114594993D01*
X108412533Y-114594993D02*
X108434011Y-114616088D01*
X108434011Y-114616088D02*
X108578650Y-114760727D01*
X108578650Y-114760727D02*
X108578650Y-121675172D01*
X108578650Y-121675172D02*
X108434133Y-121819811D01*
X108434133Y-121819811D02*
X108383948Y-121865928D01*
X108383948Y-121865928D02*
X108326264Y-121901264D01*
X108326264Y-121901264D02*
X108244331Y-121927489D01*
X108244331Y-121927489D02*
X108121398Y-121946270D01*
X108121398Y-121946270D02*
X107940711Y-121959278D01*
X107940711Y-121959278D02*
X107685520Y-121968181D01*
X107685520Y-121968181D02*
X107339073Y-121974647D01*
X107339073Y-121974647D02*
X106884619Y-121980347D01*
X106884619Y-121980347D02*
X106814883Y-121981139D01*
X106814883Y-121981139D02*
X106297585Y-121984962D01*
X106297585Y-121984962D02*
X105894404Y-121982995D01*
X105894404Y-121982995D02*
X105592566Y-121974732D01*
X105592566Y-121974732D02*
X105379299Y-121959666D01*
X105379299Y-121959666D02*
X105241829Y-121937290D01*
X105241829Y-121937290D02*
X105182651Y-121916388D01*
X105182651Y-121916388D02*
X105114703Y-121879831D01*
X105114703Y-121879831D02*
X105057181Y-121839328D01*
X105057181Y-121839328D02*
X105009270Y-121784712D01*
X105009270Y-121784712D02*
X104970156Y-121705816D01*
X104970156Y-121705816D02*
X104939023Y-121592475D01*
X104939023Y-121592475D02*
X104915055Y-121434521D01*
X104915055Y-121434521D02*
X104897437Y-121221789D01*
X104897437Y-121221789D02*
X104885354Y-120944112D01*
X104885354Y-120944112D02*
X104877991Y-120591323D01*
X104877991Y-120591323D02*
X104874532Y-120153257D01*
X104874532Y-120153257D02*
X104874162Y-119619747D01*
X104874162Y-119619747D02*
X104876066Y-118980626D01*
X104876066Y-118980626D02*
X104879428Y-118225729D01*
X104879428Y-118225729D02*
X104879828Y-118140302D01*
X104879828Y-118140302D02*
X104895650Y-114760654D01*
X104895650Y-114760654D02*
X105040288Y-114616052D01*
X105040288Y-114616052D02*
X105088694Y-114571048D01*
X105088694Y-114571048D02*
X105143318Y-114536507D01*
X105143318Y-114536507D02*
X105220400Y-114511045D01*
X105220400Y-114511045D02*
X105336180Y-114493279D01*
X105336180Y-114493279D02*
X105506899Y-114481823D01*
X105506899Y-114481823D02*
X105748796Y-114475295D01*
X105748796Y-114475295D02*
X106078111Y-114472310D01*
X106078111Y-114472310D02*
X106511085Y-114471485D01*
X106511085Y-114471485D02*
X106737150Y-114471450D01*
X106737150Y-114471450D02*
X107220554Y-114471765D01*
X107220554Y-114471765D02*
X107220554Y-114471765D01*
G36*
X107220554Y-114471765D02*
G01*
X107593198Y-114473634D01*
X107871322Y-114478441D01*
X108071166Y-114487570D01*
X108208969Y-114502405D01*
X108300972Y-114524332D01*
X108363413Y-114554733D01*
X108412533Y-114594993D01*
X108434011Y-114616088D01*
X108578650Y-114760727D01*
X108578650Y-121675172D01*
X108434133Y-121819811D01*
X108383948Y-121865928D01*
X108326264Y-121901264D01*
X108244331Y-121927489D01*
X108121398Y-121946270D01*
X107940711Y-121959278D01*
X107685520Y-121968181D01*
X107339073Y-121974647D01*
X106884619Y-121980347D01*
X106814883Y-121981139D01*
X106297585Y-121984962D01*
X105894404Y-121982995D01*
X105592566Y-121974732D01*
X105379299Y-121959666D01*
X105241829Y-121937290D01*
X105182651Y-121916388D01*
X105114703Y-121879831D01*
X105057181Y-121839328D01*
X105009270Y-121784712D01*
X104970156Y-121705816D01*
X104939023Y-121592475D01*
X104915055Y-121434521D01*
X104897437Y-121221789D01*
X104885354Y-120944112D01*
X104877991Y-120591323D01*
X104874532Y-120153257D01*
X104874162Y-119619747D01*
X104876066Y-118980626D01*
X104879428Y-118225729D01*
X104879828Y-118140302D01*
X104895650Y-114760654D01*
X105040288Y-114616052D01*
X105088694Y-114571048D01*
X105143318Y-114536507D01*
X105220400Y-114511045D01*
X105336180Y-114493279D01*
X105506899Y-114481823D01*
X105748796Y-114475295D01*
X106078111Y-114472310D01*
X106511085Y-114471485D01*
X106737150Y-114471450D01*
X107220554Y-114471765D01*
G37*
X107220554Y-114471765D02*
X107593198Y-114473634D01*
X107871322Y-114478441D01*
X108071166Y-114487570D01*
X108208969Y-114502405D01*
X108300972Y-114524332D01*
X108363413Y-114554733D01*
X108412533Y-114594993D01*
X108434011Y-114616088D01*
X108578650Y-114760727D01*
X108578650Y-121675172D01*
X108434133Y-121819811D01*
X108383948Y-121865928D01*
X108326264Y-121901264D01*
X108244331Y-121927489D01*
X108121398Y-121946270D01*
X107940711Y-121959278D01*
X107685520Y-121968181D01*
X107339073Y-121974647D01*
X106884619Y-121980347D01*
X106814883Y-121981139D01*
X106297585Y-121984962D01*
X105894404Y-121982995D01*
X105592566Y-121974732D01*
X105379299Y-121959666D01*
X105241829Y-121937290D01*
X105182651Y-121916388D01*
X105114703Y-121879831D01*
X105057181Y-121839328D01*
X105009270Y-121784712D01*
X104970156Y-121705816D01*
X104939023Y-121592475D01*
X104915055Y-121434521D01*
X104897437Y-121221789D01*
X104885354Y-120944112D01*
X104877991Y-120591323D01*
X104874532Y-120153257D01*
X104874162Y-119619747D01*
X104876066Y-118980626D01*
X104879428Y-118225729D01*
X104879828Y-118140302D01*
X104895650Y-114760654D01*
X105040288Y-114616052D01*
X105088694Y-114571048D01*
X105143318Y-114536507D01*
X105220400Y-114511045D01*
X105336180Y-114493279D01*
X105506899Y-114481823D01*
X105748796Y-114475295D01*
X106078111Y-114472310D01*
X106511085Y-114471485D01*
X106737150Y-114471450D01*
X107220554Y-114471765D01*
%TD*%
D14*
%TO.C,U1*%
X187604400Y-37927763D03*
D15*
X188061600Y-40467763D03*
X187604400Y-43007763D03*
X188061600Y-45547763D03*
X187604400Y-48087763D03*
X188061600Y-50627763D03*
X187604400Y-53167763D03*
X188061600Y-55707763D03*
X187604400Y-58247763D03*
X188061600Y-60787763D03*
X187604400Y-63327763D03*
X188061600Y-65867763D03*
X202844400Y-65867763D03*
X203301600Y-63327763D03*
X202844400Y-60787763D03*
X203301600Y-58247763D03*
X202844400Y-55707763D03*
X203301600Y-53167763D03*
X202844400Y-50627763D03*
X203301600Y-48087763D03*
X202844400Y-45547763D03*
X203301600Y-43007763D03*
X202844400Y-40467763D03*
X203301600Y-37927763D03*
%TD*%
%LPC*%
D14*
%TO.C,U1*%
X187604400Y-37927763D03*
D15*
X188061600Y-40467763D03*
X187604400Y-43007763D03*
X188061600Y-45547763D03*
X187604400Y-48087763D03*
X188061600Y-50627763D03*
X187604400Y-53167763D03*
X188061600Y-55707763D03*
X187604400Y-58247763D03*
X188061600Y-60787763D03*
X187604400Y-63327763D03*
X188061600Y-65867763D03*
X202844400Y-65867763D03*
X203301600Y-63327763D03*
X202844400Y-60787763D03*
X203301600Y-58247763D03*
X202844400Y-55707763D03*
X203301600Y-53167763D03*
X202844400Y-50627763D03*
X203301600Y-48087763D03*
X202844400Y-45547763D03*
X203301600Y-43007763D03*
X202844400Y-40467763D03*
X203301600Y-37927763D03*
%TD*%
D16*
%TO.C,SW1*%
X96037400Y-47498000D03*
D17*
X90957400Y-47498000D03*
D16*
X85877400Y-47498000D03*
%TD*%
%TO.C,SW2*%
X96037400Y-66548000D03*
X85877400Y-66548000D03*
D17*
X90957400Y-66548000D03*
%TD*%
D16*
%TO.C,SW3*%
X85877400Y-85598000D03*
X96037400Y-85598000D03*
D17*
X90957400Y-85598000D03*
%TD*%
D16*
%TO.C,SW4*%
X85877400Y-104648000D03*
D17*
X90957400Y-104648000D03*
D16*
X96037400Y-104648000D03*
%TD*%
%TO.C,SW5*%
X96037400Y-123698000D03*
X85877400Y-123698000D03*
D17*
X90957400Y-123698000D03*
%TD*%
%TO.C,SW6*%
X114808000Y-45720000D03*
D16*
X119888000Y-45720000D03*
X109728000Y-45720000D03*
%TD*%
%TO.C,SW7*%
X119888000Y-64770000D03*
X109728000Y-64770000D03*
D17*
X114808000Y-64770000D03*
%TD*%
%TO.C,SW8*%
X114808000Y-83820000D03*
D16*
X119888000Y-83820000D03*
X109728000Y-83820000D03*
%TD*%
%TO.C,SW9*%
X119888000Y-102870000D03*
X109728000Y-102870000D03*
D17*
X114808000Y-102870000D03*
%TD*%
D16*
%TO.C,SW10*%
X138938000Y-43434000D03*
X128778000Y-43434000D03*
D17*
X133858000Y-43434000D03*
%TD*%
%TO.C,SW11*%
X133858000Y-62484000D03*
D16*
X128778000Y-62484000D03*
X138938000Y-62484000D03*
%TD*%
D17*
%TO.C,SW12*%
X133858000Y-81534000D03*
D16*
X138938000Y-81534000D03*
X128778000Y-81534000D03*
%TD*%
D17*
%TO.C,SW13*%
X133858000Y-100584000D03*
D16*
X128778000Y-100584000D03*
X138938000Y-100584000D03*
%TD*%
%TO.C,SW14*%
X136853639Y-127294538D03*
D17*
X132080000Y-129032000D03*
D16*
X127306361Y-130769462D03*
%TD*%
D17*
%TO.C,SW15*%
X152908000Y-45720000D03*
D16*
X147828000Y-45720000D03*
X157988000Y-45720000D03*
%TD*%
D17*
%TO.C,SW16*%
X152908000Y-64770000D03*
D16*
X157988000Y-64770000D03*
X147828000Y-64770000D03*
%TD*%
%TO.C,SW17*%
X147828000Y-83820000D03*
D17*
X152908000Y-83820000D03*
D16*
X157988000Y-83820000D03*
%TD*%
D17*
%TO.C,SW18*%
X152908000Y-102870000D03*
D16*
X157988000Y-102870000D03*
X147828000Y-102870000D03*
%TD*%
%TO.C,SW19*%
X159258000Y-125222000D03*
D17*
X154178000Y-125222000D03*
D16*
X149098000Y-125222000D03*
%TD*%
%TO.C,SW20*%
X166878000Y-45720000D03*
X177038000Y-45720000D03*
D17*
X171958000Y-45720000D03*
%TD*%
%TO.C,SW21*%
X171958000Y-64770000D03*
D16*
X166878000Y-64770000D03*
X177038000Y-64770000D03*
%TD*%
%TO.C,SW22*%
X166878000Y-83820000D03*
D17*
X171958000Y-83820000D03*
D16*
X177038000Y-83820000D03*
%TD*%
%TO.C,SW23*%
X166878000Y-102870000D03*
D17*
X171958000Y-102870000D03*
D16*
X177038000Y-102870000D03*
%TD*%
%TO.C,SW24*%
X180697102Y-128990963D03*
X170838898Y-126533037D03*
D17*
X175768000Y-127762000D03*
%TD*%
%TO.C,SW25*%
X191008000Y-83820000D03*
D16*
X196088000Y-83820000D03*
X185928000Y-83820000D03*
%TD*%
%TO.C,SW26*%
X196088000Y-102870000D03*
X185928000Y-102870000D03*
D17*
X191008000Y-102870000D03*
%TD*%
%TO.C,SW27*%
X196088000Y-136652000D03*
D16*
X191779916Y-133960010D03*
X200396084Y-139343990D03*
%TD*%
D18*
%TO.C,H2*%
X103949500Y-91186000D03*
%TD*%
%TO.C,H8*%
X204470000Y-69723000D03*
%TD*%
%TO.C,H5*%
X181483000Y-91186000D03*
%TD*%
%TO.C,H3*%
X109435900Y-129984500D03*
%TD*%
%TO.C,H6*%
X188722000Y-118364000D03*
%TD*%
%TO.C,H4*%
X181483000Y-53086000D03*
%TD*%
%TO.C,H7*%
X186436000Y-69723000D03*
%TD*%
%TO.C,H1*%
X103949500Y-53086000D03*
%TD*%
D19*
%TO.C,D1*%
X101346000Y-48514000D03*
D20*
X101346000Y-40894000D03*
%TD*%
D19*
%TO.C,D2*%
X101346000Y-67561000D03*
D20*
X101346000Y-59941000D03*
%TD*%
D19*
%TO.C,D3*%
X101346000Y-86614000D03*
D20*
X101346000Y-78994000D03*
%TD*%
D19*
%TO.C,D4*%
X101346000Y-105664000D03*
D20*
X101346000Y-98044000D03*
%TD*%
D19*
%TO.C,D5*%
X102870000Y-126492000D03*
D20*
X102870000Y-118872000D03*
%TD*%
D19*
%TO.C,D6*%
X104394000Y-48514000D03*
D20*
X104394000Y-40894000D03*
%TD*%
D19*
%TO.C,D7*%
X104394000Y-67564000D03*
D20*
X104394000Y-59944000D03*
%TD*%
D19*
%TO.C,D8*%
X104394000Y-86614000D03*
D20*
X104394000Y-78994000D03*
%TD*%
D19*
%TO.C,D9*%
X104394000Y-105664000D03*
D20*
X104394000Y-98044000D03*
%TD*%
D19*
%TO.C,D10*%
X124300000Y-48514000D03*
D20*
X124300000Y-40894000D03*
%TD*%
D19*
%TO.C,D11*%
X124300000Y-67564000D03*
D20*
X124300000Y-59944000D03*
%TD*%
D19*
%TO.C,D12*%
X124300000Y-86614000D03*
D20*
X124300000Y-78994000D03*
%TD*%
D19*
%TO.C,D13*%
X124300000Y-105664000D03*
D20*
X124300000Y-98044000D03*
%TD*%
D21*
%TO.C,D14*%
X121498176Y-137565033D03*
D22*
X118277824Y-130658967D03*
%TD*%
D19*
%TO.C,D15*%
X143383000Y-48514000D03*
D20*
X143383000Y-40894000D03*
%TD*%
D19*
%TO.C,D16*%
X143383000Y-67564000D03*
D20*
X143383000Y-59944000D03*
%TD*%
D19*
%TO.C,D17*%
X143383000Y-86614000D03*
D20*
X143383000Y-78994000D03*
%TD*%
D19*
%TO.C,D18*%
X143383000Y-105664000D03*
D20*
X143383000Y-98044000D03*
%TD*%
D23*
%TO.C,D19*%
X142923505Y-128902177D03*
D24*
X140951303Y-121541823D03*
%TD*%
D19*
%TO.C,D20*%
X162560000Y-48514000D03*
D20*
X162560000Y-40894000D03*
%TD*%
D19*
%TO.C,D21*%
X162560000Y-67564000D03*
D20*
X162560000Y-59944000D03*
%TD*%
D19*
%TO.C,D22*%
X162560000Y-86614000D03*
D20*
X162560000Y-78994000D03*
%TD*%
D19*
%TO.C,D23*%
X162560000Y-105664000D03*
D20*
X162560000Y-98044000D03*
%TD*%
D25*
%TO.C,D24*%
X164946400Y-128974118D03*
D26*
X166269600Y-121469882D03*
%TD*%
D19*
%TO.C,D25*%
X181483000Y-86614000D03*
D20*
X181483000Y-78994000D03*
%TD*%
D19*
%TO.C,D26*%
X181483000Y-105664000D03*
D20*
X181483000Y-98044000D03*
%TD*%
D27*
%TO.C,D27*%
X185293000Y-133601557D03*
D28*
X189103000Y-127002443D03*
%TD*%
D29*
%TO.C,RST1*%
X206756000Y-43001000D03*
X206756000Y-36501000D03*
%TD*%
M02*
