%TF.GenerationSoftware,KiCad,Pcbnew,5.99.0-unknown-5f3c67bd2b~134~ubuntu20.04.1*%
%TF.CreationDate,2021-09-28T13:01:48+02:00*%
%TF.ProjectId,knuckle-pad,6b6e7563-6b6c-4652-9d70-61642e6b6963,rev?*%
%TF.SameCoordinates,Original*%
%TF.FileFunction,Legend,Bot*%
%TF.FilePolarity,Positive*%
%FSLAX46Y46*%
G04 Gerber Fmt 4.6, Leading zero omitted, Abs format (unit mm)*
G04 Created by KiCad (PCBNEW 5.99.0-unknown-5f3c67bd2b~134~ubuntu20.04.1) date 2021-09-28 13:01:48*
%MOMM*%
%LPD*%
G01*
G04 APERTURE LIST*
G04 Aperture macros list*
%AMRoundRect*
0 Rectangle with rounded corners*
0 $1 Rounding radius*
0 $2 $3 $4 $5 $6 $7 $8 $9 X,Y pos of 4 corners*
0 Add a 4 corners polygon primitive as box body*
4,1,4,$2,$3,$4,$5,$6,$7,$8,$9,$2,$3,0*
0 Add four circle primitives for the rounded corners*
1,1,$1+$1,$2,$3*
1,1,$1+$1,$4,$5*
1,1,$1+$1,$6,$7*
1,1,$1+$1,$8,$9*
0 Add four rect primitives between the rounded corners*
20,1,$1+$1,$2,$3,$4,$5,0*
20,1,$1+$1,$4,$5,$6,$7,0*
20,1,$1+$1,$6,$7,$8,$9,0*
20,1,$1+$1,$8,$9,$2,$3,0*%
%AMHorizOval*
0 Thick line with rounded ends*
0 $1 width*
0 $2 $3 position (X,Y) of the first rounded end (center of the circle)*
0 $4 $5 position (X,Y) of the second rounded end (center of the circle)*
0 Add line between two ends*
20,1,$1,$2,$3,$4,$5,0*
0 Add two circle primitives to create the rounded ends*
1,1,$1,$2,$3*
1,1,$1,$4,$5*%
G04 Aperture macros list end*
%ADD10C,0.150000*%
%ADD11C,0.381000*%
%ADD12C,0.127000*%
%ADD13C,0.120000*%
%ADD14R,1.752600X1.752600*%
%ADD15C,1.752600*%
%ADD16C,1.750000*%
%ADD17C,3.987800*%
%ADD18C,2.250000*%
%ADD19RoundRect,0.160000X0.640000X-0.640000X0.640000X0.640000X-0.640000X0.640000X-0.640000X-0.640000X0*%
%ADD20O,1.600000X1.600000*%
%ADD21RoundRect,0.160000X0.850513X-0.309561X0.309561X0.850513X-0.850513X0.309561X-0.309561X-0.850513X0*%
%ADD22HorizOval,1.600000X0.000000X0.000000X0.000000X0.000000X0*%
%ADD23RoundRect,0.160000X0.783837X-0.452548X0.452548X0.783837X-0.783837X0.452548X-0.452548X-0.783837X0*%
%ADD24HorizOval,1.600000X0.000000X0.000000X0.000000X0.000000X0*%
%ADD25RoundRect,0.160000X0.519142X-0.741412X0.741412X0.519142X-0.519142X0.741412X-0.741412X-0.519142X0*%
%ADD26HorizOval,1.600000X0.000000X0.000000X0.000000X0.000000X0*%
%ADD27RoundRect,0.160000X0.234256X-0.874256X0.874256X0.234256X-0.234256X0.874256X-0.874256X-0.234256X0*%
%ADD28HorizOval,1.600000X0.000000X0.000000X0.000000X0.000000X0*%
%ADD29C,2.000000*%
G04 APERTURE END LIST*
D10*
%TO.C,U1*%
X203422209Y-66516257D02*
X203307923Y-66554352D01*
X203269828Y-66592447D01*
X203231733Y-66668638D01*
X203231733Y-66782923D01*
X203269828Y-66859114D01*
X203307923Y-66897209D01*
X203384114Y-66935304D01*
X203688876Y-66935304D01*
X203688876Y-66135304D01*
X203422209Y-66135304D01*
X203346019Y-66173400D01*
X203307923Y-66211495D01*
X203269828Y-66287685D01*
X203269828Y-66363876D01*
X203307923Y-66440066D01*
X203346019Y-66478161D01*
X203422209Y-66516257D01*
X203688876Y-66516257D01*
X202926971Y-66211495D02*
X202888876Y-66173400D01*
X202812685Y-66135304D01*
X202622209Y-66135304D01*
X202546019Y-66173400D01*
X202507923Y-66211495D01*
X202469828Y-66287685D01*
X202469828Y-66363876D01*
X202507923Y-66478161D01*
X202965066Y-66935304D01*
X202469828Y-66935304D01*
X203422209Y-61436257D02*
X203307923Y-61474352D01*
X203269828Y-61512447D01*
X203231733Y-61588638D01*
X203231733Y-61702923D01*
X203269828Y-61779114D01*
X203307923Y-61817209D01*
X203384114Y-61855304D01*
X203688876Y-61855304D01*
X203688876Y-61055304D01*
X203422209Y-61055304D01*
X203346019Y-61093400D01*
X203307923Y-61131495D01*
X203269828Y-61207685D01*
X203269828Y-61283876D01*
X203307923Y-61360066D01*
X203346019Y-61398161D01*
X203422209Y-61436257D01*
X203688876Y-61436257D01*
X202469828Y-61855304D02*
X202926971Y-61855304D01*
X202698400Y-61855304D02*
X202698400Y-61055304D01*
X202774590Y-61169590D01*
X202850780Y-61245780D01*
X202926971Y-61283876D01*
X192728780Y-63976257D02*
X192462114Y-63976257D01*
X192347828Y-64395304D02*
X192728780Y-64395304D01*
X192728780Y-63595304D01*
X192347828Y-63595304D01*
X191662114Y-63595304D02*
X191814495Y-63595304D01*
X191890685Y-63633400D01*
X191928780Y-63671495D01*
X192004971Y-63785780D01*
X192043066Y-63938161D01*
X192043066Y-64242923D01*
X192004971Y-64319114D01*
X191966876Y-64357209D01*
X191890685Y-64395304D01*
X191738304Y-64395304D01*
X191662114Y-64357209D01*
X191624019Y-64319114D01*
X191585923Y-64242923D01*
X191585923Y-64052447D01*
X191624019Y-63976257D01*
X191662114Y-63938161D01*
X191738304Y-63900066D01*
X191890685Y-63900066D01*
X191966876Y-63938161D01*
X192004971Y-63976257D01*
X192043066Y-64052447D01*
X203365066Y-51276257D02*
X203631733Y-51276257D01*
X203631733Y-51695304D02*
X203631733Y-50895304D01*
X203250780Y-50895304D01*
X202603161Y-51161971D02*
X202603161Y-51695304D01*
X202793638Y-50857209D02*
X202984114Y-51428638D01*
X202488876Y-51428638D01*
X192500209Y-69056257D02*
X192385923Y-69094352D01*
X192347828Y-69132447D01*
X192309733Y-69208638D01*
X192309733Y-69322923D01*
X192347828Y-69399114D01*
X192385923Y-69437209D01*
X192462114Y-69475304D01*
X192766876Y-69475304D01*
X192766876Y-68675304D01*
X192500209Y-68675304D01*
X192424019Y-68713400D01*
X192385923Y-68751495D01*
X192347828Y-68827685D01*
X192347828Y-68903876D01*
X192385923Y-68980066D01*
X192424019Y-69018161D01*
X192500209Y-69056257D01*
X192766876Y-69056257D01*
X191585923Y-68675304D02*
X191966876Y-68675304D01*
X192004971Y-69056257D01*
X191966876Y-69018161D01*
X191890685Y-68980066D01*
X191700209Y-68980066D01*
X191624019Y-69018161D01*
X191585923Y-69056257D01*
X191547828Y-69132447D01*
X191547828Y-69322923D01*
X191585923Y-69399114D01*
X191624019Y-69437209D01*
X191700209Y-69475304D01*
X191890685Y-69475304D01*
X191966876Y-69437209D01*
X192004971Y-69399114D01*
X204165066Y-48355304D02*
X203898400Y-49155304D01*
X203631733Y-48355304D01*
X202907923Y-49079114D02*
X202946019Y-49117209D01*
X203060304Y-49155304D01*
X203136495Y-49155304D01*
X203250780Y-49117209D01*
X203326971Y-49041019D01*
X203365066Y-48964828D01*
X203403161Y-48812447D01*
X203403161Y-48698161D01*
X203365066Y-48545780D01*
X203326971Y-48469590D01*
X203250780Y-48393400D01*
X203136495Y-48355304D01*
X203060304Y-48355304D01*
X202946019Y-48393400D01*
X202907923Y-48431495D01*
X202107923Y-49079114D02*
X202146019Y-49117209D01*
X202260304Y-49155304D01*
X202336495Y-49155304D01*
X202450780Y-49117209D01*
X202526971Y-49041019D01*
X202565066Y-48964828D01*
X202603161Y-48812447D01*
X202603161Y-48698161D01*
X202565066Y-48545780D01*
X202526971Y-48469590D01*
X202450780Y-48393400D01*
X202336495Y-48355304D01*
X202260304Y-48355304D01*
X202146019Y-48393400D01*
X202107923Y-48431495D01*
X196256004Y-40735304D02*
X195798861Y-40735304D01*
X196027432Y-41535304D02*
X196027432Y-40735304D01*
X195608385Y-40735304D02*
X195075051Y-41535304D01*
X195075051Y-40735304D02*
X195608385Y-41535304D01*
X194617908Y-40735304D02*
X194541718Y-40735304D01*
X194465528Y-40773400D01*
X194427432Y-40811495D01*
X194389337Y-40887685D01*
X194351242Y-41040066D01*
X194351242Y-41230542D01*
X194389337Y-41382923D01*
X194427432Y-41459114D01*
X194465528Y-41497209D01*
X194541718Y-41535304D01*
X194617908Y-41535304D01*
X194694099Y-41497209D01*
X194732194Y-41459114D01*
X194770289Y-41382923D01*
X194808385Y-41230542D01*
X194808385Y-41040066D01*
X194770289Y-40887685D01*
X194732194Y-40811495D01*
X194694099Y-40773400D01*
X194617908Y-40735304D01*
X193436956Y-40697209D02*
X194122670Y-41725780D01*
X193170289Y-41535304D02*
X193170289Y-40735304D01*
X192979813Y-40735304D01*
X192865528Y-40773400D01*
X192789337Y-40849590D01*
X192751242Y-40925780D01*
X192713147Y-41078161D01*
X192713147Y-41192447D01*
X192751242Y-41344828D01*
X192789337Y-41421019D01*
X192865528Y-41497209D01*
X192979813Y-41535304D01*
X193170289Y-41535304D01*
X192446480Y-40735304D02*
X191951242Y-40735304D01*
X192217908Y-41040066D01*
X192103623Y-41040066D01*
X192027432Y-41078161D01*
X191989337Y-41116257D01*
X191951242Y-41192447D01*
X191951242Y-41382923D01*
X191989337Y-41459114D01*
X192027432Y-41497209D01*
X192103623Y-41535304D01*
X192332194Y-41535304D01*
X192408385Y-41497209D01*
X192446480Y-41459114D01*
X192500209Y-66516257D02*
X192385923Y-66554352D01*
X192347828Y-66592447D01*
X192309733Y-66668638D01*
X192309733Y-66782923D01*
X192347828Y-66859114D01*
X192385923Y-66897209D01*
X192462114Y-66935304D01*
X192766876Y-66935304D01*
X192766876Y-66135304D01*
X192500209Y-66135304D01*
X192424019Y-66173400D01*
X192385923Y-66211495D01*
X192347828Y-66287685D01*
X192347828Y-66363876D01*
X192385923Y-66440066D01*
X192424019Y-66478161D01*
X192500209Y-66516257D01*
X192766876Y-66516257D01*
X191624019Y-66401971D02*
X191624019Y-66935304D01*
X191814495Y-66097209D02*
X192004971Y-66668638D01*
X191509733Y-66668638D01*
X203707923Y-43313400D02*
X203784114Y-43275304D01*
X203898400Y-43275304D01*
X204012685Y-43313400D01*
X204088876Y-43389590D01*
X204126971Y-43465780D01*
X204165066Y-43618161D01*
X204165066Y-43732447D01*
X204126971Y-43884828D01*
X204088876Y-43961019D01*
X204012685Y-44037209D01*
X203898400Y-44075304D01*
X203822209Y-44075304D01*
X203707923Y-44037209D01*
X203669828Y-43999114D01*
X203669828Y-43732447D01*
X203822209Y-43732447D01*
X203326971Y-44075304D02*
X203326971Y-43275304D01*
X202869828Y-44075304D01*
X202869828Y-43275304D01*
X202488876Y-44075304D02*
X202488876Y-43275304D01*
X202298400Y-43275304D01*
X202184114Y-43313400D01*
X202107923Y-43389590D01*
X202069828Y-43465780D01*
X202031733Y-43618161D01*
X202031733Y-43732447D01*
X202069828Y-43884828D01*
X202107923Y-43961019D01*
X202184114Y-44037209D01*
X202298400Y-44075304D01*
X202488876Y-44075304D01*
X203365066Y-53816257D02*
X203631733Y-53816257D01*
X203631733Y-54235304D02*
X203631733Y-53435304D01*
X203250780Y-53435304D01*
X202565066Y-53435304D02*
X202946019Y-53435304D01*
X202984114Y-53816257D01*
X202946019Y-53778161D01*
X202869828Y-53740066D01*
X202679352Y-53740066D01*
X202603161Y-53778161D01*
X202565066Y-53816257D01*
X202526971Y-53892447D01*
X202526971Y-54082923D01*
X202565066Y-54159114D01*
X202603161Y-54197209D01*
X202679352Y-54235304D01*
X202869828Y-54235304D01*
X202946019Y-54197209D01*
X202984114Y-54159114D01*
X203650780Y-41535304D02*
X203917447Y-41154352D01*
X204107923Y-41535304D02*
X204107923Y-40735304D01*
X203803161Y-40735304D01*
X203726971Y-40773400D01*
X203688876Y-40811495D01*
X203650780Y-40887685D01*
X203650780Y-41001971D01*
X203688876Y-41078161D01*
X203726971Y-41116257D01*
X203803161Y-41154352D01*
X204107923Y-41154352D01*
X203346019Y-41306733D02*
X202965066Y-41306733D01*
X203422209Y-41535304D02*
X203155542Y-40735304D01*
X202888876Y-41535304D01*
X202698400Y-40735304D02*
X202507923Y-41535304D01*
X202355542Y-40963876D01*
X202203161Y-41535304D01*
X202012685Y-40735304D01*
X192785923Y-48393400D02*
X192862114Y-48355304D01*
X192976400Y-48355304D01*
X193090685Y-48393400D01*
X193166876Y-48469590D01*
X193204971Y-48545780D01*
X193243066Y-48698161D01*
X193243066Y-48812447D01*
X193204971Y-48964828D01*
X193166876Y-49041019D01*
X193090685Y-49117209D01*
X192976400Y-49155304D01*
X192900209Y-49155304D01*
X192785923Y-49117209D01*
X192747828Y-49079114D01*
X192747828Y-48812447D01*
X192900209Y-48812447D01*
X192404971Y-49155304D02*
X192404971Y-48355304D01*
X191947828Y-49155304D01*
X191947828Y-48355304D01*
X191566876Y-49155304D02*
X191566876Y-48355304D01*
X191376400Y-48355304D01*
X191262114Y-48393400D01*
X191185923Y-48469590D01*
X191147828Y-48545780D01*
X191109733Y-48698161D01*
X191109733Y-48812447D01*
X191147828Y-48964828D01*
X191185923Y-49041019D01*
X191262114Y-49117209D01*
X191376400Y-49155304D01*
X191566876Y-49155304D01*
X192785923Y-45853400D02*
X192862114Y-45815304D01*
X192976400Y-45815304D01*
X193090685Y-45853400D01*
X193166876Y-45929590D01*
X193204971Y-46005780D01*
X193243066Y-46158161D01*
X193243066Y-46272447D01*
X193204971Y-46424828D01*
X193166876Y-46501019D01*
X193090685Y-46577209D01*
X192976400Y-46615304D01*
X192900209Y-46615304D01*
X192785923Y-46577209D01*
X192747828Y-46539114D01*
X192747828Y-46272447D01*
X192900209Y-46272447D01*
X192404971Y-46615304D02*
X192404971Y-45815304D01*
X191947828Y-46615304D01*
X191947828Y-45815304D01*
X191566876Y-46615304D02*
X191566876Y-45815304D01*
X191376400Y-45815304D01*
X191262114Y-45853400D01*
X191185923Y-45929590D01*
X191147828Y-46005780D01*
X191109733Y-46158161D01*
X191109733Y-46272447D01*
X191147828Y-46424828D01*
X191185923Y-46501019D01*
X191262114Y-46577209D01*
X191376400Y-46615304D01*
X191566876Y-46615304D01*
X192766876Y-51695304D02*
X192766876Y-50895304D01*
X192576400Y-50895304D01*
X192462114Y-50933400D01*
X192385923Y-51009590D01*
X192347828Y-51085780D01*
X192309733Y-51238161D01*
X192309733Y-51352447D01*
X192347828Y-51504828D01*
X192385923Y-51581019D01*
X192462114Y-51657209D01*
X192576400Y-51695304D01*
X192766876Y-51695304D01*
X191547828Y-51695304D02*
X192004971Y-51695304D01*
X191776400Y-51695304D02*
X191776400Y-50895304D01*
X191852590Y-51009590D01*
X191928780Y-51085780D01*
X192004971Y-51123876D01*
X203422209Y-69056257D02*
X203307923Y-69094352D01*
X203269828Y-69132447D01*
X203231733Y-69208638D01*
X203231733Y-69322923D01*
X203269828Y-69399114D01*
X203307923Y-69437209D01*
X203384114Y-69475304D01*
X203688876Y-69475304D01*
X203688876Y-68675304D01*
X203422209Y-68675304D01*
X203346019Y-68713400D01*
X203307923Y-68751495D01*
X203269828Y-68827685D01*
X203269828Y-68903876D01*
X203307923Y-68980066D01*
X203346019Y-69018161D01*
X203422209Y-69056257D01*
X203688876Y-69056257D01*
X202546019Y-68675304D02*
X202698400Y-68675304D01*
X202774590Y-68713400D01*
X202812685Y-68751495D01*
X202888876Y-68865780D01*
X202926971Y-69018161D01*
X202926971Y-69322923D01*
X202888876Y-69399114D01*
X202850780Y-69437209D01*
X202774590Y-69475304D01*
X202622209Y-69475304D01*
X202546019Y-69437209D01*
X202507923Y-69399114D01*
X202469828Y-69322923D01*
X202469828Y-69132447D01*
X202507923Y-69056257D01*
X202546019Y-69018161D01*
X202622209Y-68980066D01*
X202774590Y-68980066D01*
X202850780Y-69018161D01*
X202888876Y-69056257D01*
X202926971Y-69132447D01*
X203210733Y-46557209D02*
X203096447Y-46595304D01*
X202905971Y-46595304D01*
X202829780Y-46557209D01*
X202791685Y-46519114D01*
X202753590Y-46442923D01*
X202753590Y-46366733D01*
X202791685Y-46290542D01*
X202829780Y-46252447D01*
X202905971Y-46214352D01*
X203058352Y-46176257D01*
X203134542Y-46138161D01*
X203172638Y-46100066D01*
X203210733Y-46023876D01*
X203210733Y-45947685D01*
X203172638Y-45871495D01*
X203134542Y-45833400D01*
X203058352Y-45795304D01*
X202867876Y-45795304D01*
X202753590Y-45833400D01*
X202525019Y-45795304D02*
X202067876Y-45795304D01*
X202296447Y-46595304D02*
X202296447Y-45795304D01*
X203422209Y-63976257D02*
X203307923Y-64014352D01*
X203269828Y-64052447D01*
X203231733Y-64128638D01*
X203231733Y-64242923D01*
X203269828Y-64319114D01*
X203307923Y-64357209D01*
X203384114Y-64395304D01*
X203688876Y-64395304D01*
X203688876Y-63595304D01*
X203422209Y-63595304D01*
X203346019Y-63633400D01*
X203307923Y-63671495D01*
X203269828Y-63747685D01*
X203269828Y-63823876D01*
X203307923Y-63900066D01*
X203346019Y-63938161D01*
X203422209Y-63976257D01*
X203688876Y-63976257D01*
X202965066Y-63595304D02*
X202469828Y-63595304D01*
X202736495Y-63900066D01*
X202622209Y-63900066D01*
X202546019Y-63938161D01*
X202507923Y-63976257D01*
X202469828Y-64052447D01*
X202469828Y-64242923D01*
X202507923Y-64319114D01*
X202546019Y-64357209D01*
X202622209Y-64395304D01*
X202850780Y-64395304D01*
X202926971Y-64357209D01*
X202965066Y-64319114D01*
X192766876Y-56775304D02*
X192766876Y-55975304D01*
X192576400Y-55975304D01*
X192462114Y-56013400D01*
X192385923Y-56089590D01*
X192347828Y-56165780D01*
X192309733Y-56318161D01*
X192309733Y-56432447D01*
X192347828Y-56584828D01*
X192385923Y-56661019D01*
X192462114Y-56737209D01*
X192576400Y-56775304D01*
X192766876Y-56775304D01*
X191624019Y-56241971D02*
X191624019Y-56775304D01*
X191814495Y-55937209D02*
X192004971Y-56508638D01*
X191509733Y-56508638D01*
X192309733Y-59239114D02*
X192347828Y-59277209D01*
X192462114Y-59315304D01*
X192538304Y-59315304D01*
X192652590Y-59277209D01*
X192728780Y-59201019D01*
X192766876Y-59124828D01*
X192804971Y-58972447D01*
X192804971Y-58858161D01*
X192766876Y-58705780D01*
X192728780Y-58629590D01*
X192652590Y-58553400D01*
X192538304Y-58515304D01*
X192462114Y-58515304D01*
X192347828Y-58553400D01*
X192309733Y-58591495D01*
X191624019Y-58515304D02*
X191776400Y-58515304D01*
X191852590Y-58553400D01*
X191890685Y-58591495D01*
X191966876Y-58705780D01*
X192004971Y-58858161D01*
X192004971Y-59162923D01*
X191966876Y-59239114D01*
X191928780Y-59277209D01*
X191852590Y-59315304D01*
X191700209Y-59315304D01*
X191624019Y-59277209D01*
X191585923Y-59239114D01*
X191547828Y-59162923D01*
X191547828Y-58972447D01*
X191585923Y-58896257D01*
X191624019Y-58858161D01*
X191700209Y-58820066D01*
X191852590Y-58820066D01*
X191928780Y-58858161D01*
X191966876Y-58896257D01*
X192004971Y-58972447D01*
X203365066Y-56356257D02*
X203631733Y-56356257D01*
X203631733Y-56775304D02*
X203631733Y-55975304D01*
X203250780Y-55975304D01*
X202603161Y-55975304D02*
X202755542Y-55975304D01*
X202831733Y-56013400D01*
X202869828Y-56051495D01*
X202946019Y-56165780D01*
X202984114Y-56318161D01*
X202984114Y-56622923D01*
X202946019Y-56699114D01*
X202907923Y-56737209D01*
X202831733Y-56775304D01*
X202679352Y-56775304D01*
X202603161Y-56737209D01*
X202565066Y-56699114D01*
X202526971Y-56622923D01*
X202526971Y-56432447D01*
X202565066Y-56356257D01*
X202603161Y-56318161D01*
X202679352Y-56280066D01*
X202831733Y-56280066D01*
X202907923Y-56318161D01*
X202946019Y-56356257D01*
X202984114Y-56432447D01*
X192766876Y-44075304D02*
X192766876Y-43275304D01*
X192576400Y-43275304D01*
X192462114Y-43313400D01*
X192385923Y-43389590D01*
X192347828Y-43465780D01*
X192309733Y-43618161D01*
X192309733Y-43732447D01*
X192347828Y-43884828D01*
X192385923Y-43961019D01*
X192462114Y-44037209D01*
X192576400Y-44075304D01*
X192766876Y-44075304D01*
X192004971Y-43351495D02*
X191966876Y-43313400D01*
X191890685Y-43275304D01*
X191700209Y-43275304D01*
X191624019Y-43313400D01*
X191585923Y-43351495D01*
X191547828Y-43427685D01*
X191547828Y-43503876D01*
X191585923Y-43618161D01*
X192043066Y-44075304D01*
X191547828Y-44075304D01*
X192766876Y-61855304D02*
X192766876Y-61055304D01*
X192576400Y-61055304D01*
X192462114Y-61093400D01*
X192385923Y-61169590D01*
X192347828Y-61245780D01*
X192309733Y-61398161D01*
X192309733Y-61512447D01*
X192347828Y-61664828D01*
X192385923Y-61741019D01*
X192462114Y-61817209D01*
X192576400Y-61855304D01*
X192766876Y-61855304D01*
X192043066Y-61055304D02*
X191509733Y-61055304D01*
X191852590Y-61855304D01*
X203365066Y-58896257D02*
X203631733Y-58896257D01*
X203631733Y-59315304D02*
X203631733Y-58515304D01*
X203250780Y-58515304D01*
X203022209Y-58515304D02*
X202488876Y-58515304D01*
X202831733Y-59315304D01*
X192766876Y-54235304D02*
X192766876Y-53435304D01*
X192576400Y-53435304D01*
X192462114Y-53473400D01*
X192385923Y-53549590D01*
X192347828Y-53625780D01*
X192309733Y-53778161D01*
X192309733Y-53892447D01*
X192347828Y-54044828D01*
X192385923Y-54121019D01*
X192462114Y-54197209D01*
X192576400Y-54235304D01*
X192766876Y-54235304D01*
X191814495Y-53435304D02*
X191738304Y-53435304D01*
X191662114Y-53473400D01*
X191624019Y-53511495D01*
X191585923Y-53587685D01*
X191547828Y-53740066D01*
X191547828Y-53930542D01*
X191585923Y-54082923D01*
X191624019Y-54159114D01*
X191662114Y-54197209D01*
X191738304Y-54235304D01*
X191814495Y-54235304D01*
X191890685Y-54197209D01*
X191928780Y-54159114D01*
X191966876Y-54082923D01*
X192004971Y-53930542D01*
X192004971Y-53740066D01*
X191966876Y-53587685D01*
X191928780Y-53511495D01*
X191890685Y-53473400D01*
X191814495Y-53435304D01*
%TO.C,RST1*%
X184336809Y-37145380D02*
X184670142Y-36669190D01*
X184908238Y-37145380D02*
X184908238Y-36145380D01*
X184527285Y-36145380D01*
X184432047Y-36193000D01*
X184384428Y-36240619D01*
X184336809Y-36335857D01*
X184336809Y-36478714D01*
X184384428Y-36573952D01*
X184432047Y-36621571D01*
X184527285Y-36669190D01*
X184908238Y-36669190D01*
X183955857Y-37097761D02*
X183813000Y-37145380D01*
X183574904Y-37145380D01*
X183479666Y-37097761D01*
X183432047Y-37050142D01*
X183384428Y-36954904D01*
X183384428Y-36859666D01*
X183432047Y-36764428D01*
X183479666Y-36716809D01*
X183574904Y-36669190D01*
X183765380Y-36621571D01*
X183860619Y-36573952D01*
X183908238Y-36526333D01*
X183955857Y-36431095D01*
X183955857Y-36335857D01*
X183908238Y-36240619D01*
X183860619Y-36193000D01*
X183765380Y-36145380D01*
X183527285Y-36145380D01*
X183384428Y-36193000D01*
X183098714Y-36145380D02*
X182527285Y-36145380D01*
X182813000Y-37145380D02*
X182813000Y-36145380D01*
X181670142Y-37145380D02*
X182241571Y-37145380D01*
X181955857Y-37145380D02*
X181955857Y-36145380D01*
X182051095Y-36288238D01*
X182146333Y-36383476D01*
X182241571Y-36431095D01*
D11*
%TO.C,U1*%
X206527400Y-70383400D02*
X206527400Y-37363400D01*
X188747400Y-70383400D02*
X206527400Y-70383400D01*
X188747400Y-37363400D02*
X188747400Y-70383400D01*
X191287400Y-39903400D02*
X188747400Y-39903400D01*
X191287400Y-42443400D02*
X188747400Y-42443400D01*
X191287400Y-39903400D02*
X191287400Y-42443400D01*
X206527400Y-37363400D02*
X188747400Y-37363400D01*
D10*
X203482035Y-46392430D02*
X203482035Y-46592430D01*
X203482035Y-46592430D02*
X203582035Y-46592430D01*
X203582035Y-46592430D02*
X203582035Y-46392430D01*
X203582035Y-46392430D02*
X203482035Y-46392430D01*
G36*
X203582035Y-46592430D02*
G01*
X203482035Y-46592430D01*
X203482035Y-46392430D01*
X203582035Y-46392430D01*
X203582035Y-46592430D01*
G37*
X203582035Y-46592430D02*
X203482035Y-46592430D01*
X203482035Y-46392430D01*
X203582035Y-46392430D01*
X203582035Y-46592430D01*
X203482035Y-45792430D02*
X203482035Y-46092430D01*
X203482035Y-46092430D02*
X203582035Y-46092430D01*
X203582035Y-46092430D02*
X203582035Y-45792430D01*
X203582035Y-45792430D02*
X203482035Y-45792430D01*
G36*
X203582035Y-46092430D02*
G01*
X203482035Y-46092430D01*
X203482035Y-45792430D01*
X203582035Y-45792430D01*
X203582035Y-46092430D01*
G37*
X203582035Y-46092430D02*
X203482035Y-46092430D01*
X203482035Y-45792430D01*
X203582035Y-45792430D01*
X203582035Y-46092430D01*
X203682035Y-46192430D02*
X203682035Y-46292430D01*
X203682035Y-46292430D02*
X203782035Y-46292430D01*
X203782035Y-46292430D02*
X203782035Y-46192430D01*
X203782035Y-46192430D02*
X203682035Y-46192430D01*
G36*
X203782035Y-46292430D02*
G01*
X203682035Y-46292430D01*
X203682035Y-46192430D01*
X203782035Y-46192430D01*
X203782035Y-46292430D01*
G37*
X203782035Y-46292430D02*
X203682035Y-46292430D01*
X203682035Y-46192430D01*
X203782035Y-46192430D01*
X203782035Y-46292430D01*
X203882035Y-45792430D02*
X203882035Y-46592430D01*
X203882035Y-46592430D02*
X203982035Y-46592430D01*
X203982035Y-46592430D02*
X203982035Y-45792430D01*
X203982035Y-45792430D02*
X203882035Y-45792430D01*
G36*
X203982035Y-46592430D02*
G01*
X203882035Y-46592430D01*
X203882035Y-45792430D01*
X203982035Y-45792430D01*
X203982035Y-46592430D01*
G37*
X203982035Y-46592430D02*
X203882035Y-46592430D01*
X203882035Y-45792430D01*
X203982035Y-45792430D01*
X203982035Y-46592430D01*
X203482035Y-45792430D02*
X203482035Y-45892430D01*
X203482035Y-45892430D02*
X203982035Y-45892430D01*
X203982035Y-45892430D02*
X203982035Y-45792430D01*
X203982035Y-45792430D02*
X203482035Y-45792430D01*
G36*
X203982035Y-45892430D02*
G01*
X203482035Y-45892430D01*
X203482035Y-45792430D01*
X203982035Y-45792430D01*
X203982035Y-45892430D01*
G37*
X203982035Y-45892430D02*
X203482035Y-45892430D01*
X203482035Y-45792430D01*
X203982035Y-45792430D01*
X203982035Y-45892430D01*
D12*
%TO.C,D1*%
X102235000Y-49149000D02*
X102235000Y-47879000D01*
D13*
X101346000Y-41833800D02*
X101346000Y-42545000D01*
D12*
X100711000Y-49403000D02*
X101981000Y-49403000D01*
D13*
X100226000Y-42584000D02*
X102466000Y-42584000D01*
X101346000Y-47625000D02*
X101346000Y-46824000D01*
D12*
X101981000Y-47625000D02*
X100711000Y-47625000D01*
D13*
X102466000Y-42584000D02*
X102466000Y-46824000D01*
X102466000Y-46824000D02*
X100226000Y-46824000D01*
X102466000Y-46104000D02*
X100226000Y-46104000D01*
X102466000Y-46224000D02*
X100226000Y-46224000D01*
X100226000Y-46824000D02*
X100226000Y-42584000D01*
D12*
X100457000Y-47879000D02*
X100457000Y-49149000D01*
D13*
X102466000Y-45984000D02*
X100226000Y-45984000D01*
D12*
X100711000Y-47625000D02*
G75*
G03*
X100457000Y-47879000I0J-254000D01*
G01*
X102235000Y-47879000D02*
G75*
G03*
X101981000Y-47625000I-254000J0D01*
G01*
X100457000Y-49149000D02*
G75*
G03*
X100711000Y-49403000I254000J0D01*
G01*
X101981000Y-49403000D02*
G75*
G03*
X102235000Y-49149000I0J254000D01*
G01*
X102270574Y-40894000D02*
G75*
G03*
X102270574Y-40894000I-924574J0D01*
G01*
%TO.C,D2*%
X100711000Y-68450000D02*
X101981000Y-68450000D01*
D13*
X100226000Y-61631000D02*
X102466000Y-61631000D01*
X102466000Y-65871000D02*
X100226000Y-65871000D01*
X102466000Y-65151000D02*
X100226000Y-65151000D01*
D12*
X102235000Y-68196000D02*
X102235000Y-66926000D01*
D13*
X102466000Y-61631000D02*
X102466000Y-65871000D01*
X101346000Y-60880800D02*
X101346000Y-61592000D01*
X100226000Y-65871000D02*
X100226000Y-61631000D01*
X101346000Y-66672000D02*
X101346000Y-65871000D01*
D12*
X101981000Y-66672000D02*
X100711000Y-66672000D01*
X100457000Y-66926000D02*
X100457000Y-68196000D01*
D13*
X102466000Y-65031000D02*
X100226000Y-65031000D01*
X102466000Y-65271000D02*
X100226000Y-65271000D01*
D12*
X101981000Y-68450000D02*
G75*
G03*
X102235000Y-68196000I0J254000D01*
G01*
X100457000Y-68196000D02*
G75*
G03*
X100711000Y-68450000I254000J0D01*
G01*
X100711000Y-66672000D02*
G75*
G03*
X100457000Y-66926000I0J-254000D01*
G01*
X102235000Y-66926000D02*
G75*
G03*
X101981000Y-66672000I-254000J0D01*
G01*
X102270574Y-59941000D02*
G75*
G03*
X102270574Y-59941000I-924574J0D01*
G01*
D13*
%TO.C,D3*%
X102466000Y-84324000D02*
X100226000Y-84324000D01*
X100226000Y-80684000D02*
X102466000Y-80684000D01*
X102466000Y-84084000D02*
X100226000Y-84084000D01*
X102466000Y-80684000D02*
X102466000Y-84924000D01*
D12*
X100711000Y-87503000D02*
X101981000Y-87503000D01*
D13*
X102466000Y-84924000D02*
X100226000Y-84924000D01*
D12*
X102235000Y-87249000D02*
X102235000Y-85979000D01*
D13*
X102466000Y-84204000D02*
X100226000Y-84204000D01*
D12*
X101981000Y-85725000D02*
X100711000Y-85725000D01*
X100457000Y-85979000D02*
X100457000Y-87249000D01*
D13*
X101346000Y-79933800D02*
X101346000Y-80645000D01*
X101346000Y-85725000D02*
X101346000Y-84924000D01*
X100226000Y-84924000D02*
X100226000Y-80684000D01*
D12*
X100711000Y-85725000D02*
G75*
G03*
X100457000Y-85979000I0J-254000D01*
G01*
X102235000Y-85979000D02*
G75*
G03*
X101981000Y-85725000I-254000J0D01*
G01*
X101981000Y-87503000D02*
G75*
G03*
X102235000Y-87249000I0J254000D01*
G01*
X100457000Y-87249000D02*
G75*
G03*
X100711000Y-87503000I254000J0D01*
G01*
X102270574Y-78994000D02*
G75*
G03*
X102270574Y-78994000I-924574J0D01*
G01*
D13*
%TO.C,D4*%
X102466000Y-103374000D02*
X100226000Y-103374000D01*
X102466000Y-103974000D02*
X100226000Y-103974000D01*
X100226000Y-103974000D02*
X100226000Y-99734000D01*
X102466000Y-99734000D02*
X102466000Y-103974000D01*
X101346000Y-98983800D02*
X101346000Y-99695000D01*
X102466000Y-103134000D02*
X100226000Y-103134000D01*
D12*
X102235000Y-106299000D02*
X102235000Y-105029000D01*
D13*
X100226000Y-99734000D02*
X102466000Y-99734000D01*
D12*
X100457000Y-105029000D02*
X100457000Y-106299000D01*
D13*
X102466000Y-103254000D02*
X100226000Y-103254000D01*
D12*
X101981000Y-104775000D02*
X100711000Y-104775000D01*
X100711000Y-106553000D02*
X101981000Y-106553000D01*
D13*
X101346000Y-104775000D02*
X101346000Y-103974000D01*
D12*
X102235000Y-105029000D02*
G75*
G03*
X101981000Y-104775000I-254000J0D01*
G01*
X100457000Y-106299000D02*
G75*
G03*
X100711000Y-106553000I254000J0D01*
G01*
X101981000Y-106553000D02*
G75*
G03*
X102235000Y-106299000I0J254000D01*
G01*
X100711000Y-104775000D02*
G75*
G03*
X100457000Y-105029000I0J-254000D01*
G01*
X102270574Y-98044000D02*
G75*
G03*
X102270574Y-98044000I-924574J0D01*
G01*
D13*
%TO.C,D5*%
X103990000Y-124202000D02*
X101750000Y-124202000D01*
X103990000Y-120562000D02*
X103990000Y-124802000D01*
D12*
X101981000Y-125857000D02*
X101981000Y-127127000D01*
D13*
X103990000Y-123962000D02*
X101750000Y-123962000D01*
D12*
X103505000Y-125603000D02*
X102235000Y-125603000D01*
X103759000Y-127127000D02*
X103759000Y-125857000D01*
D13*
X103990000Y-124082000D02*
X101750000Y-124082000D01*
X102870000Y-119811800D02*
X102870000Y-120523000D01*
X101750000Y-120562000D02*
X103990000Y-120562000D01*
D12*
X102235000Y-127381000D02*
X103505000Y-127381000D01*
D13*
X102870000Y-125603000D02*
X102870000Y-124802000D01*
X101750000Y-124802000D02*
X101750000Y-120562000D01*
X103990000Y-124802000D02*
X101750000Y-124802000D01*
D12*
X102235000Y-125603000D02*
G75*
G03*
X101981000Y-125857000I0J-254000D01*
G01*
X103759000Y-125857000D02*
G75*
G03*
X103505000Y-125603000I-254000J0D01*
G01*
X103505000Y-127381000D02*
G75*
G03*
X103759000Y-127127000I0J254000D01*
G01*
X101981000Y-127127000D02*
G75*
G03*
X102235000Y-127381000I254000J0D01*
G01*
X103794574Y-118872000D02*
G75*
G03*
X103794574Y-118872000I-924574J0D01*
G01*
D13*
%TO.C,D6*%
X104394000Y-47625000D02*
X104394000Y-46824000D01*
X105514000Y-46104000D02*
X103274000Y-46104000D01*
X105514000Y-46224000D02*
X103274000Y-46224000D01*
X104394000Y-41833800D02*
X104394000Y-42545000D01*
X103274000Y-46824000D02*
X103274000Y-42584000D01*
X105514000Y-45984000D02*
X103274000Y-45984000D01*
D12*
X105283000Y-49149000D02*
X105283000Y-47879000D01*
D13*
X105514000Y-42584000D02*
X105514000Y-46824000D01*
D12*
X103505000Y-47879000D02*
X103505000Y-49149000D01*
D13*
X103274000Y-42584000D02*
X105514000Y-42584000D01*
X105514000Y-46824000D02*
X103274000Y-46824000D01*
D12*
X103759000Y-49403000D02*
X105029000Y-49403000D01*
X105029000Y-47625000D02*
X103759000Y-47625000D01*
X105283000Y-47879000D02*
G75*
G03*
X105029000Y-47625000I-254000J0D01*
G01*
X103505000Y-49149000D02*
G75*
G03*
X103759000Y-49403000I254000J0D01*
G01*
X103759000Y-47625000D02*
G75*
G03*
X103505000Y-47879000I0J-254000D01*
G01*
X105029000Y-49403000D02*
G75*
G03*
X105283000Y-49149000I0J254000D01*
G01*
X105318574Y-40894000D02*
G75*
G03*
X105318574Y-40894000I-924574J0D01*
G01*
D13*
%TO.C,D7*%
X105514000Y-65874000D02*
X103274000Y-65874000D01*
X104394000Y-66675000D02*
X104394000Y-65874000D01*
D12*
X105029000Y-66675000D02*
X103759000Y-66675000D01*
X105283000Y-68199000D02*
X105283000Y-66929000D01*
D13*
X104394000Y-60883800D02*
X104394000Y-61595000D01*
X103274000Y-61634000D02*
X105514000Y-61634000D01*
X105514000Y-65274000D02*
X103274000Y-65274000D01*
X105514000Y-61634000D02*
X105514000Y-65874000D01*
X105514000Y-65034000D02*
X103274000Y-65034000D01*
D12*
X103759000Y-68453000D02*
X105029000Y-68453000D01*
X103505000Y-66929000D02*
X103505000Y-68199000D01*
D13*
X103274000Y-65874000D02*
X103274000Y-61634000D01*
X105514000Y-65154000D02*
X103274000Y-65154000D01*
D12*
X103759000Y-66675000D02*
G75*
G03*
X103505000Y-66929000I0J-254000D01*
G01*
X103505000Y-68199000D02*
G75*
G03*
X103759000Y-68453000I254000J0D01*
G01*
X105029000Y-68453000D02*
G75*
G03*
X105283000Y-68199000I0J254000D01*
G01*
X105283000Y-66929000D02*
G75*
G03*
X105029000Y-66675000I-254000J0D01*
G01*
X105318574Y-59944000D02*
G75*
G03*
X105318574Y-59944000I-924574J0D01*
G01*
%TO.C,D8*%
X105283000Y-87249000D02*
X105283000Y-85979000D01*
D13*
X104394000Y-79933800D02*
X104394000Y-80645000D01*
D12*
X103759000Y-87503000D02*
X105029000Y-87503000D01*
D13*
X103274000Y-80684000D02*
X105514000Y-80684000D01*
D12*
X105029000Y-85725000D02*
X103759000Y-85725000D01*
D13*
X105514000Y-84924000D02*
X103274000Y-84924000D01*
X105514000Y-84324000D02*
X103274000Y-84324000D01*
X103274000Y-84924000D02*
X103274000Y-80684000D01*
X105514000Y-84204000D02*
X103274000Y-84204000D01*
X104394000Y-85725000D02*
X104394000Y-84924000D01*
X105514000Y-84084000D02*
X103274000Y-84084000D01*
D12*
X103505000Y-85979000D02*
X103505000Y-87249000D01*
D13*
X105514000Y-80684000D02*
X105514000Y-84924000D01*
D12*
X103759000Y-85725000D02*
G75*
G03*
X103505000Y-85979000I0J-254000D01*
G01*
X105283000Y-85979000D02*
G75*
G03*
X105029000Y-85725000I-254000J0D01*
G01*
X103505000Y-87249000D02*
G75*
G03*
X103759000Y-87503000I254000J0D01*
G01*
X105029000Y-87503000D02*
G75*
G03*
X105283000Y-87249000I0J254000D01*
G01*
X105318574Y-78994000D02*
G75*
G03*
X105318574Y-78994000I-924574J0D01*
G01*
%TO.C,D9*%
X103505000Y-105029000D02*
X103505000Y-106299000D01*
X103759000Y-106553000D02*
X105029000Y-106553000D01*
X105029000Y-104775000D02*
X103759000Y-104775000D01*
D13*
X104394000Y-104775000D02*
X104394000Y-103974000D01*
D12*
X105283000Y-106299000D02*
X105283000Y-105029000D01*
D13*
X103274000Y-103974000D02*
X103274000Y-99734000D01*
X104394000Y-98983800D02*
X104394000Y-99695000D01*
X105514000Y-99734000D02*
X105514000Y-103974000D01*
X105514000Y-103134000D02*
X103274000Y-103134000D01*
X105514000Y-103254000D02*
X103274000Y-103254000D01*
X105514000Y-103374000D02*
X103274000Y-103374000D01*
X105514000Y-103974000D02*
X103274000Y-103974000D01*
X103274000Y-99734000D02*
X105514000Y-99734000D01*
D12*
X103759000Y-104775000D02*
G75*
G03*
X103505000Y-105029000I0J-254000D01*
G01*
X105029000Y-106553000D02*
G75*
G03*
X105283000Y-106299000I0J254000D01*
G01*
X103505000Y-106299000D02*
G75*
G03*
X103759000Y-106553000I254000J0D01*
G01*
X105283000Y-105029000D02*
G75*
G03*
X105029000Y-104775000I-254000J0D01*
G01*
X105318574Y-98044000D02*
G75*
G03*
X105318574Y-98044000I-924574J0D01*
G01*
D13*
%TO.C,D10*%
X123180000Y-42584000D02*
X125420000Y-42584000D01*
D12*
X124935000Y-47625000D02*
X123665000Y-47625000D01*
X123411000Y-47879000D02*
X123411000Y-49149000D01*
D13*
X125420000Y-45984000D02*
X123180000Y-45984000D01*
X125420000Y-42584000D02*
X125420000Y-46824000D01*
X125420000Y-46824000D02*
X123180000Y-46824000D01*
D12*
X125189000Y-49149000D02*
X125189000Y-47879000D01*
D13*
X124300000Y-47625000D02*
X124300000Y-46824000D01*
D12*
X123665000Y-49403000D02*
X124935000Y-49403000D01*
D13*
X125420000Y-46104000D02*
X123180000Y-46104000D01*
X123180000Y-46824000D02*
X123180000Y-42584000D01*
X125420000Y-46224000D02*
X123180000Y-46224000D01*
X124300000Y-41833800D02*
X124300000Y-42545000D01*
D12*
X124935000Y-49403000D02*
G75*
G03*
X125189000Y-49149000I0J254000D01*
G01*
X125189000Y-47879000D02*
G75*
G03*
X124935000Y-47625000I-254000J0D01*
G01*
X123665000Y-47625000D02*
G75*
G03*
X123411000Y-47879000I0J-254000D01*
G01*
X123411000Y-49149000D02*
G75*
G03*
X123665000Y-49403000I254000J0D01*
G01*
X125224574Y-40894000D02*
G75*
G03*
X125224574Y-40894000I-924574J0D01*
G01*
D13*
%TO.C,D11*%
X124300000Y-66675000D02*
X124300000Y-65874000D01*
X125420000Y-61634000D02*
X125420000Y-65874000D01*
X125420000Y-65274000D02*
X123180000Y-65274000D01*
D12*
X123665000Y-68453000D02*
X124935000Y-68453000D01*
D13*
X125420000Y-65154000D02*
X123180000Y-65154000D01*
X124300000Y-60883800D02*
X124300000Y-61595000D01*
X123180000Y-65874000D02*
X123180000Y-61634000D01*
D12*
X125189000Y-68199000D02*
X125189000Y-66929000D01*
D13*
X125420000Y-65034000D02*
X123180000Y-65034000D01*
X123180000Y-61634000D02*
X125420000Y-61634000D01*
X125420000Y-65874000D02*
X123180000Y-65874000D01*
D12*
X124935000Y-66675000D02*
X123665000Y-66675000D01*
X123411000Y-66929000D02*
X123411000Y-68199000D01*
X124935000Y-68453000D02*
G75*
G03*
X125189000Y-68199000I0J254000D01*
G01*
X123411000Y-68199000D02*
G75*
G03*
X123665000Y-68453000I254000J0D01*
G01*
X125189000Y-66929000D02*
G75*
G03*
X124935000Y-66675000I-254000J0D01*
G01*
X123665000Y-66675000D02*
G75*
G03*
X123411000Y-66929000I0J-254000D01*
G01*
X125224574Y-59944000D02*
G75*
G03*
X125224574Y-59944000I-924574J0D01*
G01*
D13*
%TO.C,D12*%
X124300000Y-85725000D02*
X124300000Y-84924000D01*
X125420000Y-84204000D02*
X123180000Y-84204000D01*
D12*
X123411000Y-85979000D02*
X123411000Y-87249000D01*
D13*
X123180000Y-80684000D02*
X125420000Y-80684000D01*
X125420000Y-80684000D02*
X125420000Y-84924000D01*
X125420000Y-84924000D02*
X123180000Y-84924000D01*
X125420000Y-84324000D02*
X123180000Y-84324000D01*
X124300000Y-79933800D02*
X124300000Y-80645000D01*
X123180000Y-84924000D02*
X123180000Y-80684000D01*
X125420000Y-84084000D02*
X123180000Y-84084000D01*
D12*
X124935000Y-85725000D02*
X123665000Y-85725000D01*
X125189000Y-87249000D02*
X125189000Y-85979000D01*
X123665000Y-87503000D02*
X124935000Y-87503000D01*
X124935000Y-87503000D02*
G75*
G03*
X125189000Y-87249000I0J254000D01*
G01*
X125189000Y-85979000D02*
G75*
G03*
X124935000Y-85725000I-254000J0D01*
G01*
X123665000Y-85725000D02*
G75*
G03*
X123411000Y-85979000I0J-254000D01*
G01*
X123411000Y-87249000D02*
G75*
G03*
X123665000Y-87503000I254000J0D01*
G01*
X125224574Y-78994000D02*
G75*
G03*
X125224574Y-78994000I-924574J0D01*
G01*
D13*
%TO.C,D13*%
X124300000Y-104775000D02*
X124300000Y-103974000D01*
X125420000Y-103374000D02*
X123180000Y-103374000D01*
D12*
X125189000Y-106299000D02*
X125189000Y-105029000D01*
X124935000Y-104775000D02*
X123665000Y-104775000D01*
D13*
X125420000Y-103974000D02*
X123180000Y-103974000D01*
X125420000Y-103134000D02*
X123180000Y-103134000D01*
X123180000Y-103974000D02*
X123180000Y-99734000D01*
X123180000Y-99734000D02*
X125420000Y-99734000D01*
X125420000Y-103254000D02*
X123180000Y-103254000D01*
X125420000Y-99734000D02*
X125420000Y-103974000D01*
D12*
X123665000Y-106553000D02*
X124935000Y-106553000D01*
D13*
X124300000Y-98983800D02*
X124300000Y-99695000D01*
D12*
X123411000Y-105029000D02*
X123411000Y-106299000D01*
X123411000Y-106299000D02*
G75*
G03*
X123665000Y-106553000I254000J0D01*
G01*
X123665000Y-104775000D02*
G75*
G03*
X123411000Y-105029000I0J-254000D01*
G01*
X125189000Y-105029000D02*
G75*
G03*
X124935000Y-104775000I-254000J0D01*
G01*
X124935000Y-106553000D02*
G75*
G03*
X125189000Y-106299000I0J254000D01*
G01*
X125224574Y-98044000D02*
G75*
G03*
X125224574Y-98044000I-924574J0D01*
G01*
D13*
%TO.C,D14*%
X119768886Y-136506705D02*
X117976985Y-132663960D01*
X121444016Y-134798742D02*
X119413887Y-135745406D01*
X117976985Y-132663960D02*
X120007114Y-131717295D01*
D12*
X121697973Y-136490962D02*
X120546962Y-137027688D01*
D13*
X121799015Y-135560040D02*
X119768886Y-136506705D01*
X121545444Y-135016255D02*
X119515315Y-135962920D01*
X121122468Y-136759325D02*
X120783951Y-136033373D01*
D12*
X122572246Y-137764830D02*
X122035521Y-136613820D01*
D13*
X120007114Y-131717295D02*
X121799015Y-135560040D01*
D12*
X121298378Y-138639103D02*
X122449389Y-138102378D01*
D13*
X121494730Y-134907498D02*
X119464601Y-135854163D01*
D12*
X120424105Y-137365235D02*
X120960831Y-138516246D01*
D13*
X118675001Y-131510715D02*
X118975567Y-132155281D01*
D12*
X122035521Y-136613820D02*
G75*
G03*
X121697973Y-136490962I-230203J-107345D01*
G01*
X122449390Y-138102378D02*
G75*
G03*
X122572246Y-137764830I-107346J230202D01*
G01*
X120960831Y-138516246D02*
G75*
G03*
X121298378Y-138639103I230202J107345D01*
G01*
X120546963Y-137027687D02*
G75*
G03*
X120424105Y-137365235I107345J-230203D01*
G01*
X119202397Y-130658967D02*
G75*
G03*
X119202397Y-130658967I-924573J0D01*
G01*
%TO.C,D15*%
X144272000Y-49149000D02*
X144272000Y-47879000D01*
D13*
X144503000Y-46224000D02*
X142263000Y-46224000D01*
X144503000Y-42584000D02*
X144503000Y-46824000D01*
D12*
X144018000Y-47625000D02*
X142748000Y-47625000D01*
X142748000Y-49403000D02*
X144018000Y-49403000D01*
D13*
X144503000Y-46104000D02*
X142263000Y-46104000D01*
X143383000Y-47625000D02*
X143383000Y-46824000D01*
X143383000Y-41833800D02*
X143383000Y-42545000D01*
X144503000Y-46824000D02*
X142263000Y-46824000D01*
X142263000Y-42584000D02*
X144503000Y-42584000D01*
X142263000Y-46824000D02*
X142263000Y-42584000D01*
X144503000Y-45984000D02*
X142263000Y-45984000D01*
D12*
X142494000Y-47879000D02*
X142494000Y-49149000D01*
X142494000Y-49149000D02*
G75*
G03*
X142748000Y-49403000I254000J0D01*
G01*
X142748000Y-47625000D02*
G75*
G03*
X142494000Y-47879000I0J-254000D01*
G01*
X144272000Y-47879000D02*
G75*
G03*
X144018000Y-47625000I-254000J0D01*
G01*
X144018000Y-49403000D02*
G75*
G03*
X144272000Y-49149000I0J254000D01*
G01*
X144307574Y-40894000D02*
G75*
G03*
X144307574Y-40894000I-924574J0D01*
G01*
%TO.C,D16*%
X142494000Y-66929000D02*
X142494000Y-68199000D01*
X144272000Y-68199000D02*
X144272000Y-66929000D01*
D13*
X144503000Y-65874000D02*
X142263000Y-65874000D01*
X144503000Y-65034000D02*
X142263000Y-65034000D01*
X144503000Y-65274000D02*
X142263000Y-65274000D01*
D12*
X144018000Y-66675000D02*
X142748000Y-66675000D01*
D13*
X143383000Y-60883800D02*
X143383000Y-61595000D01*
X142263000Y-61634000D02*
X144503000Y-61634000D01*
X144503000Y-65154000D02*
X142263000Y-65154000D01*
X143383000Y-66675000D02*
X143383000Y-65874000D01*
X142263000Y-65874000D02*
X142263000Y-61634000D01*
D12*
X142748000Y-68453000D02*
X144018000Y-68453000D01*
D13*
X144503000Y-61634000D02*
X144503000Y-65874000D01*
D12*
X142748000Y-66675000D02*
G75*
G03*
X142494000Y-66929000I0J-254000D01*
G01*
X142494000Y-68199000D02*
G75*
G03*
X142748000Y-68453000I254000J0D01*
G01*
X144018000Y-68453000D02*
G75*
G03*
X144272000Y-68199000I0J254000D01*
G01*
X144272000Y-66929000D02*
G75*
G03*
X144018000Y-66675000I-254000J0D01*
G01*
X144307574Y-59944000D02*
G75*
G03*
X144307574Y-59944000I-924574J0D01*
G01*
D13*
%TO.C,D17*%
X144503000Y-84324000D02*
X142263000Y-84324000D01*
X142263000Y-80684000D02*
X144503000Y-80684000D01*
D12*
X142494000Y-85979000D02*
X142494000Y-87249000D01*
D13*
X143383000Y-85725000D02*
X143383000Y-84924000D01*
X144503000Y-84084000D02*
X142263000Y-84084000D01*
X144503000Y-80684000D02*
X144503000Y-84924000D01*
D12*
X144018000Y-85725000D02*
X142748000Y-85725000D01*
X144272000Y-87249000D02*
X144272000Y-85979000D01*
D13*
X142263000Y-84924000D02*
X142263000Y-80684000D01*
X143383000Y-79933800D02*
X143383000Y-80645000D01*
D12*
X142748000Y-87503000D02*
X144018000Y-87503000D01*
D13*
X144503000Y-84924000D02*
X142263000Y-84924000D01*
X144503000Y-84204000D02*
X142263000Y-84204000D01*
D12*
X142748000Y-85725000D02*
G75*
G03*
X142494000Y-85979000I0J-254000D01*
G01*
X144272000Y-85979000D02*
G75*
G03*
X144018000Y-85725000I-254000J0D01*
G01*
X144018000Y-87503000D02*
G75*
G03*
X144272000Y-87249000I0J254000D01*
G01*
X142494000Y-87249000D02*
G75*
G03*
X142748000Y-87503000I254000J0D01*
G01*
X144307574Y-78994000D02*
G75*
G03*
X144307574Y-78994000I-924574J0D01*
G01*
%TO.C,D18*%
X142494000Y-105029000D02*
X142494000Y-106299000D01*
D13*
X143383000Y-104775000D02*
X143383000Y-103974000D01*
X142263000Y-103974000D02*
X142263000Y-99734000D01*
X143383000Y-98983800D02*
X143383000Y-99695000D01*
X144503000Y-103974000D02*
X142263000Y-103974000D01*
X142263000Y-99734000D02*
X144503000Y-99734000D01*
D12*
X144018000Y-104775000D02*
X142748000Y-104775000D01*
D13*
X144503000Y-99734000D02*
X144503000Y-103974000D01*
X144503000Y-103254000D02*
X142263000Y-103254000D01*
X144503000Y-103134000D02*
X142263000Y-103134000D01*
D12*
X142748000Y-106553000D02*
X144018000Y-106553000D01*
D13*
X144503000Y-103374000D02*
X142263000Y-103374000D01*
D12*
X144272000Y-106299000D02*
X144272000Y-105029000D01*
X142494000Y-106299000D02*
G75*
G03*
X142748000Y-106553000I254000J0D01*
G01*
X144272000Y-105029000D02*
G75*
G03*
X144018000Y-104775000I-254000J0D01*
G01*
X142748000Y-104775000D02*
G75*
G03*
X142494000Y-105029000I0J-254000D01*
G01*
X144018000Y-106553000D02*
G75*
G03*
X144272000Y-106299000I0J254000D01*
G01*
X144307574Y-98044000D02*
G75*
G03*
X144307574Y-98044000I-924574J0D01*
G01*
D13*
%TO.C,D19*%
X142693414Y-128043469D02*
X142486100Y-127269763D01*
X143412646Y-126400330D02*
X141248972Y-126980085D01*
D12*
X141900446Y-128518905D02*
X142229147Y-129745630D01*
D13*
X141404263Y-127559640D02*
X140306871Y-123464115D01*
D12*
X142540232Y-129925236D02*
X143766958Y-129596535D01*
D13*
X141194542Y-122449600D02*
X141378614Y-123136566D01*
X142470545Y-122884360D02*
X143567937Y-126979885D01*
D12*
X143946563Y-129285450D02*
X143617863Y-128058724D01*
D13*
X143567937Y-126979885D02*
X141404263Y-127559640D01*
X143350529Y-126168508D02*
X141186855Y-126748262D01*
D12*
X143306777Y-127879119D02*
X142080052Y-128207819D01*
D13*
X143381588Y-126284419D02*
X141217914Y-126864173D01*
X140306871Y-123464115D02*
X142470545Y-122884360D01*
D12*
X143617862Y-128058724D02*
G75*
G03*
X143306777Y-127879119I-245345J-65740D01*
G01*
X142229146Y-129745630D02*
G75*
G03*
X142540232Y-129925236I245346J65740D01*
G01*
X143766958Y-129596535D02*
G75*
G03*
X143946563Y-129285450I-65740J245345D01*
G01*
X142080052Y-128207819D02*
G75*
G03*
X141900446Y-128518905I65740J-245346D01*
G01*
X141875877Y-121541823D02*
G75*
G03*
X141875877Y-121541823I-924574J0D01*
G01*
D13*
%TO.C,D20*%
X163680000Y-46824000D02*
X161440000Y-46824000D01*
X163680000Y-45984000D02*
X161440000Y-45984000D01*
X162560000Y-41833800D02*
X162560000Y-42545000D01*
X163680000Y-46224000D02*
X161440000Y-46224000D01*
D12*
X161671000Y-47879000D02*
X161671000Y-49149000D01*
D13*
X162560000Y-47625000D02*
X162560000Y-46824000D01*
X161440000Y-46824000D02*
X161440000Y-42584000D01*
D12*
X161925000Y-49403000D02*
X163195000Y-49403000D01*
D13*
X163680000Y-42584000D02*
X163680000Y-46824000D01*
D12*
X163449000Y-49149000D02*
X163449000Y-47879000D01*
D13*
X163680000Y-46104000D02*
X161440000Y-46104000D01*
X161440000Y-42584000D02*
X163680000Y-42584000D01*
D12*
X163195000Y-47625000D02*
X161925000Y-47625000D01*
X163195000Y-49403000D02*
G75*
G03*
X163449000Y-49149000I0J254000D01*
G01*
X161671000Y-49149000D02*
G75*
G03*
X161925000Y-49403000I254000J0D01*
G01*
X163449000Y-47879000D02*
G75*
G03*
X163195000Y-47625000I-254000J0D01*
G01*
X161925000Y-47625000D02*
G75*
G03*
X161671000Y-47879000I0J-254000D01*
G01*
X163484574Y-40894000D02*
G75*
G03*
X163484574Y-40894000I-924574J0D01*
G01*
D13*
%TO.C,D21*%
X161440000Y-61634000D02*
X163680000Y-61634000D01*
X161440000Y-65874000D02*
X161440000Y-61634000D01*
X163680000Y-65034000D02*
X161440000Y-65034000D01*
X163680000Y-65154000D02*
X161440000Y-65154000D01*
D12*
X163449000Y-68199000D02*
X163449000Y-66929000D01*
D13*
X162560000Y-66675000D02*
X162560000Y-65874000D01*
X163680000Y-61634000D02*
X163680000Y-65874000D01*
D12*
X161925000Y-68453000D02*
X163195000Y-68453000D01*
D13*
X162560000Y-60883800D02*
X162560000Y-61595000D01*
D12*
X163195000Y-66675000D02*
X161925000Y-66675000D01*
D13*
X163680000Y-65874000D02*
X161440000Y-65874000D01*
D12*
X161671000Y-66929000D02*
X161671000Y-68199000D01*
D13*
X163680000Y-65274000D02*
X161440000Y-65274000D01*
D12*
X161671000Y-68199000D02*
G75*
G03*
X161925000Y-68453000I254000J0D01*
G01*
X161925000Y-66675000D02*
G75*
G03*
X161671000Y-66929000I0J-254000D01*
G01*
X163195000Y-68453000D02*
G75*
G03*
X163449000Y-68199000I0J254000D01*
G01*
X163449000Y-66929000D02*
G75*
G03*
X163195000Y-66675000I-254000J0D01*
G01*
X163484574Y-59944000D02*
G75*
G03*
X163484574Y-59944000I-924574J0D01*
G01*
D13*
%TO.C,D22*%
X163680000Y-84084000D02*
X161440000Y-84084000D01*
X162560000Y-85725000D02*
X162560000Y-84924000D01*
D12*
X161671000Y-85979000D02*
X161671000Y-87249000D01*
D13*
X163680000Y-84204000D02*
X161440000Y-84204000D01*
X161440000Y-84924000D02*
X161440000Y-80684000D01*
X162560000Y-79933800D02*
X162560000Y-80645000D01*
X163680000Y-84924000D02*
X161440000Y-84924000D01*
X161440000Y-80684000D02*
X163680000Y-80684000D01*
D12*
X163195000Y-85725000D02*
X161925000Y-85725000D01*
X163449000Y-87249000D02*
X163449000Y-85979000D01*
D13*
X163680000Y-84324000D02*
X161440000Y-84324000D01*
X163680000Y-80684000D02*
X163680000Y-84924000D01*
D12*
X161925000Y-87503000D02*
X163195000Y-87503000D01*
X163195000Y-87503000D02*
G75*
G03*
X163449000Y-87249000I0J254000D01*
G01*
X161925000Y-85725000D02*
G75*
G03*
X161671000Y-85979000I0J-254000D01*
G01*
X161671000Y-87249000D02*
G75*
G03*
X161925000Y-87503000I254000J0D01*
G01*
X163449000Y-85979000D02*
G75*
G03*
X163195000Y-85725000I-254000J0D01*
G01*
X163484574Y-78994000D02*
G75*
G03*
X163484574Y-78994000I-924574J0D01*
G01*
D13*
%TO.C,D23*%
X161440000Y-103974000D02*
X161440000Y-99734000D01*
D12*
X163449000Y-106299000D02*
X163449000Y-105029000D01*
D13*
X162560000Y-104775000D02*
X162560000Y-103974000D01*
X163680000Y-103134000D02*
X161440000Y-103134000D01*
X162560000Y-98983800D02*
X162560000Y-99695000D01*
X163680000Y-103374000D02*
X161440000Y-103374000D01*
X163680000Y-103974000D02*
X161440000Y-103974000D01*
X161440000Y-99734000D02*
X163680000Y-99734000D01*
D12*
X161925000Y-106553000D02*
X163195000Y-106553000D01*
X163195000Y-104775000D02*
X161925000Y-104775000D01*
D13*
X163680000Y-99734000D02*
X163680000Y-103974000D01*
X163680000Y-103254000D02*
X161440000Y-103254000D01*
D12*
X161671000Y-105029000D02*
X161671000Y-106299000D01*
X163195000Y-106553000D02*
G75*
G03*
X163449000Y-106299000I0J254000D01*
G01*
X161925000Y-104775000D02*
G75*
G03*
X161671000Y-105029000I0J-254000D01*
G01*
X161671000Y-106299000D02*
G75*
G03*
X161925000Y-106553000I254000J0D01*
G01*
X163449000Y-105029000D02*
G75*
G03*
X163195000Y-104775000I-254000J0D01*
G01*
X163484574Y-98044000D02*
G75*
G03*
X163484574Y-98044000I-924574J0D01*
G01*
D13*
%TO.C,D24*%
X165100774Y-128098623D02*
X165239866Y-127309792D01*
X166488715Y-126677040D02*
X164282746Y-126288068D01*
D12*
X165726127Y-128208890D02*
X164475421Y-127988357D01*
X165711628Y-129753844D02*
X165932161Y-128503138D01*
X164181173Y-128194391D02*
X163960640Y-129445097D01*
X164166674Y-129739345D02*
X165417380Y-129959878D01*
D13*
X166467877Y-126795217D02*
X164261908Y-126406245D01*
X166342851Y-127504278D02*
X164136881Y-127115306D01*
X167079119Y-123328694D02*
X166342851Y-127504278D01*
X166447039Y-126913394D02*
X164241070Y-126524422D01*
X166106405Y-122395405D02*
X165982906Y-123095800D01*
X164136881Y-127115306D02*
X164873149Y-122939722D01*
X164873149Y-122939722D02*
X167079119Y-123328694D01*
D12*
X165417380Y-129959878D02*
G75*
G03*
X165711628Y-129753844I44107J250141D01*
G01*
X165932161Y-128503138D02*
G75*
G03*
X165726127Y-128208890I-250141J44107D01*
G01*
X163960640Y-129445097D02*
G75*
G03*
X164166674Y-129739345I250141J-44107D01*
G01*
X164475421Y-127988357D02*
G75*
G03*
X164181173Y-128194391I-44107J-250141D01*
G01*
X167194173Y-121469882D02*
G75*
G03*
X167194173Y-121469882I-924573J0D01*
G01*
%TO.C,D25*%
X182118000Y-85725000D02*
X180848000Y-85725000D01*
D13*
X182603000Y-84084000D02*
X180363000Y-84084000D01*
X182603000Y-84204000D02*
X180363000Y-84204000D01*
X180363000Y-84924000D02*
X180363000Y-80684000D01*
X182603000Y-84324000D02*
X180363000Y-84324000D01*
X180363000Y-80684000D02*
X182603000Y-80684000D01*
X181483000Y-85725000D02*
X181483000Y-84924000D01*
D12*
X180594000Y-85979000D02*
X180594000Y-87249000D01*
D13*
X182603000Y-80684000D02*
X182603000Y-84924000D01*
D12*
X182372000Y-87249000D02*
X182372000Y-85979000D01*
D13*
X182603000Y-84924000D02*
X180363000Y-84924000D01*
X181483000Y-79933800D02*
X181483000Y-80645000D01*
D12*
X180848000Y-87503000D02*
X182118000Y-87503000D01*
X180848000Y-85725000D02*
G75*
G03*
X180594000Y-85979000I0J-254000D01*
G01*
X180594000Y-87249000D02*
G75*
G03*
X180848000Y-87503000I254000J0D01*
G01*
X182372000Y-85979000D02*
G75*
G03*
X182118000Y-85725000I-254000J0D01*
G01*
X182118000Y-87503000D02*
G75*
G03*
X182372000Y-87249000I0J254000D01*
G01*
X182407574Y-78994000D02*
G75*
G03*
X182407574Y-78994000I-924574J0D01*
G01*
D13*
%TO.C,D26*%
X180363000Y-103974000D02*
X180363000Y-99734000D01*
X182603000Y-103134000D02*
X180363000Y-103134000D01*
X182603000Y-99734000D02*
X182603000Y-103974000D01*
D12*
X182118000Y-104775000D02*
X180848000Y-104775000D01*
D13*
X182603000Y-103374000D02*
X180363000Y-103374000D01*
X180363000Y-99734000D02*
X182603000Y-99734000D01*
X181483000Y-104775000D02*
X181483000Y-103974000D01*
D12*
X180594000Y-105029000D02*
X180594000Y-106299000D01*
D13*
X182603000Y-103974000D02*
X180363000Y-103974000D01*
D12*
X182372000Y-106299000D02*
X182372000Y-105029000D01*
X180848000Y-106553000D02*
X182118000Y-106553000D01*
D13*
X182603000Y-103254000D02*
X180363000Y-103254000D01*
X181483000Y-98983800D02*
X181483000Y-99695000D01*
D12*
X180848000Y-104775000D02*
G75*
G03*
X180594000Y-105029000I0J-254000D01*
G01*
X182118000Y-106553000D02*
G75*
G03*
X182372000Y-106299000I0J254000D01*
G01*
X180594000Y-106299000D02*
G75*
G03*
X180848000Y-106553000I254000J0D01*
G01*
X182372000Y-105029000D02*
G75*
G03*
X182118000Y-104775000I-254000J0D01*
G01*
X182407574Y-98044000D02*
G75*
G03*
X182407574Y-98044000I-924574J0D01*
G01*
%TO.C,D27*%
X186287426Y-133149160D02*
X185187574Y-132514160D01*
D13*
X187288052Y-127906026D02*
X189227948Y-129026026D01*
X188633100Y-127816334D02*
X188277500Y-128432251D01*
X187467948Y-132074436D02*
X185528052Y-130954436D01*
X189227948Y-129026026D02*
X187107948Y-132697974D01*
X187527948Y-131970513D02*
X185588052Y-130850513D01*
X185168052Y-131577974D02*
X187288052Y-127906026D01*
D12*
X184298574Y-134053953D02*
X185398426Y-134688953D01*
X184840603Y-132607131D02*
X184205603Y-133706983D01*
D13*
X187407948Y-132178359D02*
X185468052Y-131058359D01*
D12*
X185745397Y-134595983D02*
X186380397Y-133496131D01*
D13*
X185737500Y-132831660D02*
X186138000Y-132137974D01*
X187107948Y-132697974D02*
X185168052Y-131577974D01*
D12*
X186380397Y-133496131D02*
G75*
G03*
X186287426Y-133149160I-219971J127000D01*
G01*
X185187574Y-132514160D02*
G75*
G03*
X184840603Y-132607131I-127000J-219971D01*
G01*
X185398426Y-134688954D02*
G75*
G03*
X185745397Y-134595983I127000J219971D01*
G01*
X184205604Y-133706983D02*
G75*
G03*
X184298574Y-134053953I219970J-127000D01*
G01*
X190027573Y-127002443D02*
G75*
G03*
X190027573Y-127002443I-924573J0D01*
G01*
%TD*%
D14*
%TO.C,U1*%
X189788800Y-41173400D03*
D15*
X190246000Y-43713400D03*
X189788800Y-46253400D03*
X190246000Y-48793400D03*
X189788800Y-51333400D03*
X190246000Y-53873400D03*
X189788800Y-56413400D03*
X190246000Y-58953400D03*
X189788800Y-61493400D03*
X190246000Y-64033400D03*
X189788800Y-66573400D03*
X190246000Y-69113400D03*
X205028800Y-69113400D03*
X205486000Y-66573400D03*
X205028800Y-64033400D03*
X205486000Y-61493400D03*
X205028800Y-58953400D03*
X205486000Y-56413400D03*
X205028800Y-53873400D03*
X205486000Y-51333400D03*
X205028800Y-48793400D03*
X205486000Y-46253400D03*
X205028800Y-43713400D03*
X205486000Y-41173400D03*
%TD*%
%LPC*%
D14*
%TO.C,U1*%
X189788800Y-41173400D03*
D15*
X190246000Y-43713400D03*
X189788800Y-46253400D03*
X190246000Y-48793400D03*
X189788800Y-51333400D03*
X190246000Y-53873400D03*
X189788800Y-56413400D03*
X190246000Y-58953400D03*
X189788800Y-61493400D03*
X190246000Y-64033400D03*
X189788800Y-66573400D03*
X190246000Y-69113400D03*
X205028800Y-69113400D03*
X205486000Y-66573400D03*
X205028800Y-64033400D03*
X205486000Y-61493400D03*
X205028800Y-58953400D03*
X205486000Y-56413400D03*
X205028800Y-53873400D03*
X205486000Y-51333400D03*
X205028800Y-48793400D03*
X205486000Y-46253400D03*
X205028800Y-43713400D03*
X205486000Y-41173400D03*
%TD*%
D16*
%TO.C,SW1*%
X96037400Y-47498000D03*
D17*
X90957400Y-47498000D03*
D16*
X85877400Y-47498000D03*
D18*
X87147400Y-44958000D03*
X93497400Y-42418000D03*
%TD*%
D16*
%TO.C,SW2*%
X96037400Y-66548000D03*
X85877400Y-66548000D03*
D17*
X90957400Y-66548000D03*
D18*
X87147400Y-64008000D03*
X93497400Y-61468000D03*
%TD*%
D16*
%TO.C,SW3*%
X85877400Y-85598000D03*
X96037400Y-85598000D03*
D17*
X90957400Y-85598000D03*
D18*
X87147400Y-83058000D03*
X93497400Y-80518000D03*
%TD*%
D16*
%TO.C,SW4*%
X85877400Y-104648000D03*
D17*
X90957400Y-104648000D03*
D16*
X96037400Y-104648000D03*
D18*
X87147400Y-102108000D03*
X93497400Y-99568000D03*
%TD*%
D16*
%TO.C,SW5*%
X96037400Y-123698000D03*
X85877400Y-123698000D03*
D17*
X90957400Y-123698000D03*
D18*
X87147400Y-121158000D03*
X93497400Y-118618000D03*
%TD*%
D17*
%TO.C,SW6*%
X114808000Y-45720000D03*
D16*
X119888000Y-45720000D03*
X109728000Y-45720000D03*
D18*
X110998000Y-43180000D03*
X117348000Y-40640000D03*
%TD*%
D16*
%TO.C,SW7*%
X119888000Y-64770000D03*
X109728000Y-64770000D03*
D17*
X114808000Y-64770000D03*
D18*
X110998000Y-62230000D03*
X117348000Y-59690000D03*
%TD*%
D17*
%TO.C,SW8*%
X114808000Y-83820000D03*
D16*
X119888000Y-83820000D03*
X109728000Y-83820000D03*
D18*
X110998000Y-81280000D03*
X117348000Y-78740000D03*
%TD*%
D16*
%TO.C,SW9*%
X119888000Y-102870000D03*
X109728000Y-102870000D03*
D17*
X114808000Y-102870000D03*
D18*
X110998000Y-100330000D03*
X117348000Y-97790000D03*
%TD*%
D16*
%TO.C,SW10*%
X138938000Y-43434000D03*
X128778000Y-43434000D03*
D17*
X133858000Y-43434000D03*
D18*
X130048000Y-40894000D03*
X136398000Y-38354000D03*
%TD*%
D17*
%TO.C,SW11*%
X133858000Y-62484000D03*
D16*
X128778000Y-62484000D03*
X138938000Y-62484000D03*
D18*
X130048000Y-59944000D03*
X136398000Y-57404000D03*
%TD*%
D17*
%TO.C,SW12*%
X133858000Y-81534000D03*
D16*
X138938000Y-81534000D03*
X128778000Y-81534000D03*
D18*
X130048000Y-78994000D03*
X136398000Y-76454000D03*
%TD*%
D17*
%TO.C,SW13*%
X133858000Y-100584000D03*
D16*
X128778000Y-100584000D03*
X138938000Y-100584000D03*
D18*
X130048000Y-98044000D03*
X136398000Y-95504000D03*
%TD*%
D16*
%TO.C,SW14*%
X135922044Y-128155099D03*
D17*
X131318000Y-130302000D03*
D16*
X126713956Y-132448901D03*
D18*
X126791517Y-129610154D03*
X131473121Y-124624506D03*
%TD*%
D17*
%TO.C,SW15*%
X152908000Y-45720000D03*
D16*
X147828000Y-45720000D03*
X157988000Y-45720000D03*
D18*
X149098000Y-43180000D03*
X155448000Y-40640000D03*
%TD*%
D17*
%TO.C,SW16*%
X152908000Y-64770000D03*
D16*
X157988000Y-64770000D03*
X147828000Y-64770000D03*
D18*
X149098000Y-62230000D03*
X155448000Y-59690000D03*
%TD*%
D16*
%TO.C,SW17*%
X147828000Y-83820000D03*
D17*
X152908000Y-83820000D03*
D16*
X157988000Y-83820000D03*
D18*
X149098000Y-81280000D03*
X155448000Y-78740000D03*
%TD*%
D17*
%TO.C,SW18*%
X152908000Y-102870000D03*
D16*
X157988000Y-102870000D03*
X147828000Y-102870000D03*
D18*
X149098000Y-100330000D03*
X155448000Y-97790000D03*
%TD*%
D16*
%TO.C,SW19*%
X159258000Y-125222000D03*
D17*
X154178000Y-125222000D03*
D16*
X149098000Y-125222000D03*
D18*
X150368000Y-122682000D03*
X156718000Y-120142000D03*
%TD*%
D16*
%TO.C,SW20*%
X166878000Y-45720000D03*
X177038000Y-45720000D03*
D17*
X171958000Y-45720000D03*
D18*
X168148000Y-43180000D03*
X174498000Y-40640000D03*
%TD*%
D17*
%TO.C,SW21*%
X171958000Y-64770000D03*
D16*
X166878000Y-64770000D03*
X177038000Y-64770000D03*
D18*
X168148000Y-62230000D03*
X174498000Y-59690000D03*
%TD*%
D16*
%TO.C,SW22*%
X166878000Y-83820000D03*
D17*
X171958000Y-83820000D03*
D16*
X177038000Y-83820000D03*
D18*
X168148000Y-81280000D03*
X174498000Y-78740000D03*
%TD*%
D16*
%TO.C,SW23*%
X166878000Y-102870000D03*
D17*
X171958000Y-102870000D03*
D16*
X177038000Y-102870000D03*
D18*
X168148000Y-100330000D03*
X174498000Y-97790000D03*
%TD*%
D16*
%TO.C,SW24*%
X180697102Y-128990963D03*
X170838898Y-126533037D03*
D17*
X175768000Y-127762000D03*
D18*
X172685655Y-124375726D03*
X179461514Y-123447379D03*
%TD*%
D17*
%TO.C,SW25*%
X191008000Y-83820000D03*
D16*
X196088000Y-83820000D03*
X185928000Y-83820000D03*
D18*
X187198000Y-81280000D03*
X193548000Y-78740000D03*
%TD*%
D16*
%TO.C,SW26*%
X196088000Y-102870000D03*
X185928000Y-102870000D03*
D17*
X191008000Y-102870000D03*
D18*
X187198000Y-100330000D03*
X193548000Y-97790000D03*
%TD*%
D17*
%TO.C,SW27*%
X196088000Y-136652000D03*
D16*
X191779916Y-133960010D03*
X200396084Y-139343990D03*
D18*
X194202932Y-132478965D03*
X200934032Y-133689911D03*
%TD*%
D19*
%TO.C,D1*%
X101346000Y-48514000D03*
D20*
X101346000Y-40894000D03*
%TD*%
D19*
%TO.C,D2*%
X101346000Y-67561000D03*
D20*
X101346000Y-59941000D03*
%TD*%
D19*
%TO.C,D3*%
X101346000Y-86614000D03*
D20*
X101346000Y-78994000D03*
%TD*%
D19*
%TO.C,D4*%
X101346000Y-105664000D03*
D20*
X101346000Y-98044000D03*
%TD*%
D19*
%TO.C,D5*%
X102870000Y-126492000D03*
D20*
X102870000Y-118872000D03*
%TD*%
D19*
%TO.C,D6*%
X104394000Y-48514000D03*
D20*
X104394000Y-40894000D03*
%TD*%
D19*
%TO.C,D7*%
X104394000Y-67564000D03*
D20*
X104394000Y-59944000D03*
%TD*%
D19*
%TO.C,D8*%
X104394000Y-86614000D03*
D20*
X104394000Y-78994000D03*
%TD*%
D19*
%TO.C,D9*%
X104394000Y-105664000D03*
D20*
X104394000Y-98044000D03*
%TD*%
D19*
%TO.C,D10*%
X124300000Y-48514000D03*
D20*
X124300000Y-40894000D03*
%TD*%
D19*
%TO.C,D11*%
X124300000Y-67564000D03*
D20*
X124300000Y-59944000D03*
%TD*%
D19*
%TO.C,D12*%
X124300000Y-86614000D03*
D20*
X124300000Y-78994000D03*
%TD*%
D19*
%TO.C,D13*%
X124300000Y-105664000D03*
D20*
X124300000Y-98044000D03*
%TD*%
D21*
%TO.C,D14*%
X121498176Y-137565033D03*
D22*
X118277824Y-130658967D03*
%TD*%
D19*
%TO.C,D15*%
X143383000Y-48514000D03*
D20*
X143383000Y-40894000D03*
%TD*%
D19*
%TO.C,D16*%
X143383000Y-67564000D03*
D20*
X143383000Y-59944000D03*
%TD*%
D19*
%TO.C,D17*%
X143383000Y-86614000D03*
D20*
X143383000Y-78994000D03*
%TD*%
D19*
%TO.C,D18*%
X143383000Y-105664000D03*
D20*
X143383000Y-98044000D03*
%TD*%
D23*
%TO.C,D19*%
X142923505Y-128902177D03*
D24*
X140951303Y-121541823D03*
%TD*%
D19*
%TO.C,D20*%
X162560000Y-48514000D03*
D20*
X162560000Y-40894000D03*
%TD*%
D19*
%TO.C,D21*%
X162560000Y-67564000D03*
D20*
X162560000Y-59944000D03*
%TD*%
D19*
%TO.C,D22*%
X162560000Y-86614000D03*
D20*
X162560000Y-78994000D03*
%TD*%
D19*
%TO.C,D23*%
X162560000Y-105664000D03*
D20*
X162560000Y-98044000D03*
%TD*%
D25*
%TO.C,D24*%
X164946400Y-128974118D03*
D26*
X166269600Y-121469882D03*
%TD*%
D19*
%TO.C,D25*%
X181483000Y-86614000D03*
D20*
X181483000Y-78994000D03*
%TD*%
D19*
%TO.C,D26*%
X181483000Y-105664000D03*
D20*
X181483000Y-98044000D03*
%TD*%
D27*
%TO.C,D27*%
X185293000Y-133601557D03*
D28*
X189103000Y-127002443D03*
%TD*%
D29*
%TO.C,RST1*%
X186563000Y-36703000D03*
X180063000Y-36703000D03*
%TD*%
M02*
