M48
; DRILL file {KiCad 5.99.0-unknown-5f3c67bd2b~134~ubuntu20.04.1} date Mi 29 Sep 2021 14:39:41 CEST
; FORMAT={-:-/ absolute / inch / decimal}
; #@! TF.CreationDate,2021-09-29T14:39:41+02:00
; #@! TF.GenerationSoftware,Kicad,Pcbnew,5.99.0-unknown-5f3c67bd2b~134~ubuntu20.04.1
; #@! TF.FileFunction,Plated,1,2,PTH
FMAT,2
INCH
; #@! TA.AperFunction,Plated,PTH,ViaDrill
T1C0.0157
; #@! TA.AperFunction,Plated,PTH,ComponentDrill
T2C0.0315
; #@! TA.AperFunction,Plated,PTH,ComponentDrill
T3C0.0430
; #@! TA.AperFunction,Plated,PTH,ComponentDrill
T4C0.0512
; #@! TA.AperFunction,Plated,PTH,ComponentDrill
T5C0.0579
; #@! TA.AperFunction,Plated,PTH,ComponentDrill
T6C0.0866
%
G90
G05
T1
X4.895Y-4.5
X7.199Y-2.596
X7.199Y-2.66
X7.199Y-2.721
X7.9225Y-4.402
X7.964Y-4.402
X8.0055Y-4.402
X8.047Y-4.402
X8.0884Y-4.402
X8.1299Y-4.402
T2
X3.99Y-1.61
X3.99Y-1.91
X3.99Y-2.3599
X3.99Y-2.6599
X3.99Y-3.11
X3.99Y-3.41
X3.99Y-3.86
X3.99Y-4.16
X4.05Y-4.68
X4.05Y-4.98
X4.11Y-1.61
X4.11Y-1.91
X4.11Y-2.36
X4.11Y-2.66
X4.11Y-3.11
X4.11Y-3.41
X4.11Y-3.86
X4.11Y-4.16
X4.6566Y-5.1441
X4.7834Y-5.4159
X4.8937Y-1.61
X4.8937Y-1.91
X4.8937Y-2.36
X4.8937Y-2.66
X4.8937Y-3.11
X4.8937Y-3.41
X4.8937Y-3.86
X4.8937Y-4.16
X5.5493Y-4.7851
X5.6269Y-5.0749
X5.645Y-1.61
X5.645Y-1.91
X5.645Y-2.36
X5.645Y-2.66
X5.645Y-3.11
X5.645Y-3.41
X5.645Y-3.86
X5.645Y-4.16
X6.4Y-1.61
X6.4Y-1.91
X6.4Y-2.36
X6.4Y-2.66
X6.4Y-3.11
X6.4Y-3.41
X6.4Y-3.86
X6.4Y-4.16
X6.494Y-5.0777
X6.546Y-4.7823
X7.145Y-3.11
X7.145Y-3.41
X7.145Y-3.86
X7.145Y-4.16
X7.295Y-5.2599
X7.445Y-5.0001
T3
X7.386Y-1.4932
X7.386Y-1.6932
X7.386Y-1.8932
X7.386Y-2.0932
X7.386Y-2.2932
X7.386Y-2.4932
X7.404Y-1.5932
X7.404Y-1.7932
X7.404Y-1.9932
X7.404Y-2.1932
X7.404Y-2.3932
X7.404Y-2.5932
X7.986Y-1.5932
X7.986Y-1.7932
X7.986Y-1.9932
X7.986Y-2.1932
X7.986Y-2.3932
X7.986Y-2.5932
X8.004Y-1.4932
X8.004Y-1.6932
X8.004Y-1.8932
X8.004Y-2.0932
X8.004Y-2.2932
X8.004Y-2.4932
T4
X8.14Y-1.437
X8.14Y-1.693
T5
X3.431Y-1.77
X3.431Y-2.52
X3.431Y-3.27
X3.431Y-4.02
X3.431Y-4.77
X3.681Y-1.67
X3.681Y-2.42
X3.681Y-3.17
X3.681Y-3.92
X3.681Y-4.67
X4.37Y-1.7
X4.37Y-2.45
X4.37Y-3.2
X4.37Y-3.95
X4.62Y-1.6
X4.62Y-2.35
X4.62Y-3.1
X4.62Y-3.85
X5.0248Y-5.0373
X5.12Y-1.61
X5.12Y-2.36
X5.12Y-3.11
X5.12Y-3.86
X5.2256Y-4.8579
X5.37Y-1.51
X5.37Y-2.26
X5.37Y-3.01
X5.37Y-3.76
X5.87Y-1.7
X5.87Y-2.45
X5.87Y-3.2
X5.87Y-3.95
X5.92Y-4.83
X6.12Y-1.6
X6.12Y-2.35
X6.12Y-3.1
X6.12Y-3.85
X6.17Y-4.73
X6.62Y-1.7
X6.62Y-2.45
X6.62Y-3.2
X6.62Y-3.95
X6.7986Y-4.8967
X6.87Y-1.6
X6.87Y-2.35
X6.87Y-3.1
X6.87Y-3.85
X7.0654Y-4.8601
X7.37Y-3.2
X7.37Y-3.95
X7.62Y-3.1
X7.62Y-3.85
X7.6458Y-5.2157
X7.9108Y-5.2634
T6
X4.0925Y-2.09
X4.0925Y-3.59
X4.3085Y-5.1175
X7.145Y-2.09
X7.145Y-3.59
X7.34Y-2.745
X7.43Y-4.66
X8.05Y-2.745
T0
M30
