%TF.GenerationSoftware,KiCad,Pcbnew,5.99.0-unknown-5f3c67bd2b~134~ubuntu20.04.1*%
%TF.CreationDate,2021-09-29T14:39:44+02:00*%
%TF.ProjectId,knuckle-pad,6b6e7563-6b6c-4652-9d70-61642e6b6963,rev?*%
%TF.SameCoordinates,Original*%
%TF.FileFunction,Legend,Bot*%
%TF.FilePolarity,Positive*%
%FSLAX46Y46*%
G04 Gerber Fmt 4.6, Leading zero omitted, Abs format (unit mm)*
G04 Created by KiCad (PCBNEW 5.99.0-unknown-5f3c67bd2b~134~ubuntu20.04.1) date 2021-09-29 14:39:44*
%MOMM*%
%LPD*%
G01*
G04 APERTURE LIST*
G04 Aperture macros list*
%AMRoundRect*
0 Rectangle with rounded corners*
0 $1 Rounding radius*
0 $2 $3 $4 $5 $6 $7 $8 $9 X,Y pos of 4 corners*
0 Add a 4 corners polygon primitive as box body*
4,1,4,$2,$3,$4,$5,$6,$7,$8,$9,$2,$3,0*
0 Add four circle primitives for the rounded corners*
1,1,$1+$1,$2,$3*
1,1,$1+$1,$4,$5*
1,1,$1+$1,$6,$7*
1,1,$1+$1,$8,$9*
0 Add four rect primitives between the rounded corners*
20,1,$1+$1,$2,$3,$4,$5,0*
20,1,$1+$1,$4,$5,$6,$7,0*
20,1,$1+$1,$6,$7,$8,$9,0*
20,1,$1+$1,$8,$9,$2,$3,0*%
%AMHorizOval*
0 Thick line with rounded ends*
0 $1 width*
0 $2 $3 position (X,Y) of the first rounded end (center of the circle)*
0 $4 $5 position (X,Y) of the second rounded end (center of the circle)*
0 Add line between two ends*
20,1,$1,$2,$3,$4,$5,0*
0 Add two circle primitives to create the rounded ends*
1,1,$1,$2,$3*
1,1,$1,$4,$5*%
G04 Aperture macros list end*
%ADD10C,0.150000*%
%ADD11C,0.127000*%
%ADD12C,0.120000*%
%ADD13R,1.752600X1.752600*%
%ADD14C,1.752600*%
%ADD15C,1.750000*%
%ADD16C,3.987800*%
%ADD17C,2.250000*%
%ADD18C,4.000000*%
%ADD19RoundRect,0.160000X0.640000X-0.640000X0.640000X0.640000X-0.640000X0.640000X-0.640000X-0.640000X0*%
%ADD20O,1.600000X1.600000*%
%ADD21RoundRect,0.160000X0.850513X-0.309561X0.309561X0.850513X-0.850513X0.309561X-0.309561X-0.850513X0*%
%ADD22HorizOval,1.600000X0.000000X0.000000X0.000000X0.000000X0*%
%ADD23RoundRect,0.160000X0.783837X-0.452548X0.452548X0.783837X-0.783837X0.452548X-0.452548X-0.783837X0*%
%ADD24HorizOval,1.600000X0.000000X0.000000X0.000000X0.000000X0*%
%ADD25RoundRect,0.160000X0.519142X-0.741412X0.741412X0.519142X-0.519142X0.741412X-0.741412X-0.519142X0*%
%ADD26HorizOval,1.600000X0.000000X0.000000X0.000000X0.000000X0*%
%ADD27RoundRect,0.160000X0.234256X-0.874256X0.874256X0.234256X-0.234256X0.874256X-0.874256X-0.234256X0*%
%ADD28HorizOval,1.600000X0.000000X0.000000X0.000000X0.000000X0*%
%ADD29C,2.000000*%
G04 APERTURE END LIST*
D10*
%TO.C,RST1*%
X207218380Y-38727190D02*
X206742190Y-38393857D01*
X207218380Y-38155761D02*
X206218380Y-38155761D01*
X206218380Y-38536714D01*
X206266000Y-38631952D01*
X206313619Y-38679571D01*
X206408857Y-38727190D01*
X206551714Y-38727190D01*
X206646952Y-38679571D01*
X206694571Y-38631952D01*
X206742190Y-38536714D01*
X206742190Y-38155761D01*
X207170761Y-39108142D02*
X207218380Y-39251000D01*
X207218380Y-39489095D01*
X207170761Y-39584333D01*
X207123142Y-39631952D01*
X207027904Y-39679571D01*
X206932666Y-39679571D01*
X206837428Y-39631952D01*
X206789809Y-39584333D01*
X206742190Y-39489095D01*
X206694571Y-39298619D01*
X206646952Y-39203380D01*
X206599333Y-39155761D01*
X206504095Y-39108142D01*
X206408857Y-39108142D01*
X206313619Y-39155761D01*
X206266000Y-39203380D01*
X206218380Y-39298619D01*
X206218380Y-39536714D01*
X206266000Y-39679571D01*
X206218380Y-39965285D02*
X206218380Y-40536714D01*
X207218380Y-40251000D02*
X206218380Y-40251000D01*
X207218380Y-41393857D02*
X207218380Y-40822428D01*
X207218380Y-41108142D02*
X206218380Y-41108142D01*
X206361238Y-41012904D01*
X206456476Y-40917666D01*
X206504095Y-40822428D01*
D11*
%TO.C,D1*%
X102235000Y-49149000D02*
X102235000Y-47879000D01*
D12*
X101346000Y-41833800D02*
X101346000Y-42545000D01*
D11*
X100711000Y-49403000D02*
X101981000Y-49403000D01*
D12*
X100226000Y-42584000D02*
X102466000Y-42584000D01*
X101346000Y-47625000D02*
X101346000Y-46824000D01*
D11*
X101981000Y-47625000D02*
X100711000Y-47625000D01*
D12*
X102466000Y-42584000D02*
X102466000Y-46824000D01*
X102466000Y-46824000D02*
X100226000Y-46824000D01*
X102466000Y-46104000D02*
X100226000Y-46104000D01*
X102466000Y-46224000D02*
X100226000Y-46224000D01*
X100226000Y-46824000D02*
X100226000Y-42584000D01*
D11*
X100457000Y-47879000D02*
X100457000Y-49149000D01*
D12*
X102466000Y-45984000D02*
X100226000Y-45984000D01*
D11*
X100711000Y-47625000D02*
G75*
G03*
X100457000Y-47879000I0J-254000D01*
G01*
X102235000Y-47879000D02*
G75*
G03*
X101981000Y-47625000I-254000J0D01*
G01*
X100457000Y-49149000D02*
G75*
G03*
X100711000Y-49403000I254000J0D01*
G01*
X101981000Y-49403000D02*
G75*
G03*
X102235000Y-49149000I0J254000D01*
G01*
X102270574Y-40894000D02*
G75*
G03*
X102270574Y-40894000I-924574J0D01*
G01*
%TO.C,D2*%
X100711000Y-68450000D02*
X101981000Y-68450000D01*
D12*
X100226000Y-61631000D02*
X102466000Y-61631000D01*
X102466000Y-65871000D02*
X100226000Y-65871000D01*
X102466000Y-65151000D02*
X100226000Y-65151000D01*
D11*
X102235000Y-68196000D02*
X102235000Y-66926000D01*
D12*
X102466000Y-61631000D02*
X102466000Y-65871000D01*
X101346000Y-60880800D02*
X101346000Y-61592000D01*
X100226000Y-65871000D02*
X100226000Y-61631000D01*
X101346000Y-66672000D02*
X101346000Y-65871000D01*
D11*
X101981000Y-66672000D02*
X100711000Y-66672000D01*
X100457000Y-66926000D02*
X100457000Y-68196000D01*
D12*
X102466000Y-65031000D02*
X100226000Y-65031000D01*
X102466000Y-65271000D02*
X100226000Y-65271000D01*
D11*
X101981000Y-68450000D02*
G75*
G03*
X102235000Y-68196000I0J254000D01*
G01*
X100457000Y-68196000D02*
G75*
G03*
X100711000Y-68450000I254000J0D01*
G01*
X100711000Y-66672000D02*
G75*
G03*
X100457000Y-66926000I0J-254000D01*
G01*
X102235000Y-66926000D02*
G75*
G03*
X101981000Y-66672000I-254000J0D01*
G01*
X102270574Y-59941000D02*
G75*
G03*
X102270574Y-59941000I-924574J0D01*
G01*
D12*
%TO.C,D3*%
X102466000Y-84324000D02*
X100226000Y-84324000D01*
X100226000Y-80684000D02*
X102466000Y-80684000D01*
X102466000Y-84084000D02*
X100226000Y-84084000D01*
X102466000Y-80684000D02*
X102466000Y-84924000D01*
D11*
X100711000Y-87503000D02*
X101981000Y-87503000D01*
D12*
X102466000Y-84924000D02*
X100226000Y-84924000D01*
D11*
X102235000Y-87249000D02*
X102235000Y-85979000D01*
D12*
X102466000Y-84204000D02*
X100226000Y-84204000D01*
D11*
X101981000Y-85725000D02*
X100711000Y-85725000D01*
X100457000Y-85979000D02*
X100457000Y-87249000D01*
D12*
X101346000Y-79933800D02*
X101346000Y-80645000D01*
X101346000Y-85725000D02*
X101346000Y-84924000D01*
X100226000Y-84924000D02*
X100226000Y-80684000D01*
D11*
X100711000Y-85725000D02*
G75*
G03*
X100457000Y-85979000I0J-254000D01*
G01*
X102235000Y-85979000D02*
G75*
G03*
X101981000Y-85725000I-254000J0D01*
G01*
X101981000Y-87503000D02*
G75*
G03*
X102235000Y-87249000I0J254000D01*
G01*
X100457000Y-87249000D02*
G75*
G03*
X100711000Y-87503000I254000J0D01*
G01*
X102270574Y-78994000D02*
G75*
G03*
X102270574Y-78994000I-924574J0D01*
G01*
D12*
%TO.C,D4*%
X102466000Y-103374000D02*
X100226000Y-103374000D01*
X102466000Y-103974000D02*
X100226000Y-103974000D01*
X100226000Y-103974000D02*
X100226000Y-99734000D01*
X102466000Y-99734000D02*
X102466000Y-103974000D01*
X101346000Y-98983800D02*
X101346000Y-99695000D01*
X102466000Y-103134000D02*
X100226000Y-103134000D01*
D11*
X102235000Y-106299000D02*
X102235000Y-105029000D01*
D12*
X100226000Y-99734000D02*
X102466000Y-99734000D01*
D11*
X100457000Y-105029000D02*
X100457000Y-106299000D01*
D12*
X102466000Y-103254000D02*
X100226000Y-103254000D01*
D11*
X101981000Y-104775000D02*
X100711000Y-104775000D01*
X100711000Y-106553000D02*
X101981000Y-106553000D01*
D12*
X101346000Y-104775000D02*
X101346000Y-103974000D01*
D11*
X102235000Y-105029000D02*
G75*
G03*
X101981000Y-104775000I-254000J0D01*
G01*
X100457000Y-106299000D02*
G75*
G03*
X100711000Y-106553000I254000J0D01*
G01*
X101981000Y-106553000D02*
G75*
G03*
X102235000Y-106299000I0J254000D01*
G01*
X100711000Y-104775000D02*
G75*
G03*
X100457000Y-105029000I0J-254000D01*
G01*
X102270574Y-98044000D02*
G75*
G03*
X102270574Y-98044000I-924574J0D01*
G01*
D12*
%TO.C,D5*%
X103990000Y-124202000D02*
X101750000Y-124202000D01*
X103990000Y-120562000D02*
X103990000Y-124802000D01*
D11*
X101981000Y-125857000D02*
X101981000Y-127127000D01*
D12*
X103990000Y-123962000D02*
X101750000Y-123962000D01*
D11*
X103505000Y-125603000D02*
X102235000Y-125603000D01*
X103759000Y-127127000D02*
X103759000Y-125857000D01*
D12*
X103990000Y-124082000D02*
X101750000Y-124082000D01*
X102870000Y-119811800D02*
X102870000Y-120523000D01*
X101750000Y-120562000D02*
X103990000Y-120562000D01*
D11*
X102235000Y-127381000D02*
X103505000Y-127381000D01*
D12*
X102870000Y-125603000D02*
X102870000Y-124802000D01*
X101750000Y-124802000D02*
X101750000Y-120562000D01*
X103990000Y-124802000D02*
X101750000Y-124802000D01*
D11*
X102235000Y-125603000D02*
G75*
G03*
X101981000Y-125857000I0J-254000D01*
G01*
X103759000Y-125857000D02*
G75*
G03*
X103505000Y-125603000I-254000J0D01*
G01*
X103505000Y-127381000D02*
G75*
G03*
X103759000Y-127127000I0J254000D01*
G01*
X101981000Y-127127000D02*
G75*
G03*
X102235000Y-127381000I254000J0D01*
G01*
X103794574Y-118872000D02*
G75*
G03*
X103794574Y-118872000I-924574J0D01*
G01*
D12*
%TO.C,D6*%
X104394000Y-47625000D02*
X104394000Y-46824000D01*
X105514000Y-46104000D02*
X103274000Y-46104000D01*
X105514000Y-46224000D02*
X103274000Y-46224000D01*
X104394000Y-41833800D02*
X104394000Y-42545000D01*
X103274000Y-46824000D02*
X103274000Y-42584000D01*
X105514000Y-45984000D02*
X103274000Y-45984000D01*
D11*
X105283000Y-49149000D02*
X105283000Y-47879000D01*
D12*
X105514000Y-42584000D02*
X105514000Y-46824000D01*
D11*
X103505000Y-47879000D02*
X103505000Y-49149000D01*
D12*
X103274000Y-42584000D02*
X105514000Y-42584000D01*
X105514000Y-46824000D02*
X103274000Y-46824000D01*
D11*
X103759000Y-49403000D02*
X105029000Y-49403000D01*
X105029000Y-47625000D02*
X103759000Y-47625000D01*
X105283000Y-47879000D02*
G75*
G03*
X105029000Y-47625000I-254000J0D01*
G01*
X103505000Y-49149000D02*
G75*
G03*
X103759000Y-49403000I254000J0D01*
G01*
X103759000Y-47625000D02*
G75*
G03*
X103505000Y-47879000I0J-254000D01*
G01*
X105029000Y-49403000D02*
G75*
G03*
X105283000Y-49149000I0J254000D01*
G01*
X105318574Y-40894000D02*
G75*
G03*
X105318574Y-40894000I-924574J0D01*
G01*
D12*
%TO.C,D7*%
X105514000Y-65874000D02*
X103274000Y-65874000D01*
X104394000Y-66675000D02*
X104394000Y-65874000D01*
D11*
X105029000Y-66675000D02*
X103759000Y-66675000D01*
X105283000Y-68199000D02*
X105283000Y-66929000D01*
D12*
X104394000Y-60883800D02*
X104394000Y-61595000D01*
X103274000Y-61634000D02*
X105514000Y-61634000D01*
X105514000Y-65274000D02*
X103274000Y-65274000D01*
X105514000Y-61634000D02*
X105514000Y-65874000D01*
X105514000Y-65034000D02*
X103274000Y-65034000D01*
D11*
X103759000Y-68453000D02*
X105029000Y-68453000D01*
X103505000Y-66929000D02*
X103505000Y-68199000D01*
D12*
X103274000Y-65874000D02*
X103274000Y-61634000D01*
X105514000Y-65154000D02*
X103274000Y-65154000D01*
D11*
X103759000Y-66675000D02*
G75*
G03*
X103505000Y-66929000I0J-254000D01*
G01*
X103505000Y-68199000D02*
G75*
G03*
X103759000Y-68453000I254000J0D01*
G01*
X105029000Y-68453000D02*
G75*
G03*
X105283000Y-68199000I0J254000D01*
G01*
X105283000Y-66929000D02*
G75*
G03*
X105029000Y-66675000I-254000J0D01*
G01*
X105318574Y-59944000D02*
G75*
G03*
X105318574Y-59944000I-924574J0D01*
G01*
%TO.C,D8*%
X105283000Y-87249000D02*
X105283000Y-85979000D01*
D12*
X104394000Y-79933800D02*
X104394000Y-80645000D01*
D11*
X103759000Y-87503000D02*
X105029000Y-87503000D01*
D12*
X103274000Y-80684000D02*
X105514000Y-80684000D01*
D11*
X105029000Y-85725000D02*
X103759000Y-85725000D01*
D12*
X105514000Y-84924000D02*
X103274000Y-84924000D01*
X105514000Y-84324000D02*
X103274000Y-84324000D01*
X103274000Y-84924000D02*
X103274000Y-80684000D01*
X105514000Y-84204000D02*
X103274000Y-84204000D01*
X104394000Y-85725000D02*
X104394000Y-84924000D01*
X105514000Y-84084000D02*
X103274000Y-84084000D01*
D11*
X103505000Y-85979000D02*
X103505000Y-87249000D01*
D12*
X105514000Y-80684000D02*
X105514000Y-84924000D01*
D11*
X103759000Y-85725000D02*
G75*
G03*
X103505000Y-85979000I0J-254000D01*
G01*
X105283000Y-85979000D02*
G75*
G03*
X105029000Y-85725000I-254000J0D01*
G01*
X103505000Y-87249000D02*
G75*
G03*
X103759000Y-87503000I254000J0D01*
G01*
X105029000Y-87503000D02*
G75*
G03*
X105283000Y-87249000I0J254000D01*
G01*
X105318574Y-78994000D02*
G75*
G03*
X105318574Y-78994000I-924574J0D01*
G01*
%TO.C,D9*%
X103505000Y-105029000D02*
X103505000Y-106299000D01*
X103759000Y-106553000D02*
X105029000Y-106553000D01*
X105029000Y-104775000D02*
X103759000Y-104775000D01*
D12*
X104394000Y-104775000D02*
X104394000Y-103974000D01*
D11*
X105283000Y-106299000D02*
X105283000Y-105029000D01*
D12*
X103274000Y-103974000D02*
X103274000Y-99734000D01*
X104394000Y-98983800D02*
X104394000Y-99695000D01*
X105514000Y-99734000D02*
X105514000Y-103974000D01*
X105514000Y-103134000D02*
X103274000Y-103134000D01*
X105514000Y-103254000D02*
X103274000Y-103254000D01*
X105514000Y-103374000D02*
X103274000Y-103374000D01*
X105514000Y-103974000D02*
X103274000Y-103974000D01*
X103274000Y-99734000D02*
X105514000Y-99734000D01*
D11*
X103759000Y-104775000D02*
G75*
G03*
X103505000Y-105029000I0J-254000D01*
G01*
X105029000Y-106553000D02*
G75*
G03*
X105283000Y-106299000I0J254000D01*
G01*
X103505000Y-106299000D02*
G75*
G03*
X103759000Y-106553000I254000J0D01*
G01*
X105283000Y-105029000D02*
G75*
G03*
X105029000Y-104775000I-254000J0D01*
G01*
X105318574Y-98044000D02*
G75*
G03*
X105318574Y-98044000I-924574J0D01*
G01*
D12*
%TO.C,D10*%
X123180000Y-42584000D02*
X125420000Y-42584000D01*
D11*
X124935000Y-47625000D02*
X123665000Y-47625000D01*
X123411000Y-47879000D02*
X123411000Y-49149000D01*
D12*
X125420000Y-45984000D02*
X123180000Y-45984000D01*
X125420000Y-42584000D02*
X125420000Y-46824000D01*
X125420000Y-46824000D02*
X123180000Y-46824000D01*
D11*
X125189000Y-49149000D02*
X125189000Y-47879000D01*
D12*
X124300000Y-47625000D02*
X124300000Y-46824000D01*
D11*
X123665000Y-49403000D02*
X124935000Y-49403000D01*
D12*
X125420000Y-46104000D02*
X123180000Y-46104000D01*
X123180000Y-46824000D02*
X123180000Y-42584000D01*
X125420000Y-46224000D02*
X123180000Y-46224000D01*
X124300000Y-41833800D02*
X124300000Y-42545000D01*
D11*
X124935000Y-49403000D02*
G75*
G03*
X125189000Y-49149000I0J254000D01*
G01*
X125189000Y-47879000D02*
G75*
G03*
X124935000Y-47625000I-254000J0D01*
G01*
X123665000Y-47625000D02*
G75*
G03*
X123411000Y-47879000I0J-254000D01*
G01*
X123411000Y-49149000D02*
G75*
G03*
X123665000Y-49403000I254000J0D01*
G01*
X125224574Y-40894000D02*
G75*
G03*
X125224574Y-40894000I-924574J0D01*
G01*
D12*
%TO.C,D11*%
X124300000Y-66675000D02*
X124300000Y-65874000D01*
X125420000Y-61634000D02*
X125420000Y-65874000D01*
X125420000Y-65274000D02*
X123180000Y-65274000D01*
D11*
X123665000Y-68453000D02*
X124935000Y-68453000D01*
D12*
X125420000Y-65154000D02*
X123180000Y-65154000D01*
X124300000Y-60883800D02*
X124300000Y-61595000D01*
X123180000Y-65874000D02*
X123180000Y-61634000D01*
D11*
X125189000Y-68199000D02*
X125189000Y-66929000D01*
D12*
X125420000Y-65034000D02*
X123180000Y-65034000D01*
X123180000Y-61634000D02*
X125420000Y-61634000D01*
X125420000Y-65874000D02*
X123180000Y-65874000D01*
D11*
X124935000Y-66675000D02*
X123665000Y-66675000D01*
X123411000Y-66929000D02*
X123411000Y-68199000D01*
X124935000Y-68453000D02*
G75*
G03*
X125189000Y-68199000I0J254000D01*
G01*
X123411000Y-68199000D02*
G75*
G03*
X123665000Y-68453000I254000J0D01*
G01*
X125189000Y-66929000D02*
G75*
G03*
X124935000Y-66675000I-254000J0D01*
G01*
X123665000Y-66675000D02*
G75*
G03*
X123411000Y-66929000I0J-254000D01*
G01*
X125224574Y-59944000D02*
G75*
G03*
X125224574Y-59944000I-924574J0D01*
G01*
D12*
%TO.C,D12*%
X124300000Y-85725000D02*
X124300000Y-84924000D01*
X125420000Y-84204000D02*
X123180000Y-84204000D01*
D11*
X123411000Y-85979000D02*
X123411000Y-87249000D01*
D12*
X123180000Y-80684000D02*
X125420000Y-80684000D01*
X125420000Y-80684000D02*
X125420000Y-84924000D01*
X125420000Y-84924000D02*
X123180000Y-84924000D01*
X125420000Y-84324000D02*
X123180000Y-84324000D01*
X124300000Y-79933800D02*
X124300000Y-80645000D01*
X123180000Y-84924000D02*
X123180000Y-80684000D01*
X125420000Y-84084000D02*
X123180000Y-84084000D01*
D11*
X124935000Y-85725000D02*
X123665000Y-85725000D01*
X125189000Y-87249000D02*
X125189000Y-85979000D01*
X123665000Y-87503000D02*
X124935000Y-87503000D01*
X124935000Y-87503000D02*
G75*
G03*
X125189000Y-87249000I0J254000D01*
G01*
X125189000Y-85979000D02*
G75*
G03*
X124935000Y-85725000I-254000J0D01*
G01*
X123665000Y-85725000D02*
G75*
G03*
X123411000Y-85979000I0J-254000D01*
G01*
X123411000Y-87249000D02*
G75*
G03*
X123665000Y-87503000I254000J0D01*
G01*
X125224574Y-78994000D02*
G75*
G03*
X125224574Y-78994000I-924574J0D01*
G01*
D12*
%TO.C,D13*%
X124300000Y-104775000D02*
X124300000Y-103974000D01*
X125420000Y-103374000D02*
X123180000Y-103374000D01*
D11*
X125189000Y-106299000D02*
X125189000Y-105029000D01*
X124935000Y-104775000D02*
X123665000Y-104775000D01*
D12*
X125420000Y-103974000D02*
X123180000Y-103974000D01*
X125420000Y-103134000D02*
X123180000Y-103134000D01*
X123180000Y-103974000D02*
X123180000Y-99734000D01*
X123180000Y-99734000D02*
X125420000Y-99734000D01*
X125420000Y-103254000D02*
X123180000Y-103254000D01*
X125420000Y-99734000D02*
X125420000Y-103974000D01*
D11*
X123665000Y-106553000D02*
X124935000Y-106553000D01*
D12*
X124300000Y-98983800D02*
X124300000Y-99695000D01*
D11*
X123411000Y-105029000D02*
X123411000Y-106299000D01*
X123411000Y-106299000D02*
G75*
G03*
X123665000Y-106553000I254000J0D01*
G01*
X123665000Y-104775000D02*
G75*
G03*
X123411000Y-105029000I0J-254000D01*
G01*
X125189000Y-105029000D02*
G75*
G03*
X124935000Y-104775000I-254000J0D01*
G01*
X124935000Y-106553000D02*
G75*
G03*
X125189000Y-106299000I0J254000D01*
G01*
X125224574Y-98044000D02*
G75*
G03*
X125224574Y-98044000I-924574J0D01*
G01*
D12*
%TO.C,D14*%
X119768886Y-136506705D02*
X117976985Y-132663960D01*
X121444016Y-134798742D02*
X119413887Y-135745406D01*
X117976985Y-132663960D02*
X120007114Y-131717295D01*
D11*
X121697973Y-136490962D02*
X120546962Y-137027688D01*
D12*
X121799015Y-135560040D02*
X119768886Y-136506705D01*
X121545444Y-135016255D02*
X119515315Y-135962920D01*
X121122468Y-136759325D02*
X120783951Y-136033373D01*
D11*
X122572246Y-137764830D02*
X122035521Y-136613820D01*
D12*
X120007114Y-131717295D02*
X121799015Y-135560040D01*
D11*
X121298378Y-138639103D02*
X122449389Y-138102378D01*
D12*
X121494730Y-134907498D02*
X119464601Y-135854163D01*
D11*
X120424105Y-137365235D02*
X120960831Y-138516246D01*
D12*
X118675001Y-131510715D02*
X118975567Y-132155281D01*
D11*
X122035521Y-136613820D02*
G75*
G03*
X121697973Y-136490962I-230203J-107345D01*
G01*
X122449390Y-138102378D02*
G75*
G03*
X122572246Y-137764830I-107346J230202D01*
G01*
X120960831Y-138516246D02*
G75*
G03*
X121298378Y-138639103I230202J107345D01*
G01*
X120546963Y-137027687D02*
G75*
G03*
X120424105Y-137365235I107345J-230203D01*
G01*
X119202397Y-130658967D02*
G75*
G03*
X119202397Y-130658967I-924573J0D01*
G01*
%TO.C,D15*%
X144272000Y-49149000D02*
X144272000Y-47879000D01*
D12*
X144503000Y-46224000D02*
X142263000Y-46224000D01*
X144503000Y-42584000D02*
X144503000Y-46824000D01*
D11*
X144018000Y-47625000D02*
X142748000Y-47625000D01*
X142748000Y-49403000D02*
X144018000Y-49403000D01*
D12*
X144503000Y-46104000D02*
X142263000Y-46104000D01*
X143383000Y-47625000D02*
X143383000Y-46824000D01*
X143383000Y-41833800D02*
X143383000Y-42545000D01*
X144503000Y-46824000D02*
X142263000Y-46824000D01*
X142263000Y-42584000D02*
X144503000Y-42584000D01*
X142263000Y-46824000D02*
X142263000Y-42584000D01*
X144503000Y-45984000D02*
X142263000Y-45984000D01*
D11*
X142494000Y-47879000D02*
X142494000Y-49149000D01*
X142494000Y-49149000D02*
G75*
G03*
X142748000Y-49403000I254000J0D01*
G01*
X142748000Y-47625000D02*
G75*
G03*
X142494000Y-47879000I0J-254000D01*
G01*
X144272000Y-47879000D02*
G75*
G03*
X144018000Y-47625000I-254000J0D01*
G01*
X144018000Y-49403000D02*
G75*
G03*
X144272000Y-49149000I0J254000D01*
G01*
X144307574Y-40894000D02*
G75*
G03*
X144307574Y-40894000I-924574J0D01*
G01*
%TO.C,D16*%
X142494000Y-66929000D02*
X142494000Y-68199000D01*
X144272000Y-68199000D02*
X144272000Y-66929000D01*
D12*
X144503000Y-65874000D02*
X142263000Y-65874000D01*
X144503000Y-65034000D02*
X142263000Y-65034000D01*
X144503000Y-65274000D02*
X142263000Y-65274000D01*
D11*
X144018000Y-66675000D02*
X142748000Y-66675000D01*
D12*
X143383000Y-60883800D02*
X143383000Y-61595000D01*
X142263000Y-61634000D02*
X144503000Y-61634000D01*
X144503000Y-65154000D02*
X142263000Y-65154000D01*
X143383000Y-66675000D02*
X143383000Y-65874000D01*
X142263000Y-65874000D02*
X142263000Y-61634000D01*
D11*
X142748000Y-68453000D02*
X144018000Y-68453000D01*
D12*
X144503000Y-61634000D02*
X144503000Y-65874000D01*
D11*
X142748000Y-66675000D02*
G75*
G03*
X142494000Y-66929000I0J-254000D01*
G01*
X142494000Y-68199000D02*
G75*
G03*
X142748000Y-68453000I254000J0D01*
G01*
X144018000Y-68453000D02*
G75*
G03*
X144272000Y-68199000I0J254000D01*
G01*
X144272000Y-66929000D02*
G75*
G03*
X144018000Y-66675000I-254000J0D01*
G01*
X144307574Y-59944000D02*
G75*
G03*
X144307574Y-59944000I-924574J0D01*
G01*
D12*
%TO.C,D17*%
X144503000Y-84324000D02*
X142263000Y-84324000D01*
X142263000Y-80684000D02*
X144503000Y-80684000D01*
D11*
X142494000Y-85979000D02*
X142494000Y-87249000D01*
D12*
X143383000Y-85725000D02*
X143383000Y-84924000D01*
X144503000Y-84084000D02*
X142263000Y-84084000D01*
X144503000Y-80684000D02*
X144503000Y-84924000D01*
D11*
X144018000Y-85725000D02*
X142748000Y-85725000D01*
X144272000Y-87249000D02*
X144272000Y-85979000D01*
D12*
X142263000Y-84924000D02*
X142263000Y-80684000D01*
X143383000Y-79933800D02*
X143383000Y-80645000D01*
D11*
X142748000Y-87503000D02*
X144018000Y-87503000D01*
D12*
X144503000Y-84924000D02*
X142263000Y-84924000D01*
X144503000Y-84204000D02*
X142263000Y-84204000D01*
D11*
X142748000Y-85725000D02*
G75*
G03*
X142494000Y-85979000I0J-254000D01*
G01*
X144272000Y-85979000D02*
G75*
G03*
X144018000Y-85725000I-254000J0D01*
G01*
X144018000Y-87503000D02*
G75*
G03*
X144272000Y-87249000I0J254000D01*
G01*
X142494000Y-87249000D02*
G75*
G03*
X142748000Y-87503000I254000J0D01*
G01*
X144307574Y-78994000D02*
G75*
G03*
X144307574Y-78994000I-924574J0D01*
G01*
%TO.C,D18*%
X142494000Y-105029000D02*
X142494000Y-106299000D01*
D12*
X143383000Y-104775000D02*
X143383000Y-103974000D01*
X142263000Y-103974000D02*
X142263000Y-99734000D01*
X143383000Y-98983800D02*
X143383000Y-99695000D01*
X144503000Y-103974000D02*
X142263000Y-103974000D01*
X142263000Y-99734000D02*
X144503000Y-99734000D01*
D11*
X144018000Y-104775000D02*
X142748000Y-104775000D01*
D12*
X144503000Y-99734000D02*
X144503000Y-103974000D01*
X144503000Y-103254000D02*
X142263000Y-103254000D01*
X144503000Y-103134000D02*
X142263000Y-103134000D01*
D11*
X142748000Y-106553000D02*
X144018000Y-106553000D01*
D12*
X144503000Y-103374000D02*
X142263000Y-103374000D01*
D11*
X144272000Y-106299000D02*
X144272000Y-105029000D01*
X142494000Y-106299000D02*
G75*
G03*
X142748000Y-106553000I254000J0D01*
G01*
X144272000Y-105029000D02*
G75*
G03*
X144018000Y-104775000I-254000J0D01*
G01*
X142748000Y-104775000D02*
G75*
G03*
X142494000Y-105029000I0J-254000D01*
G01*
X144018000Y-106553000D02*
G75*
G03*
X144272000Y-106299000I0J254000D01*
G01*
X144307574Y-98044000D02*
G75*
G03*
X144307574Y-98044000I-924574J0D01*
G01*
D12*
%TO.C,D19*%
X142693414Y-128043469D02*
X142486100Y-127269763D01*
X143412646Y-126400330D02*
X141248972Y-126980085D01*
D11*
X141900446Y-128518905D02*
X142229147Y-129745630D01*
D12*
X141404263Y-127559640D02*
X140306871Y-123464115D01*
D11*
X142540232Y-129925236D02*
X143766958Y-129596535D01*
D12*
X141194542Y-122449600D02*
X141378614Y-123136566D01*
X142470545Y-122884360D02*
X143567937Y-126979885D01*
D11*
X143946563Y-129285450D02*
X143617863Y-128058724D01*
D12*
X143567937Y-126979885D02*
X141404263Y-127559640D01*
X143350529Y-126168508D02*
X141186855Y-126748262D01*
D11*
X143306777Y-127879119D02*
X142080052Y-128207819D01*
D12*
X143381588Y-126284419D02*
X141217914Y-126864173D01*
X140306871Y-123464115D02*
X142470545Y-122884360D01*
D11*
X143617862Y-128058724D02*
G75*
G03*
X143306777Y-127879119I-245345J-65740D01*
G01*
X142229146Y-129745630D02*
G75*
G03*
X142540232Y-129925236I245346J65740D01*
G01*
X143766958Y-129596535D02*
G75*
G03*
X143946563Y-129285450I-65740J245345D01*
G01*
X142080052Y-128207819D02*
G75*
G03*
X141900446Y-128518905I65740J-245346D01*
G01*
X141875877Y-121541823D02*
G75*
G03*
X141875877Y-121541823I-924574J0D01*
G01*
D12*
%TO.C,D20*%
X163680000Y-46824000D02*
X161440000Y-46824000D01*
X163680000Y-45984000D02*
X161440000Y-45984000D01*
X162560000Y-41833800D02*
X162560000Y-42545000D01*
X163680000Y-46224000D02*
X161440000Y-46224000D01*
D11*
X161671000Y-47879000D02*
X161671000Y-49149000D01*
D12*
X162560000Y-47625000D02*
X162560000Y-46824000D01*
X161440000Y-46824000D02*
X161440000Y-42584000D01*
D11*
X161925000Y-49403000D02*
X163195000Y-49403000D01*
D12*
X163680000Y-42584000D02*
X163680000Y-46824000D01*
D11*
X163449000Y-49149000D02*
X163449000Y-47879000D01*
D12*
X163680000Y-46104000D02*
X161440000Y-46104000D01*
X161440000Y-42584000D02*
X163680000Y-42584000D01*
D11*
X163195000Y-47625000D02*
X161925000Y-47625000D01*
X163195000Y-49403000D02*
G75*
G03*
X163449000Y-49149000I0J254000D01*
G01*
X161671000Y-49149000D02*
G75*
G03*
X161925000Y-49403000I254000J0D01*
G01*
X163449000Y-47879000D02*
G75*
G03*
X163195000Y-47625000I-254000J0D01*
G01*
X161925000Y-47625000D02*
G75*
G03*
X161671000Y-47879000I0J-254000D01*
G01*
X163484574Y-40894000D02*
G75*
G03*
X163484574Y-40894000I-924574J0D01*
G01*
D12*
%TO.C,D21*%
X161440000Y-61634000D02*
X163680000Y-61634000D01*
X161440000Y-65874000D02*
X161440000Y-61634000D01*
X163680000Y-65034000D02*
X161440000Y-65034000D01*
X163680000Y-65154000D02*
X161440000Y-65154000D01*
D11*
X163449000Y-68199000D02*
X163449000Y-66929000D01*
D12*
X162560000Y-66675000D02*
X162560000Y-65874000D01*
X163680000Y-61634000D02*
X163680000Y-65874000D01*
D11*
X161925000Y-68453000D02*
X163195000Y-68453000D01*
D12*
X162560000Y-60883800D02*
X162560000Y-61595000D01*
D11*
X163195000Y-66675000D02*
X161925000Y-66675000D01*
D12*
X163680000Y-65874000D02*
X161440000Y-65874000D01*
D11*
X161671000Y-66929000D02*
X161671000Y-68199000D01*
D12*
X163680000Y-65274000D02*
X161440000Y-65274000D01*
D11*
X161671000Y-68199000D02*
G75*
G03*
X161925000Y-68453000I254000J0D01*
G01*
X161925000Y-66675000D02*
G75*
G03*
X161671000Y-66929000I0J-254000D01*
G01*
X163195000Y-68453000D02*
G75*
G03*
X163449000Y-68199000I0J254000D01*
G01*
X163449000Y-66929000D02*
G75*
G03*
X163195000Y-66675000I-254000J0D01*
G01*
X163484574Y-59944000D02*
G75*
G03*
X163484574Y-59944000I-924574J0D01*
G01*
D12*
%TO.C,D22*%
X163680000Y-84084000D02*
X161440000Y-84084000D01*
X162560000Y-85725000D02*
X162560000Y-84924000D01*
D11*
X161671000Y-85979000D02*
X161671000Y-87249000D01*
D12*
X163680000Y-84204000D02*
X161440000Y-84204000D01*
X161440000Y-84924000D02*
X161440000Y-80684000D01*
X162560000Y-79933800D02*
X162560000Y-80645000D01*
X163680000Y-84924000D02*
X161440000Y-84924000D01*
X161440000Y-80684000D02*
X163680000Y-80684000D01*
D11*
X163195000Y-85725000D02*
X161925000Y-85725000D01*
X163449000Y-87249000D02*
X163449000Y-85979000D01*
D12*
X163680000Y-84324000D02*
X161440000Y-84324000D01*
X163680000Y-80684000D02*
X163680000Y-84924000D01*
D11*
X161925000Y-87503000D02*
X163195000Y-87503000D01*
X163195000Y-87503000D02*
G75*
G03*
X163449000Y-87249000I0J254000D01*
G01*
X161925000Y-85725000D02*
G75*
G03*
X161671000Y-85979000I0J-254000D01*
G01*
X161671000Y-87249000D02*
G75*
G03*
X161925000Y-87503000I254000J0D01*
G01*
X163449000Y-85979000D02*
G75*
G03*
X163195000Y-85725000I-254000J0D01*
G01*
X163484574Y-78994000D02*
G75*
G03*
X163484574Y-78994000I-924574J0D01*
G01*
D12*
%TO.C,D23*%
X161440000Y-103974000D02*
X161440000Y-99734000D01*
D11*
X163449000Y-106299000D02*
X163449000Y-105029000D01*
D12*
X162560000Y-104775000D02*
X162560000Y-103974000D01*
X163680000Y-103134000D02*
X161440000Y-103134000D01*
X162560000Y-98983800D02*
X162560000Y-99695000D01*
X163680000Y-103374000D02*
X161440000Y-103374000D01*
X163680000Y-103974000D02*
X161440000Y-103974000D01*
X161440000Y-99734000D02*
X163680000Y-99734000D01*
D11*
X161925000Y-106553000D02*
X163195000Y-106553000D01*
X163195000Y-104775000D02*
X161925000Y-104775000D01*
D12*
X163680000Y-99734000D02*
X163680000Y-103974000D01*
X163680000Y-103254000D02*
X161440000Y-103254000D01*
D11*
X161671000Y-105029000D02*
X161671000Y-106299000D01*
X163195000Y-106553000D02*
G75*
G03*
X163449000Y-106299000I0J254000D01*
G01*
X161925000Y-104775000D02*
G75*
G03*
X161671000Y-105029000I0J-254000D01*
G01*
X161671000Y-106299000D02*
G75*
G03*
X161925000Y-106553000I254000J0D01*
G01*
X163449000Y-105029000D02*
G75*
G03*
X163195000Y-104775000I-254000J0D01*
G01*
X163484574Y-98044000D02*
G75*
G03*
X163484574Y-98044000I-924574J0D01*
G01*
D12*
%TO.C,D24*%
X165100774Y-128098623D02*
X165239866Y-127309792D01*
X166488715Y-126677040D02*
X164282746Y-126288068D01*
D11*
X165726127Y-128208890D02*
X164475421Y-127988357D01*
X165711628Y-129753844D02*
X165932161Y-128503138D01*
X164181173Y-128194391D02*
X163960640Y-129445097D01*
X164166674Y-129739345D02*
X165417380Y-129959878D01*
D12*
X166467877Y-126795217D02*
X164261908Y-126406245D01*
X166342851Y-127504278D02*
X164136881Y-127115306D01*
X167079119Y-123328694D02*
X166342851Y-127504278D01*
X166447039Y-126913394D02*
X164241070Y-126524422D01*
X166106405Y-122395405D02*
X165982906Y-123095800D01*
X164136881Y-127115306D02*
X164873149Y-122939722D01*
X164873149Y-122939722D02*
X167079119Y-123328694D01*
D11*
X165417380Y-129959878D02*
G75*
G03*
X165711628Y-129753844I44107J250141D01*
G01*
X165932161Y-128503138D02*
G75*
G03*
X165726127Y-128208890I-250141J44107D01*
G01*
X163960640Y-129445097D02*
G75*
G03*
X164166674Y-129739345I250141J-44107D01*
G01*
X164475421Y-127988357D02*
G75*
G03*
X164181173Y-128194391I-44107J-250141D01*
G01*
X167194173Y-121469882D02*
G75*
G03*
X167194173Y-121469882I-924573J0D01*
G01*
%TO.C,D25*%
X182118000Y-85725000D02*
X180848000Y-85725000D01*
D12*
X182603000Y-84084000D02*
X180363000Y-84084000D01*
X182603000Y-84204000D02*
X180363000Y-84204000D01*
X180363000Y-84924000D02*
X180363000Y-80684000D01*
X182603000Y-84324000D02*
X180363000Y-84324000D01*
X180363000Y-80684000D02*
X182603000Y-80684000D01*
X181483000Y-85725000D02*
X181483000Y-84924000D01*
D11*
X180594000Y-85979000D02*
X180594000Y-87249000D01*
D12*
X182603000Y-80684000D02*
X182603000Y-84924000D01*
D11*
X182372000Y-87249000D02*
X182372000Y-85979000D01*
D12*
X182603000Y-84924000D02*
X180363000Y-84924000D01*
X181483000Y-79933800D02*
X181483000Y-80645000D01*
D11*
X180848000Y-87503000D02*
X182118000Y-87503000D01*
X180848000Y-85725000D02*
G75*
G03*
X180594000Y-85979000I0J-254000D01*
G01*
X180594000Y-87249000D02*
G75*
G03*
X180848000Y-87503000I254000J0D01*
G01*
X182372000Y-85979000D02*
G75*
G03*
X182118000Y-85725000I-254000J0D01*
G01*
X182118000Y-87503000D02*
G75*
G03*
X182372000Y-87249000I0J254000D01*
G01*
X182407574Y-78994000D02*
G75*
G03*
X182407574Y-78994000I-924574J0D01*
G01*
D12*
%TO.C,D26*%
X180363000Y-103974000D02*
X180363000Y-99734000D01*
X182603000Y-103134000D02*
X180363000Y-103134000D01*
X182603000Y-99734000D02*
X182603000Y-103974000D01*
D11*
X182118000Y-104775000D02*
X180848000Y-104775000D01*
D12*
X182603000Y-103374000D02*
X180363000Y-103374000D01*
X180363000Y-99734000D02*
X182603000Y-99734000D01*
X181483000Y-104775000D02*
X181483000Y-103974000D01*
D11*
X180594000Y-105029000D02*
X180594000Y-106299000D01*
D12*
X182603000Y-103974000D02*
X180363000Y-103974000D01*
D11*
X182372000Y-106299000D02*
X182372000Y-105029000D01*
X180848000Y-106553000D02*
X182118000Y-106553000D01*
D12*
X182603000Y-103254000D02*
X180363000Y-103254000D01*
X181483000Y-98983800D02*
X181483000Y-99695000D01*
D11*
X180848000Y-104775000D02*
G75*
G03*
X180594000Y-105029000I0J-254000D01*
G01*
X182118000Y-106553000D02*
G75*
G03*
X182372000Y-106299000I0J254000D01*
G01*
X180594000Y-106299000D02*
G75*
G03*
X180848000Y-106553000I254000J0D01*
G01*
X182372000Y-105029000D02*
G75*
G03*
X182118000Y-104775000I-254000J0D01*
G01*
X182407574Y-98044000D02*
G75*
G03*
X182407574Y-98044000I-924574J0D01*
G01*
%TO.C,D27*%
X186287426Y-133149160D02*
X185187574Y-132514160D01*
D12*
X187288052Y-127906026D02*
X189227948Y-129026026D01*
X188633100Y-127816334D02*
X188277500Y-128432251D01*
X187467948Y-132074436D02*
X185528052Y-130954436D01*
X189227948Y-129026026D02*
X187107948Y-132697974D01*
X187527948Y-131970513D02*
X185588052Y-130850513D01*
X185168052Y-131577974D02*
X187288052Y-127906026D01*
D11*
X184298574Y-134053953D02*
X185398426Y-134688953D01*
X184840603Y-132607131D02*
X184205603Y-133706983D01*
D12*
X187407948Y-132178359D02*
X185468052Y-131058359D01*
D11*
X185745397Y-134595983D02*
X186380397Y-133496131D01*
D12*
X185737500Y-132831660D02*
X186138000Y-132137974D01*
X187107948Y-132697974D02*
X185168052Y-131577974D01*
D11*
X186380397Y-133496131D02*
G75*
G03*
X186287426Y-133149160I-219971J127000D01*
G01*
X185187574Y-132514160D02*
G75*
G03*
X184840603Y-132607131I-127000J-219971D01*
G01*
X185398426Y-134688954D02*
G75*
G03*
X185745397Y-134595983I127000J219971D01*
G01*
X184205604Y-133706983D02*
G75*
G03*
X184298574Y-134053953I219970J-127000D01*
G01*
X190027573Y-127002443D02*
G75*
G03*
X190027573Y-127002443I-924573J0D01*
G01*
%TD*%
D13*
%TO.C,U1*%
X187604400Y-37927763D03*
D14*
X188061600Y-40467763D03*
X187604400Y-43007763D03*
X188061600Y-45547763D03*
X187604400Y-48087763D03*
X188061600Y-50627763D03*
X187604400Y-53167763D03*
X188061600Y-55707763D03*
X187604400Y-58247763D03*
X188061600Y-60787763D03*
X187604400Y-63327763D03*
X188061600Y-65867763D03*
X202844400Y-65867763D03*
X203301600Y-63327763D03*
X202844400Y-60787763D03*
X203301600Y-58247763D03*
X202844400Y-55707763D03*
X203301600Y-53167763D03*
X202844400Y-50627763D03*
X203301600Y-48087763D03*
X202844400Y-45547763D03*
X203301600Y-43007763D03*
X202844400Y-40467763D03*
X203301600Y-37927763D03*
%TD*%
%LPC*%
D13*
%TO.C,U1*%
X187604400Y-37927763D03*
D14*
X188061600Y-40467763D03*
X187604400Y-43007763D03*
X188061600Y-45547763D03*
X187604400Y-48087763D03*
X188061600Y-50627763D03*
X187604400Y-53167763D03*
X188061600Y-55707763D03*
X187604400Y-58247763D03*
X188061600Y-60787763D03*
X187604400Y-63327763D03*
X188061600Y-65867763D03*
X202844400Y-65867763D03*
X203301600Y-63327763D03*
X202844400Y-60787763D03*
X203301600Y-58247763D03*
X202844400Y-55707763D03*
X203301600Y-53167763D03*
X202844400Y-50627763D03*
X203301600Y-48087763D03*
X202844400Y-45547763D03*
X203301600Y-43007763D03*
X202844400Y-40467763D03*
X203301600Y-37927763D03*
%TD*%
D15*
%TO.C,SW1*%
X96037400Y-47498000D03*
D16*
X90957400Y-47498000D03*
D15*
X85877400Y-47498000D03*
D17*
X87147400Y-44958000D03*
X93497400Y-42418000D03*
%TD*%
D15*
%TO.C,SW2*%
X96037400Y-66548000D03*
X85877400Y-66548000D03*
D16*
X90957400Y-66548000D03*
D17*
X87147400Y-64008000D03*
X93497400Y-61468000D03*
%TD*%
D15*
%TO.C,SW3*%
X85877400Y-85598000D03*
X96037400Y-85598000D03*
D16*
X90957400Y-85598000D03*
D17*
X87147400Y-83058000D03*
X93497400Y-80518000D03*
%TD*%
D15*
%TO.C,SW4*%
X85877400Y-104648000D03*
D16*
X90957400Y-104648000D03*
D15*
X96037400Y-104648000D03*
D17*
X87147400Y-102108000D03*
X93497400Y-99568000D03*
%TD*%
D15*
%TO.C,SW5*%
X96037400Y-123698000D03*
X85877400Y-123698000D03*
D16*
X90957400Y-123698000D03*
D17*
X87147400Y-121158000D03*
X93497400Y-118618000D03*
%TD*%
D16*
%TO.C,SW6*%
X114808000Y-45720000D03*
D15*
X119888000Y-45720000D03*
X109728000Y-45720000D03*
D17*
X110998000Y-43180000D03*
X117348000Y-40640000D03*
%TD*%
D15*
%TO.C,SW7*%
X119888000Y-64770000D03*
X109728000Y-64770000D03*
D16*
X114808000Y-64770000D03*
D17*
X110998000Y-62230000D03*
X117348000Y-59690000D03*
%TD*%
D16*
%TO.C,SW8*%
X114808000Y-83820000D03*
D15*
X119888000Y-83820000D03*
X109728000Y-83820000D03*
D17*
X110998000Y-81280000D03*
X117348000Y-78740000D03*
%TD*%
D15*
%TO.C,SW9*%
X119888000Y-102870000D03*
X109728000Y-102870000D03*
D16*
X114808000Y-102870000D03*
D17*
X110998000Y-100330000D03*
X117348000Y-97790000D03*
%TD*%
D15*
%TO.C,SW10*%
X138938000Y-43434000D03*
X128778000Y-43434000D03*
D16*
X133858000Y-43434000D03*
D17*
X130048000Y-40894000D03*
X136398000Y-38354000D03*
%TD*%
D16*
%TO.C,SW11*%
X133858000Y-62484000D03*
D15*
X128778000Y-62484000D03*
X138938000Y-62484000D03*
D17*
X130048000Y-59944000D03*
X136398000Y-57404000D03*
%TD*%
D16*
%TO.C,SW12*%
X133858000Y-81534000D03*
D15*
X138938000Y-81534000D03*
X128778000Y-81534000D03*
D17*
X130048000Y-78994000D03*
X136398000Y-76454000D03*
%TD*%
D16*
%TO.C,SW13*%
X133858000Y-100584000D03*
D15*
X128778000Y-100584000D03*
X138938000Y-100584000D03*
D17*
X130048000Y-98044000D03*
X136398000Y-95504000D03*
%TD*%
D15*
%TO.C,SW14*%
X136853639Y-127294538D03*
D16*
X132080000Y-129032000D03*
D15*
X127306361Y-130769462D03*
D17*
X127631040Y-127948277D03*
X132729357Y-123389630D03*
%TD*%
D16*
%TO.C,SW15*%
X152908000Y-45720000D03*
D15*
X147828000Y-45720000D03*
X157988000Y-45720000D03*
D17*
X149098000Y-43180000D03*
X155448000Y-40640000D03*
%TD*%
D16*
%TO.C,SW16*%
X152908000Y-64770000D03*
D15*
X157988000Y-64770000D03*
X147828000Y-64770000D03*
D17*
X149098000Y-62230000D03*
X155448000Y-59690000D03*
%TD*%
D15*
%TO.C,SW17*%
X147828000Y-83820000D03*
D16*
X152908000Y-83820000D03*
D15*
X157988000Y-83820000D03*
D17*
X149098000Y-81280000D03*
X155448000Y-78740000D03*
%TD*%
D16*
%TO.C,SW18*%
X152908000Y-102870000D03*
D15*
X157988000Y-102870000D03*
X147828000Y-102870000D03*
D17*
X149098000Y-100330000D03*
X155448000Y-97790000D03*
%TD*%
D15*
%TO.C,SW19*%
X159258000Y-125222000D03*
D16*
X154178000Y-125222000D03*
D15*
X149098000Y-125222000D03*
D17*
X150368000Y-122682000D03*
X156718000Y-120142000D03*
%TD*%
D15*
%TO.C,SW20*%
X166878000Y-45720000D03*
X177038000Y-45720000D03*
D16*
X171958000Y-45720000D03*
D17*
X168148000Y-43180000D03*
X174498000Y-40640000D03*
%TD*%
D16*
%TO.C,SW21*%
X171958000Y-64770000D03*
D15*
X166878000Y-64770000D03*
X177038000Y-64770000D03*
D17*
X168148000Y-62230000D03*
X174498000Y-59690000D03*
%TD*%
D15*
%TO.C,SW22*%
X166878000Y-83820000D03*
D16*
X171958000Y-83820000D03*
D15*
X177038000Y-83820000D03*
D17*
X168148000Y-81280000D03*
X174498000Y-78740000D03*
%TD*%
D15*
%TO.C,SW23*%
X166878000Y-102870000D03*
D16*
X171958000Y-102870000D03*
D15*
X177038000Y-102870000D03*
D17*
X168148000Y-100330000D03*
X174498000Y-97790000D03*
%TD*%
D15*
%TO.C,SW24*%
X180697102Y-128990963D03*
X170838898Y-126533037D03*
D16*
X175768000Y-127762000D03*
D17*
X172685655Y-124375726D03*
X179461514Y-123447379D03*
%TD*%
D16*
%TO.C,SW25*%
X191008000Y-83820000D03*
D15*
X196088000Y-83820000D03*
X185928000Y-83820000D03*
D17*
X187198000Y-81280000D03*
X193548000Y-78740000D03*
%TD*%
D15*
%TO.C,SW26*%
X196088000Y-102870000D03*
X185928000Y-102870000D03*
D16*
X191008000Y-102870000D03*
D17*
X187198000Y-100330000D03*
X193548000Y-97790000D03*
%TD*%
D16*
%TO.C,SW27*%
X196088000Y-136652000D03*
D15*
X191779916Y-133960010D03*
X200396084Y-139343990D03*
D17*
X194202932Y-132478965D03*
X200934032Y-133689911D03*
%TD*%
D18*
%TO.C,H2*%
X103949500Y-91186000D03*
%TD*%
%TO.C,H8*%
X204470000Y-69723000D03*
%TD*%
%TO.C,H5*%
X181483000Y-91186000D03*
%TD*%
%TO.C,H3*%
X109435900Y-129984500D03*
%TD*%
%TO.C,H6*%
X188722000Y-118364000D03*
%TD*%
%TO.C,H4*%
X181483000Y-53086000D03*
%TD*%
%TO.C,H7*%
X186436000Y-69723000D03*
%TD*%
%TO.C,H1*%
X103949500Y-53086000D03*
%TD*%
D19*
%TO.C,D1*%
X101346000Y-48514000D03*
D20*
X101346000Y-40894000D03*
%TD*%
D19*
%TO.C,D2*%
X101346000Y-67561000D03*
D20*
X101346000Y-59941000D03*
%TD*%
D19*
%TO.C,D3*%
X101346000Y-86614000D03*
D20*
X101346000Y-78994000D03*
%TD*%
D19*
%TO.C,D4*%
X101346000Y-105664000D03*
D20*
X101346000Y-98044000D03*
%TD*%
D19*
%TO.C,D5*%
X102870000Y-126492000D03*
D20*
X102870000Y-118872000D03*
%TD*%
D19*
%TO.C,D6*%
X104394000Y-48514000D03*
D20*
X104394000Y-40894000D03*
%TD*%
D19*
%TO.C,D7*%
X104394000Y-67564000D03*
D20*
X104394000Y-59944000D03*
%TD*%
D19*
%TO.C,D8*%
X104394000Y-86614000D03*
D20*
X104394000Y-78994000D03*
%TD*%
D19*
%TO.C,D9*%
X104394000Y-105664000D03*
D20*
X104394000Y-98044000D03*
%TD*%
D19*
%TO.C,D10*%
X124300000Y-48514000D03*
D20*
X124300000Y-40894000D03*
%TD*%
D19*
%TO.C,D11*%
X124300000Y-67564000D03*
D20*
X124300000Y-59944000D03*
%TD*%
D19*
%TO.C,D12*%
X124300000Y-86614000D03*
D20*
X124300000Y-78994000D03*
%TD*%
D19*
%TO.C,D13*%
X124300000Y-105664000D03*
D20*
X124300000Y-98044000D03*
%TD*%
D21*
%TO.C,D14*%
X121498176Y-137565033D03*
D22*
X118277824Y-130658967D03*
%TD*%
D19*
%TO.C,D15*%
X143383000Y-48514000D03*
D20*
X143383000Y-40894000D03*
%TD*%
D19*
%TO.C,D16*%
X143383000Y-67564000D03*
D20*
X143383000Y-59944000D03*
%TD*%
D19*
%TO.C,D17*%
X143383000Y-86614000D03*
D20*
X143383000Y-78994000D03*
%TD*%
D19*
%TO.C,D18*%
X143383000Y-105664000D03*
D20*
X143383000Y-98044000D03*
%TD*%
D23*
%TO.C,D19*%
X142923505Y-128902177D03*
D24*
X140951303Y-121541823D03*
%TD*%
D19*
%TO.C,D20*%
X162560000Y-48514000D03*
D20*
X162560000Y-40894000D03*
%TD*%
D19*
%TO.C,D21*%
X162560000Y-67564000D03*
D20*
X162560000Y-59944000D03*
%TD*%
D19*
%TO.C,D22*%
X162560000Y-86614000D03*
D20*
X162560000Y-78994000D03*
%TD*%
D19*
%TO.C,D23*%
X162560000Y-105664000D03*
D20*
X162560000Y-98044000D03*
%TD*%
D25*
%TO.C,D24*%
X164946400Y-128974118D03*
D26*
X166269600Y-121469882D03*
%TD*%
D19*
%TO.C,D25*%
X181483000Y-86614000D03*
D20*
X181483000Y-78994000D03*
%TD*%
D19*
%TO.C,D26*%
X181483000Y-105664000D03*
D20*
X181483000Y-98044000D03*
%TD*%
D27*
%TO.C,D27*%
X185293000Y-133601557D03*
D28*
X189103000Y-127002443D03*
%TD*%
D29*
%TO.C,RST1*%
X206756000Y-43001000D03*
X206756000Y-36501000D03*
%TD*%
M02*
