%TF.GenerationSoftware,KiCad,Pcbnew,5.99.0-unknown-5f3c67bd2b~134~ubuntu20.04.1*%
%TF.CreationDate,2021-10-03T19:27:56+02:00*%
%TF.ProjectId,knuckle-pad,6b6e7563-6b6c-4652-9d70-61642e6b6963,rev?*%
%TF.SameCoordinates,Original*%
%TF.FileFunction,Profile,NP*%
%FSLAX46Y46*%
G04 Gerber Fmt 4.6, Leading zero omitted, Abs format (unit mm)*
G04 Created by KiCad (PCBNEW 5.99.0-unknown-5f3c67bd2b~134~ubuntu20.04.1) date 2021-10-03 19:27:56*
%MOMM*%
%LPD*%
G01*
G04 APERTURE LIST*
%TA.AperFunction,Profile*%
%ADD10C,0.050000*%
%TD*%
%TA.AperFunction,Profile*%
%ADD11C,0.010007*%
%TD*%
G04 APERTURE END LIST*
D10*
X108661200Y-141431974D02*
X126390400Y-141427200D01*
X82575400Y-133883400D02*
X106121200Y-133883400D01*
X81280000Y-132613400D02*
X81280000Y-38557200D01*
X209296000Y-75485562D02*
X209296000Y-133705600D01*
X81280000Y-38557200D02*
G75*
G02*
X82550000Y-37287200I1270000J0D01*
G01*
X126390400Y-141427200D02*
X144399000Y-134874000D01*
X182753000Y-139700000D02*
X196981221Y-148634894D01*
X124200000Y-33782000D02*
X82550000Y-37287200D01*
X181640000Y-72794393D02*
X181640000Y-35126126D01*
X196981221Y-148634894D02*
G75*
G03*
X200406000Y-147955000I1392780J1949893D01*
G01*
X164211000Y-134874000D02*
X182753000Y-139700000D01*
X124200000Y-33782000D02*
X180366193Y-33782000D01*
X180366193Y-33781999D02*
G75*
G02*
X181640000Y-35126126I-36135J-1309891D01*
G01*
X182914996Y-74140000D02*
G75*
G02*
X181640000Y-72794393I36395J1311334D01*
G01*
X208024137Y-74140000D02*
X182914996Y-74140000D01*
X106121200Y-133883400D02*
G75*
G02*
X107391200Y-135153400I0J-1270000D01*
G01*
X200406000Y-147955000D02*
X209296000Y-133705600D01*
X107391200Y-135153400D02*
X107391200Y-140161974D01*
X208024138Y-74139999D02*
G75*
G02*
X209296000Y-75485562I-36373J-1308261D01*
G01*
X144399000Y-134874000D02*
X164211000Y-134874000D01*
X108661200Y-141431974D02*
G75*
G02*
X107391200Y-140161974I0J1270000D01*
G01*
X82575400Y-133883400D02*
G75*
G02*
X81280000Y-132613400I0J1295654D01*
G01*
D11*
%TO.C,SW1*%
X97957400Y-40998000D02*
X97957400Y-53998000D01*
X84457400Y-40498000D02*
X97457400Y-40498000D01*
X84457400Y-54488924D02*
X97457400Y-54498000D01*
X83957400Y-40998000D02*
X83957400Y-53988924D01*
X97457400Y-40498000D02*
G75*
G02*
X97957400Y-40998000I0J-500000D01*
G01*
X83957400Y-40998000D02*
G75*
G02*
X84457400Y-40498000I500000J0D01*
G01*
X97957400Y-53998000D02*
G75*
G02*
X97457400Y-54498000I-500000J0D01*
G01*
X84457400Y-54488924D02*
G75*
G02*
X83957400Y-53988924I0J500000D01*
G01*
%TO.C,SW2*%
X84457400Y-59548000D02*
X97457400Y-59548000D01*
X84457400Y-73538924D02*
X97457400Y-73548000D01*
X97957400Y-60048000D02*
X97957400Y-73048000D01*
X83957400Y-60048000D02*
X83957400Y-73038924D01*
X97957400Y-73048000D02*
G75*
G02*
X97457400Y-73548000I-500000J0D01*
G01*
X83957400Y-60048000D02*
G75*
G02*
X84457400Y-59548000I500000J0D01*
G01*
X97457400Y-59548000D02*
G75*
G02*
X97957400Y-60048000I0J-500000D01*
G01*
X84457400Y-73538924D02*
G75*
G02*
X83957400Y-73038924I0J500000D01*
G01*
%TO.C,SW3*%
X97957400Y-79098000D02*
X97957400Y-92098000D01*
X83957400Y-79098000D02*
X83957400Y-92088924D01*
X84457400Y-92588924D02*
X97457400Y-92598000D01*
X84457400Y-78598000D02*
X97457400Y-78598000D01*
X83957400Y-79098000D02*
G75*
G02*
X84457400Y-78598000I500000J0D01*
G01*
X97957400Y-92098000D02*
G75*
G02*
X97457400Y-92598000I-500000J0D01*
G01*
X97457400Y-78598000D02*
G75*
G02*
X97957400Y-79098000I0J-500000D01*
G01*
X84457400Y-92588924D02*
G75*
G02*
X83957400Y-92088924I0J500000D01*
G01*
%TO.C,SW4*%
X84457400Y-97648000D02*
X97457400Y-97648000D01*
X83957400Y-98148000D02*
X83957400Y-111138924D01*
X97957400Y-98148000D02*
X97957400Y-111148000D01*
X84457400Y-111638924D02*
X97457400Y-111648000D01*
X84457400Y-111638924D02*
G75*
G02*
X83957400Y-111138924I0J500000D01*
G01*
X83957400Y-98148000D02*
G75*
G02*
X84457400Y-97648000I500000J0D01*
G01*
X97457400Y-97648000D02*
G75*
G02*
X97957400Y-98148000I0J-500000D01*
G01*
X97957400Y-111148000D02*
G75*
G02*
X97457400Y-111648000I-500000J0D01*
G01*
%TO.C,SW5*%
X83957400Y-117198000D02*
X83957400Y-130188924D01*
X84457400Y-130688924D02*
X97457400Y-130698000D01*
X97957400Y-117198000D02*
X97957400Y-130198000D01*
X84457400Y-116698000D02*
X97457400Y-116698000D01*
X97457400Y-116698000D02*
G75*
G02*
X97957400Y-117198000I0J-500000D01*
G01*
X97957400Y-130198000D02*
G75*
G02*
X97457400Y-130698000I-500000J0D01*
G01*
X84457400Y-130688924D02*
G75*
G02*
X83957400Y-130188924I0J500000D01*
G01*
X83957400Y-117198000D02*
G75*
G02*
X84457400Y-116698000I500000J0D01*
G01*
%TO.C,SW6*%
X121808000Y-39220000D02*
X121808000Y-52220000D01*
X108308000Y-38720000D02*
X121308000Y-38720000D01*
X107808000Y-39220000D02*
X107808000Y-52210924D01*
X108308000Y-52710924D02*
X121308000Y-52720000D01*
X107808000Y-39220000D02*
G75*
G02*
X108308000Y-38720000I500000J0D01*
G01*
X121308000Y-38720000D02*
G75*
G02*
X121808000Y-39220000I0J-500000D01*
G01*
X121808000Y-52220000D02*
G75*
G02*
X121308000Y-52720000I-500000J0D01*
G01*
X108308000Y-52710924D02*
G75*
G02*
X107808000Y-52210924I0J500000D01*
G01*
%TO.C,SW7*%
X121808000Y-58270000D02*
X121808000Y-71270000D01*
X108308000Y-71760924D02*
X121308000Y-71770000D01*
X107808000Y-58270000D02*
X107808000Y-71260924D01*
X108308000Y-57770000D02*
X121308000Y-57770000D01*
X107808000Y-58270000D02*
G75*
G02*
X108308000Y-57770000I500000J0D01*
G01*
X121308000Y-57770000D02*
G75*
G02*
X121808000Y-58270000I0J-500000D01*
G01*
X121808000Y-71270000D02*
G75*
G02*
X121308000Y-71770000I-500000J0D01*
G01*
X108308000Y-71760924D02*
G75*
G02*
X107808000Y-71260924I0J500000D01*
G01*
%TO.C,SW8*%
X108308000Y-90810924D02*
X121308000Y-90820000D01*
X121808000Y-77320000D02*
X121808000Y-90320000D01*
X108308000Y-76820000D02*
X121308000Y-76820000D01*
X107808000Y-77320000D02*
X107808000Y-90310924D01*
X107808000Y-77320000D02*
G75*
G02*
X108308000Y-76820000I500000J0D01*
G01*
X108308000Y-90810924D02*
G75*
G02*
X107808000Y-90310924I0J500000D01*
G01*
X121808000Y-90320000D02*
G75*
G02*
X121308000Y-90820000I-500000J0D01*
G01*
X121308000Y-76820000D02*
G75*
G02*
X121808000Y-77320000I0J-500000D01*
G01*
%TO.C,SW9*%
X107808000Y-96370000D02*
X107808000Y-109360924D01*
X121808000Y-96370000D02*
X121808000Y-109370000D01*
X108308000Y-109860924D02*
X121308000Y-109870000D01*
X108308000Y-95870000D02*
X121308000Y-95870000D01*
X107808000Y-96370000D02*
G75*
G02*
X108308000Y-95870000I500000J0D01*
G01*
X121808000Y-109370000D02*
G75*
G02*
X121308000Y-109870000I-500000J0D01*
G01*
X121308000Y-95870000D02*
G75*
G02*
X121808000Y-96370000I0J-500000D01*
G01*
X108308000Y-109860924D02*
G75*
G02*
X107808000Y-109360924I0J500000D01*
G01*
%TO.C,SW10*%
X127358000Y-50424924D02*
X140358000Y-50434000D01*
X126858000Y-36934000D02*
X126858000Y-49924924D01*
X140858000Y-36934000D02*
X140858000Y-49934000D01*
X127358000Y-36434000D02*
X140358000Y-36434000D01*
X126858000Y-36934000D02*
G75*
G02*
X127358000Y-36434000I500000J0D01*
G01*
X127358000Y-50424924D02*
G75*
G02*
X126858000Y-49924924I0J500000D01*
G01*
X140858000Y-49934000D02*
G75*
G02*
X140358000Y-50434000I-500000J0D01*
G01*
X140358000Y-36434000D02*
G75*
G02*
X140858000Y-36934000I0J-500000D01*
G01*
%TO.C,SW11*%
X126858000Y-55984000D02*
X126858000Y-68974924D01*
X127358000Y-55484000D02*
X140358000Y-55484000D01*
X127358000Y-69474924D02*
X140358000Y-69484000D01*
X140858000Y-55984000D02*
X140858000Y-68984000D01*
X127358000Y-69474924D02*
G75*
G02*
X126858000Y-68974924I0J500000D01*
G01*
X140858000Y-68984000D02*
G75*
G02*
X140358000Y-69484000I-500000J0D01*
G01*
X140358000Y-55484000D02*
G75*
G02*
X140858000Y-55984000I0J-500000D01*
G01*
X126858000Y-55984000D02*
G75*
G02*
X127358000Y-55484000I500000J0D01*
G01*
%TO.C,SW12*%
X126858000Y-75034000D02*
X126858000Y-88024924D01*
X127358000Y-88524924D02*
X140358000Y-88534000D01*
X127358000Y-74534000D02*
X140358000Y-74534000D01*
X140858000Y-75034000D02*
X140858000Y-88034000D01*
X126858000Y-75034000D02*
G75*
G02*
X127358000Y-74534000I500000J0D01*
G01*
X140358000Y-74534000D02*
G75*
G02*
X140858000Y-75034000I0J-500000D01*
G01*
X127358000Y-88524924D02*
G75*
G02*
X126858000Y-88024924I0J500000D01*
G01*
X140858000Y-88034000D02*
G75*
G02*
X140358000Y-88534000I-500000J0D01*
G01*
%TO.C,SW13*%
X127358000Y-107574924D02*
X140358000Y-107584000D01*
X140858000Y-94084000D02*
X140858000Y-107084000D01*
X127358000Y-93584000D02*
X140358000Y-93584000D01*
X126858000Y-94084000D02*
X126858000Y-107074924D01*
X140358000Y-93584000D02*
G75*
G02*
X140858000Y-94084000I0J-500000D01*
G01*
X140858000Y-107084000D02*
G75*
G02*
X140358000Y-107584000I-500000J0D01*
G01*
X126858000Y-94084000D02*
G75*
G02*
X127358000Y-93584000I500000J0D01*
G01*
X127358000Y-107574924D02*
G75*
G02*
X126858000Y-107074924I0J500000D01*
G01*
%TO.C,SW14*%
X123577857Y-124677283D02*
X135793861Y-120231021D01*
X136434717Y-120529857D02*
X140880979Y-132745861D01*
X128363035Y-137824451D02*
X140582143Y-133386717D01*
X123279021Y-125318139D02*
X127722178Y-137525614D01*
X140880979Y-132745861D02*
G75*
G02*
X140582143Y-133386717I-469846J-171010D01*
G01*
X128363035Y-137824451D02*
G75*
G02*
X127722178Y-137525614I-171010J469847D01*
G01*
X135793861Y-120231021D02*
G75*
G02*
X136434717Y-120529857I171010J-469846D01*
G01*
X123279021Y-125318139D02*
G75*
G02*
X123577857Y-124677283I469846J171010D01*
G01*
%TO.C,SW15*%
X146408000Y-52710924D02*
X159408000Y-52720000D01*
X159908000Y-39220000D02*
X159908000Y-52220000D01*
X146408000Y-38720000D02*
X159408000Y-38720000D01*
X145908000Y-39220000D02*
X145908000Y-52210924D01*
X159408000Y-38720000D02*
G75*
G02*
X159908000Y-39220000I0J-500000D01*
G01*
X145908000Y-39220000D02*
G75*
G02*
X146408000Y-38720000I500000J0D01*
G01*
X146408000Y-52710924D02*
G75*
G02*
X145908000Y-52210924I0J500000D01*
G01*
X159908000Y-52220000D02*
G75*
G02*
X159408000Y-52720000I-500000J0D01*
G01*
%TO.C,SW16*%
X146408000Y-57770000D02*
X159408000Y-57770000D01*
X145908000Y-58270000D02*
X145908000Y-71260924D01*
X146408000Y-71760924D02*
X159408000Y-71770000D01*
X159908000Y-58270000D02*
X159908000Y-71270000D01*
X145908000Y-58270000D02*
G75*
G02*
X146408000Y-57770000I500000J0D01*
G01*
X159908000Y-71270000D02*
G75*
G02*
X159408000Y-71770000I-500000J0D01*
G01*
X146408000Y-71760924D02*
G75*
G02*
X145908000Y-71260924I0J500000D01*
G01*
X159408000Y-57770000D02*
G75*
G02*
X159908000Y-58270000I0J-500000D01*
G01*
%TO.C,SW17*%
X146408000Y-76820000D02*
X159408000Y-76820000D01*
X145908000Y-77320000D02*
X145908000Y-90310924D01*
X146408000Y-90810924D02*
X159408000Y-90820000D01*
X159908000Y-77320000D02*
X159908000Y-90320000D01*
X159908000Y-90320000D02*
G75*
G02*
X159408000Y-90820000I-500000J0D01*
G01*
X159408000Y-76820000D02*
G75*
G02*
X159908000Y-77320000I0J-500000D01*
G01*
X146408000Y-90810924D02*
G75*
G02*
X145908000Y-90310924I0J500000D01*
G01*
X145908000Y-77320000D02*
G75*
G02*
X146408000Y-76820000I500000J0D01*
G01*
%TO.C,SW18*%
X159908000Y-96370000D02*
X159908000Y-109370000D01*
X146408000Y-109860924D02*
X159408000Y-109870000D01*
X146408000Y-95870000D02*
X159408000Y-95870000D01*
X145908000Y-96370000D02*
X145908000Y-109360924D01*
X145908000Y-96370000D02*
G75*
G02*
X146408000Y-95870000I500000J0D01*
G01*
X159908000Y-109370000D02*
G75*
G02*
X159408000Y-109870000I-500000J0D01*
G01*
X159408000Y-95870000D02*
G75*
G02*
X159908000Y-96370000I0J-500000D01*
G01*
X146408000Y-109860924D02*
G75*
G02*
X145908000Y-109360924I0J500000D01*
G01*
%TO.C,SW19*%
X161178000Y-118722000D02*
X161178000Y-131722000D01*
X147178000Y-118722000D02*
X147178000Y-131712924D01*
X147678000Y-118222000D02*
X160678000Y-118222000D01*
X147678000Y-132212924D02*
X160678000Y-132222000D01*
X147178000Y-118722000D02*
G75*
G02*
X147678000Y-118222000I500000J0D01*
G01*
X161178000Y-131722000D02*
G75*
G02*
X160678000Y-132222000I-500000J0D01*
G01*
X160678000Y-118222000D02*
G75*
G02*
X161178000Y-118722000I0J-500000D01*
G01*
X147678000Y-132212924D02*
G75*
G02*
X147178000Y-131712924I0J500000D01*
G01*
%TO.C,SW20*%
X164958000Y-39220000D02*
X164958000Y-52210924D01*
X165458000Y-38720000D02*
X178458000Y-38720000D01*
X165458000Y-52710924D02*
X178458000Y-52720000D01*
X178958000Y-39220000D02*
X178958000Y-52220000D01*
X178958000Y-52220000D02*
G75*
G02*
X178458000Y-52720000I-500000J0D01*
G01*
X164958000Y-39220000D02*
G75*
G02*
X165458000Y-38720000I500000J0D01*
G01*
X178458000Y-38720000D02*
G75*
G02*
X178958000Y-39220000I0J-500000D01*
G01*
X165458000Y-52710924D02*
G75*
G02*
X164958000Y-52210924I0J500000D01*
G01*
%TO.C,SW21*%
X164958000Y-58270000D02*
X164958000Y-71260924D01*
X178958000Y-58270000D02*
X178958000Y-71270000D01*
X165458000Y-71760924D02*
X178458000Y-71770000D01*
X165458000Y-57770000D02*
X178458000Y-57770000D01*
X164958000Y-58270000D02*
G75*
G02*
X165458000Y-57770000I500000J0D01*
G01*
X178458000Y-57770000D02*
G75*
G02*
X178958000Y-58270000I0J-500000D01*
G01*
X165458000Y-71760924D02*
G75*
G02*
X164958000Y-71260924I0J500000D01*
G01*
X178958000Y-71270000D02*
G75*
G02*
X178458000Y-71770000I-500000J0D01*
G01*
%TO.C,SW22*%
X178958000Y-77320000D02*
X178958000Y-90320000D01*
X164958000Y-77320000D02*
X164958000Y-90310924D01*
X165458000Y-76820000D02*
X178458000Y-76820000D01*
X165458000Y-90810924D02*
X178458000Y-90820000D01*
X178458000Y-76820000D02*
G75*
G02*
X178958000Y-77320000I0J-500000D01*
G01*
X165458000Y-90810924D02*
G75*
G02*
X164958000Y-90310924I0J500000D01*
G01*
X178958000Y-90320000D02*
G75*
G02*
X178458000Y-90820000I-500000J0D01*
G01*
X164958000Y-77320000D02*
G75*
G02*
X165458000Y-76820000I500000J0D01*
G01*
%TO.C,SW23*%
X165458000Y-109860924D02*
X178458000Y-109870000D01*
X178958000Y-96370000D02*
X178958000Y-109370000D01*
X165458000Y-95870000D02*
X178458000Y-95870000D01*
X164958000Y-96370000D02*
X164958000Y-109360924D01*
X178458000Y-95870000D02*
G75*
G02*
X178958000Y-96370000I0J-500000D01*
G01*
X178958000Y-109370000D02*
G75*
G02*
X178458000Y-109870000I-500000J0D01*
G01*
X165458000Y-109860924D02*
G75*
G02*
X164958000Y-109360924I0J500000D01*
G01*
X164958000Y-96370000D02*
G75*
G02*
X165458000Y-95870000I500000J0D01*
G01*
%TO.C,SW24*%
X167769820Y-132972771D02*
X180381469Y-136126562D01*
X171154531Y-119397438D02*
X183768375Y-122542422D01*
X184132562Y-123148531D02*
X180987578Y-135762375D01*
X170548422Y-119761625D02*
X167405633Y-132366663D01*
X170548423Y-119761624D02*
G75*
G02*
X171154531Y-119397438I485147J-120961D01*
G01*
X167769821Y-132972771D02*
G75*
G02*
X167405633Y-132366663I120960J485148D01*
G01*
X180987577Y-135762376D02*
G75*
G02*
X180381469Y-136126562I-485147J120961D01*
G01*
X183768376Y-122542423D02*
G75*
G02*
X184132562Y-123148531I-120961J-485147D01*
G01*
%TO.C,SW25*%
X198008000Y-77320000D02*
X198008000Y-90320000D01*
X184008000Y-77320000D02*
X184008000Y-90310924D01*
X184508000Y-90810924D02*
X197508000Y-90820000D01*
X184508000Y-76820000D02*
X197508000Y-76820000D01*
X184508000Y-90810924D02*
G75*
G02*
X184008000Y-90310924I0J500000D01*
G01*
X197508000Y-76820000D02*
G75*
G02*
X198008000Y-77320000I0J-500000D01*
G01*
X198008000Y-90320000D02*
G75*
G02*
X197508000Y-90820000I-500000J0D01*
G01*
X184008000Y-77320000D02*
G75*
G02*
X184508000Y-76820000I500000J0D01*
G01*
%TO.C,SW26*%
X184508000Y-109860924D02*
X197508000Y-109870000D01*
X184508000Y-95870000D02*
X197508000Y-95870000D01*
X198008000Y-96370000D02*
X198008000Y-109370000D01*
X184008000Y-96370000D02*
X184008000Y-109360924D01*
X184508000Y-109860924D02*
G75*
G02*
X184008000Y-109360924I0J500000D01*
G01*
X197508000Y-95870000D02*
G75*
G02*
X198008000Y-96370000I0J-500000D01*
G01*
X184008000Y-96370000D02*
G75*
G02*
X184508000Y-95870000I500000J0D01*
G01*
X198008000Y-109370000D02*
G75*
G02*
X197508000Y-109870000I-500000J0D01*
G01*
%TO.C,SW27*%
X193596139Y-127430253D02*
X186711998Y-138447181D01*
X186871062Y-139136165D02*
X197890878Y-146032812D01*
X194285122Y-127271188D02*
X205309747Y-134160139D01*
X205468812Y-134849122D02*
X198579861Y-145873747D01*
X205309747Y-134160139D02*
G75*
G02*
X205468812Y-134849122I-264959J-424024D01*
G01*
X198579861Y-145873747D02*
G75*
G02*
X197890878Y-146032812I-424024J264959D01*
G01*
X193596139Y-127430253D02*
G75*
G02*
X194285122Y-127271188I424024J-264959D01*
G01*
X186871062Y-139136165D02*
G75*
G02*
X186711998Y-138447181I264960J424024D01*
G01*
%TD*%
M02*
