<?xml version="1.0" standalone="no"?>
 <!DOCTYPE svg PUBLIC "-//W3C//DTD SVG 1.1//EN" 
 "http://www.w3.org/Graphics/SVG/1.1/DTD/svg11.dtd"> 
<svg
  xmlns:svg="http://www.w3.org/2000/svg"
  xmlns="http://www.w3.org/2000/svg"
  xmlns:xlink="http://www.w3.org/1999/xlink"
  version="1.1"
  width="3.116580cm" height="4.378960cm" viewBox="0 0 31165800 43789600">
<title>SVG Picture created as knuckle-pad-brd.svg date 2021/11/04 20:54:18 </title>
  <desc>Picture generated by PCBNEW </desc>
<g style="fill:#000000; fill-opacity:1.000000;stroke:#000000; stroke-opacity:1.000000;
stroke-linecap:round; stroke-linejoin:round;"
 transform="translate(0 0) scale(1 1)">
</g>
<g style="fill:#000000; fill-opacity:0.0; 
stroke:#000000; stroke-width:0.000000; stroke-opacity:1; 
stroke-linecap:round; stroke-linejoin:round;">
</g>
<g style="fill:#000000; fill-opacity:0.0; 
stroke:#000000; stroke-width:50000.000000; stroke-opacity:1; 
stroke-linecap:round; stroke-linejoin:round;">
<circle cx="24180800.000000" cy="37804771.000000" r="1100000.000000" /> 
<path d="M27408839.020112 42001770.192559 A1311957.000000 1311957.000000 0.0 0 0 28752798.621776 40732029.987940" />
<path d="M2921002 1863769
L27482802 1863769
" />
<path d="M2921002.000000 1863769.000000 A1346202.000000 1346202.000000 0.0 0 0 1574799.000000 3209970.000000" />
<path d="M28752800.204941 3209971.005969 A1308655.000000 1308655.000000 0.0 0 0 27482802.005969 1863768.795059" />
<path d="M1574800 3209971
L1574800 40659862
" />
<path d="M27408839 42001771
L2849796 42001771
" />
<path d="M1574800.510861 40659862.013351 A1308140.000000 1308140.000000 0.0 0 0 2840808.011615 42001513.635709" />
<circle cx="6146800.000000" cy="37804771.000000" r="1100000.000000" /> 
<path d="M28752800 3209971
L28752800 40732030
" />
<g >
</g>
<g >
</g>
<g >
</g>
<g style="fill:#000000; fill-opacity:0.0; 
stroke:#000000; stroke-width:50000.000000; stroke-opacity:1; 
stroke-linecap:round; stroke-linejoin:round;">
<g >
</g>
<g style="fill:#000000; fill-opacity:1.0; 
stroke:#000000; stroke-width:1.000000; stroke-opacity:1; 
stroke-linecap:round; stroke-linejoin:round;">
<path style="fill:#000000; fill-opacity:1.0; 
stroke:#000000; stroke-width:1.000000; stroke-opacity:1; 
stroke-linecap:round; stroke-linejoin:round;fill-rule:evenodd;"
d="M 27490089.000000,1864621.000000
27698422.000000,1888978.000000
27719932.000000,1893421.000000
27917343.000000,1952529.000000
27937754.000000,1960638.000000
28121897.000000,2053125.000000
28140590.000000,2064656.000000
28305873.000000,2187713.000000
28322279.000000,2202314.000000
28463692.000000,2352211.000000
28477315.000000,2369440.000000
28590541.000000,2541603.000000
28600964.000000,2560935.000000
28682578.000000,2750153.000000
28689486.000000,2771003.000000
28737002.000000,2971519.000000
28740184.000000,2993250.000000
28752587.000000,3206313.000000
28752800.000000,3213635.000000
28752800.000000,40724536.000000
28751913.000000,40739464.000000
28727125.000000,40947209.000000
28722660.000000,40968614.000000
28663338.000000,41165600.000000
28655240.000000,41185911.000000
28562753.000000,41369678.000000
28551265.000000,41388283.000000
28428399.000000,41553296.000000
28413867.000000,41569636.000000
28264324.000000,41710919.000000
28247187.000000,41724499.000000
28075477.000000,41837798.000000
28056250.000000,41848212.000000
27867521.000000,41930126.000000
27846783.000000,41937058.000000
27646751.000000,41985106.000000
27625127.000000,41988349.000000
27412739.000000,42001529.000000
27404935.000000,42001771.000000
2857073.000000,42001771.000000
2842566.000000,42000933.000000
2626343.000000,41975872.000000
2604493.000000,41971351.000000
2408206.000000,41912196.000000
2387881.000000,41904085.000000
2204592.000000,41811761.000000
2185976.000000,41800257.000000
2021430.000000,41677616.000000
2005087.000000,41663064.000000
1864238.000000,41513799.000000
1850658.000000,41496640.000000
1737759.000000,41325258.000000
1727353.000000,41306007.000000
1645809.000000,41117675.000000
1638891.000000,41096914.000000
1591163.000000,40897317.000000
1587941.000000,40875672.000000
1575033.000000,40663688.000000
1574800.000000,40656030.000000
1574800.000000,37903336.000000
5051781.000000,37903336.000000
5052916.000000,37915222.000000
5090223.000000,38108786.000000
5093589.000000,38120249.000000
5166849.000000,38303245.000000
5172326.000000,38313869.000000
5278901.000000,38479702.000000
5286278.000000,38489084.000000
5422313.000000,38631754.000000
5431341.000000,38639577.000000
5591911.000000,38753918.000000
5602260.000000,38759892.000000
5781564.000000,38841778.000000
5792862.000000,38845688.000000
5984415.000000,38892158.000000
5996256.000000,38893861.000000
6193149.000000,38903240.000000
6205073.000000,38902672.000000
6400196.000000,38874618.000000
6411807.000000,38871801.000000
6598084.000000,38807330.000000
6608957.000000,38802364.000000
6779662.000000,38703808.000000
6789401.000000,38696872.000000
6938374.000000,38567786.000000
6946614.000000,38559144.000000
7068467.000000,38404196.000000
7074931.000000,38394137.000000
7165252.000000,38218940.000000
7169698.000000,38207835.000000
7225231.000000,38018705.000000
7227493.000000,38006972.000000
7237389.000000,37903336.000000
23085781.000000,37903336.000000
23086916.000000,37915222.000000
23124223.000000,38108786.000000
23127589.000000,38120249.000000
23200849.000000,38303245.000000
23206326.000000,38313869.000000
23312901.000000,38479702.000000
23320278.000000,38489084.000000
23456313.000000,38631754.000000
23465341.000000,38639577.000000
23625911.000000,38753918.000000
23636260.000000,38759892.000000
23815564.000000,38841778.000000
23826862.000000,38845688.000000
24018415.000000,38892158.000000
24030256.000000,38893861.000000
24227149.000000,38903240.000000
24239073.000000,38902672.000000
24434196.000000,38874618.000000
24445807.000000,38871801.000000
24632084.000000,38807330.000000
24642957.000000,38802364.000000
24813662.000000,38703808.000000
24823401.000000,38696872.000000
24972374.000000,38567786.000000
24980614.000000,38559144.000000
25102467.000000,38404196.000000
25108931.000000,38394137.000000
25199252.000000,38218940.000000
25203698.000000,38207835.000000
25259231.000000,38018705.000000
25261493.000000,38006972.000000
25280229.000000,37810751.000000
25280229.000000,37798791.000000
25261493.000000,37602570.000000
25259231.000000,37590837.000000
25203698.000000,37401707.000000
25199252.000000,37390602.000000
25108931.000000,37215405.000000
25102467.000000,37205346.000000
24980614.000000,37050398.000000
24972374.000000,37041756.000000
24823401.000000,36912670.000000
24813662.000000,36905734.000000
24642957.000000,36807178.000000
24632084.000000,36802212.000000
24445807.000000,36737741.000000
24434196.000000,36734924.000000
24239073.000000,36706870.000000
24227149.000000,36706302.000000
24030256.000000,36715681.000000
24018415.000000,36717384.000000
23826862.000000,36763854.000000
23815564.000000,36767764.000000
23636260.000000,36849650.000000
23625911.000000,36855624.000000
23465341.000000,36969965.000000
23456313.000000,36977788.000000
23320278.000000,37120458.000000
23312901.000000,37129840.000000
23206326.000000,37295673.000000
23200849.000000,37306297.000000
23127589.000000,37489293.000000
23124223.000000,37500756.000000
23086916.000000,37694320.000000
23085781.000000,37706206.000000
23085781.000000,37903336.000000
7237389.000000,37903336.000000
7246229.000000,37810751.000000
7246229.000000,37798791.000000
7227493.000000,37602570.000000
7225231.000000,37590837.000000
7169698.000000,37401707.000000
7165252.000000,37390602.000000
7074931.000000,37215405.000000
7068467.000000,37205346.000000
6946614.000000,37050398.000000
6938374.000000,37041756.000000
6789401.000000,36912670.000000
6779662.000000,36905734.000000
6608957.000000,36807178.000000
6598084.000000,36802212.000000
6411807.000000,36737741.000000
6400196.000000,36734924.000000
6205073.000000,36706870.000000
6193149.000000,36706302.000000
5996256.000000,36715681.000000
5984415.000000,36717384.000000
5792862.000000,36763854.000000
5781564.000000,36767764.000000
5602260.000000,36849650.000000
5591911.000000,36855624.000000
5431341.000000,36969965.000000
5422313.000000,36977788.000000
5286278.000000,37120458.000000
5278901.000000,37129840.000000
5172326.000000,37295673.000000
5166849.000000,37306297.000000
5093589.000000,37489293.000000
5090223.000000,37500756.000000
5052916.000000,37694320.000000
5051781.000000,37706206.000000
5051781.000000,37903336.000000
1574800.000000,37903336.000000
1574800.000000,3215477.000000
1575279.000000,3204496.000000
1594290.000000,2987185.000000
1598104.000000,2965554.000000
1653132.000000,2760189.000000
1660644.000000,2739551.000000
1750498.000000,2546859.000000
1761480.000000,2527838.000000
1883428.000000,2353678.000000
1897546.000000,2336854.000000
2047885.000000,2186515.000000
2064709.000000,2172397.000000
2238872.000000,2050447.000000
2257894.000000,2039465.000000
2450581.000000,1949615.000000
2471218.000000,1942103.000000
2676586.000000,1887074.000000
2698217.000000,1883260.000000
2915528.000000,1864248.000000
2926509.000000,1863769.000000
27475458.000000,1863769.000000
Z" /> 
</g>
</g>
</g> 
</svg>
