<?xml version="1.0" encoding="UTF-8" standalone="no"?>
<svg
   xmlns:dc="http://purl.org/dc/elements/1.1/"
   xmlns:cc="http://creativecommons.org/ns#"
   xmlns:rdf="http://www.w3.org/1999/02/22-rdf-syntax-ns#"
   xmlns:svg="http://www.w3.org/2000/svg"
   xmlns="http://www.w3.org/2000/svg"
   xmlns:sodipodi="http://sodipodi.sourceforge.net/DTD/sodipodi-0.dtd"
   xmlns:inkscape="http://www.inkscape.org/namespaces/inkscape"
   version="1.1"
   width="3.116580cm"
   height="4.378960cm"
   viewBox="0 0 31165800 43789600"
   id="svg46"
   sodipodi:docname="knuckle-pad-mcuCoverOnlyFill.svg"
   inkscape:version="0.92.5 (2060ec1f9f, 2020-04-08)">
  <metadata
     id="metadata52">
    <rdf:RDF>
      <cc:Work
         rdf:about="">
        <dc:format>image/svg+xml</dc:format>
        <dc:type
           rdf:resource="http://purl.org/dc/dcmitype/StillImage" />
        <dc:title>SVG Picture created as knuckle-pad-brd.svg date 2021/11/04 20:54:18 </dc:title>
      </cc:Work>
    </rdf:RDF>
  </metadata>
  <defs
     id="defs50" />
  <sodipodi:namedview
     pagecolor="#ffffff"
     bordercolor="#666666"
     borderopacity="1"
     objecttolerance="10"
     gridtolerance="10"
     guidetolerance="10"
     inkscape:pageopacity="0"
     inkscape:pageshadow="2"
     inkscape:window-width="2560"
     inkscape:window-height="1326"
     id="namedview48"
     showgrid="false"
     inkscape:zoom="1.4259474"
     inkscape:cx="-27.011799"
     inkscape:cy="82.752003"
     inkscape:window-x="0"
     inkscape:window-y="27"
     inkscape:window-maximized="1"
     inkscape:current-layer="svg46" />
  <title
     id="title2">SVG Picture created as knuckle-pad-brd.svg date 2021/11/04 20:54:18 </title>
  <desc
     id="desc4">Picture generated by PCBNEW </desc>
  <g
     style="fill:#000000;fill-opacity:1;stroke:#000000;stroke-linecap:round;stroke-linejoin:round;stroke-opacity:1"
     id="g6" />
  <g
     style="fill:#000000;fill-opacity:0;stroke:#000000;stroke-width:0;stroke-linecap:round;stroke-linejoin:round;stroke-opacity:1"
     id="g8" />
  <g
     style="fill:#000000;fill-opacity:0;stroke:#000000;stroke-width:50000;stroke-linecap:round;stroke-linejoin:round;stroke-opacity:1"
     id="g30" />
  <g
     style="fill:#000000;fill-opacity:0;stroke:#000000;stroke-width:50000;stroke-linecap:round;stroke-linejoin:round;stroke-opacity:1"
     id="g32" />
  <g
     style="fill:#000000;fill-opacity:0;stroke:#000000;stroke-width:50000;stroke-linecap:round;stroke-linejoin:round;stroke-opacity:1"
     id="g34" />
  <g
     style="fill:#000000;fill-opacity:0;stroke:#000000;stroke-width:50000;stroke-linecap:round;stroke-linejoin:round;stroke-opacity:1"
     id="g36"
     transform="translate(77002901,12802892)" />
  <g
     style="fill:#000000;fill-opacity:1;stroke:#000000;stroke-width:1;stroke-linecap:round;stroke-linejoin:round;stroke-opacity:1"
     id="g40"
     transform="translate(742196.43,-556647.49)">
    <path
       inkscape:connector-curvature="0"
       style="fill:#000000;fill-opacity:1;fill-rule:evenodd;stroke:#000000;stroke-width:1;stroke-linecap:round;stroke-linejoin:round;stroke-opacity:1"
       d="m 27490089,1864621 208333,24357 21510,4443 197411,59108 20411,8109 184143,92487 18693,11531 165283,123057 16406,14601 141413,149897 13623,17229 113226,172163 10423,19332 81614,189218 6908,20850 47516,200516 3182,21731 12403,213063 213,7322 v 37510901 l -887,14928 -24788,207745 -4465,21405 -59322,196986 -8098,20311 -92487,183767 -11488,18605 -122866,165013 -14532,16340 -149543,141283 -17137,13580 -171710,113299 -19227,10414 -188729,81914 -20738,6932 -200032,48048 -21624,3243 -212388,13180 -7804,242 H 2857073 l -14507,-838 -216223,-25061 -21850,-4521 -196287,-59155 -20325,-8111 -183289,-92324 -18616,-11504 -164546,-122641 -16343,-14552 -140849,-149265 -13580,-17159 -112899,-171382 -10406,-19251 -81544,-188332 -6918,-20761 -47728,-199597 -3222,-21645 -12908,-211984 -233,-7658 v -2752694 h 3476981 l 1135,11886 37307,193564 3366,11463 73260,182996 5477,10624 106575,165833 7377,9382 136035,142670 9028,7823 160570,114341 10349,5974 179304,81886 11298,3910 191553,46470 11841,1703 196893,9379 11924,-568 195123,-28054 11611,-2817 186277,-64471 10873,-4966 170705,-98556 9739,-6936 148973,-129086 8240,-8642 121853,-154948 6464,-10059 90321,-175197 4446,-11105 55533,-189130 2262,-11733 9896,-103636 h 15848392 l 1135,11886 37307,193564 3366,11463 73260,182996 5477,10624 106575,165833 7377,9382 136035,142670 9028,7823 160570,114341 10349,5974 179304,81886 11298,3910 191553,46470 11841,1703 196893,9379 11924,-568 195123,-28054 11611,-2817 186277,-64471 10873,-4966 170705,-98556 9739,-6936 148973,-129086 8240,-8642 121853,-154948 6464,-10059 90321,-175197 4446,-11105 55533,-189130 2262,-11733 18736,-196221 v -11960 l -18736,-196221 -2262,-11733 -55533,-189130 -4446,-11105 -90321,-175197 -6464,-10059 -121853,-154948 -8240,-8642 -148973,-129086 -9739,-6936 -170705,-98556 -10873,-4966 -186277,-64471 -11611,-2817 -195123,-28054 -11924,-568 -196893,9379 -11841,1703 -191553,46470 -11298,3910 -179304,81886 -10349,5974 -160570,114341 -9028,7823 -136035,142670 -7377,9382 -106575,165833 -5477,10624 -73260,182996 -3366,11463 -37307,193564 -1135,11886 v 197130 H 7237389 l 8840,-92585 v -11960 l -18736,-196221 -2262,-11733 -55533,-189130 -4446,-11105 -90321,-175197 -6464,-10059 -121853,-154948 -8240,-8642 -148973,-129086 -9739,-6936 -170705,-98556 -10873,-4966 -186277,-64471 -11611,-2817 -195123,-28054 -11924,-568 -196893,9379 -11841,1703 -191553,46470 -11298,3910 -179304,81886 -10349,5974 -160570,114341 -9028,7823 -136035,142670 -7377,9382 -106575,165833 -5477,10624 -73260,182996 -3366,11463 -37307,193564 -1135,11886 v 197130 H 1574800 V 3215477 l 479,-10981 19011,-217311 3814,-21631 55028,-205365 7512,-20638 89854,-192692 10982,-19021 121948,-174160 14118,-16824 150339,-150339 16824,-14118 174163,-121950 19022,-10982 192687,-89850 20637,-7512 205368,-55029 21631,-3814 217311,-19012 10981,-479 h 24548949 z"
       id="path38" />
  </g>
</svg>
