<?xml version="1.0" standalone="no"?>
 <!DOCTYPE svg PUBLIC "-//W3C//DTD SVG 1.1//EN" 
 "http://www.w3.org/Graphics/SVG/1.1/DTD/svg11.dtd"> 
<svg
  xmlns:svg="http://www.w3.org/2000/svg"
  xmlns="http://www.w3.org/2000/svg"
  xmlns:xlink="http://www.w3.org/1999/xlink"
  version="1.1"
  width="12.814300cm" height="11.544300cm" viewBox="0 0 128143000 115443000">
<title>SVG Picture created as knuckle-pad-brd.svg date 2021/10/01 14:16:36 </title>
  <desc>Picture generated by PCBNEW </desc>
<g style="fill:#000000; fill-opacity:1.000000;stroke:#000000; stroke-opacity:1.000000;
stroke-linecap:round; stroke-linejoin:round;"
 transform="translate(0 0) scale(1 1)">
</g>
<g style="fill:#000000; fill-opacity:0.0; 
stroke:#000000; stroke-width:0.000000; stroke-opacity:1; 
stroke-linecap:round; stroke-linejoin:round;">
</g>
<g style="fill:#000000; fill-opacity:0.0; 
stroke:#000000; stroke-width:50000.000000; stroke-opacity:1; 
stroke-linecap:round; stroke-linejoin:round;">
<circle cx="107517000.000000" cy="84657002.000000" r="1100000.000000" /> 
<circle cx="28230900.000000" cy="96277502.000000" r="1100000.000000" /> 
<circle cx="100278000.000000" cy="57479002.000000" r="1100000.000000" /> 
<circle cx="22744500.000000" cy="57479002.000000" r="1100000.000000" /> 
<circle cx="100278000.000000" cy="19379002.000000" r="1100000.000000" /> 
<circle cx="22744500.000000" cy="19379002.000000" r="1100000.000000" /> 
<path d="M27456200 107724976
L45185400 107720202
" />
<path d="M1370400 100176402
L24916200 100176402
" />
<path d="M128091000.204941 1421202.005969 A1308655.000000 1308655.000000 0.0 0 0 126821002.005969 74999.795059" />
<path d="M75000 98906402
L75000 4850202
" />
<path d="M128091000 1421202
L128091000 99998602
" />
<path d="M1345000.000000 3580202.000000 A1270000.000000 1270000.000000 0.0 0 0 75000.000000 4850202.000000" />
<path d="M45185400 107720202
L63194000 101167002
" />
<path d="M101548000 105993002
L115776221 114927896
" />
<path d="M42995000 75002
L1345000 3580202
" />
<path d="M115776220.861964 114927895.740638 A2396230.000000 2396230.000000 0.0 0 0 119201000.144545 114248002.090341" />
<path d="M83006000 101167002
L101548000 105993002
" />
<path d="M105993000 75002
L126821000 75002
" />
<path d="M42995000 75002
L105993000 75002
" />
<path d="M26186200.000000 101446402.000000 A1270000.000000 1270000.000000 0.0 0 0 24916200.000000 100176402.000000" />
<path d="M119201000 114248002
L128091000 99998602
" />
<path d="M26186200 101446402
L26186200 106454976
" />
<path d="M63194000 101167002
L83006000 101167002
" />
<path d="M26186200.000000 106454976.000000 A1270000.000000 1270000.000000 0.0 0 0 27456200.000000 107724976.000000" />
<path d="M75000.000000 98906402.000000 A1295654.000000 1295654.000000 0.0 0 0 1370399.999994 100176402.000000" />
<g >
</g>
<g >
</g>
<g >
</g>
</g> 
</svg>
