M48
; DRILL file {KiCad 5.1.10-88a1d61d58~90~ubuntu20.04.1} date Wed Aug 25 16:01:04 2021
; FORMAT={-:-/ absolute / inch / decimal}
; #@! TF.CreationDate,2021-08-25T16:01:04+02:00
; #@! TF.GenerationSoftware,Kicad,Pcbnew,5.1.10-88a1d61d58~90~ubuntu20.04.1
; #@! TF.FileFunction,Plated,1,2,PTH
FMAT,2
INCH
T1C0.0320
T2C0.0430
T3C0.0512
T4C0.0579
T5C0.0866
%
G90
G05
T1
X3.9775Y-5.2227
X3.9775Y-5.5023
X4.017Y-3.7902
X4.017Y-4.0698
X4.019Y-3.0402
X4.019Y-3.3198
X4.02Y-1.5402
X4.02Y-1.8198
X4.02Y-2.2902
X4.02Y-2.5698
X4.1425Y-2.2902
X4.1425Y-2.5698
X4.1425Y-3.7905
X4.1425Y-4.07
X4.144Y-1.5402
X4.144Y-1.8198
X4.145Y-3.0405
X4.145Y-3.32
X4.6609Y-5.1533
X4.7791Y-5.4067
X4.894Y-1.5402
X4.894Y-1.8198
X4.895Y-2.2902
X4.895Y-2.5698
X4.895Y-3.0405
X4.895Y-3.32
X4.896Y-3.7902
X4.896Y-4.0698
X5.5519Y-4.795
X5.59Y-2.2927
X5.59Y-2.5723
X5.592Y-1.5394
X5.592Y-1.8189
X5.6243Y-5.065
X5.64Y-3.7904
X5.64Y-4.0699
X5.645Y-3.0405
X5.645Y-3.32
X6.398Y-3.0405
X6.398Y-3.32
X6.398Y-3.7904
X6.398Y-4.0699
X6.4425Y-2.2902
X6.4425Y-2.5698
X6.445Y-1.5402
X6.445Y-1.8198
X6.4957Y-5.0676
X6.5443Y-4.7924
X7.143Y-3.7902
X7.143Y-4.0698
X7.145Y-1.5402
X7.145Y-1.8198
X7.145Y-2.2902
X7.145Y-2.5698
X7.145Y-3.0405
X7.145Y-3.32
X7.3001Y-5.251
X7.4399Y-5.009
T2
X5.72Y-1.43
X5.72Y-1.53
X5.72Y-1.63
X5.72Y-1.73
X5.72Y-1.83
X5.72Y-1.93
X5.72Y-2.03
X5.72Y-2.13
X5.72Y-2.23
X5.72Y-2.33
X5.72Y-2.43
X5.72Y-2.53
X6.32Y-1.43
X6.32Y-1.53
X6.32Y-1.63
X6.32Y-1.73
X6.32Y-1.83
X6.32Y-1.93
X6.32Y-2.03
X6.32Y-2.13
X6.32Y-2.23
X6.32Y-2.33
X6.32Y-2.43
X6.32Y-2.53
T3
X4.962Y-1.42
X5.218Y-1.42
T4
X3.43Y-5.3
X3.431Y-1.61
X3.525Y-2.36
X3.525Y-3.11
X3.525Y-3.86
X3.68Y-5.2
X3.681Y-1.51
X3.775Y-2.26
X3.775Y-3.01
X3.775Y-3.76
X4.37Y-1.61
X4.37Y-2.36
X4.37Y-3.11
X4.37Y-3.86
X4.62Y-1.51
X4.62Y-2.26
X4.62Y-3.01
X4.62Y-3.76
X4.9918Y-5.1028
X5.12Y-1.61
X5.12Y-2.36
X5.12Y-3.11
X5.12Y-3.86
X5.1761Y-4.9065
X5.37Y-1.51
X5.37Y-2.26
X5.37Y-3.01
X5.37Y-3.76
X5.87Y-1.61
X5.87Y-2.36
X5.87Y-3.11
X5.87Y-3.86
X5.92Y-4.83
X6.12Y-1.51
X6.12Y-2.26
X6.12Y-3.01
X6.12Y-3.76
X6.17Y-4.73
X6.62Y-1.61
X6.62Y-2.36
X6.62Y-3.11
X6.62Y-3.86
X6.7986Y-4.8967
X6.87Y-1.51
X6.87Y-2.26
X6.87Y-3.01
X6.87Y-3.76
X7.0654Y-4.8601
X7.37Y-1.61
X7.37Y-2.36
X7.37Y-3.11
X7.37Y-3.86
X7.62Y-1.51
X7.62Y-2.26
X7.62Y-3.01
X7.62Y-3.76
X7.6458Y-5.2157
X7.9108Y-5.2634
T5
X4.0925Y-2.09
X4.0925Y-3.59
X4.3085Y-5.1175
X7.145Y-2.09
X7.145Y-3.59
X7.43Y-4.66
T0
M30
