%TF.GenerationSoftware,KiCad,Pcbnew,5.1.10-88a1d61d58~90~ubuntu20.04.1*%
%TF.CreationDate,2021-08-24T14:00:47+02:00*%
%TF.ProjectId,knuckle-pad,6b6e7563-6b6c-4652-9d70-61642e6b6963,rev?*%
%TF.SameCoordinates,Original*%
%TF.FileFunction,Legend,Top*%
%TF.FilePolarity,Positive*%
%FSLAX46Y46*%
G04 Gerber Fmt 4.6, Leading zero omitted, Abs format (unit mm)*
G04 Created by KiCad (PCBNEW 5.1.10-88a1d61d58~90~ubuntu20.04.1) date 2021-08-24 14:00:47*
%MOMM*%
%LPD*%
G01*
G04 APERTURE LIST*
%ADD10C,0.076200*%
%ADD11C,0.133350*%
%ADD12C,0.010000*%
%ADD13C,0.381000*%
%ADD14C,0.150000*%
%ADD15C,3.987800*%
%ADD16C,1.750000*%
%ADD17C,4.000000*%
%ADD18C,1.752600*%
%ADD19R,1.752600X1.752600*%
%ADD20C,2.000000*%
%ADD21C,0.100000*%
%ADD22C,1.397000*%
%ADD23R,0.950000X1.300000*%
%ADD24R,1.397000X1.397000*%
G04 APERTURE END LIST*
D10*
X86363628Y-124904620D02*
X86363628Y-124320420D01*
X86363628Y-124876801D02*
X86301942Y-124904620D01*
X86178571Y-124904620D01*
X86116885Y-124876801D01*
X86086042Y-124848982D01*
X86055200Y-124793344D01*
X86055200Y-124626430D01*
X86086042Y-124570792D01*
X86116885Y-124542973D01*
X86178571Y-124515154D01*
X86301942Y-124515154D01*
X86363628Y-124542973D01*
X86918800Y-124876801D02*
X86857114Y-124904620D01*
X86733742Y-124904620D01*
X86672057Y-124876801D01*
X86641214Y-124821163D01*
X86641214Y-124598611D01*
X86672057Y-124542973D01*
X86733742Y-124515154D01*
X86857114Y-124515154D01*
X86918800Y-124542973D01*
X86949642Y-124598611D01*
X86949642Y-124654249D01*
X86641214Y-124709887D01*
X87196385Y-124876801D02*
X87258071Y-124904620D01*
X87381442Y-124904620D01*
X87443128Y-124876801D01*
X87473971Y-124821163D01*
X87473971Y-124793344D01*
X87443128Y-124737706D01*
X87381442Y-124709887D01*
X87288914Y-124709887D01*
X87227228Y-124682068D01*
X87196385Y-124626430D01*
X87196385Y-124598611D01*
X87227228Y-124542973D01*
X87288914Y-124515154D01*
X87381442Y-124515154D01*
X87443128Y-124542973D01*
X87751557Y-124904620D02*
X87751557Y-124515154D01*
X87751557Y-124320420D02*
X87720714Y-124348240D01*
X87751557Y-124376059D01*
X87782400Y-124348240D01*
X87751557Y-124320420D01*
X87751557Y-124376059D01*
X88337571Y-124515154D02*
X88337571Y-124988078D01*
X88306728Y-125043716D01*
X88275885Y-125071535D01*
X88214200Y-125099354D01*
X88121671Y-125099354D01*
X88059985Y-125071535D01*
X88337571Y-124876801D02*
X88275885Y-124904620D01*
X88152514Y-124904620D01*
X88090828Y-124876801D01*
X88059985Y-124848982D01*
X88029142Y-124793344D01*
X88029142Y-124626430D01*
X88059985Y-124570792D01*
X88090828Y-124542973D01*
X88152514Y-124515154D01*
X88275885Y-124515154D01*
X88337571Y-124542973D01*
X88646000Y-124515154D02*
X88646000Y-124904620D01*
X88646000Y-124570792D02*
X88676842Y-124542973D01*
X88738528Y-124515154D01*
X88831057Y-124515154D01*
X88892742Y-124542973D01*
X88923585Y-124598611D01*
X88923585Y-124904620D01*
X89478757Y-124876801D02*
X89417071Y-124904620D01*
X89293700Y-124904620D01*
X89232014Y-124876801D01*
X89201171Y-124821163D01*
X89201171Y-124598611D01*
X89232014Y-124542973D01*
X89293700Y-124515154D01*
X89417071Y-124515154D01*
X89478757Y-124542973D01*
X89509600Y-124598611D01*
X89509600Y-124654249D01*
X89201171Y-124709887D01*
X90064771Y-124904620D02*
X90064771Y-124320420D01*
X90064771Y-124876801D02*
X90003085Y-124904620D01*
X89879714Y-124904620D01*
X89818028Y-124876801D01*
X89787185Y-124848982D01*
X89756342Y-124793344D01*
X89756342Y-124626430D01*
X89787185Y-124570792D01*
X89818028Y-124542973D01*
X89879714Y-124515154D01*
X90003085Y-124515154D01*
X90064771Y-124542973D01*
X90866685Y-124904620D02*
X90866685Y-124320420D01*
X90866685Y-124542973D02*
X90928371Y-124515154D01*
X91051742Y-124515154D01*
X91113428Y-124542973D01*
X91144271Y-124570792D01*
X91175114Y-124626430D01*
X91175114Y-124793344D01*
X91144271Y-124848982D01*
X91113428Y-124876801D01*
X91051742Y-124904620D01*
X90928371Y-124904620D01*
X90866685Y-124876801D01*
X91391014Y-124515154D02*
X91545228Y-124904620D01*
X91699442Y-124515154D02*
X91545228Y-124904620D01*
X91483542Y-125043716D01*
X91452700Y-125071535D01*
X91391014Y-125099354D01*
X92902314Y-124292601D02*
X92347142Y-125043716D01*
X93395800Y-124515154D02*
X93395800Y-124988078D01*
X93364957Y-125043716D01*
X93334114Y-125071535D01*
X93272428Y-125099354D01*
X93179900Y-125099354D01*
X93118214Y-125071535D01*
X93395800Y-124876801D02*
X93334114Y-124904620D01*
X93210742Y-124904620D01*
X93149057Y-124876801D01*
X93118214Y-124848982D01*
X93087371Y-124793344D01*
X93087371Y-124626430D01*
X93118214Y-124570792D01*
X93149057Y-124542973D01*
X93210742Y-124515154D01*
X93334114Y-124515154D01*
X93395800Y-124542973D01*
X93704228Y-124904620D02*
X93704228Y-124515154D01*
X93704228Y-124320420D02*
X93673385Y-124348240D01*
X93704228Y-124376059D01*
X93735071Y-124348240D01*
X93704228Y-124320420D01*
X93704228Y-124376059D01*
X93920128Y-124515154D02*
X94166871Y-124515154D01*
X94012657Y-124320420D02*
X94012657Y-124821163D01*
X94043500Y-124876801D01*
X94105185Y-124904620D01*
X94166871Y-124904620D01*
X94382771Y-124904620D02*
X94382771Y-124320420D01*
X94660357Y-124904620D02*
X94660357Y-124598611D01*
X94629514Y-124542973D01*
X94567828Y-124515154D01*
X94475300Y-124515154D01*
X94413614Y-124542973D01*
X94382771Y-124570792D01*
X95246371Y-124515154D02*
X95246371Y-124904620D01*
X94968785Y-124515154D02*
X94968785Y-124821163D01*
X94999628Y-124876801D01*
X95061314Y-124904620D01*
X95153842Y-124904620D01*
X95215528Y-124876801D01*
X95246371Y-124848982D01*
X95554800Y-124904620D02*
X95554800Y-124320420D01*
X95554800Y-124542973D02*
X95616485Y-124515154D01*
X95739857Y-124515154D01*
X95801542Y-124542973D01*
X95832385Y-124570792D01*
X95863228Y-124626430D01*
X95863228Y-124793344D01*
X95832385Y-124848982D01*
X95801542Y-124876801D01*
X95739857Y-124904620D01*
X95616485Y-124904620D01*
X95554800Y-124876801D01*
X96140814Y-124848982D02*
X96171657Y-124876801D01*
X96140814Y-124904620D01*
X96109971Y-124876801D01*
X96140814Y-124848982D01*
X96140814Y-124904620D01*
X96726828Y-124876801D02*
X96665142Y-124904620D01*
X96541771Y-124904620D01*
X96480085Y-124876801D01*
X96449242Y-124848982D01*
X96418400Y-124793344D01*
X96418400Y-124626430D01*
X96449242Y-124570792D01*
X96480085Y-124542973D01*
X96541771Y-124515154D01*
X96665142Y-124515154D01*
X96726828Y-124542973D01*
X97096942Y-124904620D02*
X97035257Y-124876801D01*
X97004414Y-124848982D01*
X96973571Y-124793344D01*
X96973571Y-124626430D01*
X97004414Y-124570792D01*
X97035257Y-124542973D01*
X97096942Y-124515154D01*
X97189471Y-124515154D01*
X97251157Y-124542973D01*
X97282000Y-124570792D01*
X97312842Y-124626430D01*
X97312842Y-124793344D01*
X97282000Y-124848982D01*
X97251157Y-124876801D01*
X97189471Y-124904620D01*
X97096942Y-124904620D01*
X97590428Y-124904620D02*
X97590428Y-124515154D01*
X97590428Y-124570792D02*
X97621271Y-124542973D01*
X97682957Y-124515154D01*
X97775485Y-124515154D01*
X97837171Y-124542973D01*
X97868014Y-124598611D01*
X97868014Y-124904620D01*
X97868014Y-124598611D02*
X97898857Y-124542973D01*
X97960542Y-124515154D01*
X98053071Y-124515154D01*
X98114757Y-124542973D01*
X98145600Y-124598611D01*
X98145600Y-124904620D01*
X98916671Y-124292601D02*
X98361500Y-125043716D01*
X99040042Y-124515154D02*
X99286785Y-124515154D01*
X99132571Y-124320420D02*
X99132571Y-124821163D01*
X99163414Y-124876801D01*
X99225100Y-124904620D01*
X99286785Y-124904620D01*
X99502685Y-124904620D02*
X99502685Y-124515154D01*
X99502685Y-124320420D02*
X99471842Y-124348240D01*
X99502685Y-124376059D01*
X99533528Y-124348240D01*
X99502685Y-124320420D01*
X99502685Y-124376059D01*
X99903642Y-124904620D02*
X99841957Y-124876801D01*
X99811114Y-124821163D01*
X99811114Y-124320420D01*
X100397128Y-124876801D02*
X100335442Y-124904620D01*
X100212071Y-124904620D01*
X100150385Y-124876801D01*
X100119542Y-124821163D01*
X100119542Y-124598611D01*
X100150385Y-124542973D01*
X100212071Y-124515154D01*
X100335442Y-124515154D01*
X100397128Y-124542973D01*
X100427971Y-124598611D01*
X100427971Y-124654249D01*
X100119542Y-124709887D01*
X100705557Y-124904620D02*
X100705557Y-124515154D01*
X100705557Y-124320420D02*
X100674714Y-124348240D01*
X100705557Y-124376059D01*
X100736400Y-124348240D01*
X100705557Y-124320420D01*
X100705557Y-124376059D01*
X100983142Y-124876801D02*
X101044828Y-124904620D01*
X101168200Y-124904620D01*
X101229885Y-124876801D01*
X101260728Y-124821163D01*
X101260728Y-124793344D01*
X101229885Y-124737706D01*
X101168200Y-124709887D01*
X101075671Y-124709887D01*
X101013985Y-124682068D01*
X100983142Y-124626430D01*
X100983142Y-124598611D01*
X101013985Y-124542973D01*
X101075671Y-124515154D01*
X101168200Y-124515154D01*
X101229885Y-124542973D01*
X101507471Y-124876801D02*
X101569157Y-124904620D01*
X101692528Y-124904620D01*
X101754214Y-124876801D01*
X101785057Y-124821163D01*
X101785057Y-124793344D01*
X101754214Y-124737706D01*
X101692528Y-124709887D01*
X101600000Y-124709887D01*
X101538314Y-124682068D01*
X101507471Y-124626430D01*
X101507471Y-124598611D01*
X101538314Y-124542973D01*
X101600000Y-124515154D01*
X101692528Y-124515154D01*
X101754214Y-124542973D01*
X102062642Y-124515154D02*
X102062642Y-124904620D01*
X102062642Y-124570792D02*
X102093485Y-124542973D01*
X102155171Y-124515154D01*
X102247700Y-124515154D01*
X102309385Y-124542973D01*
X102340228Y-124598611D01*
X102340228Y-124904620D01*
X102895400Y-124876801D02*
X102833714Y-124904620D01*
X102710342Y-124904620D01*
X102648657Y-124876801D01*
X102617814Y-124821163D01*
X102617814Y-124598611D01*
X102648657Y-124542973D01*
X102710342Y-124515154D01*
X102833714Y-124515154D01*
X102895400Y-124542973D01*
X102926242Y-124598611D01*
X102926242Y-124654249D01*
X102617814Y-124709887D01*
X103203828Y-124904620D02*
X103203828Y-124515154D01*
X103203828Y-124626430D02*
X103234671Y-124570792D01*
X103265514Y-124542973D01*
X103327200Y-124515154D01*
X103388885Y-124515154D01*
D11*
X86095114Y-123478229D02*
X86095114Y-122436829D01*
X86194295Y-123081505D02*
X86491838Y-123478229D01*
X86491838Y-122783962D02*
X86095114Y-123180686D01*
X86938152Y-122783962D02*
X86938152Y-123478229D01*
X86938152Y-122883143D02*
X86987742Y-122833553D01*
X87086923Y-122783962D01*
X87235695Y-122783962D01*
X87334876Y-122833553D01*
X87384466Y-122932734D01*
X87384466Y-123478229D01*
X88326685Y-122783962D02*
X88326685Y-123478229D01*
X87880371Y-122783962D02*
X87880371Y-123329458D01*
X87929961Y-123428639D01*
X88029142Y-123478229D01*
X88177914Y-123478229D01*
X88277095Y-123428639D01*
X88326685Y-123379048D01*
X89268904Y-123428639D02*
X89169723Y-123478229D01*
X88971361Y-123478229D01*
X88872180Y-123428639D01*
X88822590Y-123379048D01*
X88773000Y-123279867D01*
X88773000Y-122982324D01*
X88822590Y-122883143D01*
X88872180Y-122833553D01*
X88971361Y-122783962D01*
X89169723Y-122783962D01*
X89268904Y-122833553D01*
X89715219Y-123478229D02*
X89715219Y-122436829D01*
X89814400Y-123081505D02*
X90111942Y-123478229D01*
X90111942Y-122783962D02*
X89715219Y-123180686D01*
X90707028Y-123478229D02*
X90607847Y-123428639D01*
X90558257Y-123329458D01*
X90558257Y-122436829D01*
X91500476Y-123428639D02*
X91401295Y-123478229D01*
X91202933Y-123478229D01*
X91103752Y-123428639D01*
X91054161Y-123329458D01*
X91054161Y-122932734D01*
X91103752Y-122833553D01*
X91202933Y-122783962D01*
X91401295Y-122783962D01*
X91500476Y-122833553D01*
X91550066Y-122932734D01*
X91550066Y-123031915D01*
X91054161Y-123131096D01*
X91996380Y-123081505D02*
X92789828Y-123081505D01*
X93285733Y-122783962D02*
X93285733Y-123825362D01*
X93285733Y-122833553D02*
X93384914Y-122783962D01*
X93583276Y-122783962D01*
X93682457Y-122833553D01*
X93732047Y-122883143D01*
X93781638Y-122982324D01*
X93781638Y-123279867D01*
X93732047Y-123379048D01*
X93682457Y-123428639D01*
X93583276Y-123478229D01*
X93384914Y-123478229D01*
X93285733Y-123428639D01*
X94674266Y-123478229D02*
X94674266Y-122932734D01*
X94624676Y-122833553D01*
X94525495Y-122783962D01*
X94327133Y-122783962D01*
X94227952Y-122833553D01*
X94674266Y-123428639D02*
X94575085Y-123478229D01*
X94327133Y-123478229D01*
X94227952Y-123428639D01*
X94178361Y-123329458D01*
X94178361Y-123230277D01*
X94227952Y-123131096D01*
X94327133Y-123081505D01*
X94575085Y-123081505D01*
X94674266Y-123031915D01*
X95616485Y-123478229D02*
X95616485Y-122436829D01*
X95616485Y-123428639D02*
X95517304Y-123478229D01*
X95318942Y-123478229D01*
X95219761Y-123428639D01*
X95170171Y-123379048D01*
X95120580Y-123279867D01*
X95120580Y-122982324D01*
X95170171Y-122883143D01*
X95219761Y-122833553D01*
X95318942Y-122783962D01*
X95517304Y-122783962D01*
X95616485Y-122833553D01*
D12*
%TO.C,G\u002A\u002A\u002A*%
G36*
X88272154Y-114014565D02*
G01*
X88644798Y-114016434D01*
X88922922Y-114021241D01*
X89122766Y-114030370D01*
X89260569Y-114045205D01*
X89352572Y-114067132D01*
X89415013Y-114097533D01*
X89464133Y-114137793D01*
X89485611Y-114158888D01*
X89630250Y-114303527D01*
X89630250Y-121217972D01*
X89485733Y-121362611D01*
X89435548Y-121408728D01*
X89377864Y-121444064D01*
X89295931Y-121470289D01*
X89172998Y-121489070D01*
X88992311Y-121502078D01*
X88737120Y-121510981D01*
X88390673Y-121517447D01*
X87936219Y-121523147D01*
X87866483Y-121523939D01*
X87349185Y-121527762D01*
X86946004Y-121525795D01*
X86644166Y-121517532D01*
X86430899Y-121502466D01*
X86293429Y-121480090D01*
X86234251Y-121459188D01*
X86166303Y-121422631D01*
X86108781Y-121382128D01*
X86060870Y-121327512D01*
X86021756Y-121248616D01*
X85990623Y-121135275D01*
X85966655Y-120977321D01*
X85949037Y-120764589D01*
X85936954Y-120486912D01*
X85929591Y-120134123D01*
X85926132Y-119696057D01*
X85925762Y-119162547D01*
X85927666Y-118523426D01*
X85931028Y-117768529D01*
X85931428Y-117683102D01*
X85947250Y-114303454D01*
X86091888Y-114158852D01*
X86140294Y-114113848D01*
X86194918Y-114079307D01*
X86272000Y-114053845D01*
X86387780Y-114036079D01*
X86558499Y-114024623D01*
X86800396Y-114018095D01*
X87129711Y-114015110D01*
X87562685Y-114014285D01*
X87788750Y-114014250D01*
X88272154Y-114014565D01*
G37*
X88272154Y-114014565D02*
X88644798Y-114016434D01*
X88922922Y-114021241D01*
X89122766Y-114030370D01*
X89260569Y-114045205D01*
X89352572Y-114067132D01*
X89415013Y-114097533D01*
X89464133Y-114137793D01*
X89485611Y-114158888D01*
X89630250Y-114303527D01*
X89630250Y-121217972D01*
X89485733Y-121362611D01*
X89435548Y-121408728D01*
X89377864Y-121444064D01*
X89295931Y-121470289D01*
X89172998Y-121489070D01*
X88992311Y-121502078D01*
X88737120Y-121510981D01*
X88390673Y-121517447D01*
X87936219Y-121523147D01*
X87866483Y-121523939D01*
X87349185Y-121527762D01*
X86946004Y-121525795D01*
X86644166Y-121517532D01*
X86430899Y-121502466D01*
X86293429Y-121480090D01*
X86234251Y-121459188D01*
X86166303Y-121422631D01*
X86108781Y-121382128D01*
X86060870Y-121327512D01*
X86021756Y-121248616D01*
X85990623Y-121135275D01*
X85966655Y-120977321D01*
X85949037Y-120764589D01*
X85936954Y-120486912D01*
X85929591Y-120134123D01*
X85926132Y-119696057D01*
X85925762Y-119162547D01*
X85927666Y-118523426D01*
X85931028Y-117768529D01*
X85931428Y-117683102D01*
X85947250Y-114303454D01*
X86091888Y-114158852D01*
X86140294Y-114113848D01*
X86194918Y-114079307D01*
X86272000Y-114053845D01*
X86387780Y-114036079D01*
X86558499Y-114024623D01*
X86800396Y-114018095D01*
X87129711Y-114015110D01*
X87562685Y-114014285D01*
X87788750Y-114014250D01*
X88272154Y-114014565D01*
G36*
X101607154Y-113062065D02*
G01*
X101979798Y-113063934D01*
X102257922Y-113068741D01*
X102457766Y-113077870D01*
X102595569Y-113092705D01*
X102687572Y-113114632D01*
X102750013Y-113145033D01*
X102799133Y-113185293D01*
X102820611Y-113206388D01*
X102965250Y-113351027D01*
X102965250Y-121486720D01*
X102815340Y-121608110D01*
X102759919Y-121646270D01*
X102688983Y-121675515D01*
X102586179Y-121697019D01*
X102435153Y-121711954D01*
X102219553Y-121721495D01*
X101923026Y-121726815D01*
X101529219Y-121729087D01*
X101123749Y-121729500D01*
X100638300Y-121728846D01*
X100263494Y-121726105D01*
X99982979Y-121720101D01*
X99780402Y-121709662D01*
X99639411Y-121693613D01*
X99543652Y-121670783D01*
X99476773Y-121639996D01*
X99432159Y-121608110D01*
X99282250Y-121486720D01*
X99282250Y-113351027D01*
X99426888Y-113206388D01*
X99475288Y-113161373D01*
X99529895Y-113126824D01*
X99606950Y-113101356D01*
X99722692Y-113083584D01*
X99893360Y-113072126D01*
X100135196Y-113065596D01*
X100464438Y-113062611D01*
X100897326Y-113061785D01*
X101123750Y-113061750D01*
X101607154Y-113062065D01*
G37*
X101607154Y-113062065D02*
X101979798Y-113063934D01*
X102257922Y-113068741D01*
X102457766Y-113077870D01*
X102595569Y-113092705D01*
X102687572Y-113114632D01*
X102750013Y-113145033D01*
X102799133Y-113185293D01*
X102820611Y-113206388D01*
X102965250Y-113351027D01*
X102965250Y-121486720D01*
X102815340Y-121608110D01*
X102759919Y-121646270D01*
X102688983Y-121675515D01*
X102586179Y-121697019D01*
X102435153Y-121711954D01*
X102219553Y-121721495D01*
X101923026Y-121726815D01*
X101529219Y-121729087D01*
X101123749Y-121729500D01*
X100638300Y-121728846D01*
X100263494Y-121726105D01*
X99982979Y-121720101D01*
X99780402Y-121709662D01*
X99639411Y-121693613D01*
X99543652Y-121670783D01*
X99476773Y-121639996D01*
X99432159Y-121608110D01*
X99282250Y-121486720D01*
X99282250Y-113351027D01*
X99426888Y-113206388D01*
X99475288Y-113161373D01*
X99529895Y-113126824D01*
X99606950Y-113101356D01*
X99722692Y-113083584D01*
X99893360Y-113072126D01*
X100135196Y-113065596D01*
X100464438Y-113062611D01*
X100897326Y-113061785D01*
X101123750Y-113061750D01*
X101607154Y-113062065D01*
G36*
X92717154Y-113062065D02*
G01*
X93089798Y-113063934D01*
X93367922Y-113068741D01*
X93567766Y-113077870D01*
X93705569Y-113092705D01*
X93797572Y-113114632D01*
X93860013Y-113145033D01*
X93909133Y-113185293D01*
X93930611Y-113206388D01*
X94075250Y-113351027D01*
X94075250Y-121486720D01*
X93925340Y-121608110D01*
X93869919Y-121646270D01*
X93798983Y-121675515D01*
X93696179Y-121697019D01*
X93545153Y-121711954D01*
X93329553Y-121721495D01*
X93033026Y-121726815D01*
X92639219Y-121729087D01*
X92233749Y-121729500D01*
X91748300Y-121728846D01*
X91373494Y-121726105D01*
X91092979Y-121720101D01*
X90890402Y-121709662D01*
X90749411Y-121693613D01*
X90653652Y-121670783D01*
X90586773Y-121639996D01*
X90542159Y-121608110D01*
X90392250Y-121486720D01*
X90392250Y-113351027D01*
X90536888Y-113206388D01*
X90585288Y-113161373D01*
X90639895Y-113126824D01*
X90716950Y-113101356D01*
X90832692Y-113083584D01*
X91003360Y-113072126D01*
X91245196Y-113065596D01*
X91574438Y-113062611D01*
X92007326Y-113061785D01*
X92233750Y-113061750D01*
X92717154Y-113062065D01*
G37*
X92717154Y-113062065D02*
X93089798Y-113063934D01*
X93367922Y-113068741D01*
X93567766Y-113077870D01*
X93705569Y-113092705D01*
X93797572Y-113114632D01*
X93860013Y-113145033D01*
X93909133Y-113185293D01*
X93930611Y-113206388D01*
X94075250Y-113351027D01*
X94075250Y-121486720D01*
X93925340Y-121608110D01*
X93869919Y-121646270D01*
X93798983Y-121675515D01*
X93696179Y-121697019D01*
X93545153Y-121711954D01*
X93329553Y-121721495D01*
X93033026Y-121726815D01*
X92639219Y-121729087D01*
X92233749Y-121729500D01*
X91748300Y-121728846D01*
X91373494Y-121726105D01*
X91092979Y-121720101D01*
X90890402Y-121709662D01*
X90749411Y-121693613D01*
X90653652Y-121670783D01*
X90586773Y-121639996D01*
X90542159Y-121608110D01*
X90392250Y-121486720D01*
X90392250Y-113351027D01*
X90536888Y-113206388D01*
X90585288Y-113161373D01*
X90639895Y-113126824D01*
X90716950Y-113101356D01*
X90832692Y-113083584D01*
X91003360Y-113072126D01*
X91245196Y-113065596D01*
X91574438Y-113062611D01*
X92007326Y-113061785D01*
X92233750Y-113061750D01*
X92717154Y-113062065D01*
G36*
X97164848Y-112205041D02*
G01*
X97539983Y-112207463D01*
X97820188Y-112212962D01*
X98021496Y-112222732D01*
X98159943Y-112237971D01*
X98251561Y-112259874D01*
X98312386Y-112289637D01*
X98358450Y-112328455D01*
X98359884Y-112329884D01*
X98469040Y-112478503D01*
X98520683Y-112599759D01*
X98526270Y-112685810D01*
X98531094Y-112888400D01*
X98535118Y-113197073D01*
X98538301Y-113601369D01*
X98540607Y-114090832D01*
X98541994Y-114655002D01*
X98542425Y-115283423D01*
X98541861Y-115965636D01*
X98540263Y-116691184D01*
X98538174Y-117306003D01*
X98520250Y-121867757D01*
X98370340Y-121989128D01*
X98314914Y-122027283D01*
X98243962Y-122056524D01*
X98141131Y-122078024D01*
X97990070Y-122092958D01*
X97774424Y-122102497D01*
X97477842Y-122107816D01*
X97083971Y-122110088D01*
X96678749Y-122110500D01*
X96193295Y-122109846D01*
X95818484Y-122107104D01*
X95537964Y-122101099D01*
X95335383Y-122090658D01*
X95194388Y-122074609D01*
X95098626Y-122051777D01*
X95031745Y-122020990D01*
X94987159Y-121989128D01*
X94837250Y-121867757D01*
X94819325Y-117306003D01*
X94816857Y-116552923D01*
X94815455Y-115834672D01*
X94815080Y-115161707D01*
X94815693Y-114544487D01*
X94817254Y-113993469D01*
X94819726Y-113519112D01*
X94823070Y-113131874D01*
X94827246Y-112842211D01*
X94832215Y-112660584D01*
X94836816Y-112599759D01*
X94909391Y-112443373D01*
X94997615Y-112329884D01*
X95043468Y-112290751D01*
X95103560Y-112260713D01*
X95193923Y-112238573D01*
X95330593Y-112223136D01*
X95529603Y-112213206D01*
X95806986Y-112207587D01*
X96178778Y-112205084D01*
X96661012Y-112204500D01*
X96678750Y-112204500D01*
X97164848Y-112205041D01*
G37*
X97164848Y-112205041D02*
X97539983Y-112207463D01*
X97820188Y-112212962D01*
X98021496Y-112222732D01*
X98159943Y-112237971D01*
X98251561Y-112259874D01*
X98312386Y-112289637D01*
X98358450Y-112328455D01*
X98359884Y-112329884D01*
X98469040Y-112478503D01*
X98520683Y-112599759D01*
X98526270Y-112685810D01*
X98531094Y-112888400D01*
X98535118Y-113197073D01*
X98538301Y-113601369D01*
X98540607Y-114090832D01*
X98541994Y-114655002D01*
X98542425Y-115283423D01*
X98541861Y-115965636D01*
X98540263Y-116691184D01*
X98538174Y-117306003D01*
X98520250Y-121867757D01*
X98370340Y-121989128D01*
X98314914Y-122027283D01*
X98243962Y-122056524D01*
X98141131Y-122078024D01*
X97990070Y-122092958D01*
X97774424Y-122102497D01*
X97477842Y-122107816D01*
X97083971Y-122110088D01*
X96678749Y-122110500D01*
X96193295Y-122109846D01*
X95818484Y-122107104D01*
X95537964Y-122101099D01*
X95335383Y-122090658D01*
X95194388Y-122074609D01*
X95098626Y-122051777D01*
X95031745Y-122020990D01*
X94987159Y-121989128D01*
X94837250Y-121867757D01*
X94819325Y-117306003D01*
X94816857Y-116552923D01*
X94815455Y-115834672D01*
X94815080Y-115161707D01*
X94815693Y-114544487D01*
X94817254Y-113993469D01*
X94819726Y-113519112D01*
X94823070Y-113131874D01*
X94827246Y-112842211D01*
X94832215Y-112660584D01*
X94836816Y-112599759D01*
X94909391Y-112443373D01*
X94997615Y-112329884D01*
X95043468Y-112290751D01*
X95103560Y-112260713D01*
X95193923Y-112238573D01*
X95330593Y-112223136D01*
X95529603Y-112213206D01*
X95806986Y-112207587D01*
X96178778Y-112205084D01*
X96661012Y-112204500D01*
X96678750Y-112204500D01*
X97164848Y-112205041D01*
G36*
X99187000Y-120908884D02*
G01*
X99189273Y-121184966D01*
X99201418Y-121366850D01*
X99231422Y-121487328D01*
X99287273Y-121579189D01*
X99372615Y-121670884D01*
X99558230Y-121856500D01*
X102689269Y-121856500D01*
X102874884Y-121670884D01*
X102962777Y-121576033D01*
X103017391Y-121484083D01*
X103046620Y-121362442D01*
X103058358Y-121178522D01*
X103060500Y-120904605D01*
X103061718Y-120631921D01*
X103069345Y-120463814D01*
X103089334Y-120377860D01*
X103127640Y-120351637D01*
X103190217Y-120362721D01*
X103203375Y-120366607D01*
X103360486Y-120444462D01*
X103473250Y-120531400D01*
X103512900Y-120575827D01*
X103543326Y-120633887D01*
X103565743Y-120721606D01*
X103581367Y-120855012D01*
X103591414Y-121050132D01*
X103597099Y-121322993D01*
X103599639Y-121689623D01*
X103600248Y-122166048D01*
X103600250Y-122205750D01*
X103599934Y-122689157D01*
X103598064Y-123061804D01*
X103593255Y-123339931D01*
X103584125Y-123539779D01*
X103569288Y-123677586D01*
X103547362Y-123769593D01*
X103516962Y-123832040D01*
X103476704Y-123881167D01*
X103455647Y-123902611D01*
X103311045Y-124047250D01*
X99931397Y-124063071D01*
X99148614Y-124066083D01*
X98484088Y-124067102D01*
X97929093Y-124065969D01*
X97474899Y-124062524D01*
X97112778Y-124056606D01*
X96834002Y-124048057D01*
X96629842Y-124036717D01*
X96491569Y-124022425D01*
X96410456Y-124005023D01*
X96394251Y-123998319D01*
X96263906Y-123907926D01*
X96173296Y-123778258D01*
X96116080Y-123587808D01*
X96085920Y-123315066D01*
X96076473Y-122938522D01*
X96076436Y-122920125D01*
X96075500Y-122237500D01*
X98244269Y-122237500D01*
X98429884Y-122051884D01*
X98507919Y-121969996D01*
X98560293Y-121891970D01*
X98592121Y-121791553D01*
X98608521Y-121642490D01*
X98614609Y-121418527D01*
X98615500Y-121099384D01*
X98615500Y-120332500D01*
X99187000Y-120332500D01*
X99187000Y-120908884D01*
G37*
X99187000Y-120908884D02*
X99189273Y-121184966D01*
X99201418Y-121366850D01*
X99231422Y-121487328D01*
X99287273Y-121579189D01*
X99372615Y-121670884D01*
X99558230Y-121856500D01*
X102689269Y-121856500D01*
X102874884Y-121670884D01*
X102962777Y-121576033D01*
X103017391Y-121484083D01*
X103046620Y-121362442D01*
X103058358Y-121178522D01*
X103060500Y-120904605D01*
X103061718Y-120631921D01*
X103069345Y-120463814D01*
X103089334Y-120377860D01*
X103127640Y-120351637D01*
X103190217Y-120362721D01*
X103203375Y-120366607D01*
X103360486Y-120444462D01*
X103473250Y-120531400D01*
X103512900Y-120575827D01*
X103543326Y-120633887D01*
X103565743Y-120721606D01*
X103581367Y-120855012D01*
X103591414Y-121050132D01*
X103597099Y-121322993D01*
X103599639Y-121689623D01*
X103600248Y-122166048D01*
X103600250Y-122205750D01*
X103599934Y-122689157D01*
X103598064Y-123061804D01*
X103593255Y-123339931D01*
X103584125Y-123539779D01*
X103569288Y-123677586D01*
X103547362Y-123769593D01*
X103516962Y-123832040D01*
X103476704Y-123881167D01*
X103455647Y-123902611D01*
X103311045Y-124047250D01*
X99931397Y-124063071D01*
X99148614Y-124066083D01*
X98484088Y-124067102D01*
X97929093Y-124065969D01*
X97474899Y-124062524D01*
X97112778Y-124056606D01*
X96834002Y-124048057D01*
X96629842Y-124036717D01*
X96491569Y-124022425D01*
X96410456Y-124005023D01*
X96394251Y-123998319D01*
X96263906Y-123907926D01*
X96173296Y-123778258D01*
X96116080Y-123587808D01*
X96085920Y-123315066D01*
X96076473Y-122938522D01*
X96076436Y-122920125D01*
X96075500Y-122237500D01*
X98244269Y-122237500D01*
X98429884Y-122051884D01*
X98507919Y-121969996D01*
X98560293Y-121891970D01*
X98592121Y-121791553D01*
X98608521Y-121642490D01*
X98614609Y-121418527D01*
X98615500Y-121099384D01*
X98615500Y-120332500D01*
X99187000Y-120332500D01*
X99187000Y-120908884D01*
D13*
%TO.C,U1*%
X159258000Y-35052000D02*
X161798000Y-35052000D01*
X144018000Y-32512000D02*
X161798000Y-32512000D01*
X161798000Y-32512000D02*
X161798000Y-65532000D01*
X161798000Y-65532000D02*
X144018000Y-65532000D01*
X144018000Y-65532000D02*
X144018000Y-32512000D01*
D14*
G36*
X147063365Y-40941030D02*
G01*
X147063365Y-41041030D01*
X146563365Y-41041030D01*
X146563365Y-40941030D01*
X147063365Y-40941030D01*
G37*
X147063365Y-40941030D02*
X147063365Y-41041030D01*
X146563365Y-41041030D01*
X146563365Y-40941030D01*
X147063365Y-40941030D01*
G36*
X147063365Y-40941030D02*
G01*
X147063365Y-41241030D01*
X146963365Y-41241030D01*
X146963365Y-40941030D01*
X147063365Y-40941030D01*
G37*
X147063365Y-40941030D02*
X147063365Y-41241030D01*
X146963365Y-41241030D01*
X146963365Y-40941030D01*
X147063365Y-40941030D01*
G36*
X147063365Y-41541030D02*
G01*
X147063365Y-41741030D01*
X146963365Y-41741030D01*
X146963365Y-41541030D01*
X147063365Y-41541030D01*
G37*
X147063365Y-41541030D02*
X147063365Y-41741030D01*
X146963365Y-41741030D01*
X146963365Y-41541030D01*
X147063365Y-41541030D01*
G36*
X146663365Y-40941030D02*
G01*
X146663365Y-41741030D01*
X146563365Y-41741030D01*
X146563365Y-40941030D01*
X146663365Y-40941030D01*
G37*
X146663365Y-40941030D02*
X146663365Y-41741030D01*
X146563365Y-41741030D01*
X146563365Y-40941030D01*
X146663365Y-40941030D01*
G36*
X146863365Y-41341030D02*
G01*
X146863365Y-41441030D01*
X146763365Y-41441030D01*
X146763365Y-41341030D01*
X146863365Y-41341030D01*
G37*
X146863365Y-41341030D02*
X146863365Y-41441030D01*
X146763365Y-41441030D01*
X146763365Y-41341030D01*
X146863365Y-41341030D01*
D13*
X159258000Y-35052000D02*
X159258000Y-37592000D01*
X159258000Y-37592000D02*
X161798000Y-37592000D01*
D14*
%TO.C,D29*%
X187898481Y-127588731D02*
X189197519Y-128338731D01*
X185198481Y-132265269D02*
X187898481Y-127588731D01*
X186497519Y-133015269D02*
X185198481Y-132265269D01*
X189197519Y-128338731D02*
X186497519Y-133015269D01*
X187381013Y-130985013D02*
X186514987Y-130485013D01*
X187014987Y-129618987D02*
X186998000Y-130648410D01*
X187881013Y-130118987D02*
X187014987Y-129618987D01*
X186998000Y-130648410D02*
X187881013Y-130118987D01*
%TO.C,D28*%
X180682200Y-97122000D02*
X182182200Y-97122000D01*
X180682200Y-102522000D02*
X180682200Y-97122000D01*
X182182200Y-102522000D02*
X180682200Y-102522000D01*
X182182200Y-97122000D02*
X182182200Y-102522000D01*
X181932200Y-100322000D02*
X180932200Y-100322000D01*
X180932200Y-99322000D02*
X181432200Y-100222000D01*
X181932200Y-99322000D02*
X180932200Y-99322000D01*
X181432200Y-100222000D02*
X181932200Y-99322000D01*
%TO.C,D27*%
X180733000Y-78078000D02*
X182233000Y-78078000D01*
X180733000Y-83478000D02*
X180733000Y-78078000D01*
X182233000Y-83478000D02*
X180733000Y-83478000D01*
X182233000Y-78078000D02*
X182233000Y-83478000D01*
X181983000Y-81278000D02*
X180983000Y-81278000D01*
X180983000Y-80278000D02*
X181483000Y-81178000D01*
X181983000Y-80278000D02*
X180983000Y-80278000D01*
X181483000Y-81178000D02*
X181983000Y-80278000D01*
%TO.C,D26*%
X180733000Y-59022000D02*
X182233000Y-59022000D01*
X180733000Y-64422000D02*
X180733000Y-59022000D01*
X182233000Y-64422000D02*
X180733000Y-64422000D01*
X182233000Y-59022000D02*
X182233000Y-64422000D01*
X181983000Y-62222000D02*
X180983000Y-62222000D01*
X180983000Y-61222000D02*
X181483000Y-62122000D01*
X181983000Y-61222000D02*
X180983000Y-61222000D01*
X181483000Y-62122000D02*
X181983000Y-61222000D01*
%TO.C,D25*%
X180733000Y-39972000D02*
X182233000Y-39972000D01*
X180733000Y-45372000D02*
X180733000Y-39972000D01*
X182233000Y-45372000D02*
X180733000Y-45372000D01*
X182233000Y-39972000D02*
X182233000Y-45372000D01*
X181983000Y-43172000D02*
X180983000Y-43172000D01*
X180983000Y-42172000D02*
X181483000Y-43072000D01*
X181983000Y-42172000D02*
X180983000Y-42172000D01*
X181483000Y-43072000D02*
X181983000Y-42172000D01*
%TO.C,D24*%
X165338244Y-122432783D02*
X166815456Y-122693255D01*
X164400544Y-127750745D02*
X165338244Y-122432783D01*
X165877756Y-128011217D02*
X164400544Y-127750745D01*
X166815456Y-122693255D02*
X165877756Y-128011217D01*
X166013580Y-125801228D02*
X165028772Y-125627580D01*
X165202420Y-124642772D02*
X165538541Y-125615923D01*
X166187228Y-124816420D02*
X165202420Y-124642772D01*
X165538541Y-125615923D02*
X166187228Y-124816420D01*
%TO.C,D23*%
X161759200Y-97125000D02*
X163259200Y-97125000D01*
X161759200Y-102525000D02*
X161759200Y-97125000D01*
X163259200Y-102525000D02*
X161759200Y-102525000D01*
X163259200Y-97125000D02*
X163259200Y-102525000D01*
X163009200Y-100325000D02*
X162009200Y-100325000D01*
X162009200Y-99325000D02*
X162509200Y-100225000D01*
X163009200Y-99325000D02*
X162009200Y-99325000D01*
X162509200Y-100225000D02*
X163009200Y-99325000D01*
%TO.C,D22*%
X161759200Y-78078000D02*
X163259200Y-78078000D01*
X161759200Y-83478000D02*
X161759200Y-78078000D01*
X163259200Y-83478000D02*
X161759200Y-83478000D01*
X163259200Y-78078000D02*
X163259200Y-83478000D01*
X163009200Y-81278000D02*
X162009200Y-81278000D01*
X162009200Y-80278000D02*
X162509200Y-81178000D01*
X163009200Y-80278000D02*
X162009200Y-80278000D01*
X162509200Y-81178000D02*
X163009200Y-80278000D01*
%TO.C,D21*%
X162889500Y-59022000D02*
X164389500Y-59022000D01*
X162889500Y-64422000D02*
X162889500Y-59022000D01*
X164389500Y-64422000D02*
X162889500Y-64422000D01*
X164389500Y-59022000D02*
X164389500Y-64422000D01*
X164139500Y-62222000D02*
X163139500Y-62222000D01*
X163139500Y-61222000D02*
X163639500Y-62122000D01*
X164139500Y-61222000D02*
X163139500Y-61222000D01*
X163639500Y-62122000D02*
X164139500Y-61222000D01*
%TO.C,D20*%
X162953000Y-39972000D02*
X164453000Y-39972000D01*
X162953000Y-45372000D02*
X162953000Y-39972000D01*
X164453000Y-45372000D02*
X162953000Y-45372000D01*
X164453000Y-39972000D02*
X164453000Y-45372000D01*
X164203000Y-43172000D02*
X163203000Y-43172000D01*
X163203000Y-42172000D02*
X163703000Y-43072000D01*
X164203000Y-42172000D02*
X163203000Y-42172000D01*
X163703000Y-43072000D02*
X164203000Y-42172000D01*
%TO.C,D19*%
X140514148Y-122808115D02*
X141963037Y-122419886D01*
X141911771Y-128024114D02*
X140514148Y-122808115D01*
X143360660Y-127635885D02*
X141911771Y-128024114D01*
X141963037Y-122419886D02*
X143360660Y-127635885D01*
X142549776Y-125575553D02*
X141583851Y-125834372D01*
X141325032Y-124868447D02*
X142040932Y-125608370D01*
X142290957Y-124609628D02*
X141325032Y-124868447D01*
X142040932Y-125608370D02*
X142290957Y-124609628D01*
%TO.C,D18*%
X142506000Y-97125000D02*
X144006000Y-97125000D01*
X142506000Y-102525000D02*
X142506000Y-97125000D01*
X144006000Y-102525000D02*
X142506000Y-102525000D01*
X144006000Y-97125000D02*
X144006000Y-102525000D01*
X143756000Y-100325000D02*
X142756000Y-100325000D01*
X142756000Y-99325000D02*
X143256000Y-100225000D01*
X143756000Y-99325000D02*
X142756000Y-99325000D01*
X143256000Y-100225000D02*
X143756000Y-99325000D01*
%TO.C,D17*%
X142633000Y-78078000D02*
X144133000Y-78078000D01*
X142633000Y-83478000D02*
X142633000Y-78078000D01*
X144133000Y-83478000D02*
X142633000Y-83478000D01*
X144133000Y-78078000D02*
X144133000Y-83478000D01*
X143883000Y-81278000D02*
X142883000Y-81278000D01*
X142883000Y-80278000D02*
X143383000Y-81178000D01*
X143883000Y-80278000D02*
X142883000Y-80278000D01*
X143383000Y-81178000D02*
X143883000Y-80278000D01*
%TO.C,D16*%
X141236000Y-59085500D02*
X142736000Y-59085500D01*
X141236000Y-64485500D02*
X141236000Y-59085500D01*
X142736000Y-64485500D02*
X141236000Y-64485500D01*
X142736000Y-59085500D02*
X142736000Y-64485500D01*
X142486000Y-62285500D02*
X141486000Y-62285500D01*
X141486000Y-61285500D02*
X141986000Y-62185500D01*
X142486000Y-61285500D02*
X141486000Y-61285500D01*
X141986000Y-62185500D02*
X142486000Y-61285500D01*
%TO.C,D15*%
X141286800Y-39949600D02*
X142786800Y-39949600D01*
X141286800Y-45349600D02*
X141286800Y-39949600D01*
X142786800Y-45349600D02*
X141286800Y-45349600D01*
X142786800Y-39949600D02*
X142786800Y-45349600D01*
X142536800Y-43149600D02*
X141536800Y-43149600D01*
X141536800Y-42149600D02*
X142036800Y-43049600D01*
X142536800Y-42149600D02*
X141536800Y-42149600D01*
X142036800Y-43049600D02*
X142536800Y-42149600D01*
%TO.C,D14*%
X118067200Y-131981933D02*
X119426662Y-131348005D01*
X120349338Y-136875995D02*
X118067200Y-131981933D01*
X121708800Y-136242067D02*
X120349338Y-136875995D01*
X119426662Y-131348005D02*
X121708800Y-136242067D01*
X120552463Y-134353845D02*
X119646155Y-134776463D01*
X119223537Y-133870155D02*
X120057047Y-134474523D01*
X120129845Y-133447537D02*
X119223537Y-133870155D01*
X120057047Y-134474523D02*
X120129845Y-133447537D01*
%TO.C,D13*%
X123608400Y-97122000D02*
X125108400Y-97122000D01*
X123608400Y-102522000D02*
X123608400Y-97122000D01*
X125108400Y-102522000D02*
X123608400Y-102522000D01*
X125108400Y-97122000D02*
X125108400Y-102522000D01*
X124858400Y-100322000D02*
X123858400Y-100322000D01*
X123858400Y-99322000D02*
X124358400Y-100222000D01*
X124858400Y-99322000D02*
X123858400Y-99322000D01*
X124358400Y-100222000D02*
X124858400Y-99322000D01*
%TO.C,D12*%
X123583000Y-78078000D02*
X125083000Y-78078000D01*
X123583000Y-83478000D02*
X123583000Y-78078000D01*
X125083000Y-83478000D02*
X123583000Y-83478000D01*
X125083000Y-78078000D02*
X125083000Y-83478000D01*
X124833000Y-81278000D02*
X123833000Y-81278000D01*
X123833000Y-80278000D02*
X124333000Y-81178000D01*
X124833000Y-80278000D02*
X123833000Y-80278000D01*
X124333000Y-81178000D02*
X124833000Y-80278000D01*
%TO.C,D11*%
X123583000Y-59022000D02*
X125083000Y-59022000D01*
X123583000Y-64422000D02*
X123583000Y-59022000D01*
X125083000Y-64422000D02*
X123583000Y-64422000D01*
X125083000Y-59022000D02*
X125083000Y-64422000D01*
X124833000Y-62222000D02*
X123833000Y-62222000D01*
X123833000Y-61222000D02*
X124333000Y-62122000D01*
X124833000Y-61222000D02*
X123833000Y-61222000D01*
X124333000Y-62122000D02*
X124833000Y-61222000D01*
%TO.C,D10*%
X123557600Y-39972000D02*
X125057600Y-39972000D01*
X123557600Y-45372000D02*
X123557600Y-39972000D01*
X125057600Y-45372000D02*
X123557600Y-45372000D01*
X125057600Y-39972000D02*
X125057600Y-45372000D01*
X124807600Y-43172000D02*
X123807600Y-43172000D01*
X123807600Y-42172000D02*
X124307600Y-43072000D01*
X124807600Y-42172000D02*
X123807600Y-42172000D01*
X124307600Y-43072000D02*
X124807600Y-42172000D01*
%TO.C,D9*%
X104469500Y-97128000D02*
X105969500Y-97128000D01*
X104469500Y-102528000D02*
X104469500Y-97128000D01*
X105969500Y-102528000D02*
X104469500Y-102528000D01*
X105969500Y-97128000D02*
X105969500Y-102528000D01*
X105719500Y-100328000D02*
X104719500Y-100328000D01*
X104719500Y-99328000D02*
X105219500Y-100228000D01*
X105719500Y-99328000D02*
X104719500Y-99328000D01*
X105219500Y-100228000D02*
X105719500Y-99328000D01*
%TO.C,D8*%
X104533000Y-78078000D02*
X106033000Y-78078000D01*
X104533000Y-83478000D02*
X104533000Y-78078000D01*
X106033000Y-83478000D02*
X104533000Y-83478000D01*
X106033000Y-78078000D02*
X106033000Y-83478000D01*
X105783000Y-81278000D02*
X104783000Y-81278000D01*
X104783000Y-80278000D02*
X105283000Y-81178000D01*
X105783000Y-80278000D02*
X104783000Y-80278000D01*
X105283000Y-81178000D02*
X105783000Y-80278000D01*
%TO.C,D7*%
X104469500Y-59022000D02*
X105969500Y-59022000D01*
X104469500Y-64422000D02*
X104469500Y-59022000D01*
X105969500Y-64422000D02*
X104469500Y-64422000D01*
X105969500Y-59022000D02*
X105969500Y-64422000D01*
X105719500Y-62222000D02*
X104719500Y-62222000D01*
X104719500Y-61222000D02*
X105219500Y-62122000D01*
X105719500Y-61222000D02*
X104719500Y-61222000D01*
X105219500Y-62122000D02*
X105719500Y-61222000D01*
%TO.C,D6*%
X104507600Y-39972000D02*
X106007600Y-39972000D01*
X104507600Y-45372000D02*
X104507600Y-39972000D01*
X106007600Y-45372000D02*
X104507600Y-45372000D01*
X106007600Y-39972000D02*
X106007600Y-45372000D01*
X105757600Y-43172000D02*
X104757600Y-43172000D01*
X104757600Y-42172000D02*
X105257600Y-43072000D01*
X105757600Y-42172000D02*
X104757600Y-42172000D01*
X105257600Y-43072000D02*
X105757600Y-42172000D01*
%TO.C,D5*%
X100278500Y-133507500D02*
X101778500Y-133507500D01*
X100278500Y-138907500D02*
X100278500Y-133507500D01*
X101778500Y-138907500D02*
X100278500Y-138907500D01*
X101778500Y-133507500D02*
X101778500Y-138907500D01*
X101528500Y-136707500D02*
X100528500Y-136707500D01*
X100528500Y-135707500D02*
X101028500Y-136607500D01*
X101528500Y-135707500D02*
X100528500Y-135707500D01*
X101028500Y-136607500D02*
X101528500Y-135707500D01*
%TO.C,D4*%
X101281800Y-97122000D02*
X102781800Y-97122000D01*
X101281800Y-102522000D02*
X101281800Y-97122000D01*
X102781800Y-102522000D02*
X101281800Y-102522000D01*
X102781800Y-97122000D02*
X102781800Y-102522000D01*
X102531800Y-100322000D02*
X101531800Y-100322000D01*
X101531800Y-99322000D02*
X102031800Y-100222000D01*
X102531800Y-99322000D02*
X101531800Y-99322000D01*
X102031800Y-100222000D02*
X102531800Y-99322000D01*
%TO.C,D3*%
X101332600Y-78072000D02*
X102832600Y-78072000D01*
X101332600Y-83472000D02*
X101332600Y-78072000D01*
X102832600Y-83472000D02*
X101332600Y-83472000D01*
X102832600Y-78072000D02*
X102832600Y-83472000D01*
X102582600Y-81272000D02*
X101582600Y-81272000D01*
X101582600Y-80272000D02*
X102082600Y-81172000D01*
X102582600Y-80272000D02*
X101582600Y-80272000D01*
X102082600Y-81172000D02*
X102582600Y-80272000D01*
%TO.C,D2*%
X101358000Y-59022000D02*
X102858000Y-59022000D01*
X101358000Y-64422000D02*
X101358000Y-59022000D01*
X102858000Y-64422000D02*
X101358000Y-64422000D01*
X102858000Y-59022000D02*
X102858000Y-64422000D01*
X102608000Y-62222000D02*
X101608000Y-62222000D01*
X101608000Y-61222000D02*
X102108000Y-62122000D01*
X102608000Y-61222000D02*
X101608000Y-61222000D01*
X102108000Y-62122000D02*
X102608000Y-61222000D01*
%TO.C,D1*%
X102108000Y-43072000D02*
X102608000Y-42172000D01*
X102608000Y-42172000D02*
X101608000Y-42172000D01*
X101608000Y-42172000D02*
X102108000Y-43072000D01*
X102608000Y-43172000D02*
X101608000Y-43172000D01*
X102858000Y-39972000D02*
X102858000Y-45372000D01*
X102858000Y-45372000D02*
X101358000Y-45372000D01*
X101358000Y-45372000D02*
X101358000Y-39972000D01*
X101358000Y-39972000D02*
X102858000Y-39972000D01*
%TO.C,U1*%
X147334666Y-41705809D02*
X147448952Y-41743904D01*
X147639428Y-41743904D01*
X147715619Y-41705809D01*
X147753714Y-41667714D01*
X147791809Y-41591523D01*
X147791809Y-41515333D01*
X147753714Y-41439142D01*
X147715619Y-41401047D01*
X147639428Y-41362952D01*
X147487047Y-41324857D01*
X147410857Y-41286761D01*
X147372761Y-41248666D01*
X147334666Y-41172476D01*
X147334666Y-41096285D01*
X147372761Y-41020095D01*
X147410857Y-40982000D01*
X147487047Y-40943904D01*
X147677523Y-40943904D01*
X147791809Y-40982000D01*
X148020380Y-40943904D02*
X148477523Y-40943904D01*
X148248952Y-41743904D02*
X148248952Y-40943904D01*
X154289395Y-35883904D02*
X154746538Y-35883904D01*
X154517967Y-36683904D02*
X154517967Y-35883904D01*
X154937014Y-35883904D02*
X155470348Y-36683904D01*
X155470348Y-35883904D02*
X154937014Y-36683904D01*
X155927491Y-35883904D02*
X156003681Y-35883904D01*
X156079872Y-35922000D01*
X156117967Y-35960095D01*
X156156062Y-36036285D01*
X156194157Y-36188666D01*
X156194157Y-36379142D01*
X156156062Y-36531523D01*
X156117967Y-36607714D01*
X156079872Y-36645809D01*
X156003681Y-36683904D01*
X155927491Y-36683904D01*
X155851300Y-36645809D01*
X155813205Y-36607714D01*
X155775110Y-36531523D01*
X155737014Y-36379142D01*
X155737014Y-36188666D01*
X155775110Y-36036285D01*
X155813205Y-35960095D01*
X155851300Y-35922000D01*
X155927491Y-35883904D01*
X157108443Y-35845809D02*
X156422729Y-36874380D01*
X157375110Y-36683904D02*
X157375110Y-35883904D01*
X157565586Y-35883904D01*
X157679872Y-35922000D01*
X157756062Y-35998190D01*
X157794157Y-36074380D01*
X157832252Y-36226761D01*
X157832252Y-36341047D01*
X157794157Y-36493428D01*
X157756062Y-36569619D01*
X157679872Y-36645809D01*
X157565586Y-36683904D01*
X157375110Y-36683904D01*
X158098919Y-35883904D02*
X158594157Y-35883904D01*
X158327491Y-36188666D01*
X158441776Y-36188666D01*
X158517967Y-36226761D01*
X158556062Y-36264857D01*
X158594157Y-36341047D01*
X158594157Y-36531523D01*
X158556062Y-36607714D01*
X158517967Y-36645809D01*
X158441776Y-36683904D01*
X158213205Y-36683904D01*
X158137014Y-36645809D01*
X158098919Y-36607714D01*
X147123190Y-61664857D02*
X147237476Y-61702952D01*
X147275571Y-61741047D01*
X147313666Y-61817238D01*
X147313666Y-61931523D01*
X147275571Y-62007714D01*
X147237476Y-62045809D01*
X147161285Y-62083904D01*
X146856523Y-62083904D01*
X146856523Y-61283904D01*
X147123190Y-61283904D01*
X147199380Y-61322000D01*
X147237476Y-61360095D01*
X147275571Y-61436285D01*
X147275571Y-61512476D01*
X147237476Y-61588666D01*
X147199380Y-61626761D01*
X147123190Y-61664857D01*
X146856523Y-61664857D01*
X147618428Y-61360095D02*
X147656523Y-61322000D01*
X147732714Y-61283904D01*
X147923190Y-61283904D01*
X147999380Y-61322000D01*
X148037476Y-61360095D01*
X148075571Y-61436285D01*
X148075571Y-61512476D01*
X148037476Y-61626761D01*
X147580333Y-62083904D01*
X148075571Y-62083904D01*
X147180333Y-54044857D02*
X146913666Y-54044857D01*
X146913666Y-54463904D02*
X146913666Y-53663904D01*
X147294619Y-53663904D01*
X147523190Y-53663904D02*
X148056523Y-53663904D01*
X147713666Y-54463904D01*
X147180333Y-51504857D02*
X146913666Y-51504857D01*
X146913666Y-51923904D02*
X146913666Y-51123904D01*
X147294619Y-51123904D01*
X147942238Y-51123904D02*
X147789857Y-51123904D01*
X147713666Y-51162000D01*
X147675571Y-51200095D01*
X147599380Y-51314380D01*
X147561285Y-51466761D01*
X147561285Y-51771523D01*
X147599380Y-51847714D01*
X147637476Y-51885809D01*
X147713666Y-51923904D01*
X147866047Y-51923904D01*
X147942238Y-51885809D01*
X147980333Y-51847714D01*
X148018428Y-51771523D01*
X148018428Y-51581047D01*
X147980333Y-51504857D01*
X147942238Y-51466761D01*
X147866047Y-51428666D01*
X147713666Y-51428666D01*
X147637476Y-51466761D01*
X147599380Y-51504857D01*
X147561285Y-51581047D01*
X147180333Y-48964857D02*
X146913666Y-48964857D01*
X146913666Y-49383904D02*
X146913666Y-48583904D01*
X147294619Y-48583904D01*
X147980333Y-48583904D02*
X147599380Y-48583904D01*
X147561285Y-48964857D01*
X147599380Y-48926761D01*
X147675571Y-48888666D01*
X147866047Y-48888666D01*
X147942238Y-48926761D01*
X147980333Y-48964857D01*
X148018428Y-49041047D01*
X148018428Y-49231523D01*
X147980333Y-49307714D01*
X147942238Y-49345809D01*
X147866047Y-49383904D01*
X147675571Y-49383904D01*
X147599380Y-49345809D01*
X147561285Y-49307714D01*
X146894619Y-36683904D02*
X146627952Y-36302952D01*
X146437476Y-36683904D02*
X146437476Y-35883904D01*
X146742238Y-35883904D01*
X146818428Y-35922000D01*
X146856523Y-35960095D01*
X146894619Y-36036285D01*
X146894619Y-36150571D01*
X146856523Y-36226761D01*
X146818428Y-36264857D01*
X146742238Y-36302952D01*
X146437476Y-36302952D01*
X147199380Y-36455333D02*
X147580333Y-36455333D01*
X147123190Y-36683904D02*
X147389857Y-35883904D01*
X147656523Y-36683904D01*
X147847000Y-35883904D02*
X148037476Y-36683904D01*
X148189857Y-36112476D01*
X148342238Y-36683904D01*
X148532714Y-35883904D01*
X146837476Y-38462000D02*
X146761285Y-38423904D01*
X146647000Y-38423904D01*
X146532714Y-38462000D01*
X146456523Y-38538190D01*
X146418428Y-38614380D01*
X146380333Y-38766761D01*
X146380333Y-38881047D01*
X146418428Y-39033428D01*
X146456523Y-39109619D01*
X146532714Y-39185809D01*
X146647000Y-39223904D01*
X146723190Y-39223904D01*
X146837476Y-39185809D01*
X146875571Y-39147714D01*
X146875571Y-38881047D01*
X146723190Y-38881047D01*
X147218428Y-39223904D02*
X147218428Y-38423904D01*
X147675571Y-39223904D01*
X147675571Y-38423904D01*
X148056523Y-39223904D02*
X148056523Y-38423904D01*
X148247000Y-38423904D01*
X148361285Y-38462000D01*
X148437476Y-38538190D01*
X148475571Y-38614380D01*
X148513666Y-38766761D01*
X148513666Y-38881047D01*
X148475571Y-39033428D01*
X148437476Y-39109619D01*
X148361285Y-39185809D01*
X148247000Y-39223904D01*
X148056523Y-39223904D01*
X146380333Y-43503904D02*
X146647000Y-44303904D01*
X146913666Y-43503904D01*
X147637476Y-44227714D02*
X147599380Y-44265809D01*
X147485095Y-44303904D01*
X147408904Y-44303904D01*
X147294619Y-44265809D01*
X147218428Y-44189619D01*
X147180333Y-44113428D01*
X147142238Y-43961047D01*
X147142238Y-43846761D01*
X147180333Y-43694380D01*
X147218428Y-43618190D01*
X147294619Y-43542000D01*
X147408904Y-43503904D01*
X147485095Y-43503904D01*
X147599380Y-43542000D01*
X147637476Y-43580095D01*
X148437476Y-44227714D02*
X148399380Y-44265809D01*
X148285095Y-44303904D01*
X148208904Y-44303904D01*
X148094619Y-44265809D01*
X148018428Y-44189619D01*
X147980333Y-44113428D01*
X147942238Y-43961047D01*
X147942238Y-43846761D01*
X147980333Y-43694380D01*
X148018428Y-43618190D01*
X148094619Y-43542000D01*
X148208904Y-43503904D01*
X148285095Y-43503904D01*
X148399380Y-43542000D01*
X148437476Y-43580095D01*
X147180333Y-46424857D02*
X146913666Y-46424857D01*
X146913666Y-46843904D02*
X146913666Y-46043904D01*
X147294619Y-46043904D01*
X147942238Y-46310571D02*
X147942238Y-46843904D01*
X147751761Y-46005809D02*
X147561285Y-46577238D01*
X148056523Y-46577238D01*
X147123190Y-56584857D02*
X147237476Y-56622952D01*
X147275571Y-56661047D01*
X147313666Y-56737238D01*
X147313666Y-56851523D01*
X147275571Y-56927714D01*
X147237476Y-56965809D01*
X147161285Y-57003904D01*
X146856523Y-57003904D01*
X146856523Y-56203904D01*
X147123190Y-56203904D01*
X147199380Y-56242000D01*
X147237476Y-56280095D01*
X147275571Y-56356285D01*
X147275571Y-56432476D01*
X147237476Y-56508666D01*
X147199380Y-56546761D01*
X147123190Y-56584857D01*
X146856523Y-56584857D01*
X148075571Y-57003904D02*
X147618428Y-57003904D01*
X147847000Y-57003904D02*
X147847000Y-56203904D01*
X147770809Y-56318190D01*
X147694619Y-56394380D01*
X147618428Y-56432476D01*
X147123190Y-59124857D02*
X147237476Y-59162952D01*
X147275571Y-59201047D01*
X147313666Y-59277238D01*
X147313666Y-59391523D01*
X147275571Y-59467714D01*
X147237476Y-59505809D01*
X147161285Y-59543904D01*
X146856523Y-59543904D01*
X146856523Y-58743904D01*
X147123190Y-58743904D01*
X147199380Y-58782000D01*
X147237476Y-58820095D01*
X147275571Y-58896285D01*
X147275571Y-58972476D01*
X147237476Y-59048666D01*
X147199380Y-59086761D01*
X147123190Y-59124857D01*
X146856523Y-59124857D01*
X147580333Y-58743904D02*
X148075571Y-58743904D01*
X147808904Y-59048666D01*
X147923190Y-59048666D01*
X147999380Y-59086761D01*
X148037476Y-59124857D01*
X148075571Y-59201047D01*
X148075571Y-59391523D01*
X148037476Y-59467714D01*
X147999380Y-59505809D01*
X147923190Y-59543904D01*
X147694619Y-59543904D01*
X147618428Y-59505809D01*
X147580333Y-59467714D01*
X147123190Y-64204857D02*
X147237476Y-64242952D01*
X147275571Y-64281047D01*
X147313666Y-64357238D01*
X147313666Y-64471523D01*
X147275571Y-64547714D01*
X147237476Y-64585809D01*
X147161285Y-64623904D01*
X146856523Y-64623904D01*
X146856523Y-63823904D01*
X147123190Y-63823904D01*
X147199380Y-63862000D01*
X147237476Y-63900095D01*
X147275571Y-63976285D01*
X147275571Y-64052476D01*
X147237476Y-64128666D01*
X147199380Y-64166761D01*
X147123190Y-64204857D01*
X146856523Y-64204857D01*
X147999380Y-63823904D02*
X147847000Y-63823904D01*
X147770809Y-63862000D01*
X147732714Y-63900095D01*
X147656523Y-64014380D01*
X147618428Y-64166761D01*
X147618428Y-64471523D01*
X147656523Y-64547714D01*
X147694619Y-64585809D01*
X147770809Y-64623904D01*
X147923190Y-64623904D01*
X147999380Y-64585809D01*
X148037476Y-64547714D01*
X148075571Y-64471523D01*
X148075571Y-64281047D01*
X148037476Y-64204857D01*
X147999380Y-64166761D01*
X147923190Y-64128666D01*
X147770809Y-64128666D01*
X147694619Y-64166761D01*
X147656523Y-64204857D01*
X147618428Y-64281047D01*
X158045190Y-64204857D02*
X158159476Y-64242952D01*
X158197571Y-64281047D01*
X158235666Y-64357238D01*
X158235666Y-64471523D01*
X158197571Y-64547714D01*
X158159476Y-64585809D01*
X158083285Y-64623904D01*
X157778523Y-64623904D01*
X157778523Y-63823904D01*
X158045190Y-63823904D01*
X158121380Y-63862000D01*
X158159476Y-63900095D01*
X158197571Y-63976285D01*
X158197571Y-64052476D01*
X158159476Y-64128666D01*
X158121380Y-64166761D01*
X158045190Y-64204857D01*
X157778523Y-64204857D01*
X158959476Y-63823904D02*
X158578523Y-63823904D01*
X158540428Y-64204857D01*
X158578523Y-64166761D01*
X158654714Y-64128666D01*
X158845190Y-64128666D01*
X158921380Y-64166761D01*
X158959476Y-64204857D01*
X158997571Y-64281047D01*
X158997571Y-64471523D01*
X158959476Y-64547714D01*
X158921380Y-64585809D01*
X158845190Y-64623904D01*
X158654714Y-64623904D01*
X158578523Y-64585809D01*
X158540428Y-64547714D01*
X158045190Y-61664857D02*
X158159476Y-61702952D01*
X158197571Y-61741047D01*
X158235666Y-61817238D01*
X158235666Y-61931523D01*
X158197571Y-62007714D01*
X158159476Y-62045809D01*
X158083285Y-62083904D01*
X157778523Y-62083904D01*
X157778523Y-61283904D01*
X158045190Y-61283904D01*
X158121380Y-61322000D01*
X158159476Y-61360095D01*
X158197571Y-61436285D01*
X158197571Y-61512476D01*
X158159476Y-61588666D01*
X158121380Y-61626761D01*
X158045190Y-61664857D01*
X157778523Y-61664857D01*
X158921380Y-61550571D02*
X158921380Y-62083904D01*
X158730904Y-61245809D02*
X158540428Y-61817238D01*
X159035666Y-61817238D01*
X157816619Y-59124857D02*
X158083285Y-59124857D01*
X158197571Y-59543904D02*
X157816619Y-59543904D01*
X157816619Y-58743904D01*
X158197571Y-58743904D01*
X158883285Y-58743904D02*
X158730904Y-58743904D01*
X158654714Y-58782000D01*
X158616619Y-58820095D01*
X158540428Y-58934380D01*
X158502333Y-59086761D01*
X158502333Y-59391523D01*
X158540428Y-59467714D01*
X158578523Y-59505809D01*
X158654714Y-59543904D01*
X158807095Y-59543904D01*
X158883285Y-59505809D01*
X158921380Y-59467714D01*
X158959476Y-59391523D01*
X158959476Y-59201047D01*
X158921380Y-59124857D01*
X158883285Y-59086761D01*
X158807095Y-59048666D01*
X158654714Y-59048666D01*
X158578523Y-59086761D01*
X158540428Y-59124857D01*
X158502333Y-59201047D01*
X157778523Y-57003904D02*
X157778523Y-56203904D01*
X157969000Y-56203904D01*
X158083285Y-56242000D01*
X158159476Y-56318190D01*
X158197571Y-56394380D01*
X158235666Y-56546761D01*
X158235666Y-56661047D01*
X158197571Y-56813428D01*
X158159476Y-56889619D01*
X158083285Y-56965809D01*
X157969000Y-57003904D01*
X157778523Y-57003904D01*
X158502333Y-56203904D02*
X159035666Y-56203904D01*
X158692809Y-57003904D01*
X158235666Y-54387714D02*
X158197571Y-54425809D01*
X158083285Y-54463904D01*
X158007095Y-54463904D01*
X157892809Y-54425809D01*
X157816619Y-54349619D01*
X157778523Y-54273428D01*
X157740428Y-54121047D01*
X157740428Y-54006761D01*
X157778523Y-53854380D01*
X157816619Y-53778190D01*
X157892809Y-53702000D01*
X158007095Y-53663904D01*
X158083285Y-53663904D01*
X158197571Y-53702000D01*
X158235666Y-53740095D01*
X158921380Y-53663904D02*
X158769000Y-53663904D01*
X158692809Y-53702000D01*
X158654714Y-53740095D01*
X158578523Y-53854380D01*
X158540428Y-54006761D01*
X158540428Y-54311523D01*
X158578523Y-54387714D01*
X158616619Y-54425809D01*
X158692809Y-54463904D01*
X158845190Y-54463904D01*
X158921380Y-54425809D01*
X158959476Y-54387714D01*
X158997571Y-54311523D01*
X158997571Y-54121047D01*
X158959476Y-54044857D01*
X158921380Y-54006761D01*
X158845190Y-53968666D01*
X158692809Y-53968666D01*
X158616619Y-54006761D01*
X158578523Y-54044857D01*
X158540428Y-54121047D01*
X157778523Y-51923904D02*
X157778523Y-51123904D01*
X157969000Y-51123904D01*
X158083285Y-51162000D01*
X158159476Y-51238190D01*
X158197571Y-51314380D01*
X158235666Y-51466761D01*
X158235666Y-51581047D01*
X158197571Y-51733428D01*
X158159476Y-51809619D01*
X158083285Y-51885809D01*
X157969000Y-51923904D01*
X157778523Y-51923904D01*
X158921380Y-51390571D02*
X158921380Y-51923904D01*
X158730904Y-51085809D02*
X158540428Y-51657238D01*
X159035666Y-51657238D01*
X157759476Y-41002000D02*
X157683285Y-40963904D01*
X157569000Y-40963904D01*
X157454714Y-41002000D01*
X157378523Y-41078190D01*
X157340428Y-41154380D01*
X157302333Y-41306761D01*
X157302333Y-41421047D01*
X157340428Y-41573428D01*
X157378523Y-41649619D01*
X157454714Y-41725809D01*
X157569000Y-41763904D01*
X157645190Y-41763904D01*
X157759476Y-41725809D01*
X157797571Y-41687714D01*
X157797571Y-41421047D01*
X157645190Y-41421047D01*
X158140428Y-41763904D02*
X158140428Y-40963904D01*
X158597571Y-41763904D01*
X158597571Y-40963904D01*
X158978523Y-41763904D02*
X158978523Y-40963904D01*
X159169000Y-40963904D01*
X159283285Y-41002000D01*
X159359476Y-41078190D01*
X159397571Y-41154380D01*
X159435666Y-41306761D01*
X159435666Y-41421047D01*
X159397571Y-41573428D01*
X159359476Y-41649619D01*
X159283285Y-41725809D01*
X159169000Y-41763904D01*
X158978523Y-41763904D01*
X157759476Y-43542000D02*
X157683285Y-43503904D01*
X157569000Y-43503904D01*
X157454714Y-43542000D01*
X157378523Y-43618190D01*
X157340428Y-43694380D01*
X157302333Y-43846761D01*
X157302333Y-43961047D01*
X157340428Y-44113428D01*
X157378523Y-44189619D01*
X157454714Y-44265809D01*
X157569000Y-44303904D01*
X157645190Y-44303904D01*
X157759476Y-44265809D01*
X157797571Y-44227714D01*
X157797571Y-43961047D01*
X157645190Y-43961047D01*
X158140428Y-44303904D02*
X158140428Y-43503904D01*
X158597571Y-44303904D01*
X158597571Y-43503904D01*
X158978523Y-44303904D02*
X158978523Y-43503904D01*
X159169000Y-43503904D01*
X159283285Y-43542000D01*
X159359476Y-43618190D01*
X159397571Y-43694380D01*
X159435666Y-43846761D01*
X159435666Y-43961047D01*
X159397571Y-44113428D01*
X159359476Y-44189619D01*
X159283285Y-44265809D01*
X159169000Y-44303904D01*
X158978523Y-44303904D01*
X157778523Y-46843904D02*
X157778523Y-46043904D01*
X157969000Y-46043904D01*
X158083285Y-46082000D01*
X158159476Y-46158190D01*
X158197571Y-46234380D01*
X158235666Y-46386761D01*
X158235666Y-46501047D01*
X158197571Y-46653428D01*
X158159476Y-46729619D01*
X158083285Y-46805809D01*
X157969000Y-46843904D01*
X157778523Y-46843904D01*
X158997571Y-46843904D02*
X158540428Y-46843904D01*
X158769000Y-46843904D02*
X158769000Y-46043904D01*
X158692809Y-46158190D01*
X158616619Y-46234380D01*
X158540428Y-46272476D01*
X157778523Y-49383904D02*
X157778523Y-48583904D01*
X157969000Y-48583904D01*
X158083285Y-48622000D01*
X158159476Y-48698190D01*
X158197571Y-48774380D01*
X158235666Y-48926761D01*
X158235666Y-49041047D01*
X158197571Y-49193428D01*
X158159476Y-49269619D01*
X158083285Y-49345809D01*
X157969000Y-49383904D01*
X157778523Y-49383904D01*
X158730904Y-48583904D02*
X158807095Y-48583904D01*
X158883285Y-48622000D01*
X158921380Y-48660095D01*
X158959476Y-48736285D01*
X158997571Y-48888666D01*
X158997571Y-49079142D01*
X158959476Y-49231523D01*
X158921380Y-49307714D01*
X158883285Y-49345809D01*
X158807095Y-49383904D01*
X158730904Y-49383904D01*
X158654714Y-49345809D01*
X158616619Y-49307714D01*
X158578523Y-49231523D01*
X158540428Y-49079142D01*
X158540428Y-48888666D01*
X158578523Y-48736285D01*
X158616619Y-48660095D01*
X158654714Y-48622000D01*
X158730904Y-48583904D01*
X157778523Y-39223904D02*
X157778523Y-38423904D01*
X157969000Y-38423904D01*
X158083285Y-38462000D01*
X158159476Y-38538190D01*
X158197571Y-38614380D01*
X158235666Y-38766761D01*
X158235666Y-38881047D01*
X158197571Y-39033428D01*
X158159476Y-39109619D01*
X158083285Y-39185809D01*
X157969000Y-39223904D01*
X157778523Y-39223904D01*
X158540428Y-38500095D02*
X158578523Y-38462000D01*
X158654714Y-38423904D01*
X158845190Y-38423904D01*
X158921380Y-38462000D01*
X158959476Y-38500095D01*
X158997571Y-38576285D01*
X158997571Y-38652476D01*
X158959476Y-38766761D01*
X158502333Y-39223904D01*
X158997571Y-39223904D01*
%TD*%
%LPC*%
D15*
%TO.C,SW29*%
X196088000Y-136652000D03*
D16*
X191779916Y-133960010D03*
X200396084Y-139343990D03*
%TD*%
D15*
%TO.C,SW28*%
X191008000Y-100584000D03*
D16*
X185928000Y-100584000D03*
X196088000Y-100584000D03*
%TD*%
D15*
%TO.C,SW27*%
X191008000Y-81534000D03*
D16*
X185928000Y-81534000D03*
X196088000Y-81534000D03*
%TD*%
D15*
%TO.C,SW26*%
X191008000Y-62484000D03*
D16*
X185928000Y-62484000D03*
X196088000Y-62484000D03*
%TD*%
D15*
%TO.C,SW25*%
X191008000Y-43434000D03*
D16*
X185928000Y-43434000D03*
X196088000Y-43434000D03*
%TD*%
D15*
%TO.C,SW24*%
X175768000Y-127762000D03*
D16*
X170838898Y-126533037D03*
X180697102Y-128990963D03*
%TD*%
D15*
%TO.C,SW23*%
X171958000Y-100584000D03*
D16*
X166878000Y-100584000D03*
X177038000Y-100584000D03*
%TD*%
D15*
%TO.C,SW22*%
X171958000Y-81534000D03*
D16*
X166878000Y-81534000D03*
X177038000Y-81534000D03*
%TD*%
D15*
%TO.C,SW21*%
X171958000Y-62484000D03*
D16*
X166878000Y-62484000D03*
X177038000Y-62484000D03*
%TD*%
D15*
%TO.C,SW20*%
X171958000Y-43434000D03*
D16*
X166878000Y-43434000D03*
X177038000Y-43434000D03*
%TD*%
D15*
%TO.C,SW19*%
X154178000Y-125222000D03*
D16*
X149098000Y-125222000D03*
X159258000Y-125222000D03*
%TD*%
D15*
%TO.C,SW18*%
X152908000Y-100584000D03*
D16*
X147828000Y-100584000D03*
X157988000Y-100584000D03*
%TD*%
D15*
%TO.C,SW17*%
X152908000Y-81534000D03*
D16*
X147828000Y-81534000D03*
X157988000Y-81534000D03*
%TD*%
D15*
%TO.C,SW16*%
X152908000Y-62484000D03*
D16*
X147828000Y-62484000D03*
X157988000Y-62484000D03*
%TD*%
D15*
%TO.C,SW15*%
X152908000Y-43434000D03*
D16*
X147828000Y-43434000D03*
X157988000Y-43434000D03*
%TD*%
D15*
%TO.C,SW14*%
X131318000Y-130302000D03*
D16*
X126713956Y-132448901D03*
X135922044Y-128155099D03*
%TD*%
D15*
%TO.C,SW13*%
X133858000Y-100584000D03*
D16*
X128778000Y-100584000D03*
X138938000Y-100584000D03*
%TD*%
D15*
%TO.C,SW12*%
X133858000Y-81534000D03*
D16*
X128778000Y-81534000D03*
X138938000Y-81534000D03*
%TD*%
D15*
%TO.C,SW11*%
X133858000Y-62484000D03*
D16*
X128778000Y-62484000D03*
X138938000Y-62484000D03*
%TD*%
D15*
%TO.C,SW10*%
X133858000Y-43434000D03*
D16*
X128778000Y-43434000D03*
X138938000Y-43434000D03*
%TD*%
D15*
%TO.C,SW9*%
X114808000Y-100584000D03*
D16*
X109728000Y-100584000D03*
X119888000Y-100584000D03*
%TD*%
D15*
%TO.C,SW8*%
X114808000Y-81534000D03*
D16*
X109728000Y-81534000D03*
X119888000Y-81534000D03*
%TD*%
D15*
%TO.C,SW7*%
X114808000Y-62484000D03*
D16*
X109728000Y-62484000D03*
X119888000Y-62484000D03*
%TD*%
D15*
%TO.C,SW6*%
X114808000Y-43434000D03*
D16*
X109728000Y-43434000D03*
X119888000Y-43434000D03*
%TD*%
D15*
%TO.C,SW5*%
X90932000Y-137160000D03*
D16*
X85852000Y-137160000D03*
X96012000Y-137160000D03*
%TD*%
D15*
%TO.C,SW4*%
X93345000Y-100584000D03*
D16*
X88265000Y-100584000D03*
X98425000Y-100584000D03*
%TD*%
D15*
%TO.C,SW3*%
X93345000Y-81534000D03*
D16*
X88265000Y-81534000D03*
X98425000Y-81534000D03*
%TD*%
D15*
%TO.C,SW2*%
X93345000Y-62484000D03*
D16*
X88265000Y-62484000D03*
X98425000Y-62484000D03*
%TD*%
D15*
%TO.C,SW1*%
X90957400Y-43434000D03*
D16*
X85877400Y-43434000D03*
X96037400Y-43434000D03*
%TD*%
D17*
%TO.C,H6*%
X188722000Y-118364000D03*
%TD*%
D18*
%TO.C,U1*%
X145288000Y-36322000D03*
X160528000Y-64262000D03*
X145288000Y-38862000D03*
X145288000Y-41402000D03*
X145288000Y-43942000D03*
X145288000Y-46482000D03*
X145288000Y-49022000D03*
X145288000Y-51562000D03*
X145288000Y-54102000D03*
X145288000Y-56642000D03*
X145288000Y-59182000D03*
X145288000Y-61722000D03*
X145288000Y-64262000D03*
X160528000Y-61722000D03*
X160528000Y-59182000D03*
X160528000Y-56642000D03*
X160528000Y-54102000D03*
X160528000Y-51562000D03*
X160528000Y-49022000D03*
X160528000Y-46482000D03*
X160528000Y-43942000D03*
X160528000Y-41402000D03*
X160528000Y-38862000D03*
D19*
X160528000Y-36322000D03*
%TD*%
D20*
%TO.C,RST1*%
X126036000Y-36068000D03*
X132536000Y-36068000D03*
%TD*%
D17*
%TO.C,H5*%
X181483000Y-53086000D03*
%TD*%
%TO.C,H4*%
X103949500Y-91186000D03*
%TD*%
%TO.C,H3*%
X109435900Y-129984500D03*
%TD*%
%TO.C,H2*%
X103949500Y-53086000D03*
%TD*%
%TO.C,H1*%
X181483000Y-91186000D03*
%TD*%
D21*
%TO.C,D29*%
G36*
X188171862Y-129565222D02*
G01*
X187349138Y-129090222D01*
X187999138Y-127964388D01*
X188821862Y-128439388D01*
X188171862Y-129565222D01*
G37*
G36*
X186396862Y-132639612D02*
G01*
X185574138Y-132164612D01*
X186224138Y-131038778D01*
X187046862Y-131513778D01*
X186396862Y-132639612D01*
G37*
G36*
X185678669Y-134330559D02*
G01*
X184468831Y-133632059D01*
X185167331Y-132422221D01*
X186377169Y-133120721D01*
X185678669Y-134330559D01*
G37*
D22*
X188973000Y-127227610D03*
%TD*%
D23*
%TO.C,D28*%
X181432200Y-98047000D03*
X181432200Y-101597000D03*
D24*
X181432200Y-103372000D03*
D22*
X181432200Y-96272000D03*
%TD*%
D23*
%TO.C,D27*%
X181483000Y-79003000D03*
X181483000Y-82553000D03*
D24*
X181483000Y-84328000D03*
D22*
X181483000Y-77228000D03*
%TD*%
D23*
%TO.C,D26*%
X181483000Y-59947000D03*
X181483000Y-63497000D03*
D24*
X181483000Y-65272000D03*
D22*
X181483000Y-58172000D03*
%TD*%
D23*
%TO.C,D25*%
X181483000Y-40897000D03*
X181483000Y-44447000D03*
D24*
X181483000Y-46222000D03*
D22*
X181483000Y-39122000D03*
%TD*%
D21*
%TO.C,D24*%
G36*
X166271138Y-124196574D02*
G01*
X165335571Y-124031608D01*
X165561314Y-122751358D01*
X166496881Y-122916324D01*
X166271138Y-124196574D01*
G37*
G36*
X165654686Y-127692642D02*
G01*
X164719119Y-127527676D01*
X164944862Y-126247426D01*
X165880429Y-126412392D01*
X165654686Y-127692642D01*
G37*
G36*
X165558144Y-129527249D02*
G01*
X164182368Y-129284663D01*
X164424954Y-127908887D01*
X165800730Y-128151473D01*
X165558144Y-129527249D01*
G37*
D22*
X166224451Y-121725932D03*
%TD*%
D23*
%TO.C,D23*%
X162509200Y-98050000D03*
X162509200Y-101600000D03*
D24*
X162509200Y-103375000D03*
D22*
X162509200Y-96275000D03*
%TD*%
D23*
%TO.C,D22*%
X162509200Y-79003000D03*
X162509200Y-82553000D03*
D24*
X162509200Y-84328000D03*
D22*
X162509200Y-77228000D03*
%TD*%
D23*
%TO.C,D21*%
X163639500Y-59947000D03*
X163639500Y-63497000D03*
D24*
X163639500Y-65272000D03*
D22*
X163639500Y-58172000D03*
%TD*%
D23*
%TO.C,D20*%
X163703000Y-40897000D03*
X163703000Y-44447000D03*
D24*
X163703000Y-46222000D03*
D22*
X163703000Y-39122000D03*
%TD*%
D21*
%TO.C,D19*%
G36*
X142105047Y-124012395D02*
G01*
X141187418Y-124258273D01*
X140850953Y-123002569D01*
X141768582Y-122756691D01*
X142105047Y-124012395D01*
G37*
G36*
X143023855Y-127441431D02*
G01*
X142106226Y-127687309D01*
X141769761Y-126431605D01*
X142687390Y-126185727D01*
X143023855Y-127441431D01*
G37*
G36*
X143711696Y-129144951D02*
G01*
X142362298Y-129506521D01*
X142000728Y-128157123D01*
X143350126Y-127795553D01*
X143711696Y-129144951D01*
G37*
D22*
X141018596Y-121792963D03*
%TD*%
D23*
%TO.C,D18*%
X143256000Y-98050000D03*
X143256000Y-101600000D03*
D24*
X143256000Y-103375000D03*
D22*
X143256000Y-96275000D03*
%TD*%
D23*
%TO.C,D17*%
X143383000Y-79003000D03*
X143383000Y-82553000D03*
D24*
X143383000Y-84328000D03*
D22*
X143383000Y-77228000D03*
%TD*%
D23*
%TO.C,D16*%
X141986000Y-60010500D03*
X141986000Y-63560500D03*
D24*
X141986000Y-65335500D03*
D22*
X141986000Y-58235500D03*
%TD*%
D23*
%TO.C,D15*%
X142036800Y-40874600D03*
X142036800Y-44424600D03*
D24*
X142036800Y-46199600D03*
D22*
X142036800Y-39099600D03*
%TD*%
D21*
%TO.C,D14*%
G36*
X119843051Y-132891660D02*
G01*
X118982059Y-133293148D01*
X118432655Y-132114948D01*
X119293647Y-131713460D01*
X119843051Y-132891660D01*
G37*
G36*
X121343345Y-136109052D02*
G01*
X120482353Y-136510540D01*
X119932949Y-135332340D01*
X120793941Y-134930852D01*
X121343345Y-136109052D01*
G37*
G36*
X122316550Y-137667250D02*
G01*
X121050438Y-138257648D01*
X120460040Y-136991536D01*
X121726152Y-136401138D01*
X122316550Y-137667250D01*
G37*
D22*
X118387705Y-130894607D03*
%TD*%
D23*
%TO.C,D13*%
X124358400Y-98047000D03*
X124358400Y-101597000D03*
D24*
X124358400Y-103372000D03*
D22*
X124358400Y-96272000D03*
%TD*%
D23*
%TO.C,D12*%
X124333000Y-79003000D03*
X124333000Y-82553000D03*
D24*
X124333000Y-84328000D03*
D22*
X124333000Y-77228000D03*
%TD*%
D23*
%TO.C,D11*%
X124333000Y-59947000D03*
X124333000Y-63497000D03*
D24*
X124333000Y-65272000D03*
D22*
X124333000Y-58172000D03*
%TD*%
D23*
%TO.C,D10*%
X124307600Y-40897000D03*
X124307600Y-44447000D03*
D24*
X124307600Y-46222000D03*
D22*
X124307600Y-39122000D03*
%TD*%
D23*
%TO.C,D9*%
X105219500Y-98053000D03*
X105219500Y-101603000D03*
D24*
X105219500Y-103378000D03*
D22*
X105219500Y-96278000D03*
%TD*%
D23*
%TO.C,D8*%
X105283000Y-79003000D03*
X105283000Y-82553000D03*
D24*
X105283000Y-84328000D03*
D22*
X105283000Y-77228000D03*
%TD*%
D23*
%TO.C,D7*%
X105219500Y-59947000D03*
X105219500Y-63497000D03*
D24*
X105219500Y-65272000D03*
D22*
X105219500Y-58172000D03*
%TD*%
D23*
%TO.C,D6*%
X105257600Y-40897000D03*
X105257600Y-44447000D03*
D24*
X105257600Y-46222000D03*
D22*
X105257600Y-39122000D03*
%TD*%
D23*
%TO.C,D5*%
X101028500Y-134432500D03*
X101028500Y-137982500D03*
D24*
X101028500Y-139757500D03*
D22*
X101028500Y-132657500D03*
%TD*%
D23*
%TO.C,D4*%
X102031800Y-98047000D03*
X102031800Y-101597000D03*
D24*
X102031800Y-103372000D03*
D22*
X102031800Y-96272000D03*
%TD*%
D23*
%TO.C,D3*%
X102082600Y-78997000D03*
X102082600Y-82547000D03*
D24*
X102082600Y-84322000D03*
D22*
X102082600Y-77222000D03*
%TD*%
D23*
%TO.C,D2*%
X102108000Y-59947000D03*
X102108000Y-63497000D03*
D24*
X102108000Y-65272000D03*
D22*
X102108000Y-58172000D03*
%TD*%
%TO.C,D1*%
X102108000Y-39122000D03*
D24*
X102108000Y-46222000D03*
D23*
X102108000Y-44447000D03*
X102108000Y-40897000D03*
%TD*%
M02*
