%TF.GenerationSoftware,KiCad,Pcbnew,5.1.10-88a1d61d58~90~ubuntu20.04.1*%
%TF.CreationDate,2021-08-24T14:00:47+02:00*%
%TF.ProjectId,knuckle-pad,6b6e7563-6b6c-4652-9d70-61642e6b6963,rev?*%
%TF.SameCoordinates,Original*%
%TF.FileFunction,Profile,NP*%
%FSLAX46Y46*%
G04 Gerber Fmt 4.6, Leading zero omitted, Abs format (unit mm)*
G04 Created by KiCad (PCBNEW 5.1.10-88a1d61d58~90~ubuntu20.04.1) date 2021-08-24 14:00:47*
%MOMM*%
%LPD*%
G01*
G04 APERTURE LIST*
%TA.AperFunction,Profile*%
%ADD10C,0.050000*%
%TD*%
G04 APERTURE END LIST*
D10*
X81305400Y-35052000D02*
G75*
G02*
X82575400Y-33782000I1270000J0D01*
G01*
X82575400Y-146812000D02*
G75*
G02*
X81305400Y-145542000I0J1270000D01*
G01*
X208070894Y-135758779D02*
G75*
G03*
X207391000Y-132334000I-1949893J1392780D01*
G01*
X196981221Y-148634894D02*
G75*
G03*
X200406000Y-147955000I1392780J1949893D01*
G01*
X200660000Y-35052000D02*
X200660000Y-128143000D01*
X82575400Y-33782000D02*
X199390000Y-33782000D01*
X81305400Y-145542000D02*
X81305400Y-35052000D01*
X199390000Y-33782000D02*
G75*
G02*
X200660000Y-35052000I0J-1270000D01*
G01*
X102044500Y-143129000D02*
X116713000Y-143129000D01*
X100774500Y-145542000D02*
X100774500Y-144399000D01*
X82575400Y-146812000D02*
X99504500Y-146812000D01*
X100774500Y-144399000D02*
G75*
G02*
X102044500Y-143129000I1270000J0D01*
G01*
X100774500Y-145542000D02*
G75*
G02*
X99504500Y-146812000I-1270000J0D01*
G01*
X116713000Y-143129000D02*
X126619000Y-143129000D01*
X207391000Y-132334000D02*
X200660000Y-128143000D01*
X126619000Y-143129000D02*
X126873000Y-143002000D01*
X200406000Y-147955000D02*
X208070894Y-135758779D01*
X182753000Y-139700000D02*
X196981221Y-148634894D01*
X164211000Y-134874000D02*
X182753000Y-139700000D01*
X144399000Y-134874000D02*
X164211000Y-134874000D01*
X126873000Y-143002000D02*
X144399000Y-134874000D01*
M02*
