%TF.GenerationSoftware,KiCad,Pcbnew,5.1.10-88a1d61d58~90~ubuntu20.04.1*%
%TF.CreationDate,2021-08-22T16:14:45+02:00*%
%TF.ProjectId,knuckle-pad,6b6e7563-6b6c-4652-9d70-61642e6b6963,rev?*%
%TF.SameCoordinates,Original*%
%TF.FileFunction,Copper,L1,Top*%
%TF.FilePolarity,Positive*%
%FSLAX46Y46*%
G04 Gerber Fmt 4.6, Leading zero omitted, Abs format (unit mm)*
G04 Created by KiCad (PCBNEW 5.1.10-88a1d61d58~90~ubuntu20.04.1) date 2021-08-22 16:14:45*
%MOMM*%
%LPD*%
G01*
G04 APERTURE LIST*
%TA.AperFunction,ComponentPad*%
%ADD10C,4.000000*%
%TD*%
%TA.AperFunction,ComponentPad*%
%ADD11C,1.752600*%
%TD*%
%TA.AperFunction,ComponentPad*%
%ADD12R,1.752600X1.752600*%
%TD*%
%TA.AperFunction,ComponentPad*%
%ADD13R,1.905000X1.905000*%
%TD*%
%TA.AperFunction,ComponentPad*%
%ADD14C,1.905000*%
%TD*%
%TA.AperFunction,ComponentPad*%
%ADD15C,2.250000*%
%TD*%
%TA.AperFunction,ComponentPad*%
%ADD16C,2.000000*%
%TD*%
%TA.AperFunction,ComponentPad*%
%ADD17C,0.100000*%
%TD*%
%TA.AperFunction,SMDPad,CuDef*%
%ADD18C,0.100000*%
%TD*%
%TA.AperFunction,ComponentPad*%
%ADD19C,1.397000*%
%TD*%
%TA.AperFunction,SMDPad,CuDef*%
%ADD20R,0.950000X1.300000*%
%TD*%
%TA.AperFunction,ComponentPad*%
%ADD21R,1.397000X1.397000*%
%TD*%
%TA.AperFunction,Conductor*%
%ADD22C,0.250000*%
%TD*%
G04 APERTURE END LIST*
D10*
%TO.P,H6,*%
%TO.N,*%
X188722000Y-118364000D03*
%TD*%
D11*
%TO.P,U1,24*%
%TO.N,Net-(U1-Pad24)*%
X145288000Y-36322000D03*
%TO.P,U1,12*%
%TO.N,row4*%
X160528000Y-64262000D03*
%TO.P,U1,23*%
%TO.N,GND*%
X145288000Y-38862000D03*
%TO.P,U1,22*%
%TO.N,RST*%
X145288000Y-41402000D03*
%TO.P,U1,21*%
%TO.N,VCC*%
X145288000Y-43942000D03*
%TO.P,U1,20*%
%TO.N,Net-(U1-Pad20)*%
X145288000Y-46482000D03*
%TO.P,U1,19*%
%TO.N,col0*%
X145288000Y-49022000D03*
%TO.P,U1,18*%
%TO.N,col1*%
X145288000Y-51562000D03*
%TO.P,U1,17*%
%TO.N,col2*%
X145288000Y-54102000D03*
%TO.P,U1,16*%
%TO.N,col3*%
X145288000Y-56642000D03*
%TO.P,U1,15*%
%TO.N,Net-(U1-Pad15)*%
X145288000Y-59182000D03*
%TO.P,U1,14*%
%TO.N,Net-(U1-Pad14)*%
X145288000Y-61722000D03*
%TO.P,U1,13*%
%TO.N,Net-(U1-Pad13)*%
X145288000Y-64262000D03*
%TO.P,U1,11*%
%TO.N,row3*%
X160528000Y-61722000D03*
%TO.P,U1,10*%
%TO.N,row2*%
X160528000Y-59182000D03*
%TO.P,U1,9*%
%TO.N,row1*%
X160528000Y-56642000D03*
%TO.P,U1,8*%
%TO.N,Net-(U1-Pad8)*%
X160528000Y-54102000D03*
%TO.P,U1,7*%
%TO.N,col4*%
X160528000Y-51562000D03*
%TO.P,U1,6*%
%TO.N,col5*%
X160528000Y-49022000D03*
%TO.P,U1,5*%
%TO.N,row0*%
X160528000Y-46482000D03*
%TO.P,U1,4*%
%TO.N,GND*%
X160528000Y-43942000D03*
%TO.P,U1,3*%
X160528000Y-41402000D03*
%TO.P,U1,2*%
%TO.N,Net-(U1-Pad2)*%
X160528000Y-38862000D03*
D12*
%TO.P,U1,1*%
%TO.N,Net-(U1-Pad1)*%
X160528000Y-36322000D03*
%TD*%
D13*
%TO.P,SW1,4*%
%TO.N,N/C*%
X92227400Y-48514000D03*
D14*
%TO.P,SW1,3*%
X89687400Y-48514000D03*
D15*
%TO.P,SW1,2*%
%TO.N,col0*%
X93497400Y-38354000D03*
%TO.P,SW1,1*%
%TO.N,Net-(D1-Pad2)*%
X87147400Y-40894000D03*
%TD*%
D16*
%TO.P,RST1,1*%
%TO.N,RST*%
X126036000Y-36068000D03*
%TO.P,RST1,2*%
%TO.N,GND*%
X132536000Y-36068000D03*
%TD*%
%TA.AperFunction,ComponentPad*%
D17*
%TO.P,SW29,4*%
%TO.N,N/C*%
G36*
X193160517Y-141936100D02*
G01*
X194170013Y-140320568D01*
X195785545Y-141330064D01*
X194776049Y-142945596D01*
X193160517Y-141936100D01*
G37*
%TD.AperFunction*%
D14*
%TO.P,SW29,3*%
X192318989Y-140287087D03*
D15*
%TO.P,SW29,2*%
%TO.N,col5*%
X200934032Y-133689911D03*
%TO.P,SW29,1*%
%TO.N,Net-(D29-Pad2)*%
X194202932Y-132478965D03*
%TD*%
D13*
%TO.P,SW28,4*%
%TO.N,N/C*%
X192278000Y-105664000D03*
D14*
%TO.P,SW28,3*%
X189738000Y-105664000D03*
D15*
%TO.P,SW28,2*%
%TO.N,col5*%
X193548000Y-95504000D03*
%TO.P,SW28,1*%
%TO.N,Net-(D28-Pad2)*%
X187198000Y-98044000D03*
%TD*%
D13*
%TO.P,SW27,4*%
%TO.N,N/C*%
X192278000Y-86614000D03*
D14*
%TO.P,SW27,3*%
X189738000Y-86614000D03*
D15*
%TO.P,SW27,2*%
%TO.N,col5*%
X193548000Y-76454000D03*
%TO.P,SW27,1*%
%TO.N,Net-(D27-Pad2)*%
X187198000Y-78994000D03*
%TD*%
D13*
%TO.P,SW26,4*%
%TO.N,N/C*%
X192278000Y-67564000D03*
D14*
%TO.P,SW26,3*%
X189738000Y-67564000D03*
D15*
%TO.P,SW26,2*%
%TO.N,col5*%
X193548000Y-57404000D03*
%TO.P,SW26,1*%
%TO.N,Net-(D26-Pad2)*%
X187198000Y-59944000D03*
%TD*%
D13*
%TO.P,SW25,4*%
%TO.N,N/C*%
X192278000Y-48514000D03*
D14*
%TO.P,SW25,3*%
X189738000Y-48514000D03*
D15*
%TO.P,SW25,2*%
%TO.N,col5*%
X193548000Y-38354000D03*
%TO.P,SW25,1*%
%TO.N,Net-(D25-Pad2)*%
X187198000Y-40894000D03*
%TD*%
%TA.AperFunction,ComponentPad*%
D17*
%TO.P,SW24,4*%
%TO.N,N/C*%
G36*
X174616675Y-133692119D02*
G01*
X175077536Y-131843706D01*
X176925949Y-132304567D01*
X176465088Y-134152980D01*
X174616675Y-133692119D01*
G37*
%TD.AperFunction*%
D14*
%TO.P,SW24,3*%
X173306761Y-132383861D03*
D15*
%TO.P,SW24,2*%
%TO.N,col4*%
X179461514Y-123447379D03*
%TO.P,SW24,1*%
%TO.N,Net-(D24-Pad2)*%
X172685655Y-124375726D03*
%TD*%
D13*
%TO.P,SW23,4*%
%TO.N,N/C*%
X173228000Y-105664000D03*
D14*
%TO.P,SW23,3*%
X170688000Y-105664000D03*
D15*
%TO.P,SW23,2*%
%TO.N,col4*%
X174498000Y-95504000D03*
%TO.P,SW23,1*%
%TO.N,Net-(D23-Pad2)*%
X168148000Y-98044000D03*
%TD*%
D13*
%TO.P,SW22,4*%
%TO.N,N/C*%
X173228000Y-86614000D03*
D14*
%TO.P,SW22,3*%
X170688000Y-86614000D03*
D15*
%TO.P,SW22,2*%
%TO.N,col4*%
X174498000Y-76454000D03*
%TO.P,SW22,1*%
%TO.N,Net-(D22-Pad2)*%
X168148000Y-78994000D03*
%TD*%
D13*
%TO.P,SW21,4*%
%TO.N,N/C*%
X173228000Y-67564000D03*
D14*
%TO.P,SW21,3*%
X170688000Y-67564000D03*
D15*
%TO.P,SW21,2*%
%TO.N,col4*%
X174498000Y-57404000D03*
%TO.P,SW21,1*%
%TO.N,Net-(D21-Pad2)*%
X168148000Y-59944000D03*
%TD*%
D13*
%TO.P,SW20,4*%
%TO.N,N/C*%
X173228000Y-48514000D03*
D14*
%TO.P,SW20,3*%
X170688000Y-48514000D03*
D15*
%TO.P,SW20,2*%
%TO.N,col4*%
X174498000Y-38354000D03*
%TO.P,SW20,1*%
%TO.N,Net-(D20-Pad2)*%
X168148000Y-40894000D03*
%TD*%
D13*
%TO.P,SW19,4*%
%TO.N,N/C*%
X155448000Y-130302000D03*
D14*
%TO.P,SW19,3*%
X152908000Y-130302000D03*
D15*
%TO.P,SW19,2*%
%TO.N,col3*%
X156718000Y-120142000D03*
%TO.P,SW19,1*%
%TO.N,Net-(D19-Pad2)*%
X150368000Y-122682000D03*
%TD*%
D13*
%TO.P,SW18,4*%
%TO.N,N/C*%
X154178000Y-105664000D03*
D14*
%TO.P,SW18,3*%
X151638000Y-105664000D03*
D15*
%TO.P,SW18,2*%
%TO.N,col3*%
X155448000Y-95504000D03*
%TO.P,SW18,1*%
%TO.N,Net-(D18-Pad2)*%
X149098000Y-98044000D03*
%TD*%
D13*
%TO.P,SW17,4*%
%TO.N,N/C*%
X154178000Y-86614000D03*
D14*
%TO.P,SW17,3*%
X151638000Y-86614000D03*
D15*
%TO.P,SW17,2*%
%TO.N,col3*%
X155448000Y-76454000D03*
%TO.P,SW17,1*%
%TO.N,Net-(D17-Pad2)*%
X149098000Y-78994000D03*
%TD*%
D13*
%TO.P,SW16,4*%
%TO.N,N/C*%
X154178000Y-67564000D03*
D14*
%TO.P,SW16,3*%
X151638000Y-67564000D03*
D15*
%TO.P,SW16,2*%
%TO.N,col3*%
X155448000Y-57404000D03*
%TO.P,SW16,1*%
%TO.N,Net-(D16-Pad2)*%
X149098000Y-59944000D03*
%TD*%
D13*
%TO.P,SW15,4*%
%TO.N,N/C*%
X154178000Y-48514000D03*
D14*
%TO.P,SW15,3*%
X151638000Y-48514000D03*
D15*
%TO.P,SW15,2*%
%TO.N,col3*%
X155448000Y-38354000D03*
%TO.P,SW15,1*%
%TO.N,Net-(D15-Pad2)*%
X149098000Y-40894000D03*
%TD*%
%TA.AperFunction,ComponentPad*%
D17*
%TO.P,SW14,4*%
%TO.N,N/C*%
G36*
X134155198Y-135635120D02*
G01*
X133350110Y-133908604D01*
X135076626Y-133103516D01*
X135881714Y-134830032D01*
X134155198Y-135635120D01*
G37*
%TD.AperFunction*%
D14*
%TO.P,SW14,3*%
X132313890Y-135442769D03*
D15*
%TO.P,SW14,2*%
%TO.N,col2*%
X131473121Y-124624506D03*
%TO.P,SW14,1*%
%TO.N,Net-(D14-Pad2)*%
X126791517Y-129610154D03*
%TD*%
D13*
%TO.P,SW13,4*%
%TO.N,N/C*%
X135128000Y-105664000D03*
D14*
%TO.P,SW13,3*%
X132588000Y-105664000D03*
D15*
%TO.P,SW13,2*%
%TO.N,col2*%
X136398000Y-95504000D03*
%TO.P,SW13,1*%
%TO.N,Net-(D13-Pad2)*%
X130048000Y-98044000D03*
%TD*%
D13*
%TO.P,SW12,4*%
%TO.N,N/C*%
X135128000Y-86614000D03*
D14*
%TO.P,SW12,3*%
X132588000Y-86614000D03*
D15*
%TO.P,SW12,2*%
%TO.N,col2*%
X136398000Y-76454000D03*
%TO.P,SW12,1*%
%TO.N,Net-(D12-Pad2)*%
X130048000Y-78994000D03*
%TD*%
D13*
%TO.P,SW11,4*%
%TO.N,N/C*%
X135128000Y-67564000D03*
D14*
%TO.P,SW11,3*%
X132588000Y-67564000D03*
D15*
%TO.P,SW11,2*%
%TO.N,col2*%
X136398000Y-57404000D03*
%TO.P,SW11,1*%
%TO.N,Net-(D11-Pad2)*%
X130048000Y-59944000D03*
%TD*%
D13*
%TO.P,SW10,4*%
%TO.N,N/C*%
X135128000Y-48514000D03*
D14*
%TO.P,SW10,3*%
X132588000Y-48514000D03*
D15*
%TO.P,SW10,2*%
%TO.N,col2*%
X136398000Y-38354000D03*
%TO.P,SW10,1*%
%TO.N,Net-(D10-Pad2)*%
X130048000Y-40894000D03*
%TD*%
D13*
%TO.P,SW9,4*%
%TO.N,N/C*%
X116078000Y-105664000D03*
D14*
%TO.P,SW9,3*%
X113538000Y-105664000D03*
D15*
%TO.P,SW9,2*%
%TO.N,col1*%
X117348000Y-95504000D03*
%TO.P,SW9,1*%
%TO.N,Net-(D9-Pad2)*%
X110998000Y-98044000D03*
%TD*%
D13*
%TO.P,SW8,4*%
%TO.N,N/C*%
X116078000Y-86614000D03*
D14*
%TO.P,SW8,3*%
X113538000Y-86614000D03*
D15*
%TO.P,SW8,2*%
%TO.N,col1*%
X117348000Y-76454000D03*
%TO.P,SW8,1*%
%TO.N,Net-(D8-Pad2)*%
X110998000Y-78994000D03*
%TD*%
D13*
%TO.P,SW7,4*%
%TO.N,N/C*%
X116078000Y-67564000D03*
D14*
%TO.P,SW7,3*%
X113538000Y-67564000D03*
D15*
%TO.P,SW7,2*%
%TO.N,col1*%
X117348000Y-57404000D03*
%TO.P,SW7,1*%
%TO.N,Net-(D7-Pad2)*%
X110998000Y-59944000D03*
%TD*%
D13*
%TO.P,SW6,4*%
%TO.N,N/C*%
X116078000Y-48514000D03*
D14*
%TO.P,SW6,3*%
X113538000Y-48514000D03*
D15*
%TO.P,SW6,2*%
%TO.N,col1*%
X117348000Y-38354000D03*
%TO.P,SW6,1*%
%TO.N,Net-(D6-Pad2)*%
X110998000Y-40894000D03*
%TD*%
D13*
%TO.P,SW5,4*%
%TO.N,N/C*%
X92202000Y-142240000D03*
D14*
%TO.P,SW5,3*%
X89662000Y-142240000D03*
D15*
%TO.P,SW5,2*%
%TO.N,col0*%
X93472000Y-132080000D03*
%TO.P,SW5,1*%
%TO.N,Net-(D5-Pad2)*%
X87122000Y-134620000D03*
%TD*%
D13*
%TO.P,SW4,4*%
%TO.N,N/C*%
X94615000Y-105664000D03*
D14*
%TO.P,SW4,3*%
X92075000Y-105664000D03*
D15*
%TO.P,SW4,2*%
%TO.N,col0*%
X95885000Y-95504000D03*
%TO.P,SW4,1*%
%TO.N,Net-(D4-Pad2)*%
X89535000Y-98044000D03*
%TD*%
D13*
%TO.P,SW3,4*%
%TO.N,N/C*%
X94615000Y-86614000D03*
D14*
%TO.P,SW3,3*%
X92075000Y-86614000D03*
D15*
%TO.P,SW3,2*%
%TO.N,col0*%
X95885000Y-76454000D03*
%TO.P,SW3,1*%
%TO.N,Net-(D3-Pad2)*%
X89535000Y-78994000D03*
%TD*%
D13*
%TO.P,SW2,4*%
%TO.N,N/C*%
X94615000Y-67564000D03*
D14*
%TO.P,SW2,3*%
X92075000Y-67564000D03*
D15*
%TO.P,SW2,2*%
%TO.N,col0*%
X95885000Y-57404000D03*
%TO.P,SW2,1*%
%TO.N,Net-(D2-Pad2)*%
X89535000Y-59944000D03*
%TD*%
D10*
%TO.P,H5,*%
%TO.N,*%
X181483000Y-53086000D03*
%TD*%
%TO.P,H4,*%
%TO.N,*%
X105283000Y-91186000D03*
%TD*%
%TO.P,H3,*%
%TO.N,*%
X110744000Y-124206000D03*
%TD*%
%TO.P,H2,*%
%TO.N,*%
X105283000Y-53086000D03*
%TD*%
%TO.P,H1,*%
%TO.N,*%
X181483000Y-91186000D03*
%TD*%
%TA.AperFunction,SMDPad,CuDef*%
D18*
%TO.P,D29,2*%
%TO.N,Net-(D29-Pad2)*%
G36*
X188171862Y-129565222D02*
G01*
X187349138Y-129090222D01*
X187999138Y-127964388D01*
X188821862Y-128439388D01*
X188171862Y-129565222D01*
G37*
%TD.AperFunction*%
%TA.AperFunction,SMDPad,CuDef*%
%TO.P,D29,1*%
%TO.N,row4*%
G36*
X186396862Y-132639612D02*
G01*
X185574138Y-132164612D01*
X186224138Y-131038778D01*
X187046862Y-131513778D01*
X186396862Y-132639612D01*
G37*
%TD.AperFunction*%
%TA.AperFunction,ComponentPad*%
D17*
G36*
X185678669Y-134330559D02*
G01*
X184468831Y-133632059D01*
X185167331Y-132422221D01*
X186377169Y-133120721D01*
X185678669Y-134330559D01*
G37*
%TD.AperFunction*%
D19*
%TO.P,D29,2*%
%TO.N,Net-(D29-Pad2)*%
X188973000Y-127227610D03*
%TD*%
D20*
%TO.P,D28,2*%
%TO.N,Net-(D28-Pad2)*%
X181432200Y-98047000D03*
%TO.P,D28,1*%
%TO.N,row3*%
X181432200Y-101597000D03*
D21*
X181432200Y-103372000D03*
D19*
%TO.P,D28,2*%
%TO.N,Net-(D28-Pad2)*%
X181432200Y-96272000D03*
%TD*%
D20*
%TO.P,D27,2*%
%TO.N,Net-(D27-Pad2)*%
X181483000Y-79003000D03*
%TO.P,D27,1*%
%TO.N,row2*%
X181483000Y-82553000D03*
D21*
X181483000Y-84328000D03*
D19*
%TO.P,D27,2*%
%TO.N,Net-(D27-Pad2)*%
X181483000Y-77228000D03*
%TD*%
D20*
%TO.P,D26,2*%
%TO.N,Net-(D26-Pad2)*%
X181483000Y-59947000D03*
%TO.P,D26,1*%
%TO.N,row1*%
X181483000Y-63497000D03*
D21*
X181483000Y-65272000D03*
D19*
%TO.P,D26,2*%
%TO.N,Net-(D26-Pad2)*%
X181483000Y-58172000D03*
%TD*%
D20*
%TO.P,D25,2*%
%TO.N,Net-(D25-Pad2)*%
X181483000Y-40897000D03*
%TO.P,D25,1*%
%TO.N,row0*%
X181483000Y-44447000D03*
D21*
X181483000Y-46222000D03*
D19*
%TO.P,D25,2*%
%TO.N,Net-(D25-Pad2)*%
X181483000Y-39122000D03*
%TD*%
%TA.AperFunction,SMDPad,CuDef*%
D18*
%TO.P,D24,2*%
%TO.N,Net-(D24-Pad2)*%
G36*
X166271138Y-124196574D02*
G01*
X165335571Y-124031608D01*
X165561314Y-122751358D01*
X166496881Y-122916324D01*
X166271138Y-124196574D01*
G37*
%TD.AperFunction*%
%TA.AperFunction,SMDPad,CuDef*%
%TO.P,D24,1*%
%TO.N,row4*%
G36*
X165654686Y-127692642D02*
G01*
X164719119Y-127527676D01*
X164944862Y-126247426D01*
X165880429Y-126412392D01*
X165654686Y-127692642D01*
G37*
%TD.AperFunction*%
%TA.AperFunction,ComponentPad*%
D17*
G36*
X165558144Y-129527249D02*
G01*
X164182368Y-129284663D01*
X164424954Y-127908887D01*
X165800730Y-128151473D01*
X165558144Y-129527249D01*
G37*
%TD.AperFunction*%
D19*
%TO.P,D24,2*%
%TO.N,Net-(D24-Pad2)*%
X166224451Y-121725932D03*
%TD*%
D20*
%TO.P,D23,2*%
%TO.N,Net-(D23-Pad2)*%
X162509200Y-98050000D03*
%TO.P,D23,1*%
%TO.N,row3*%
X162509200Y-101600000D03*
D21*
X162509200Y-103375000D03*
D19*
%TO.P,D23,2*%
%TO.N,Net-(D23-Pad2)*%
X162509200Y-96275000D03*
%TD*%
D20*
%TO.P,D22,2*%
%TO.N,Net-(D22-Pad2)*%
X162509200Y-79003000D03*
%TO.P,D22,1*%
%TO.N,row2*%
X162509200Y-82553000D03*
D21*
X162509200Y-84328000D03*
D19*
%TO.P,D22,2*%
%TO.N,Net-(D22-Pad2)*%
X162509200Y-77228000D03*
%TD*%
D20*
%TO.P,D21,2*%
%TO.N,Net-(D21-Pad2)*%
X163639500Y-59947000D03*
%TO.P,D21,1*%
%TO.N,row1*%
X163639500Y-63497000D03*
D21*
X163639500Y-65272000D03*
D19*
%TO.P,D21,2*%
%TO.N,Net-(D21-Pad2)*%
X163639500Y-58172000D03*
%TD*%
D20*
%TO.P,D20,2*%
%TO.N,Net-(D20-Pad2)*%
X163703000Y-40897000D03*
%TO.P,D20,1*%
%TO.N,row0*%
X163703000Y-44447000D03*
D21*
X163703000Y-46222000D03*
D19*
%TO.P,D20,2*%
%TO.N,Net-(D20-Pad2)*%
X163703000Y-39122000D03*
%TD*%
%TA.AperFunction,SMDPad,CuDef*%
D18*
%TO.P,D19,2*%
%TO.N,Net-(D19-Pad2)*%
G36*
X142105047Y-124012395D02*
G01*
X141187418Y-124258273D01*
X140850953Y-123002569D01*
X141768582Y-122756691D01*
X142105047Y-124012395D01*
G37*
%TD.AperFunction*%
%TA.AperFunction,SMDPad,CuDef*%
%TO.P,D19,1*%
%TO.N,row4*%
G36*
X143023855Y-127441431D02*
G01*
X142106226Y-127687309D01*
X141769761Y-126431605D01*
X142687390Y-126185727D01*
X143023855Y-127441431D01*
G37*
%TD.AperFunction*%
%TA.AperFunction,ComponentPad*%
D17*
G36*
X143711696Y-129144951D02*
G01*
X142362298Y-129506521D01*
X142000728Y-128157123D01*
X143350126Y-127795553D01*
X143711696Y-129144951D01*
G37*
%TD.AperFunction*%
D19*
%TO.P,D19,2*%
%TO.N,Net-(D19-Pad2)*%
X141018596Y-121792963D03*
%TD*%
D20*
%TO.P,D18,2*%
%TO.N,Net-(D18-Pad2)*%
X143256000Y-98050000D03*
%TO.P,D18,1*%
%TO.N,row3*%
X143256000Y-101600000D03*
D21*
X143256000Y-103375000D03*
D19*
%TO.P,D18,2*%
%TO.N,Net-(D18-Pad2)*%
X143256000Y-96275000D03*
%TD*%
D20*
%TO.P,D17,2*%
%TO.N,Net-(D17-Pad2)*%
X143383000Y-79003000D03*
%TO.P,D17,1*%
%TO.N,row2*%
X143383000Y-82553000D03*
D21*
X143383000Y-84328000D03*
D19*
%TO.P,D17,2*%
%TO.N,Net-(D17-Pad2)*%
X143383000Y-77228000D03*
%TD*%
D20*
%TO.P,D16,2*%
%TO.N,Net-(D16-Pad2)*%
X141986000Y-60010500D03*
%TO.P,D16,1*%
%TO.N,row1*%
X141986000Y-63560500D03*
D21*
X141986000Y-65335500D03*
D19*
%TO.P,D16,2*%
%TO.N,Net-(D16-Pad2)*%
X141986000Y-58235500D03*
%TD*%
D20*
%TO.P,D15,2*%
%TO.N,Net-(D15-Pad2)*%
X142036800Y-40874600D03*
%TO.P,D15,1*%
%TO.N,row0*%
X142036800Y-44424600D03*
D21*
X142036800Y-46199600D03*
D19*
%TO.P,D15,2*%
%TO.N,Net-(D15-Pad2)*%
X142036800Y-39099600D03*
%TD*%
%TA.AperFunction,SMDPad,CuDef*%
D18*
%TO.P,D14,2*%
%TO.N,Net-(D14-Pad2)*%
G36*
X119843051Y-132891660D02*
G01*
X118982059Y-133293148D01*
X118432655Y-132114948D01*
X119293647Y-131713460D01*
X119843051Y-132891660D01*
G37*
%TD.AperFunction*%
%TA.AperFunction,SMDPad,CuDef*%
%TO.P,D14,1*%
%TO.N,row4*%
G36*
X121343345Y-136109052D02*
G01*
X120482353Y-136510540D01*
X119932949Y-135332340D01*
X120793941Y-134930852D01*
X121343345Y-136109052D01*
G37*
%TD.AperFunction*%
%TA.AperFunction,ComponentPad*%
D17*
G36*
X122316550Y-137667250D02*
G01*
X121050438Y-138257648D01*
X120460040Y-136991536D01*
X121726152Y-136401138D01*
X122316550Y-137667250D01*
G37*
%TD.AperFunction*%
D19*
%TO.P,D14,2*%
%TO.N,Net-(D14-Pad2)*%
X118387705Y-130894607D03*
%TD*%
D20*
%TO.P,D13,2*%
%TO.N,Net-(D13-Pad2)*%
X124358400Y-98047000D03*
%TO.P,D13,1*%
%TO.N,row3*%
X124358400Y-101597000D03*
D21*
X124358400Y-103372000D03*
D19*
%TO.P,D13,2*%
%TO.N,Net-(D13-Pad2)*%
X124358400Y-96272000D03*
%TD*%
D20*
%TO.P,D12,2*%
%TO.N,Net-(D12-Pad2)*%
X124333000Y-79003000D03*
%TO.P,D12,1*%
%TO.N,row2*%
X124333000Y-82553000D03*
D21*
X124333000Y-84328000D03*
D19*
%TO.P,D12,2*%
%TO.N,Net-(D12-Pad2)*%
X124333000Y-77228000D03*
%TD*%
D20*
%TO.P,D11,2*%
%TO.N,Net-(D11-Pad2)*%
X124333000Y-59947000D03*
%TO.P,D11,1*%
%TO.N,row1*%
X124333000Y-63497000D03*
D21*
X124333000Y-65272000D03*
D19*
%TO.P,D11,2*%
%TO.N,Net-(D11-Pad2)*%
X124333000Y-58172000D03*
%TD*%
D20*
%TO.P,D10,2*%
%TO.N,Net-(D10-Pad2)*%
X124307600Y-40897000D03*
%TO.P,D10,1*%
%TO.N,row0*%
X124307600Y-44447000D03*
D21*
X124307600Y-46222000D03*
D19*
%TO.P,D10,2*%
%TO.N,Net-(D10-Pad2)*%
X124307600Y-39122000D03*
%TD*%
D20*
%TO.P,D9,2*%
%TO.N,Net-(D9-Pad2)*%
X105219500Y-98053000D03*
%TO.P,D9,1*%
%TO.N,row3*%
X105219500Y-101603000D03*
D21*
X105219500Y-103378000D03*
D19*
%TO.P,D9,2*%
%TO.N,Net-(D9-Pad2)*%
X105219500Y-96278000D03*
%TD*%
D20*
%TO.P,D8,2*%
%TO.N,Net-(D8-Pad2)*%
X105283000Y-79003000D03*
%TO.P,D8,1*%
%TO.N,row2*%
X105283000Y-82553000D03*
D21*
X105283000Y-84328000D03*
D19*
%TO.P,D8,2*%
%TO.N,Net-(D8-Pad2)*%
X105283000Y-77228000D03*
%TD*%
D20*
%TO.P,D7,2*%
%TO.N,Net-(D7-Pad2)*%
X105219500Y-59947000D03*
%TO.P,D7,1*%
%TO.N,row1*%
X105219500Y-63497000D03*
D21*
X105219500Y-65272000D03*
D19*
%TO.P,D7,2*%
%TO.N,Net-(D7-Pad2)*%
X105219500Y-58172000D03*
%TD*%
D20*
%TO.P,D6,2*%
%TO.N,Net-(D6-Pad2)*%
X105257600Y-40897000D03*
%TO.P,D6,1*%
%TO.N,row0*%
X105257600Y-44447000D03*
D21*
X105257600Y-46222000D03*
D19*
%TO.P,D6,2*%
%TO.N,Net-(D6-Pad2)*%
X105257600Y-39122000D03*
%TD*%
D20*
%TO.P,D5,2*%
%TO.N,Net-(D5-Pad2)*%
X101028500Y-134432500D03*
%TO.P,D5,1*%
%TO.N,row4*%
X101028500Y-137982500D03*
D21*
X101028500Y-139757500D03*
D19*
%TO.P,D5,2*%
%TO.N,Net-(D5-Pad2)*%
X101028500Y-132657500D03*
%TD*%
D20*
%TO.P,D4,2*%
%TO.N,Net-(D4-Pad2)*%
X102031800Y-98047000D03*
%TO.P,D4,1*%
%TO.N,row3*%
X102031800Y-101597000D03*
D21*
X102031800Y-103372000D03*
D19*
%TO.P,D4,2*%
%TO.N,Net-(D4-Pad2)*%
X102031800Y-96272000D03*
%TD*%
D20*
%TO.P,D3,2*%
%TO.N,Net-(D3-Pad2)*%
X102082600Y-78997000D03*
%TO.P,D3,1*%
%TO.N,row2*%
X102082600Y-82547000D03*
D21*
X102082600Y-84322000D03*
D19*
%TO.P,D3,2*%
%TO.N,Net-(D3-Pad2)*%
X102082600Y-77222000D03*
%TD*%
D20*
%TO.P,D2,2*%
%TO.N,Net-(D2-Pad2)*%
X102108000Y-59947000D03*
%TO.P,D2,1*%
%TO.N,row1*%
X102108000Y-63497000D03*
D21*
X102108000Y-65272000D03*
D19*
%TO.P,D2,2*%
%TO.N,Net-(D2-Pad2)*%
X102108000Y-58172000D03*
%TD*%
%TO.P,D1,2*%
%TO.N,Net-(D1-Pad2)*%
X102108000Y-39122000D03*
D21*
%TO.P,D1,1*%
%TO.N,row0*%
X102108000Y-46222000D03*
D20*
X102108000Y-44447000D03*
%TO.P,D1,2*%
%TO.N,Net-(D1-Pad2)*%
X102108000Y-40897000D03*
%TD*%
D22*
%TO.N,row0*%
X181483000Y-44447000D02*
X181483000Y-46222000D01*
X181483000Y-46222000D02*
X163703000Y-46222000D01*
X163703000Y-46222000D02*
X163703000Y-44447000D01*
X142036800Y-46199600D02*
X142036800Y-44424600D01*
X124330000Y-46199600D02*
X124307600Y-46222000D01*
X142036800Y-46199600D02*
X124330000Y-46199600D01*
X124307600Y-46222000D02*
X124307600Y-44447000D01*
X124307600Y-46222000D02*
X105257600Y-46222000D01*
X105257600Y-46222000D02*
X105257600Y-44447000D01*
X105257600Y-46222000D02*
X102108000Y-46222000D01*
X102108000Y-46222000D02*
X102108000Y-44447000D01*
X160788000Y-46222000D02*
X160528000Y-46482000D01*
X163703000Y-46222000D02*
X160788000Y-46222000D01*
X160528000Y-46482000D02*
X147574000Y-46482000D01*
X147574000Y-46482000D02*
X146304000Y-45212000D01*
X143024400Y-45212000D02*
X142036800Y-46199600D01*
X146304000Y-45212000D02*
X143024400Y-45212000D01*
%TO.N,Net-(D1-Pad2)*%
X102108000Y-39122000D02*
X100780500Y-40449500D01*
X87591900Y-40449500D02*
X87147400Y-40894000D01*
X100780500Y-40449500D02*
X87591900Y-40449500D01*
X102108000Y-40897000D02*
X102108000Y-39122000D01*
%TO.N,row1*%
X181483000Y-63497000D02*
X181483000Y-65272000D01*
X181483000Y-65272000D02*
X163639500Y-65272000D01*
X163639500Y-65272000D02*
X163639500Y-63497000D01*
X141986000Y-65335500D02*
X141986000Y-63560500D01*
X124396500Y-65335500D02*
X124333000Y-65272000D01*
X141986000Y-65335500D02*
X124396500Y-65335500D01*
X124333000Y-65272000D02*
X124333000Y-63497000D01*
X124333000Y-65272000D02*
X105219500Y-65272000D01*
X105219500Y-65272000D02*
X105219500Y-63497000D01*
X105219500Y-65272000D02*
X102108000Y-65272000D01*
X102108000Y-65272000D02*
X102108000Y-63497000D01*
X160528000Y-56642000D02*
X155956000Y-61214000D01*
X155956000Y-61214000D02*
X155956000Y-64008000D01*
X142113801Y-65463301D02*
X141986000Y-65335500D01*
X154500699Y-65463301D02*
X142113801Y-65463301D01*
X155956000Y-64008000D02*
X154500699Y-65463301D01*
%TO.N,Net-(D2-Pad2)*%
X102108000Y-59947000D02*
X102108000Y-58172000D01*
X90043000Y-59436000D02*
X89535000Y-59944000D01*
X102108000Y-58172000D02*
X100844000Y-59436000D01*
X100844000Y-59436000D02*
X90043000Y-59436000D01*
%TO.N,row2*%
X181483000Y-82553000D02*
X181483000Y-84328000D01*
X181483000Y-84328000D02*
X162509200Y-84328000D01*
X162509200Y-84328000D02*
X162509200Y-82553000D01*
X162509200Y-84328000D02*
X143383000Y-84328000D01*
X143383000Y-84328000D02*
X143383000Y-82553000D01*
X143383000Y-84328000D02*
X124333000Y-84328000D01*
X124333000Y-84328000D02*
X124333000Y-82553000D01*
X124333000Y-84328000D02*
X105283000Y-84328000D01*
X105283000Y-84328000D02*
X105283000Y-82553000D01*
X102088600Y-84328000D02*
X102082600Y-84322000D01*
X105283000Y-84328000D02*
X102088600Y-84328000D01*
X102082600Y-84322000D02*
X102082600Y-82547000D01*
%TO.N,Net-(D3-Pad2)*%
X102082600Y-78997000D02*
X102082600Y-77222000D01*
X102082600Y-77222000D02*
X100755100Y-78549500D01*
X89979500Y-78549500D02*
X89535000Y-78994000D01*
X100755100Y-78549500D02*
X89979500Y-78549500D01*
%TO.N,row3*%
X181432200Y-103372000D02*
X181432200Y-101597000D01*
X162512200Y-103372000D02*
X162509200Y-103375000D01*
X181432200Y-103372000D02*
X162512200Y-103372000D01*
X162509200Y-103375000D02*
X162509200Y-101600000D01*
X162509200Y-103375000D02*
X143256000Y-103375000D01*
X143256000Y-103375000D02*
X143256000Y-101600000D01*
X124361400Y-103375000D02*
X124358400Y-103372000D01*
X143256000Y-103375000D02*
X124361400Y-103375000D01*
X124358400Y-103372000D02*
X124358400Y-101597000D01*
X105225500Y-103372000D02*
X105219500Y-103378000D01*
X124358400Y-103372000D02*
X105225500Y-103372000D01*
X105219500Y-103378000D02*
X105219500Y-101603000D01*
X102037800Y-103378000D02*
X102031800Y-103372000D01*
X105219500Y-103378000D02*
X102037800Y-103378000D01*
X102031800Y-103372000D02*
X102031800Y-101597000D01*
%TO.N,Net-(D4-Pad2)*%
X102031800Y-98047000D02*
X102031800Y-96272000D01*
X102031800Y-96272000D02*
X100704300Y-97599500D01*
X89979500Y-97599500D02*
X89535000Y-98044000D01*
X100704300Y-97599500D02*
X89979500Y-97599500D01*
%TO.N,row4*%
X186310500Y-132488890D02*
X185423000Y-133376390D01*
X186310500Y-131839195D02*
X186310500Y-132488890D01*
X183152970Y-131106360D02*
X177905860Y-131106360D01*
X185423000Y-133376390D02*
X183152970Y-131106360D01*
X177905860Y-131106360D02*
X177355500Y-130556000D01*
X166829481Y-130556000D02*
X164991549Y-128718068D01*
X177355500Y-130556000D02*
X166829481Y-130556000D01*
X164991549Y-128718068D02*
X161293568Y-128718068D01*
X161293568Y-128718068D02*
X160718500Y-128143000D01*
X143364249Y-128143000D02*
X142856212Y-128651037D01*
X160718500Y-128143000D02*
X143364249Y-128143000D01*
X164991549Y-127278259D02*
X165299774Y-126970034D01*
X164991549Y-128718068D02*
X164991549Y-127278259D01*
X142856212Y-127395922D02*
X142396808Y-126936518D01*
X142856212Y-128651037D02*
X142856212Y-127395922D01*
X142856212Y-128651037D02*
X142856212Y-130066788D01*
X135593607Y-137329393D02*
X121388295Y-137329393D01*
X142856212Y-130066788D02*
X135593607Y-137329393D01*
X121388295Y-136470844D02*
X120638147Y-135720696D01*
X121388295Y-137329393D02*
X121388295Y-136470844D01*
X103456607Y-137329393D02*
X101028500Y-139757500D01*
X121388295Y-137329393D02*
X103456607Y-137329393D01*
X101028500Y-139757500D02*
X101028500Y-137982500D01*
%TO.N,Net-(D5-Pad2)*%
X101028500Y-134432500D02*
X101028500Y-132657500D01*
X101028500Y-132657500D02*
X97657000Y-132657500D01*
X97657000Y-132657500D02*
X96139000Y-134175500D01*
X87566500Y-134175500D02*
X87122000Y-134620000D01*
X96139000Y-134175500D02*
X87566500Y-134175500D01*
%TO.N,Net-(D6-Pad2)*%
X105257600Y-40897000D02*
X105257600Y-39122000D01*
X109226000Y-39122000D02*
X110998000Y-40894000D01*
X105257600Y-39122000D02*
X109226000Y-39122000D01*
%TO.N,Net-(D7-Pad2)*%
X105219500Y-59947000D02*
X105219500Y-58172000D01*
X109226000Y-58172000D02*
X110998000Y-59944000D01*
X105219500Y-58172000D02*
X109226000Y-58172000D01*
%TO.N,Net-(D8-Pad2)*%
X105283000Y-79003000D02*
X105283000Y-77228000D01*
X109232000Y-77228000D02*
X110998000Y-78994000D01*
X105283000Y-77228000D02*
X109232000Y-77228000D01*
%TO.N,Net-(D9-Pad2)*%
X105219500Y-98053000D02*
X105219500Y-96278000D01*
X109232000Y-96278000D02*
X110998000Y-98044000D01*
X105219500Y-96278000D02*
X109232000Y-96278000D01*
%TO.N,Net-(D10-Pad2)*%
X124307600Y-40897000D02*
X124307600Y-39122000D01*
X128276000Y-39122000D02*
X130048000Y-40894000D01*
X124307600Y-39122000D02*
X128276000Y-39122000D01*
%TO.N,Net-(D11-Pad2)*%
X124333000Y-59947000D02*
X124333000Y-58172000D01*
X128276000Y-58172000D02*
X130048000Y-59944000D01*
X124333000Y-58172000D02*
X128276000Y-58172000D01*
%TO.N,Net-(D12-Pad2)*%
X124333000Y-79003000D02*
X124333000Y-77228000D01*
X128282000Y-77228000D02*
X130048000Y-78994000D01*
X124333000Y-77228000D02*
X128282000Y-77228000D01*
%TO.N,Net-(D13-Pad2)*%
X124358400Y-98047000D02*
X124358400Y-96272000D01*
X128276000Y-96272000D02*
X130048000Y-98044000D01*
X124358400Y-96272000D02*
X128276000Y-96272000D01*
%TO.N,Net-(D14-Pad2)*%
X119137853Y-131644755D02*
X118387705Y-130894607D01*
X119137853Y-132503304D02*
X119137853Y-131644755D01*
X125507064Y-130894607D02*
X126791517Y-129610154D01*
X118387705Y-130894607D02*
X125507064Y-130894607D01*
%TO.N,Net-(D15-Pad2)*%
X142036800Y-40874600D02*
X142036800Y-39099600D01*
X142036800Y-39099600D02*
X143069200Y-40132000D01*
X148336000Y-40132000D02*
X149098000Y-40894000D01*
X143069200Y-40132000D02*
X148336000Y-40132000D01*
%TO.N,Net-(D16-Pad2)*%
X141986000Y-60010500D02*
X141986000Y-58235500D01*
X141986000Y-58235500D02*
X142309500Y-57912000D01*
X147066000Y-57912000D02*
X149098000Y-59944000D01*
X142309500Y-57912000D02*
X147066000Y-57912000D01*
%TO.N,Net-(D17-Pad2)*%
X143383000Y-79003000D02*
X143383000Y-77228000D01*
X147332000Y-77228000D02*
X149098000Y-78994000D01*
X143383000Y-77228000D02*
X147332000Y-77228000D01*
%TO.N,Net-(D18-Pad2)*%
X143256000Y-98050000D02*
X143256000Y-96275000D01*
X147329000Y-96275000D02*
X149098000Y-98044000D01*
X143256000Y-96275000D02*
X147329000Y-96275000D01*
%TO.N,Net-(D19-Pad2)*%
X141478000Y-122252367D02*
X141018596Y-121792963D01*
X141478000Y-123507482D02*
X141478000Y-122252367D01*
X149478963Y-121792963D02*
X150368000Y-122682000D01*
X141018596Y-121792963D02*
X149478963Y-121792963D01*
%TO.N,Net-(D20-Pad2)*%
X163703000Y-40897000D02*
X163703000Y-39122000D01*
X166376000Y-39122000D02*
X168148000Y-40894000D01*
X163703000Y-39122000D02*
X166376000Y-39122000D01*
%TO.N,Net-(D21-Pad2)*%
X163639500Y-59947000D02*
X163639500Y-58172000D01*
X166376000Y-58172000D02*
X168148000Y-59944000D01*
X163639500Y-58172000D02*
X166376000Y-58172000D01*
%TO.N,Net-(D22-Pad2)*%
X162509200Y-79003000D02*
X162509200Y-77228000D01*
X166382000Y-77228000D02*
X168148000Y-78994000D01*
X162509200Y-77228000D02*
X166382000Y-77228000D01*
%TO.N,Net-(D23-Pad2)*%
X162509200Y-98050000D02*
X162509200Y-96275000D01*
X166379000Y-96275000D02*
X168148000Y-98044000D01*
X162509200Y-96275000D02*
X166379000Y-96275000D01*
%TO.N,Net-(D24-Pad2)*%
X165916226Y-122034157D02*
X166224451Y-121725932D01*
X165916226Y-123473966D02*
X165916226Y-122034157D01*
X170035861Y-121725932D02*
X172685655Y-124375726D01*
X166224451Y-121725932D02*
X170035861Y-121725932D01*
%TO.N,Net-(D25-Pad2)*%
X185426000Y-39122000D02*
X187198000Y-40894000D01*
X181483000Y-39122000D02*
X185426000Y-39122000D01*
X181483000Y-39122000D02*
X181483000Y-40897000D01*
%TO.N,Net-(D26-Pad2)*%
X185426000Y-58172000D02*
X187198000Y-59944000D01*
X181483000Y-58172000D02*
X185426000Y-58172000D01*
X181483000Y-58172000D02*
X181483000Y-59947000D01*
%TO.N,Net-(D27-Pad2)*%
X185432000Y-77228000D02*
X187198000Y-78994000D01*
X181483000Y-77228000D02*
X185432000Y-77228000D01*
X181483000Y-79003000D02*
X181483000Y-77228000D01*
%TO.N,Net-(D28-Pad2)*%
X185426000Y-96272000D02*
X187198000Y-98044000D01*
X181432200Y-96272000D02*
X185426000Y-96272000D01*
X181432200Y-98047000D02*
X181432200Y-96272000D01*
%TO.N,Net-(D29-Pad2)*%
X194202932Y-132457542D02*
X194202932Y-132478965D01*
X188973000Y-127227610D02*
X194202932Y-132457542D01*
X188973000Y-127877305D02*
X188085500Y-128764805D01*
X188973000Y-127227610D02*
X188973000Y-127877305D01*
%TO.N,col0*%
X144518499Y-49791501D02*
X145288000Y-49022000D01*
X103497499Y-49791501D02*
X144518499Y-49791501D01*
X95885000Y-57404000D02*
X103497499Y-49791501D01*
%TO.N,col1*%
X123190000Y-51562000D02*
X145288000Y-51562000D01*
X117348000Y-57404000D02*
X123190000Y-51562000D01*
%TO.N,col2*%
X139700000Y-54102000D02*
X145288000Y-54102000D01*
X136398000Y-57404000D02*
X139700000Y-54102000D01*
%TO.N,col3*%
X146050000Y-57404000D02*
X145288000Y-56642000D01*
X155448000Y-57404000D02*
X146050000Y-57404000D01*
%TO.N,col4*%
X166370000Y-57404000D02*
X160528000Y-51562000D01*
X174498000Y-57404000D02*
X166370000Y-57404000D01*
%TO.N,col5*%
X174724081Y-49898299D02*
X161404299Y-49898299D01*
X182229782Y-57404000D02*
X174724081Y-49898299D01*
X161404299Y-49898299D02*
X160528000Y-49022000D01*
X193548000Y-57404000D02*
X182229782Y-57404000D01*
%TO.N,RST*%
X126036000Y-36068000D02*
X129286000Y-36068000D01*
X129286000Y-36068000D02*
X133604000Y-40386000D01*
X144840399Y-41849601D02*
X145288000Y-41402000D01*
X141301799Y-41849601D02*
X144840399Y-41849601D01*
X139838198Y-40386000D02*
X141301799Y-41849601D01*
X133604000Y-40386000D02*
X139838198Y-40386000D01*
%TO.N,GND*%
X142494000Y-36068000D02*
X145288000Y-38862000D01*
X132536000Y-36068000D02*
X142494000Y-36068000D01*
X159766000Y-40640000D02*
X160528000Y-41402000D01*
X153545974Y-40640000D02*
X159766000Y-40640000D01*
X151767974Y-38862000D02*
X153545974Y-40640000D01*
X145288000Y-38862000D02*
X151767974Y-38862000D01*
X160528000Y-41402000D02*
X160528000Y-43942000D01*
%TD*%
M02*
