%TF.GenerationSoftware,KiCad,Pcbnew,5.1.10-88a1d61d58~90~ubuntu20.04.1*%
%TF.CreationDate,2021-08-24T14:00:47+02:00*%
%TF.ProjectId,knuckle-pad,6b6e7563-6b6c-4652-9d70-61642e6b6963,rev?*%
%TF.SameCoordinates,Original*%
%TF.FileFunction,Soldermask,Top*%
%TF.FilePolarity,Negative*%
%FSLAX46Y46*%
G04 Gerber Fmt 4.6, Leading zero omitted, Abs format (unit mm)*
G04 Created by KiCad (PCBNEW 5.1.10-88a1d61d58~90~ubuntu20.04.1) date 2021-08-24 14:00:47*
%MOMM*%
%LPD*%
G01*
G04 APERTURE LIST*
%ADD10C,3.987800*%
%ADD11C,1.750000*%
%ADD12C,4.000000*%
%ADD13C,1.752600*%
%ADD14R,1.752600X1.752600*%
%ADD15C,2.000000*%
%ADD16C,0.100000*%
%ADD17C,1.397000*%
%ADD18R,0.950000X1.300000*%
%ADD19R,1.397000X1.397000*%
G04 APERTURE END LIST*
D10*
%TO.C,SW29*%
X196088000Y-136652000D03*
D11*
X191779916Y-133960010D03*
X200396084Y-139343990D03*
%TD*%
D10*
%TO.C,SW28*%
X191008000Y-100584000D03*
D11*
X185928000Y-100584000D03*
X196088000Y-100584000D03*
%TD*%
D10*
%TO.C,SW27*%
X191008000Y-81534000D03*
D11*
X185928000Y-81534000D03*
X196088000Y-81534000D03*
%TD*%
D10*
%TO.C,SW26*%
X191008000Y-62484000D03*
D11*
X185928000Y-62484000D03*
X196088000Y-62484000D03*
%TD*%
D10*
%TO.C,SW25*%
X191008000Y-43434000D03*
D11*
X185928000Y-43434000D03*
X196088000Y-43434000D03*
%TD*%
D10*
%TO.C,SW24*%
X175768000Y-127762000D03*
D11*
X170838898Y-126533037D03*
X180697102Y-128990963D03*
%TD*%
D10*
%TO.C,SW23*%
X171958000Y-100584000D03*
D11*
X166878000Y-100584000D03*
X177038000Y-100584000D03*
%TD*%
D10*
%TO.C,SW22*%
X171958000Y-81534000D03*
D11*
X166878000Y-81534000D03*
X177038000Y-81534000D03*
%TD*%
D10*
%TO.C,SW21*%
X171958000Y-62484000D03*
D11*
X166878000Y-62484000D03*
X177038000Y-62484000D03*
%TD*%
D10*
%TO.C,SW20*%
X171958000Y-43434000D03*
D11*
X166878000Y-43434000D03*
X177038000Y-43434000D03*
%TD*%
D10*
%TO.C,SW19*%
X154178000Y-125222000D03*
D11*
X149098000Y-125222000D03*
X159258000Y-125222000D03*
%TD*%
D10*
%TO.C,SW18*%
X152908000Y-100584000D03*
D11*
X147828000Y-100584000D03*
X157988000Y-100584000D03*
%TD*%
D10*
%TO.C,SW17*%
X152908000Y-81534000D03*
D11*
X147828000Y-81534000D03*
X157988000Y-81534000D03*
%TD*%
D10*
%TO.C,SW16*%
X152908000Y-62484000D03*
D11*
X147828000Y-62484000D03*
X157988000Y-62484000D03*
%TD*%
D10*
%TO.C,SW15*%
X152908000Y-43434000D03*
D11*
X147828000Y-43434000D03*
X157988000Y-43434000D03*
%TD*%
D10*
%TO.C,SW14*%
X131318000Y-130302000D03*
D11*
X126713956Y-132448901D03*
X135922044Y-128155099D03*
%TD*%
D10*
%TO.C,SW13*%
X133858000Y-100584000D03*
D11*
X128778000Y-100584000D03*
X138938000Y-100584000D03*
%TD*%
D10*
%TO.C,SW12*%
X133858000Y-81534000D03*
D11*
X128778000Y-81534000D03*
X138938000Y-81534000D03*
%TD*%
D10*
%TO.C,SW11*%
X133858000Y-62484000D03*
D11*
X128778000Y-62484000D03*
X138938000Y-62484000D03*
%TD*%
D10*
%TO.C,SW10*%
X133858000Y-43434000D03*
D11*
X128778000Y-43434000D03*
X138938000Y-43434000D03*
%TD*%
D10*
%TO.C,SW9*%
X114808000Y-100584000D03*
D11*
X109728000Y-100584000D03*
X119888000Y-100584000D03*
%TD*%
D10*
%TO.C,SW8*%
X114808000Y-81534000D03*
D11*
X109728000Y-81534000D03*
X119888000Y-81534000D03*
%TD*%
D10*
%TO.C,SW7*%
X114808000Y-62484000D03*
D11*
X109728000Y-62484000D03*
X119888000Y-62484000D03*
%TD*%
D10*
%TO.C,SW6*%
X114808000Y-43434000D03*
D11*
X109728000Y-43434000D03*
X119888000Y-43434000D03*
%TD*%
D10*
%TO.C,SW5*%
X90932000Y-137160000D03*
D11*
X85852000Y-137160000D03*
X96012000Y-137160000D03*
%TD*%
D10*
%TO.C,SW4*%
X93345000Y-100584000D03*
D11*
X88265000Y-100584000D03*
X98425000Y-100584000D03*
%TD*%
D10*
%TO.C,SW3*%
X93345000Y-81534000D03*
D11*
X88265000Y-81534000D03*
X98425000Y-81534000D03*
%TD*%
D10*
%TO.C,SW2*%
X93345000Y-62484000D03*
D11*
X88265000Y-62484000D03*
X98425000Y-62484000D03*
%TD*%
D10*
%TO.C,SW1*%
X90957400Y-43434000D03*
D11*
X85877400Y-43434000D03*
X96037400Y-43434000D03*
%TD*%
D12*
%TO.C,H6*%
X188722000Y-118364000D03*
%TD*%
D13*
%TO.C,U1*%
X145288000Y-36322000D03*
X160528000Y-64262000D03*
X145288000Y-38862000D03*
X145288000Y-41402000D03*
X145288000Y-43942000D03*
X145288000Y-46482000D03*
X145288000Y-49022000D03*
X145288000Y-51562000D03*
X145288000Y-54102000D03*
X145288000Y-56642000D03*
X145288000Y-59182000D03*
X145288000Y-61722000D03*
X145288000Y-64262000D03*
X160528000Y-61722000D03*
X160528000Y-59182000D03*
X160528000Y-56642000D03*
X160528000Y-54102000D03*
X160528000Y-51562000D03*
X160528000Y-49022000D03*
X160528000Y-46482000D03*
X160528000Y-43942000D03*
X160528000Y-41402000D03*
X160528000Y-38862000D03*
D14*
X160528000Y-36322000D03*
%TD*%
D15*
%TO.C,RST1*%
X126036000Y-36068000D03*
X132536000Y-36068000D03*
%TD*%
D12*
%TO.C,H5*%
X181483000Y-53086000D03*
%TD*%
%TO.C,H4*%
X103949500Y-91186000D03*
%TD*%
%TO.C,H3*%
X109435900Y-129984500D03*
%TD*%
%TO.C,H2*%
X103949500Y-53086000D03*
%TD*%
%TO.C,H1*%
X181483000Y-91186000D03*
%TD*%
D16*
%TO.C,D29*%
G36*
X188171862Y-129565222D02*
G01*
X187349138Y-129090222D01*
X187999138Y-127964388D01*
X188821862Y-128439388D01*
X188171862Y-129565222D01*
G37*
G36*
X186396862Y-132639612D02*
G01*
X185574138Y-132164612D01*
X186224138Y-131038778D01*
X187046862Y-131513778D01*
X186396862Y-132639612D01*
G37*
G36*
X185678669Y-134330559D02*
G01*
X184468831Y-133632059D01*
X185167331Y-132422221D01*
X186377169Y-133120721D01*
X185678669Y-134330559D01*
G37*
D17*
X188973000Y-127227610D03*
%TD*%
D18*
%TO.C,D28*%
X181432200Y-98047000D03*
X181432200Y-101597000D03*
D19*
X181432200Y-103372000D03*
D17*
X181432200Y-96272000D03*
%TD*%
D18*
%TO.C,D27*%
X181483000Y-79003000D03*
X181483000Y-82553000D03*
D19*
X181483000Y-84328000D03*
D17*
X181483000Y-77228000D03*
%TD*%
D18*
%TO.C,D26*%
X181483000Y-59947000D03*
X181483000Y-63497000D03*
D19*
X181483000Y-65272000D03*
D17*
X181483000Y-58172000D03*
%TD*%
D18*
%TO.C,D25*%
X181483000Y-40897000D03*
X181483000Y-44447000D03*
D19*
X181483000Y-46222000D03*
D17*
X181483000Y-39122000D03*
%TD*%
D16*
%TO.C,D24*%
G36*
X166271138Y-124196574D02*
G01*
X165335571Y-124031608D01*
X165561314Y-122751358D01*
X166496881Y-122916324D01*
X166271138Y-124196574D01*
G37*
G36*
X165654686Y-127692642D02*
G01*
X164719119Y-127527676D01*
X164944862Y-126247426D01*
X165880429Y-126412392D01*
X165654686Y-127692642D01*
G37*
G36*
X165558144Y-129527249D02*
G01*
X164182368Y-129284663D01*
X164424954Y-127908887D01*
X165800730Y-128151473D01*
X165558144Y-129527249D01*
G37*
D17*
X166224451Y-121725932D03*
%TD*%
D18*
%TO.C,D23*%
X162509200Y-98050000D03*
X162509200Y-101600000D03*
D19*
X162509200Y-103375000D03*
D17*
X162509200Y-96275000D03*
%TD*%
D18*
%TO.C,D22*%
X162509200Y-79003000D03*
X162509200Y-82553000D03*
D19*
X162509200Y-84328000D03*
D17*
X162509200Y-77228000D03*
%TD*%
D18*
%TO.C,D21*%
X163639500Y-59947000D03*
X163639500Y-63497000D03*
D19*
X163639500Y-65272000D03*
D17*
X163639500Y-58172000D03*
%TD*%
D18*
%TO.C,D20*%
X163703000Y-40897000D03*
X163703000Y-44447000D03*
D19*
X163703000Y-46222000D03*
D17*
X163703000Y-39122000D03*
%TD*%
D16*
%TO.C,D19*%
G36*
X142105047Y-124012395D02*
G01*
X141187418Y-124258273D01*
X140850953Y-123002569D01*
X141768582Y-122756691D01*
X142105047Y-124012395D01*
G37*
G36*
X143023855Y-127441431D02*
G01*
X142106226Y-127687309D01*
X141769761Y-126431605D01*
X142687390Y-126185727D01*
X143023855Y-127441431D01*
G37*
G36*
X143711696Y-129144951D02*
G01*
X142362298Y-129506521D01*
X142000728Y-128157123D01*
X143350126Y-127795553D01*
X143711696Y-129144951D01*
G37*
D17*
X141018596Y-121792963D03*
%TD*%
D18*
%TO.C,D18*%
X143256000Y-98050000D03*
X143256000Y-101600000D03*
D19*
X143256000Y-103375000D03*
D17*
X143256000Y-96275000D03*
%TD*%
D18*
%TO.C,D17*%
X143383000Y-79003000D03*
X143383000Y-82553000D03*
D19*
X143383000Y-84328000D03*
D17*
X143383000Y-77228000D03*
%TD*%
D18*
%TO.C,D16*%
X141986000Y-60010500D03*
X141986000Y-63560500D03*
D19*
X141986000Y-65335500D03*
D17*
X141986000Y-58235500D03*
%TD*%
D18*
%TO.C,D15*%
X142036800Y-40874600D03*
X142036800Y-44424600D03*
D19*
X142036800Y-46199600D03*
D17*
X142036800Y-39099600D03*
%TD*%
D16*
%TO.C,D14*%
G36*
X119843051Y-132891660D02*
G01*
X118982059Y-133293148D01*
X118432655Y-132114948D01*
X119293647Y-131713460D01*
X119843051Y-132891660D01*
G37*
G36*
X121343345Y-136109052D02*
G01*
X120482353Y-136510540D01*
X119932949Y-135332340D01*
X120793941Y-134930852D01*
X121343345Y-136109052D01*
G37*
G36*
X122316550Y-137667250D02*
G01*
X121050438Y-138257648D01*
X120460040Y-136991536D01*
X121726152Y-136401138D01*
X122316550Y-137667250D01*
G37*
D17*
X118387705Y-130894607D03*
%TD*%
D18*
%TO.C,D13*%
X124358400Y-98047000D03*
X124358400Y-101597000D03*
D19*
X124358400Y-103372000D03*
D17*
X124358400Y-96272000D03*
%TD*%
D18*
%TO.C,D12*%
X124333000Y-79003000D03*
X124333000Y-82553000D03*
D19*
X124333000Y-84328000D03*
D17*
X124333000Y-77228000D03*
%TD*%
D18*
%TO.C,D11*%
X124333000Y-59947000D03*
X124333000Y-63497000D03*
D19*
X124333000Y-65272000D03*
D17*
X124333000Y-58172000D03*
%TD*%
D18*
%TO.C,D10*%
X124307600Y-40897000D03*
X124307600Y-44447000D03*
D19*
X124307600Y-46222000D03*
D17*
X124307600Y-39122000D03*
%TD*%
D18*
%TO.C,D9*%
X105219500Y-98053000D03*
X105219500Y-101603000D03*
D19*
X105219500Y-103378000D03*
D17*
X105219500Y-96278000D03*
%TD*%
D18*
%TO.C,D8*%
X105283000Y-79003000D03*
X105283000Y-82553000D03*
D19*
X105283000Y-84328000D03*
D17*
X105283000Y-77228000D03*
%TD*%
D18*
%TO.C,D7*%
X105219500Y-59947000D03*
X105219500Y-63497000D03*
D19*
X105219500Y-65272000D03*
D17*
X105219500Y-58172000D03*
%TD*%
D18*
%TO.C,D6*%
X105257600Y-40897000D03*
X105257600Y-44447000D03*
D19*
X105257600Y-46222000D03*
D17*
X105257600Y-39122000D03*
%TD*%
D18*
%TO.C,D5*%
X101028500Y-134432500D03*
X101028500Y-137982500D03*
D19*
X101028500Y-139757500D03*
D17*
X101028500Y-132657500D03*
%TD*%
D18*
%TO.C,D4*%
X102031800Y-98047000D03*
X102031800Y-101597000D03*
D19*
X102031800Y-103372000D03*
D17*
X102031800Y-96272000D03*
%TD*%
D18*
%TO.C,D3*%
X102082600Y-78997000D03*
X102082600Y-82547000D03*
D19*
X102082600Y-84322000D03*
D17*
X102082600Y-77222000D03*
%TD*%
D18*
%TO.C,D2*%
X102108000Y-59947000D03*
X102108000Y-63497000D03*
D19*
X102108000Y-65272000D03*
D17*
X102108000Y-58172000D03*
%TD*%
%TO.C,D1*%
X102108000Y-39122000D03*
D19*
X102108000Y-46222000D03*
D18*
X102108000Y-44447000D03*
X102108000Y-40897000D03*
%TD*%
M02*
