M48
; DRILL file {KiCad 5.1.10-88a1d61d58~90~ubuntu20.04.1} date Sun Aug 22 16:14:47 2021
; FORMAT={-:-/ absolute / inch / decimal}
; #@! TF.CreationDate,2021-08-22T16:14:47+02:00
; #@! TF.GenerationSoftware,Kicad,Pcbnew,5.1.10-88a1d61d58~90~ubuntu20.04.1
; #@! TF.FileFunction,NonPlated,1,2,NPTH
FMAT,2
INCH
T1C0.0689
T2C0.1570
%
G90
G05
T1
X3.38Y-5.4
X3.381Y-1.71
X3.475Y-2.46
X3.475Y-3.21
X3.475Y-3.96
X3.78Y-5.4
X3.781Y-1.71
X3.875Y-2.46
X3.875Y-3.21
X3.875Y-3.96
X4.32Y-1.71
X4.32Y-2.46
X4.32Y-3.21
X4.32Y-3.96
X4.72Y-1.71
X4.72Y-2.46
X4.72Y-3.21
X4.72Y-3.96
X4.9887Y-5.2145
X5.07Y-1.71
X5.07Y-2.46
X5.07Y-3.21
X5.07Y-3.96
X5.3513Y-5.0455
X5.47Y-1.71
X5.47Y-2.46
X5.47Y-3.21
X5.47Y-3.96
X5.82Y-1.71
X5.82Y-2.46
X5.82Y-3.21
X5.82Y-3.96
X5.87Y-4.93
X6.22Y-1.71
X6.22Y-2.46
X6.22Y-3.21
X6.22Y-3.96
X6.27Y-4.93
X6.57Y-1.71
X6.57Y-2.46
X6.57Y-3.21
X6.57Y-3.96
X6.7259Y-4.9816
X6.97Y-1.71
X6.97Y-2.46
X6.97Y-3.21
X6.97Y-3.96
X7.1141Y-5.0784
X7.32Y-1.71
X7.32Y-2.46
X7.32Y-3.21
X7.32Y-3.96
X7.5504Y-5.274
X7.72Y-1.71
X7.72Y-2.46
X7.72Y-3.21
X7.72Y-3.96
X7.8896Y-5.486
T2
X3.58Y-5.4
X3.581Y-1.71
X3.675Y-2.46
X3.675Y-3.21
X3.675Y-3.96
X4.52Y-1.71
X4.52Y-2.46
X4.52Y-3.21
X4.52Y-3.96
X5.17Y-5.13
X5.27Y-1.71
X5.27Y-2.46
X5.27Y-3.21
X5.27Y-3.96
X6.02Y-1.71
X6.02Y-2.46
X6.02Y-3.21
X6.02Y-3.96
X6.07Y-4.93
X6.77Y-1.71
X6.77Y-2.46
X6.77Y-3.21
X6.77Y-3.96
X6.92Y-5.03
X7.52Y-1.71
X7.52Y-2.46
X7.52Y-3.21
X7.52Y-3.96
X7.72Y-5.38
T0
M30
