%TF.GenerationSoftware,KiCad,Pcbnew,5.1.10-88a1d61d58~90~ubuntu20.04.1*%
%TF.CreationDate,2021-08-24T14:00:47+02:00*%
%TF.ProjectId,knuckle-pad,6b6e7563-6b6c-4652-9d70-61642e6b6963,rev?*%
%TF.SameCoordinates,Original*%
%TF.FileFunction,Legend,Bot*%
%TF.FilePolarity,Positive*%
%FSLAX46Y46*%
G04 Gerber Fmt 4.6, Leading zero omitted, Abs format (unit mm)*
G04 Created by KiCad (PCBNEW 5.1.10-88a1d61d58~90~ubuntu20.04.1) date 2021-08-24 14:00:47*
%MOMM*%
%LPD*%
G01*
G04 APERTURE LIST*
%ADD10C,0.381000*%
%ADD11C,0.150000*%
%ADD12C,2.250000*%
%ADD13C,3.987800*%
%ADD14C,1.750000*%
%ADD15C,4.000000*%
%ADD16C,1.752600*%
%ADD17R,1.752600X1.752600*%
%ADD18C,2.000000*%
%ADD19C,0.100000*%
%ADD20C,1.397000*%
%ADD21R,0.950000X1.300000*%
%ADD22R,1.397000X1.397000*%
G04 APERTURE END LIST*
D10*
%TO.C,U1*%
X159258000Y-35052000D02*
X161798000Y-35052000D01*
X161798000Y-32512000D02*
X161798000Y-35052000D01*
X144018000Y-32512000D02*
X161798000Y-32512000D01*
X144018000Y-35052000D02*
X144018000Y-32512000D01*
D11*
G36*
X147976432Y-41531360D02*
G01*
X147976432Y-41731360D01*
X148076432Y-41731360D01*
X148076432Y-41531360D01*
X147976432Y-41531360D01*
G37*
X147976432Y-41531360D02*
X147976432Y-41731360D01*
X148076432Y-41731360D01*
X148076432Y-41531360D01*
X147976432Y-41531360D01*
G36*
X148376432Y-40931360D02*
G01*
X148376432Y-41731360D01*
X148476432Y-41731360D01*
X148476432Y-40931360D01*
X148376432Y-40931360D01*
G37*
X148376432Y-40931360D02*
X148376432Y-41731360D01*
X148476432Y-41731360D01*
X148476432Y-40931360D01*
X148376432Y-40931360D01*
G36*
X147976432Y-40931360D02*
G01*
X147976432Y-41031360D01*
X148476432Y-41031360D01*
X148476432Y-40931360D01*
X147976432Y-40931360D01*
G37*
X147976432Y-40931360D02*
X147976432Y-41031360D01*
X148476432Y-41031360D01*
X148476432Y-40931360D01*
X147976432Y-40931360D01*
G36*
X148176432Y-41331360D02*
G01*
X148176432Y-41431360D01*
X148276432Y-41431360D01*
X148276432Y-41331360D01*
X148176432Y-41331360D01*
G37*
X148176432Y-41331360D02*
X148176432Y-41431360D01*
X148276432Y-41431360D01*
X148276432Y-41331360D01*
X148176432Y-41331360D01*
G36*
X147976432Y-40931360D02*
G01*
X147976432Y-41231360D01*
X148076432Y-41231360D01*
X148076432Y-40931360D01*
X147976432Y-40931360D01*
G37*
X147976432Y-40931360D02*
X147976432Y-41231360D01*
X148076432Y-41231360D01*
X148076432Y-40931360D01*
X147976432Y-40931360D01*
D10*
X159258000Y-37592000D02*
X161798000Y-37592000D01*
X159258000Y-35052000D02*
X159258000Y-37592000D01*
X144018000Y-65532000D02*
X144018000Y-35052000D01*
X161798000Y-65532000D02*
X144018000Y-65532000D01*
X161798000Y-35052000D02*
X161798000Y-65532000D01*
D11*
%TO.C,D29*%
X187898481Y-127588731D02*
X189197519Y-128338731D01*
X185198481Y-132265269D02*
X187898481Y-127588731D01*
X186497519Y-133015269D02*
X185198481Y-132265269D01*
X189197519Y-128338731D02*
X186497519Y-133015269D01*
X187381013Y-130985013D02*
X186514987Y-130485013D01*
X187014987Y-129618987D02*
X186998000Y-130648410D01*
X187881013Y-130118987D02*
X187014987Y-129618987D01*
X186998000Y-130648410D02*
X187881013Y-130118987D01*
%TO.C,D28*%
X180682200Y-97122000D02*
X182182200Y-97122000D01*
X180682200Y-102522000D02*
X180682200Y-97122000D01*
X182182200Y-102522000D02*
X180682200Y-102522000D01*
X182182200Y-97122000D02*
X182182200Y-102522000D01*
X181932200Y-100322000D02*
X180932200Y-100322000D01*
X180932200Y-99322000D02*
X181432200Y-100222000D01*
X181932200Y-99322000D02*
X180932200Y-99322000D01*
X181432200Y-100222000D02*
X181932200Y-99322000D01*
%TO.C,D27*%
X180733000Y-78078000D02*
X182233000Y-78078000D01*
X180733000Y-83478000D02*
X180733000Y-78078000D01*
X182233000Y-83478000D02*
X180733000Y-83478000D01*
X182233000Y-78078000D02*
X182233000Y-83478000D01*
X181983000Y-81278000D02*
X180983000Y-81278000D01*
X180983000Y-80278000D02*
X181483000Y-81178000D01*
X181983000Y-80278000D02*
X180983000Y-80278000D01*
X181483000Y-81178000D02*
X181983000Y-80278000D01*
%TO.C,D26*%
X180733000Y-59022000D02*
X182233000Y-59022000D01*
X180733000Y-64422000D02*
X180733000Y-59022000D01*
X182233000Y-64422000D02*
X180733000Y-64422000D01*
X182233000Y-59022000D02*
X182233000Y-64422000D01*
X181983000Y-62222000D02*
X180983000Y-62222000D01*
X180983000Y-61222000D02*
X181483000Y-62122000D01*
X181983000Y-61222000D02*
X180983000Y-61222000D01*
X181483000Y-62122000D02*
X181983000Y-61222000D01*
%TO.C,D25*%
X180733000Y-39972000D02*
X182233000Y-39972000D01*
X180733000Y-45372000D02*
X180733000Y-39972000D01*
X182233000Y-45372000D02*
X180733000Y-45372000D01*
X182233000Y-39972000D02*
X182233000Y-45372000D01*
X181983000Y-43172000D02*
X180983000Y-43172000D01*
X180983000Y-42172000D02*
X181483000Y-43072000D01*
X181983000Y-42172000D02*
X180983000Y-42172000D01*
X181483000Y-43072000D02*
X181983000Y-42172000D01*
%TO.C,D24*%
X165338244Y-122432783D02*
X166815456Y-122693255D01*
X164400544Y-127750745D02*
X165338244Y-122432783D01*
X165877756Y-128011217D02*
X164400544Y-127750745D01*
X166815456Y-122693255D02*
X165877756Y-128011217D01*
X166013580Y-125801228D02*
X165028772Y-125627580D01*
X165202420Y-124642772D02*
X165538541Y-125615923D01*
X166187228Y-124816420D02*
X165202420Y-124642772D01*
X165538541Y-125615923D02*
X166187228Y-124816420D01*
%TO.C,D23*%
X161759200Y-97125000D02*
X163259200Y-97125000D01*
X161759200Y-102525000D02*
X161759200Y-97125000D01*
X163259200Y-102525000D02*
X161759200Y-102525000D01*
X163259200Y-97125000D02*
X163259200Y-102525000D01*
X163009200Y-100325000D02*
X162009200Y-100325000D01*
X162009200Y-99325000D02*
X162509200Y-100225000D01*
X163009200Y-99325000D02*
X162009200Y-99325000D01*
X162509200Y-100225000D02*
X163009200Y-99325000D01*
%TO.C,D22*%
X161759200Y-78078000D02*
X163259200Y-78078000D01*
X161759200Y-83478000D02*
X161759200Y-78078000D01*
X163259200Y-83478000D02*
X161759200Y-83478000D01*
X163259200Y-78078000D02*
X163259200Y-83478000D01*
X163009200Y-81278000D02*
X162009200Y-81278000D01*
X162009200Y-80278000D02*
X162509200Y-81178000D01*
X163009200Y-80278000D02*
X162009200Y-80278000D01*
X162509200Y-81178000D02*
X163009200Y-80278000D01*
%TO.C,D21*%
X162889500Y-59022000D02*
X164389500Y-59022000D01*
X162889500Y-64422000D02*
X162889500Y-59022000D01*
X164389500Y-64422000D02*
X162889500Y-64422000D01*
X164389500Y-59022000D02*
X164389500Y-64422000D01*
X164139500Y-62222000D02*
X163139500Y-62222000D01*
X163139500Y-61222000D02*
X163639500Y-62122000D01*
X164139500Y-61222000D02*
X163139500Y-61222000D01*
X163639500Y-62122000D02*
X164139500Y-61222000D01*
%TO.C,D20*%
X162953000Y-39972000D02*
X164453000Y-39972000D01*
X162953000Y-45372000D02*
X162953000Y-39972000D01*
X164453000Y-45372000D02*
X162953000Y-45372000D01*
X164453000Y-39972000D02*
X164453000Y-45372000D01*
X164203000Y-43172000D02*
X163203000Y-43172000D01*
X163203000Y-42172000D02*
X163703000Y-43072000D01*
X164203000Y-42172000D02*
X163203000Y-42172000D01*
X163703000Y-43072000D02*
X164203000Y-42172000D01*
%TO.C,D19*%
X140514148Y-122808115D02*
X141963037Y-122419886D01*
X141911771Y-128024114D02*
X140514148Y-122808115D01*
X143360660Y-127635885D02*
X141911771Y-128024114D01*
X141963037Y-122419886D02*
X143360660Y-127635885D01*
X142549776Y-125575553D02*
X141583851Y-125834372D01*
X141325032Y-124868447D02*
X142040932Y-125608370D01*
X142290957Y-124609628D02*
X141325032Y-124868447D01*
X142040932Y-125608370D02*
X142290957Y-124609628D01*
%TO.C,D18*%
X142506000Y-97125000D02*
X144006000Y-97125000D01*
X142506000Y-102525000D02*
X142506000Y-97125000D01*
X144006000Y-102525000D02*
X142506000Y-102525000D01*
X144006000Y-97125000D02*
X144006000Y-102525000D01*
X143756000Y-100325000D02*
X142756000Y-100325000D01*
X142756000Y-99325000D02*
X143256000Y-100225000D01*
X143756000Y-99325000D02*
X142756000Y-99325000D01*
X143256000Y-100225000D02*
X143756000Y-99325000D01*
%TO.C,D17*%
X142633000Y-78078000D02*
X144133000Y-78078000D01*
X142633000Y-83478000D02*
X142633000Y-78078000D01*
X144133000Y-83478000D02*
X142633000Y-83478000D01*
X144133000Y-78078000D02*
X144133000Y-83478000D01*
X143883000Y-81278000D02*
X142883000Y-81278000D01*
X142883000Y-80278000D02*
X143383000Y-81178000D01*
X143883000Y-80278000D02*
X142883000Y-80278000D01*
X143383000Y-81178000D02*
X143883000Y-80278000D01*
%TO.C,D16*%
X141236000Y-59085500D02*
X142736000Y-59085500D01*
X141236000Y-64485500D02*
X141236000Y-59085500D01*
X142736000Y-64485500D02*
X141236000Y-64485500D01*
X142736000Y-59085500D02*
X142736000Y-64485500D01*
X142486000Y-62285500D02*
X141486000Y-62285500D01*
X141486000Y-61285500D02*
X141986000Y-62185500D01*
X142486000Y-61285500D02*
X141486000Y-61285500D01*
X141986000Y-62185500D02*
X142486000Y-61285500D01*
%TO.C,D15*%
X141286800Y-39949600D02*
X142786800Y-39949600D01*
X141286800Y-45349600D02*
X141286800Y-39949600D01*
X142786800Y-45349600D02*
X141286800Y-45349600D01*
X142786800Y-39949600D02*
X142786800Y-45349600D01*
X142536800Y-43149600D02*
X141536800Y-43149600D01*
X141536800Y-42149600D02*
X142036800Y-43049600D01*
X142536800Y-42149600D02*
X141536800Y-42149600D01*
X142036800Y-43049600D02*
X142536800Y-42149600D01*
%TO.C,D14*%
X118067200Y-131981933D02*
X119426662Y-131348005D01*
X120349338Y-136875995D02*
X118067200Y-131981933D01*
X121708800Y-136242067D02*
X120349338Y-136875995D01*
X119426662Y-131348005D02*
X121708800Y-136242067D01*
X120552463Y-134353845D02*
X119646155Y-134776463D01*
X119223537Y-133870155D02*
X120057047Y-134474523D01*
X120129845Y-133447537D02*
X119223537Y-133870155D01*
X120057047Y-134474523D02*
X120129845Y-133447537D01*
%TO.C,D13*%
X123608400Y-97122000D02*
X125108400Y-97122000D01*
X123608400Y-102522000D02*
X123608400Y-97122000D01*
X125108400Y-102522000D02*
X123608400Y-102522000D01*
X125108400Y-97122000D02*
X125108400Y-102522000D01*
X124858400Y-100322000D02*
X123858400Y-100322000D01*
X123858400Y-99322000D02*
X124358400Y-100222000D01*
X124858400Y-99322000D02*
X123858400Y-99322000D01*
X124358400Y-100222000D02*
X124858400Y-99322000D01*
%TO.C,D12*%
X123583000Y-78078000D02*
X125083000Y-78078000D01*
X123583000Y-83478000D02*
X123583000Y-78078000D01*
X125083000Y-83478000D02*
X123583000Y-83478000D01*
X125083000Y-78078000D02*
X125083000Y-83478000D01*
X124833000Y-81278000D02*
X123833000Y-81278000D01*
X123833000Y-80278000D02*
X124333000Y-81178000D01*
X124833000Y-80278000D02*
X123833000Y-80278000D01*
X124333000Y-81178000D02*
X124833000Y-80278000D01*
%TO.C,D11*%
X123583000Y-59022000D02*
X125083000Y-59022000D01*
X123583000Y-64422000D02*
X123583000Y-59022000D01*
X125083000Y-64422000D02*
X123583000Y-64422000D01*
X125083000Y-59022000D02*
X125083000Y-64422000D01*
X124833000Y-62222000D02*
X123833000Y-62222000D01*
X123833000Y-61222000D02*
X124333000Y-62122000D01*
X124833000Y-61222000D02*
X123833000Y-61222000D01*
X124333000Y-62122000D02*
X124833000Y-61222000D01*
%TO.C,D10*%
X123557600Y-39972000D02*
X125057600Y-39972000D01*
X123557600Y-45372000D02*
X123557600Y-39972000D01*
X125057600Y-45372000D02*
X123557600Y-45372000D01*
X125057600Y-39972000D02*
X125057600Y-45372000D01*
X124807600Y-43172000D02*
X123807600Y-43172000D01*
X123807600Y-42172000D02*
X124307600Y-43072000D01*
X124807600Y-42172000D02*
X123807600Y-42172000D01*
X124307600Y-43072000D02*
X124807600Y-42172000D01*
%TO.C,D9*%
X104469500Y-97128000D02*
X105969500Y-97128000D01*
X104469500Y-102528000D02*
X104469500Y-97128000D01*
X105969500Y-102528000D02*
X104469500Y-102528000D01*
X105969500Y-97128000D02*
X105969500Y-102528000D01*
X105719500Y-100328000D02*
X104719500Y-100328000D01*
X104719500Y-99328000D02*
X105219500Y-100228000D01*
X105719500Y-99328000D02*
X104719500Y-99328000D01*
X105219500Y-100228000D02*
X105719500Y-99328000D01*
%TO.C,D8*%
X104533000Y-78078000D02*
X106033000Y-78078000D01*
X104533000Y-83478000D02*
X104533000Y-78078000D01*
X106033000Y-83478000D02*
X104533000Y-83478000D01*
X106033000Y-78078000D02*
X106033000Y-83478000D01*
X105783000Y-81278000D02*
X104783000Y-81278000D01*
X104783000Y-80278000D02*
X105283000Y-81178000D01*
X105783000Y-80278000D02*
X104783000Y-80278000D01*
X105283000Y-81178000D02*
X105783000Y-80278000D01*
%TO.C,D7*%
X104469500Y-59022000D02*
X105969500Y-59022000D01*
X104469500Y-64422000D02*
X104469500Y-59022000D01*
X105969500Y-64422000D02*
X104469500Y-64422000D01*
X105969500Y-59022000D02*
X105969500Y-64422000D01*
X105719500Y-62222000D02*
X104719500Y-62222000D01*
X104719500Y-61222000D02*
X105219500Y-62122000D01*
X105719500Y-61222000D02*
X104719500Y-61222000D01*
X105219500Y-62122000D02*
X105719500Y-61222000D01*
%TO.C,D6*%
X104507600Y-39972000D02*
X106007600Y-39972000D01*
X104507600Y-45372000D02*
X104507600Y-39972000D01*
X106007600Y-45372000D02*
X104507600Y-45372000D01*
X106007600Y-39972000D02*
X106007600Y-45372000D01*
X105757600Y-43172000D02*
X104757600Y-43172000D01*
X104757600Y-42172000D02*
X105257600Y-43072000D01*
X105757600Y-42172000D02*
X104757600Y-42172000D01*
X105257600Y-43072000D02*
X105757600Y-42172000D01*
%TO.C,D5*%
X100278500Y-133507500D02*
X101778500Y-133507500D01*
X100278500Y-138907500D02*
X100278500Y-133507500D01*
X101778500Y-138907500D02*
X100278500Y-138907500D01*
X101778500Y-133507500D02*
X101778500Y-138907500D01*
X101528500Y-136707500D02*
X100528500Y-136707500D01*
X100528500Y-135707500D02*
X101028500Y-136607500D01*
X101528500Y-135707500D02*
X100528500Y-135707500D01*
X101028500Y-136607500D02*
X101528500Y-135707500D01*
%TO.C,D4*%
X101281800Y-97122000D02*
X102781800Y-97122000D01*
X101281800Y-102522000D02*
X101281800Y-97122000D01*
X102781800Y-102522000D02*
X101281800Y-102522000D01*
X102781800Y-97122000D02*
X102781800Y-102522000D01*
X102531800Y-100322000D02*
X101531800Y-100322000D01*
X101531800Y-99322000D02*
X102031800Y-100222000D01*
X102531800Y-99322000D02*
X101531800Y-99322000D01*
X102031800Y-100222000D02*
X102531800Y-99322000D01*
%TO.C,D3*%
X101332600Y-78072000D02*
X102832600Y-78072000D01*
X101332600Y-83472000D02*
X101332600Y-78072000D01*
X102832600Y-83472000D02*
X101332600Y-83472000D01*
X102832600Y-78072000D02*
X102832600Y-83472000D01*
X102582600Y-81272000D02*
X101582600Y-81272000D01*
X101582600Y-80272000D02*
X102082600Y-81172000D01*
X102582600Y-80272000D02*
X101582600Y-80272000D01*
X102082600Y-81172000D02*
X102582600Y-80272000D01*
%TO.C,D2*%
X101358000Y-59022000D02*
X102858000Y-59022000D01*
X101358000Y-64422000D02*
X101358000Y-59022000D01*
X102858000Y-64422000D02*
X101358000Y-64422000D01*
X102858000Y-59022000D02*
X102858000Y-64422000D01*
X102608000Y-62222000D02*
X101608000Y-62222000D01*
X101608000Y-61222000D02*
X102108000Y-62122000D01*
X102608000Y-61222000D02*
X101608000Y-61222000D01*
X102108000Y-62122000D02*
X102608000Y-61222000D01*
%TO.C,D1*%
X102108000Y-43072000D02*
X102608000Y-42172000D01*
X102608000Y-42172000D02*
X101608000Y-42172000D01*
X101608000Y-42172000D02*
X102108000Y-43072000D01*
X102608000Y-43172000D02*
X101608000Y-43172000D01*
X102858000Y-39972000D02*
X102858000Y-45372000D01*
X102858000Y-45372000D02*
X101358000Y-45372000D01*
X101358000Y-45372000D02*
X101358000Y-39972000D01*
X101358000Y-39972000D02*
X102858000Y-39972000D01*
%TO.C,U1*%
X158670348Y-35883904D02*
X158213205Y-35883904D01*
X158441776Y-36683904D02*
X158441776Y-35883904D01*
X158022729Y-35883904D02*
X157489395Y-36683904D01*
X157489395Y-35883904D02*
X158022729Y-36683904D01*
X157032252Y-35883904D02*
X156956062Y-35883904D01*
X156879872Y-35922000D01*
X156841776Y-35960095D01*
X156803681Y-36036285D01*
X156765586Y-36188666D01*
X156765586Y-36379142D01*
X156803681Y-36531523D01*
X156841776Y-36607714D01*
X156879872Y-36645809D01*
X156956062Y-36683904D01*
X157032252Y-36683904D01*
X157108443Y-36645809D01*
X157146538Y-36607714D01*
X157184633Y-36531523D01*
X157222729Y-36379142D01*
X157222729Y-36188666D01*
X157184633Y-36036285D01*
X157146538Y-35960095D01*
X157108443Y-35922000D01*
X157032252Y-35883904D01*
X155851300Y-35845809D02*
X156537014Y-36874380D01*
X155584633Y-36683904D02*
X155584633Y-35883904D01*
X155394157Y-35883904D01*
X155279872Y-35922000D01*
X155203681Y-35998190D01*
X155165586Y-36074380D01*
X155127491Y-36226761D01*
X155127491Y-36341047D01*
X155165586Y-36493428D01*
X155203681Y-36569619D01*
X155279872Y-36645809D01*
X155394157Y-36683904D01*
X155584633Y-36683904D01*
X154860824Y-35883904D02*
X154365586Y-35883904D01*
X154632252Y-36188666D01*
X154517967Y-36188666D01*
X154441776Y-36226761D01*
X154403681Y-36264857D01*
X154365586Y-36341047D01*
X154365586Y-36531523D01*
X154403681Y-36607714D01*
X154441776Y-36645809D01*
X154517967Y-36683904D01*
X154746538Y-36683904D01*
X154822729Y-36645809D01*
X154860824Y-36607714D01*
X158959476Y-39223904D02*
X158959476Y-38423904D01*
X158769000Y-38423904D01*
X158654714Y-38462000D01*
X158578523Y-38538190D01*
X158540428Y-38614380D01*
X158502333Y-38766761D01*
X158502333Y-38881047D01*
X158540428Y-39033428D01*
X158578523Y-39109619D01*
X158654714Y-39185809D01*
X158769000Y-39223904D01*
X158959476Y-39223904D01*
X158197571Y-38500095D02*
X158159476Y-38462000D01*
X158083285Y-38423904D01*
X157892809Y-38423904D01*
X157816619Y-38462000D01*
X157778523Y-38500095D01*
X157740428Y-38576285D01*
X157740428Y-38652476D01*
X157778523Y-38766761D01*
X158235666Y-39223904D01*
X157740428Y-39223904D01*
X158959476Y-49383904D02*
X158959476Y-48583904D01*
X158769000Y-48583904D01*
X158654714Y-48622000D01*
X158578523Y-48698190D01*
X158540428Y-48774380D01*
X158502333Y-48926761D01*
X158502333Y-49041047D01*
X158540428Y-49193428D01*
X158578523Y-49269619D01*
X158654714Y-49345809D01*
X158769000Y-49383904D01*
X158959476Y-49383904D01*
X158007095Y-48583904D02*
X157930904Y-48583904D01*
X157854714Y-48622000D01*
X157816619Y-48660095D01*
X157778523Y-48736285D01*
X157740428Y-48888666D01*
X157740428Y-49079142D01*
X157778523Y-49231523D01*
X157816619Y-49307714D01*
X157854714Y-49345809D01*
X157930904Y-49383904D01*
X158007095Y-49383904D01*
X158083285Y-49345809D01*
X158121380Y-49307714D01*
X158159476Y-49231523D01*
X158197571Y-49079142D01*
X158197571Y-48888666D01*
X158159476Y-48736285D01*
X158121380Y-48660095D01*
X158083285Y-48622000D01*
X158007095Y-48583904D01*
X158959476Y-46843904D02*
X158959476Y-46043904D01*
X158769000Y-46043904D01*
X158654714Y-46082000D01*
X158578523Y-46158190D01*
X158540428Y-46234380D01*
X158502333Y-46386761D01*
X158502333Y-46501047D01*
X158540428Y-46653428D01*
X158578523Y-46729619D01*
X158654714Y-46805809D01*
X158769000Y-46843904D01*
X158959476Y-46843904D01*
X157740428Y-46843904D02*
X158197571Y-46843904D01*
X157969000Y-46843904D02*
X157969000Y-46043904D01*
X158045190Y-46158190D01*
X158121380Y-46234380D01*
X158197571Y-46272476D01*
X158978523Y-43542000D02*
X159054714Y-43503904D01*
X159169000Y-43503904D01*
X159283285Y-43542000D01*
X159359476Y-43618190D01*
X159397571Y-43694380D01*
X159435666Y-43846761D01*
X159435666Y-43961047D01*
X159397571Y-44113428D01*
X159359476Y-44189619D01*
X159283285Y-44265809D01*
X159169000Y-44303904D01*
X159092809Y-44303904D01*
X158978523Y-44265809D01*
X158940428Y-44227714D01*
X158940428Y-43961047D01*
X159092809Y-43961047D01*
X158597571Y-44303904D02*
X158597571Y-43503904D01*
X158140428Y-44303904D01*
X158140428Y-43503904D01*
X157759476Y-44303904D02*
X157759476Y-43503904D01*
X157569000Y-43503904D01*
X157454714Y-43542000D01*
X157378523Y-43618190D01*
X157340428Y-43694380D01*
X157302333Y-43846761D01*
X157302333Y-43961047D01*
X157340428Y-44113428D01*
X157378523Y-44189619D01*
X157454714Y-44265809D01*
X157569000Y-44303904D01*
X157759476Y-44303904D01*
X158978523Y-41002000D02*
X159054714Y-40963904D01*
X159169000Y-40963904D01*
X159283285Y-41002000D01*
X159359476Y-41078190D01*
X159397571Y-41154380D01*
X159435666Y-41306761D01*
X159435666Y-41421047D01*
X159397571Y-41573428D01*
X159359476Y-41649619D01*
X159283285Y-41725809D01*
X159169000Y-41763904D01*
X159092809Y-41763904D01*
X158978523Y-41725809D01*
X158940428Y-41687714D01*
X158940428Y-41421047D01*
X159092809Y-41421047D01*
X158597571Y-41763904D02*
X158597571Y-40963904D01*
X158140428Y-41763904D01*
X158140428Y-40963904D01*
X157759476Y-41763904D02*
X157759476Y-40963904D01*
X157569000Y-40963904D01*
X157454714Y-41002000D01*
X157378523Y-41078190D01*
X157340428Y-41154380D01*
X157302333Y-41306761D01*
X157302333Y-41421047D01*
X157340428Y-41573428D01*
X157378523Y-41649619D01*
X157454714Y-41725809D01*
X157569000Y-41763904D01*
X157759476Y-41763904D01*
X158959476Y-51923904D02*
X158959476Y-51123904D01*
X158769000Y-51123904D01*
X158654714Y-51162000D01*
X158578523Y-51238190D01*
X158540428Y-51314380D01*
X158502333Y-51466761D01*
X158502333Y-51581047D01*
X158540428Y-51733428D01*
X158578523Y-51809619D01*
X158654714Y-51885809D01*
X158769000Y-51923904D01*
X158959476Y-51923904D01*
X157816619Y-51390571D02*
X157816619Y-51923904D01*
X158007095Y-51085809D02*
X158197571Y-51657238D01*
X157702333Y-51657238D01*
X158502333Y-54387714D02*
X158540428Y-54425809D01*
X158654714Y-54463904D01*
X158730904Y-54463904D01*
X158845190Y-54425809D01*
X158921380Y-54349619D01*
X158959476Y-54273428D01*
X158997571Y-54121047D01*
X158997571Y-54006761D01*
X158959476Y-53854380D01*
X158921380Y-53778190D01*
X158845190Y-53702000D01*
X158730904Y-53663904D01*
X158654714Y-53663904D01*
X158540428Y-53702000D01*
X158502333Y-53740095D01*
X157816619Y-53663904D02*
X157969000Y-53663904D01*
X158045190Y-53702000D01*
X158083285Y-53740095D01*
X158159476Y-53854380D01*
X158197571Y-54006761D01*
X158197571Y-54311523D01*
X158159476Y-54387714D01*
X158121380Y-54425809D01*
X158045190Y-54463904D01*
X157892809Y-54463904D01*
X157816619Y-54425809D01*
X157778523Y-54387714D01*
X157740428Y-54311523D01*
X157740428Y-54121047D01*
X157778523Y-54044857D01*
X157816619Y-54006761D01*
X157892809Y-53968666D01*
X158045190Y-53968666D01*
X158121380Y-54006761D01*
X158159476Y-54044857D01*
X158197571Y-54121047D01*
X158959476Y-57003904D02*
X158959476Y-56203904D01*
X158769000Y-56203904D01*
X158654714Y-56242000D01*
X158578523Y-56318190D01*
X158540428Y-56394380D01*
X158502333Y-56546761D01*
X158502333Y-56661047D01*
X158540428Y-56813428D01*
X158578523Y-56889619D01*
X158654714Y-56965809D01*
X158769000Y-57003904D01*
X158959476Y-57003904D01*
X158235666Y-56203904D02*
X157702333Y-56203904D01*
X158045190Y-57003904D01*
X158921380Y-59124857D02*
X158654714Y-59124857D01*
X158540428Y-59543904D02*
X158921380Y-59543904D01*
X158921380Y-58743904D01*
X158540428Y-58743904D01*
X157854714Y-58743904D02*
X158007095Y-58743904D01*
X158083285Y-58782000D01*
X158121380Y-58820095D01*
X158197571Y-58934380D01*
X158235666Y-59086761D01*
X158235666Y-59391523D01*
X158197571Y-59467714D01*
X158159476Y-59505809D01*
X158083285Y-59543904D01*
X157930904Y-59543904D01*
X157854714Y-59505809D01*
X157816619Y-59467714D01*
X157778523Y-59391523D01*
X157778523Y-59201047D01*
X157816619Y-59124857D01*
X157854714Y-59086761D01*
X157930904Y-59048666D01*
X158083285Y-59048666D01*
X158159476Y-59086761D01*
X158197571Y-59124857D01*
X158235666Y-59201047D01*
X158692809Y-61664857D02*
X158578523Y-61702952D01*
X158540428Y-61741047D01*
X158502333Y-61817238D01*
X158502333Y-61931523D01*
X158540428Y-62007714D01*
X158578523Y-62045809D01*
X158654714Y-62083904D01*
X158959476Y-62083904D01*
X158959476Y-61283904D01*
X158692809Y-61283904D01*
X158616619Y-61322000D01*
X158578523Y-61360095D01*
X158540428Y-61436285D01*
X158540428Y-61512476D01*
X158578523Y-61588666D01*
X158616619Y-61626761D01*
X158692809Y-61664857D01*
X158959476Y-61664857D01*
X157816619Y-61550571D02*
X157816619Y-62083904D01*
X158007095Y-61245809D02*
X158197571Y-61817238D01*
X157702333Y-61817238D01*
X158692809Y-64204857D02*
X158578523Y-64242952D01*
X158540428Y-64281047D01*
X158502333Y-64357238D01*
X158502333Y-64471523D01*
X158540428Y-64547714D01*
X158578523Y-64585809D01*
X158654714Y-64623904D01*
X158959476Y-64623904D01*
X158959476Y-63823904D01*
X158692809Y-63823904D01*
X158616619Y-63862000D01*
X158578523Y-63900095D01*
X158540428Y-63976285D01*
X158540428Y-64052476D01*
X158578523Y-64128666D01*
X158616619Y-64166761D01*
X158692809Y-64204857D01*
X158959476Y-64204857D01*
X157778523Y-63823904D02*
X158159476Y-63823904D01*
X158197571Y-64204857D01*
X158159476Y-64166761D01*
X158083285Y-64128666D01*
X157892809Y-64128666D01*
X157816619Y-64166761D01*
X157778523Y-64204857D01*
X157740428Y-64281047D01*
X157740428Y-64471523D01*
X157778523Y-64547714D01*
X157816619Y-64585809D01*
X157892809Y-64623904D01*
X158083285Y-64623904D01*
X158159476Y-64585809D01*
X158197571Y-64547714D01*
X147770809Y-64204857D02*
X147656523Y-64242952D01*
X147618428Y-64281047D01*
X147580333Y-64357238D01*
X147580333Y-64471523D01*
X147618428Y-64547714D01*
X147656523Y-64585809D01*
X147732714Y-64623904D01*
X148037476Y-64623904D01*
X148037476Y-63823904D01*
X147770809Y-63823904D01*
X147694619Y-63862000D01*
X147656523Y-63900095D01*
X147618428Y-63976285D01*
X147618428Y-64052476D01*
X147656523Y-64128666D01*
X147694619Y-64166761D01*
X147770809Y-64204857D01*
X148037476Y-64204857D01*
X146894619Y-63823904D02*
X147047000Y-63823904D01*
X147123190Y-63862000D01*
X147161285Y-63900095D01*
X147237476Y-64014380D01*
X147275571Y-64166761D01*
X147275571Y-64471523D01*
X147237476Y-64547714D01*
X147199380Y-64585809D01*
X147123190Y-64623904D01*
X146970809Y-64623904D01*
X146894619Y-64585809D01*
X146856523Y-64547714D01*
X146818428Y-64471523D01*
X146818428Y-64281047D01*
X146856523Y-64204857D01*
X146894619Y-64166761D01*
X146970809Y-64128666D01*
X147123190Y-64128666D01*
X147199380Y-64166761D01*
X147237476Y-64204857D01*
X147275571Y-64281047D01*
X147770809Y-59124857D02*
X147656523Y-59162952D01*
X147618428Y-59201047D01*
X147580333Y-59277238D01*
X147580333Y-59391523D01*
X147618428Y-59467714D01*
X147656523Y-59505809D01*
X147732714Y-59543904D01*
X148037476Y-59543904D01*
X148037476Y-58743904D01*
X147770809Y-58743904D01*
X147694619Y-58782000D01*
X147656523Y-58820095D01*
X147618428Y-58896285D01*
X147618428Y-58972476D01*
X147656523Y-59048666D01*
X147694619Y-59086761D01*
X147770809Y-59124857D01*
X148037476Y-59124857D01*
X147313666Y-58743904D02*
X146818428Y-58743904D01*
X147085095Y-59048666D01*
X146970809Y-59048666D01*
X146894619Y-59086761D01*
X146856523Y-59124857D01*
X146818428Y-59201047D01*
X146818428Y-59391523D01*
X146856523Y-59467714D01*
X146894619Y-59505809D01*
X146970809Y-59543904D01*
X147199380Y-59543904D01*
X147275571Y-59505809D01*
X147313666Y-59467714D01*
X147770809Y-56584857D02*
X147656523Y-56622952D01*
X147618428Y-56661047D01*
X147580333Y-56737238D01*
X147580333Y-56851523D01*
X147618428Y-56927714D01*
X147656523Y-56965809D01*
X147732714Y-57003904D01*
X148037476Y-57003904D01*
X148037476Y-56203904D01*
X147770809Y-56203904D01*
X147694619Y-56242000D01*
X147656523Y-56280095D01*
X147618428Y-56356285D01*
X147618428Y-56432476D01*
X147656523Y-56508666D01*
X147694619Y-56546761D01*
X147770809Y-56584857D01*
X148037476Y-56584857D01*
X146818428Y-57003904D02*
X147275571Y-57003904D01*
X147047000Y-57003904D02*
X147047000Y-56203904D01*
X147123190Y-56318190D01*
X147199380Y-56394380D01*
X147275571Y-56432476D01*
X147713666Y-46424857D02*
X147980333Y-46424857D01*
X147980333Y-46843904D02*
X147980333Y-46043904D01*
X147599380Y-46043904D01*
X146951761Y-46310571D02*
X146951761Y-46843904D01*
X147142238Y-46005809D02*
X147332714Y-46577238D01*
X146837476Y-46577238D01*
X148513666Y-43503904D02*
X148247000Y-44303904D01*
X147980333Y-43503904D01*
X147256523Y-44227714D02*
X147294619Y-44265809D01*
X147408904Y-44303904D01*
X147485095Y-44303904D01*
X147599380Y-44265809D01*
X147675571Y-44189619D01*
X147713666Y-44113428D01*
X147751761Y-43961047D01*
X147751761Y-43846761D01*
X147713666Y-43694380D01*
X147675571Y-43618190D01*
X147599380Y-43542000D01*
X147485095Y-43503904D01*
X147408904Y-43503904D01*
X147294619Y-43542000D01*
X147256523Y-43580095D01*
X146456523Y-44227714D02*
X146494619Y-44265809D01*
X146608904Y-44303904D01*
X146685095Y-44303904D01*
X146799380Y-44265809D01*
X146875571Y-44189619D01*
X146913666Y-44113428D01*
X146951761Y-43961047D01*
X146951761Y-43846761D01*
X146913666Y-43694380D01*
X146875571Y-43618190D01*
X146799380Y-43542000D01*
X146685095Y-43503904D01*
X146608904Y-43503904D01*
X146494619Y-43542000D01*
X146456523Y-43580095D01*
X147708213Y-41695809D02*
X147593927Y-41733904D01*
X147403451Y-41733904D01*
X147327260Y-41695809D01*
X147289165Y-41657714D01*
X147251070Y-41581523D01*
X147251070Y-41505333D01*
X147289165Y-41429142D01*
X147327260Y-41391047D01*
X147403451Y-41352952D01*
X147555832Y-41314857D01*
X147632022Y-41276761D01*
X147670118Y-41238666D01*
X147708213Y-41162476D01*
X147708213Y-41086285D01*
X147670118Y-41010095D01*
X147632022Y-40972000D01*
X147555832Y-40933904D01*
X147365356Y-40933904D01*
X147251070Y-40972000D01*
X147022499Y-40933904D02*
X146565356Y-40933904D01*
X146793927Y-41733904D02*
X146793927Y-40933904D01*
X148056523Y-38462000D02*
X148132714Y-38423904D01*
X148247000Y-38423904D01*
X148361285Y-38462000D01*
X148437476Y-38538190D01*
X148475571Y-38614380D01*
X148513666Y-38766761D01*
X148513666Y-38881047D01*
X148475571Y-39033428D01*
X148437476Y-39109619D01*
X148361285Y-39185809D01*
X148247000Y-39223904D01*
X148170809Y-39223904D01*
X148056523Y-39185809D01*
X148018428Y-39147714D01*
X148018428Y-38881047D01*
X148170809Y-38881047D01*
X147675571Y-39223904D02*
X147675571Y-38423904D01*
X147218428Y-39223904D01*
X147218428Y-38423904D01*
X146837476Y-39223904D02*
X146837476Y-38423904D01*
X146647000Y-38423904D01*
X146532714Y-38462000D01*
X146456523Y-38538190D01*
X146418428Y-38614380D01*
X146380333Y-38766761D01*
X146380333Y-38881047D01*
X146418428Y-39033428D01*
X146456523Y-39109619D01*
X146532714Y-39185809D01*
X146647000Y-39223904D01*
X146837476Y-39223904D01*
X147999380Y-36683904D02*
X148266047Y-36302952D01*
X148456523Y-36683904D02*
X148456523Y-35883904D01*
X148151761Y-35883904D01*
X148075571Y-35922000D01*
X148037476Y-35960095D01*
X147999380Y-36036285D01*
X147999380Y-36150571D01*
X148037476Y-36226761D01*
X148075571Y-36264857D01*
X148151761Y-36302952D01*
X148456523Y-36302952D01*
X147694619Y-36455333D02*
X147313666Y-36455333D01*
X147770809Y-36683904D02*
X147504142Y-35883904D01*
X147237476Y-36683904D01*
X147047000Y-35883904D02*
X146856523Y-36683904D01*
X146704142Y-36112476D01*
X146551761Y-36683904D01*
X146361285Y-35883904D01*
X147713666Y-48964857D02*
X147980333Y-48964857D01*
X147980333Y-49383904D02*
X147980333Y-48583904D01*
X147599380Y-48583904D01*
X146913666Y-48583904D02*
X147294619Y-48583904D01*
X147332714Y-48964857D01*
X147294619Y-48926761D01*
X147218428Y-48888666D01*
X147027952Y-48888666D01*
X146951761Y-48926761D01*
X146913666Y-48964857D01*
X146875571Y-49041047D01*
X146875571Y-49231523D01*
X146913666Y-49307714D01*
X146951761Y-49345809D01*
X147027952Y-49383904D01*
X147218428Y-49383904D01*
X147294619Y-49345809D01*
X147332714Y-49307714D01*
X147713666Y-51504857D02*
X147980333Y-51504857D01*
X147980333Y-51923904D02*
X147980333Y-51123904D01*
X147599380Y-51123904D01*
X146951761Y-51123904D02*
X147104142Y-51123904D01*
X147180333Y-51162000D01*
X147218428Y-51200095D01*
X147294619Y-51314380D01*
X147332714Y-51466761D01*
X147332714Y-51771523D01*
X147294619Y-51847714D01*
X147256523Y-51885809D01*
X147180333Y-51923904D01*
X147027952Y-51923904D01*
X146951761Y-51885809D01*
X146913666Y-51847714D01*
X146875571Y-51771523D01*
X146875571Y-51581047D01*
X146913666Y-51504857D01*
X146951761Y-51466761D01*
X147027952Y-51428666D01*
X147180333Y-51428666D01*
X147256523Y-51466761D01*
X147294619Y-51504857D01*
X147332714Y-51581047D01*
X147713666Y-54044857D02*
X147980333Y-54044857D01*
X147980333Y-54463904D02*
X147980333Y-53663904D01*
X147599380Y-53663904D01*
X147370809Y-53663904D02*
X146837476Y-53663904D01*
X147180333Y-54463904D01*
X147770809Y-61664857D02*
X147656523Y-61702952D01*
X147618428Y-61741047D01*
X147580333Y-61817238D01*
X147580333Y-61931523D01*
X147618428Y-62007714D01*
X147656523Y-62045809D01*
X147732714Y-62083904D01*
X148037476Y-62083904D01*
X148037476Y-61283904D01*
X147770809Y-61283904D01*
X147694619Y-61322000D01*
X147656523Y-61360095D01*
X147618428Y-61436285D01*
X147618428Y-61512476D01*
X147656523Y-61588666D01*
X147694619Y-61626761D01*
X147770809Y-61664857D01*
X148037476Y-61664857D01*
X147275571Y-61360095D02*
X147237476Y-61322000D01*
X147161285Y-61283904D01*
X146970809Y-61283904D01*
X146894619Y-61322000D01*
X146856523Y-61360095D01*
X146818428Y-61436285D01*
X146818428Y-61512476D01*
X146856523Y-61626761D01*
X147313666Y-62083904D01*
X146818428Y-62083904D01*
%TO.C,RST1*%
X130309809Y-36530380D02*
X130643142Y-36054190D01*
X130881238Y-36530380D02*
X130881238Y-35530380D01*
X130500285Y-35530380D01*
X130405047Y-35578000D01*
X130357428Y-35625619D01*
X130309809Y-35720857D01*
X130309809Y-35863714D01*
X130357428Y-35958952D01*
X130405047Y-36006571D01*
X130500285Y-36054190D01*
X130881238Y-36054190D01*
X129928857Y-36482761D02*
X129786000Y-36530380D01*
X129547904Y-36530380D01*
X129452666Y-36482761D01*
X129405047Y-36435142D01*
X129357428Y-36339904D01*
X129357428Y-36244666D01*
X129405047Y-36149428D01*
X129452666Y-36101809D01*
X129547904Y-36054190D01*
X129738380Y-36006571D01*
X129833619Y-35958952D01*
X129881238Y-35911333D01*
X129928857Y-35816095D01*
X129928857Y-35720857D01*
X129881238Y-35625619D01*
X129833619Y-35578000D01*
X129738380Y-35530380D01*
X129500285Y-35530380D01*
X129357428Y-35578000D01*
X129071714Y-35530380D02*
X128500285Y-35530380D01*
X128786000Y-36530380D02*
X128786000Y-35530380D01*
X127643142Y-36530380D02*
X128214571Y-36530380D01*
X127928857Y-36530380D02*
X127928857Y-35530380D01*
X128024095Y-35673238D01*
X128119333Y-35768476D01*
X128214571Y-35816095D01*
%TD*%
%LPC*%
D12*
%TO.C,SW29*%
X200934032Y-133689911D03*
D13*
X196088000Y-136652000D03*
D12*
X194202932Y-132478965D03*
D14*
X191779916Y-133960010D03*
X200396084Y-139343990D03*
%TD*%
D12*
%TO.C,SW28*%
X193548000Y-95504000D03*
D13*
X191008000Y-100584000D03*
D12*
X187198000Y-98044000D03*
D14*
X185928000Y-100584000D03*
X196088000Y-100584000D03*
%TD*%
D12*
%TO.C,SW27*%
X193548000Y-76454000D03*
D13*
X191008000Y-81534000D03*
D12*
X187198000Y-78994000D03*
D14*
X185928000Y-81534000D03*
X196088000Y-81534000D03*
%TD*%
D12*
%TO.C,SW26*%
X193548000Y-57404000D03*
D13*
X191008000Y-62484000D03*
D12*
X187198000Y-59944000D03*
D14*
X185928000Y-62484000D03*
X196088000Y-62484000D03*
%TD*%
D12*
%TO.C,SW25*%
X193548000Y-38354000D03*
D13*
X191008000Y-43434000D03*
D12*
X187198000Y-40894000D03*
D14*
X185928000Y-43434000D03*
X196088000Y-43434000D03*
%TD*%
D12*
%TO.C,SW24*%
X179461514Y-123447379D03*
D13*
X175768000Y-127762000D03*
D12*
X172685655Y-124375726D03*
D14*
X170838898Y-126533037D03*
X180697102Y-128990963D03*
%TD*%
D12*
%TO.C,SW23*%
X174498000Y-95504000D03*
D13*
X171958000Y-100584000D03*
D12*
X168148000Y-98044000D03*
D14*
X166878000Y-100584000D03*
X177038000Y-100584000D03*
%TD*%
D12*
%TO.C,SW22*%
X174498000Y-76454000D03*
D13*
X171958000Y-81534000D03*
D12*
X168148000Y-78994000D03*
D14*
X166878000Y-81534000D03*
X177038000Y-81534000D03*
%TD*%
D12*
%TO.C,SW21*%
X174498000Y-57404000D03*
D13*
X171958000Y-62484000D03*
D12*
X168148000Y-59944000D03*
D14*
X166878000Y-62484000D03*
X177038000Y-62484000D03*
%TD*%
D12*
%TO.C,SW20*%
X174498000Y-38354000D03*
D13*
X171958000Y-43434000D03*
D12*
X168148000Y-40894000D03*
D14*
X166878000Y-43434000D03*
X177038000Y-43434000D03*
%TD*%
D12*
%TO.C,SW19*%
X156718000Y-120142000D03*
D13*
X154178000Y-125222000D03*
D12*
X150368000Y-122682000D03*
D14*
X149098000Y-125222000D03*
X159258000Y-125222000D03*
%TD*%
D12*
%TO.C,SW18*%
X155448000Y-95504000D03*
D13*
X152908000Y-100584000D03*
D12*
X149098000Y-98044000D03*
D14*
X147828000Y-100584000D03*
X157988000Y-100584000D03*
%TD*%
D12*
%TO.C,SW17*%
X155448000Y-76454000D03*
D13*
X152908000Y-81534000D03*
D12*
X149098000Y-78994000D03*
D14*
X147828000Y-81534000D03*
X157988000Y-81534000D03*
%TD*%
D12*
%TO.C,SW16*%
X155448000Y-57404000D03*
D13*
X152908000Y-62484000D03*
D12*
X149098000Y-59944000D03*
D14*
X147828000Y-62484000D03*
X157988000Y-62484000D03*
%TD*%
D12*
%TO.C,SW15*%
X155448000Y-38354000D03*
D13*
X152908000Y-43434000D03*
D12*
X149098000Y-40894000D03*
D14*
X147828000Y-43434000D03*
X157988000Y-43434000D03*
%TD*%
D12*
%TO.C,SW14*%
X131473121Y-124624506D03*
D13*
X131318000Y-130302000D03*
D12*
X126791517Y-129610154D03*
D14*
X126713956Y-132448901D03*
X135922044Y-128155099D03*
%TD*%
D12*
%TO.C,SW13*%
X136398000Y-95504000D03*
D13*
X133858000Y-100584000D03*
D12*
X130048000Y-98044000D03*
D14*
X128778000Y-100584000D03*
X138938000Y-100584000D03*
%TD*%
D12*
%TO.C,SW12*%
X136398000Y-76454000D03*
D13*
X133858000Y-81534000D03*
D12*
X130048000Y-78994000D03*
D14*
X128778000Y-81534000D03*
X138938000Y-81534000D03*
%TD*%
D12*
%TO.C,SW11*%
X136398000Y-57404000D03*
D13*
X133858000Y-62484000D03*
D12*
X130048000Y-59944000D03*
D14*
X128778000Y-62484000D03*
X138938000Y-62484000D03*
%TD*%
D12*
%TO.C,SW10*%
X136398000Y-38354000D03*
D13*
X133858000Y-43434000D03*
D12*
X130048000Y-40894000D03*
D14*
X128778000Y-43434000D03*
X138938000Y-43434000D03*
%TD*%
D12*
%TO.C,SW9*%
X117348000Y-95504000D03*
D13*
X114808000Y-100584000D03*
D12*
X110998000Y-98044000D03*
D14*
X109728000Y-100584000D03*
X119888000Y-100584000D03*
%TD*%
D12*
%TO.C,SW8*%
X117348000Y-76454000D03*
D13*
X114808000Y-81534000D03*
D12*
X110998000Y-78994000D03*
D14*
X109728000Y-81534000D03*
X119888000Y-81534000D03*
%TD*%
D12*
%TO.C,SW7*%
X117348000Y-57404000D03*
D13*
X114808000Y-62484000D03*
D12*
X110998000Y-59944000D03*
D14*
X109728000Y-62484000D03*
X119888000Y-62484000D03*
%TD*%
D12*
%TO.C,SW6*%
X117348000Y-38354000D03*
D13*
X114808000Y-43434000D03*
D12*
X110998000Y-40894000D03*
D14*
X109728000Y-43434000D03*
X119888000Y-43434000D03*
%TD*%
D12*
%TO.C,SW5*%
X93472000Y-132080000D03*
D13*
X90932000Y-137160000D03*
D12*
X87122000Y-134620000D03*
D14*
X85852000Y-137160000D03*
X96012000Y-137160000D03*
%TD*%
D12*
%TO.C,SW4*%
X95885000Y-95504000D03*
D13*
X93345000Y-100584000D03*
D12*
X89535000Y-98044000D03*
D14*
X88265000Y-100584000D03*
X98425000Y-100584000D03*
%TD*%
D12*
%TO.C,SW3*%
X95885000Y-76454000D03*
D13*
X93345000Y-81534000D03*
D12*
X89535000Y-78994000D03*
D14*
X88265000Y-81534000D03*
X98425000Y-81534000D03*
%TD*%
D12*
%TO.C,SW2*%
X95885000Y-57404000D03*
D13*
X93345000Y-62484000D03*
D12*
X89535000Y-59944000D03*
D14*
X88265000Y-62484000D03*
X98425000Y-62484000D03*
%TD*%
D12*
%TO.C,SW1*%
X93497400Y-38354000D03*
D13*
X90957400Y-43434000D03*
D12*
X87147400Y-40894000D03*
D14*
X85877400Y-43434000D03*
X96037400Y-43434000D03*
%TD*%
D15*
%TO.C,H6*%
X188722000Y-118364000D03*
%TD*%
D16*
%TO.C,U1*%
X145288000Y-36322000D03*
X160528000Y-64262000D03*
X145288000Y-38862000D03*
X145288000Y-41402000D03*
X145288000Y-43942000D03*
X145288000Y-46482000D03*
X145288000Y-49022000D03*
X145288000Y-51562000D03*
X145288000Y-54102000D03*
X145288000Y-56642000D03*
X145288000Y-59182000D03*
X145288000Y-61722000D03*
X145288000Y-64262000D03*
X160528000Y-61722000D03*
X160528000Y-59182000D03*
X160528000Y-56642000D03*
X160528000Y-54102000D03*
X160528000Y-51562000D03*
X160528000Y-49022000D03*
X160528000Y-46482000D03*
X160528000Y-43942000D03*
X160528000Y-41402000D03*
X160528000Y-38862000D03*
D17*
X160528000Y-36322000D03*
%TD*%
D18*
%TO.C,RST1*%
X126036000Y-36068000D03*
X132536000Y-36068000D03*
%TD*%
D15*
%TO.C,H5*%
X181483000Y-53086000D03*
%TD*%
%TO.C,H4*%
X103949500Y-91186000D03*
%TD*%
%TO.C,H3*%
X109435900Y-129984500D03*
%TD*%
%TO.C,H2*%
X103949500Y-53086000D03*
%TD*%
%TO.C,H1*%
X181483000Y-91186000D03*
%TD*%
D19*
%TO.C,D29*%
G36*
X186396862Y-132639612D02*
G01*
X185574138Y-132164612D01*
X186224138Y-131038778D01*
X187046862Y-131513778D01*
X186396862Y-132639612D01*
G37*
G36*
X185678669Y-134330559D02*
G01*
X184468831Y-133632059D01*
X185167331Y-132422221D01*
X186377169Y-133120721D01*
X185678669Y-134330559D01*
G37*
D20*
X188973000Y-127227610D03*
D19*
G36*
X188171862Y-129565222D02*
G01*
X187349138Y-129090222D01*
X187999138Y-127964388D01*
X188821862Y-128439388D01*
X188171862Y-129565222D01*
G37*
%TD*%
D21*
%TO.C,D28*%
X181432200Y-101597000D03*
D22*
X181432200Y-103372000D03*
D20*
X181432200Y-96272000D03*
D21*
X181432200Y-98047000D03*
%TD*%
%TO.C,D27*%
X181483000Y-82553000D03*
D22*
X181483000Y-84328000D03*
D20*
X181483000Y-77228000D03*
D21*
X181483000Y-79003000D03*
%TD*%
%TO.C,D26*%
X181483000Y-63497000D03*
D22*
X181483000Y-65272000D03*
D20*
X181483000Y-58172000D03*
D21*
X181483000Y-59947000D03*
%TD*%
%TO.C,D25*%
X181483000Y-44447000D03*
D22*
X181483000Y-46222000D03*
D20*
X181483000Y-39122000D03*
D21*
X181483000Y-40897000D03*
%TD*%
D19*
%TO.C,D24*%
G36*
X165654686Y-127692642D02*
G01*
X164719119Y-127527676D01*
X164944862Y-126247426D01*
X165880429Y-126412392D01*
X165654686Y-127692642D01*
G37*
G36*
X165558144Y-129527249D02*
G01*
X164182368Y-129284663D01*
X164424954Y-127908887D01*
X165800730Y-128151473D01*
X165558144Y-129527249D01*
G37*
D20*
X166224451Y-121725932D03*
D19*
G36*
X166271138Y-124196574D02*
G01*
X165335571Y-124031608D01*
X165561314Y-122751358D01*
X166496881Y-122916324D01*
X166271138Y-124196574D01*
G37*
%TD*%
D21*
%TO.C,D23*%
X162509200Y-101600000D03*
D22*
X162509200Y-103375000D03*
D20*
X162509200Y-96275000D03*
D21*
X162509200Y-98050000D03*
%TD*%
%TO.C,D22*%
X162509200Y-82553000D03*
D22*
X162509200Y-84328000D03*
D20*
X162509200Y-77228000D03*
D21*
X162509200Y-79003000D03*
%TD*%
%TO.C,D21*%
X163639500Y-63497000D03*
D22*
X163639500Y-65272000D03*
D20*
X163639500Y-58172000D03*
D21*
X163639500Y-59947000D03*
%TD*%
%TO.C,D20*%
X163703000Y-44447000D03*
D22*
X163703000Y-46222000D03*
D20*
X163703000Y-39122000D03*
D21*
X163703000Y-40897000D03*
%TD*%
D19*
%TO.C,D19*%
G36*
X143023855Y-127441431D02*
G01*
X142106226Y-127687309D01*
X141769761Y-126431605D01*
X142687390Y-126185727D01*
X143023855Y-127441431D01*
G37*
G36*
X143711696Y-129144951D02*
G01*
X142362298Y-129506521D01*
X142000728Y-128157123D01*
X143350126Y-127795553D01*
X143711696Y-129144951D01*
G37*
D20*
X141018596Y-121792963D03*
D19*
G36*
X142105047Y-124012395D02*
G01*
X141187418Y-124258273D01*
X140850953Y-123002569D01*
X141768582Y-122756691D01*
X142105047Y-124012395D01*
G37*
%TD*%
D21*
%TO.C,D18*%
X143256000Y-101600000D03*
D22*
X143256000Y-103375000D03*
D20*
X143256000Y-96275000D03*
D21*
X143256000Y-98050000D03*
%TD*%
%TO.C,D17*%
X143383000Y-82553000D03*
D22*
X143383000Y-84328000D03*
D20*
X143383000Y-77228000D03*
D21*
X143383000Y-79003000D03*
%TD*%
%TO.C,D16*%
X141986000Y-63560500D03*
D22*
X141986000Y-65335500D03*
D20*
X141986000Y-58235500D03*
D21*
X141986000Y-60010500D03*
%TD*%
%TO.C,D15*%
X142036800Y-44424600D03*
D22*
X142036800Y-46199600D03*
D20*
X142036800Y-39099600D03*
D21*
X142036800Y-40874600D03*
%TD*%
D19*
%TO.C,D14*%
G36*
X121343345Y-136109052D02*
G01*
X120482353Y-136510540D01*
X119932949Y-135332340D01*
X120793941Y-134930852D01*
X121343345Y-136109052D01*
G37*
G36*
X122316550Y-137667250D02*
G01*
X121050438Y-138257648D01*
X120460040Y-136991536D01*
X121726152Y-136401138D01*
X122316550Y-137667250D01*
G37*
D20*
X118387705Y-130894607D03*
D19*
G36*
X119843051Y-132891660D02*
G01*
X118982059Y-133293148D01*
X118432655Y-132114948D01*
X119293647Y-131713460D01*
X119843051Y-132891660D01*
G37*
%TD*%
D21*
%TO.C,D13*%
X124358400Y-101597000D03*
D22*
X124358400Y-103372000D03*
D20*
X124358400Y-96272000D03*
D21*
X124358400Y-98047000D03*
%TD*%
%TO.C,D12*%
X124333000Y-82553000D03*
D22*
X124333000Y-84328000D03*
D20*
X124333000Y-77228000D03*
D21*
X124333000Y-79003000D03*
%TD*%
%TO.C,D11*%
X124333000Y-63497000D03*
D22*
X124333000Y-65272000D03*
D20*
X124333000Y-58172000D03*
D21*
X124333000Y-59947000D03*
%TD*%
%TO.C,D10*%
X124307600Y-44447000D03*
D22*
X124307600Y-46222000D03*
D20*
X124307600Y-39122000D03*
D21*
X124307600Y-40897000D03*
%TD*%
%TO.C,D9*%
X105219500Y-101603000D03*
D22*
X105219500Y-103378000D03*
D20*
X105219500Y-96278000D03*
D21*
X105219500Y-98053000D03*
%TD*%
%TO.C,D8*%
X105283000Y-82553000D03*
D22*
X105283000Y-84328000D03*
D20*
X105283000Y-77228000D03*
D21*
X105283000Y-79003000D03*
%TD*%
%TO.C,D7*%
X105219500Y-63497000D03*
D22*
X105219500Y-65272000D03*
D20*
X105219500Y-58172000D03*
D21*
X105219500Y-59947000D03*
%TD*%
%TO.C,D6*%
X105257600Y-44447000D03*
D22*
X105257600Y-46222000D03*
D20*
X105257600Y-39122000D03*
D21*
X105257600Y-40897000D03*
%TD*%
%TO.C,D5*%
X101028500Y-137982500D03*
D22*
X101028500Y-139757500D03*
D20*
X101028500Y-132657500D03*
D21*
X101028500Y-134432500D03*
%TD*%
%TO.C,D4*%
X102031800Y-101597000D03*
D22*
X102031800Y-103372000D03*
D20*
X102031800Y-96272000D03*
D21*
X102031800Y-98047000D03*
%TD*%
%TO.C,D3*%
X102082600Y-82547000D03*
D22*
X102082600Y-84322000D03*
D20*
X102082600Y-77222000D03*
D21*
X102082600Y-78997000D03*
%TD*%
%TO.C,D2*%
X102108000Y-63497000D03*
D22*
X102108000Y-65272000D03*
D20*
X102108000Y-58172000D03*
D21*
X102108000Y-59947000D03*
%TD*%
%TO.C,D1*%
X102108000Y-40897000D03*
D20*
X102108000Y-39122000D03*
D22*
X102108000Y-46222000D03*
D21*
X102108000Y-44447000D03*
%TD*%
M02*
