M48
; DRILL file {KiCad 5.99.0-unknown-47cb7f53fd~143~ubuntu20.04.1} date Do 18 Nov 2021 20:14:36 CET
; FORMAT={-:-/ absolute / inch / decimal}
; #@! TF.CreationDate,2021-11-18T20:14:36+01:00
; #@! TF.GenerationSoftware,Kicad,Pcbnew,5.99.0-unknown-47cb7f53fd~143~ubuntu20.04.1
; #@! TF.FileFunction,Plated,1,2,PTH
FMAT,2
INCH
; #@! TA.AperFunction,Plated,PTH,ComponentDrill
T1C0.0315
; #@! TA.AperFunction,Plated,PTH,ComponentDrill
T2C0.0394
; #@! TA.AperFunction,Plated,PTH,ComponentDrill
T3C0.0579
; #@! TA.AperFunction,Plated,PTH,ComponentDrill
T4C0.0866
%
G90
G05
T1
X2.3769Y-4.7006
X2.4031Y-4.9994
X2.5069Y-4.8206
X2.5331Y-5.1194
X2.6369Y-4.9406
X2.6631Y-5.2394
X2.7669Y-4.6706
X2.7931Y-4.9694
X2.8969Y-4.7906
X2.9231Y-5.0894
X3.0269Y-4.9106
X3.0531Y-5.2094
X3.1369Y-4.6406
X3.1631Y-4.9394
X3.2669Y-4.7606
X3.2931Y-5.0594
X3.3969Y-4.8806
X3.4231Y-5.1794
X3.5469Y-4.6106
X3.5731Y-4.9094
X3.6769Y-4.7206
X3.7031Y-5.0194
X3.8069Y-4.8406
X3.8331Y-5.1394
X3.93Y-4.48
X3.9457Y-4.7796
X4.05Y-4.6
X4.0657Y-4.8996
X4.18Y-4.72
X4.1957Y-5.0196
X4.32Y-4.46
X4.3357Y-4.7596
X4.45Y-4.58
X4.4657Y-4.8796
X4.58Y-4.7
X4.5957Y-4.9996
X5.57Y-4.66
X5.57Y-4.96
X6.4617Y-5.0589
X6.4983Y-4.7611
X7.2938Y-5.3882
X7.3989Y-5.4571
X7.4062Y-5.11
X7.6111Y-5.245
T2
X7.29Y-2.0
X7.29Y-2.1
X7.29Y-2.2
X7.29Y-2.3
X7.29Y-2.4
X7.29Y-2.5
X7.29Y-2.6
X7.29Y-2.7
X7.29Y-2.8
X7.29Y-2.9
X7.29Y-3.0
X7.29Y-3.1
X7.29Y-3.2
X7.29Y-3.3
X7.29Y-3.4
X7.29Y-3.5
X7.29Y-3.6
X7.29Y-3.7
X7.29Y-3.8
X7.29Y-3.9
X7.4401Y-3.75
X7.5401Y-3.75
X7.6401Y-3.75
X7.7401Y-3.75
X7.89Y-2.0
X7.89Y-2.1
X7.89Y-2.2
X7.89Y-2.3
X7.89Y-2.4
X7.89Y-2.5
X7.89Y-2.6
X7.89Y-2.7
X7.89Y-2.8
X7.89Y-2.9
X7.89Y-3.0
X7.89Y-3.1
X7.89Y-3.2
X7.89Y-3.3
X7.89Y-3.4
X7.89Y-3.5
X7.89Y-3.6
X7.89Y-3.7
X7.89Y-3.8
X7.89Y-3.9
T3
X2.3869Y-2.6535
X2.4519Y-3.4035
X2.5169Y-4.1535
X2.6272Y-2.532
X2.6922Y-3.282
X2.7572Y-4.032
X3.1359Y-2.5875
X3.2019Y-3.3385
X3.2669Y-4.0885
X3.3762Y-2.466
X3.4422Y-3.217
X3.5072Y-3.967
X3.965Y-2.383
X4.005Y-3.133
X4.045Y-3.883
X4.2094Y-2.27
X4.2494Y-3.02
X4.2894Y-3.77
X4.85Y-2.3
X4.85Y-3.05
X4.85Y-3.8
X5.0Y-4.9
X5.1Y-2.2
X5.1Y-2.95
X5.1Y-3.7
X5.25Y-4.8
X5.6504Y-3.9173
X5.6904Y-3.1673
X5.7304Y-2.4173
X5.8983Y-4.9325
X5.9053Y-3.8305
X5.9453Y-3.0805
X5.9853Y-2.3305
X6.1586Y-4.8637
X6.4004Y-3.9573
X6.4404Y-3.2073
X6.4804Y-2.4573
X6.6553Y-3.8705
X6.6953Y-3.1205
X6.7353Y-2.3705
X6.7884Y-5.1211
X7.0576Y-5.122
X7.6346Y-5.6032
X7.8821Y-5.7093
T4
X2.89Y-2.37
X3.075Y-4.51
X6.27Y-2.16
X6.9Y-4.63
X7.23Y-5.58
T0
M30
