M48
; DRILL file {KiCad 5.99.0-unknown-47cb7f53fd~143~ubuntu20.04.1} date Do 18 Nov 2021 20:14:36 CET
; FORMAT={-:-/ absolute / inch / decimal}
; #@! TF.CreationDate,2021-11-18T20:14:36+01:00
; #@! TF.GenerationSoftware,Kicad,Pcbnew,5.99.0-unknown-47cb7f53fd~143~ubuntu20.04.1
; #@! TF.FileFunction,NonPlated,1,2,NPTH
FMAT,2
INCH
; #@! TA.AperFunction,NonPlated,NPTH,ComponentDrill
T1C0.0689
; #@! TA.AperFunction,NonPlated,NPTH,ComponentDrill
T2C0.1570
%
G90
G05
T1
X2.3458Y-2.7574
X2.4108Y-3.5074
X2.4758Y-4.2574
X2.7442Y-2.7226
X2.8092Y-3.4726
X2.8742Y-4.2226
X3.0948Y-2.6914
X3.1608Y-3.4424
X3.2258Y-4.1924
X3.4932Y-2.6566
X3.5592Y-3.4076
X3.6242Y-4.1576
X3.9203Y-2.4855
X3.9603Y-3.2355
X4.0003Y-3.9855
X4.3197Y-2.4645
X4.3597Y-3.2145
X4.3997Y-3.9645
X4.8Y-2.4
X4.8Y-3.15
X4.8Y-3.9
X4.95Y-5.0
X5.2Y-2.4
X5.2Y-3.15
X5.2Y-3.9
X5.35Y-5.0
X5.5953Y-4.0145
X5.6353Y-3.2645
X5.6753Y-2.5145
X5.8365Y-5.0256
X5.9947Y-4.0355
X6.0347Y-3.2855
X6.0747Y-2.5355
X6.2335Y-5.0744
X6.3453Y-4.0545
X6.3853Y-3.3045
X6.4253Y-2.5545
X6.7046Y-5.1951
X6.7447Y-4.0755
X6.7847Y-3.3255
X6.8247Y-2.5755
X7.0754Y-5.3449
X7.5286Y-5.6386
X7.8114Y-5.9214
T2
X2.545Y-2.74
X2.61Y-3.49
X2.675Y-4.24
X3.294Y-2.674
X3.36Y-3.425
X3.425Y-4.175
X4.12Y-2.475
X4.16Y-3.225
X4.2Y-3.975
X5.0Y-2.4
X5.0Y-3.15
X5.0Y-3.9
X5.15Y-5.0
X5.795Y-4.025
X5.835Y-3.275
X5.875Y-2.525
X6.035Y-5.05
X6.545Y-4.065
X6.585Y-3.315
X6.625Y-2.565
X6.89Y-5.27
X7.67Y-5.78
T0
M30
