%TF.GenerationSoftware,KiCad,Pcbnew,5.99.0-unknown-47cb7f53fd~143~ubuntu20.04.1*%
%TF.CreationDate,2021-11-18T20:14:39+01:00*%
%TF.ProjectId,rad-pad,7261642d-7061-4642-9e6b-696361645f70,rev?*%
%TF.SameCoordinates,Original*%
%TF.FileFunction,Legend,Top*%
%TF.FilePolarity,Positive*%
%FSLAX46Y46*%
G04 Gerber Fmt 4.6, Leading zero omitted, Abs format (unit mm)*
G04 Created by KiCad (PCBNEW 5.99.0-unknown-47cb7f53fd~143~ubuntu20.04.1) date 2021-11-18 20:14:39*
%MOMM*%
%LPD*%
G01*
G04 APERTURE LIST*
G04 Aperture macros list*
%AMRoundRect*
0 Rectangle with rounded corners*
0 $1 Rounding radius*
0 $2 $3 $4 $5 $6 $7 $8 $9 X,Y pos of 4 corners*
0 Add a 4 corners polygon primitive as box body*
4,1,4,$2,$3,$4,$5,$6,$7,$8,$9,$2,$3,0*
0 Add four circle primitives for the rounded corners*
1,1,$1+$1,$2,$3*
1,1,$1+$1,$4,$5*
1,1,$1+$1,$6,$7*
1,1,$1+$1,$8,$9*
0 Add four rect primitives between the rounded corners*
20,1,$1+$1,$2,$3,$4,$5,0*
20,1,$1+$1,$4,$5,$6,$7,0*
20,1,$1+$1,$6,$7,$8,$9,0*
20,1,$1+$1,$8,$9,$2,$3,0*%
%AMHorizOval*
0 Thick line with rounded ends*
0 $1 width*
0 $2 $3 position (X,Y) of the first rounded end (center of the circle)*
0 $4 $5 position (X,Y) of the second rounded end (center of the circle)*
0 Add line between two ends*
20,1,$1,$2,$3,$4,$5,0*
0 Add two circle primitives to create the rounded ends*
1,1,$1,$2,$3*
1,1,$1,$4,$5*%
G04 Aperture macros list end*
%ADD10C,0.120000*%
%ADD11C,0.127000*%
%ADD12C,3.987800*%
%ADD13C,1.750000*%
%ADD14C,2.250000*%
%ADD15RoundRect,0.160000X0.693344X-0.581785X0.581785X0.693344X-0.693344X0.581785X-0.581785X-0.693344X0*%
%ADD16HorizOval,1.600000X0.000000X0.000000X0.000000X0.000000X0*%
%ADD17C,4.000000*%
%ADD18RoundRect,0.160000X0.353649X-0.833146X0.833146X0.353649X-0.353649X0.833146X-0.833146X-0.353649X0*%
%ADD19HorizOval,1.600000X0.000000X0.000000X0.000000X0.000000X0*%
%ADD20RoundRect,0.160000X0.672618X-0.605628X0.605628X0.672618X-0.672618X0.605628X-0.605628X-0.672618X0*%
%ADD21HorizOval,1.600000X0.000000X0.000000X0.000000X0.000000X0*%
%ADD22RoundRect,0.160000X0.640000X-0.640000X0.640000X0.640000X-0.640000X0.640000X-0.640000X-0.640000X0*%
%ADD23O,1.600000X1.600000*%
%ADD24RoundRect,0.160000X0.557233X-0.713226X0.713226X0.557233X-0.557233X0.713226X-0.713226X-0.557233X0*%
%ADD25HorizOval,1.600000X0.000000X0.000000X0.000000X0.000000X0*%
%ADD26R,1.700000X1.700000*%
%ADD27C,1.700000*%
%ADD28RoundRect,0.160000X0.000000X-0.905097X0.905097X0.000000X0.000000X0.905097X-0.905097X0.000000X0*%
%ADD29HorizOval,1.600000X0.000000X0.000000X0.000000X0.000000X0*%
G04 APERTURE END LIST*
D10*
%TO.C,D11*%
X91354968Y-118694453D02*
X89123492Y-118889682D01*
X89493032Y-123113547D02*
X91724508Y-122918318D01*
X91724508Y-122918318D02*
X91354968Y-118694453D01*
X89440739Y-122515830D02*
X91672215Y-122320602D01*
D11*
X90045998Y-123869229D02*
X91311166Y-123758541D01*
D10*
X90678582Y-123813885D02*
X90608770Y-123015933D01*
X90173846Y-118044722D02*
X90235831Y-118753216D01*
D11*
X89925790Y-125409567D02*
X89815102Y-124144400D01*
D10*
X89430280Y-122396287D02*
X91661756Y-122201058D01*
D11*
X91586337Y-123989437D02*
X91697024Y-125254604D01*
D10*
X89123492Y-118889682D02*
X89493032Y-123113547D01*
X89419821Y-122276744D02*
X91651297Y-122081515D01*
D11*
X91466128Y-125529775D02*
X90200961Y-125640463D01*
X90045998Y-123869228D02*
G75*
G03*
X89815102Y-124144400I22138J-253034D01*
G01*
X91466128Y-125529775D02*
G75*
G03*
X91697024Y-125254604I-22137J253033D01*
G01*
X89925791Y-125409567D02*
G75*
G03*
X90200961Y-125640463I253033J22138D01*
G01*
X91586336Y-123989437D02*
G75*
G03*
X91311166Y-123758541I-253033J-22137D01*
G01*
X91016510Y-117108498D02*
G75*
G03*
X91016510Y-117108498I-924573J0D01*
G01*
D10*
%TO.C,D4*%
X70866582Y-125337885D02*
X70796770Y-124539933D01*
X69618280Y-123920287D02*
X71849756Y-123725058D01*
X71542968Y-120218453D02*
X69311492Y-120413682D01*
D11*
X70113790Y-126933567D02*
X70003102Y-125668400D01*
D10*
X69311492Y-120413682D02*
X69681032Y-124637547D01*
X70361846Y-119568722D02*
X70423831Y-120277216D01*
D11*
X71774337Y-125513437D02*
X71885024Y-126778604D01*
D10*
X69681032Y-124637547D02*
X71912508Y-124442318D01*
X71912508Y-124442318D02*
X71542968Y-120218453D01*
D11*
X71654128Y-127053775D02*
X70388961Y-127164463D01*
D10*
X69628739Y-124039830D02*
X71860215Y-123844602D01*
X69607821Y-123800744D02*
X71839297Y-123605515D01*
D11*
X70233998Y-125393229D02*
X71499166Y-125282541D01*
X70113791Y-126933567D02*
G75*
G03*
X70388961Y-127164463I253033J22138D01*
G01*
X71654128Y-127053775D02*
G75*
G03*
X71885024Y-126778604I-22137J253033D01*
G01*
X71774336Y-125513437D02*
G75*
G03*
X71499166Y-125282541I-253033J-22137D01*
G01*
X70233998Y-125393228D02*
G75*
G03*
X70003102Y-125668400I22138J-253034D01*
G01*
X71204510Y-118632498D02*
G75*
G03*
X71204510Y-118632498I-924573J0D01*
G01*
D10*
%TO.C,D13*%
X96097032Y-128955547D02*
X98328508Y-128760318D01*
X96034280Y-128238287D02*
X98265756Y-128043058D01*
X97958968Y-124536453D02*
X95727492Y-124731682D01*
X97282582Y-129655885D02*
X97212770Y-128857933D01*
D11*
X96529790Y-131251567D02*
X96419102Y-129986400D01*
D10*
X98328508Y-128760318D02*
X97958968Y-124536453D01*
D11*
X96649998Y-129711229D02*
X97915166Y-129600541D01*
X98190337Y-129831437D02*
X98301024Y-131096604D01*
D10*
X96044739Y-128357830D02*
X98276215Y-128162602D01*
X95727492Y-124731682D02*
X96097032Y-128955547D01*
X96777846Y-123886722D02*
X96839831Y-124595216D01*
X96023821Y-128118744D02*
X98255297Y-127923515D01*
D11*
X98070128Y-131371775D02*
X96804961Y-131482463D01*
X96649998Y-129711228D02*
G75*
G03*
X96419102Y-129986400I22138J-253034D01*
G01*
X98190336Y-129831437D02*
G75*
G03*
X97915166Y-129600541I-253033J-22137D01*
G01*
X96529791Y-131251567D02*
G75*
G03*
X96804961Y-131482463I253033J22138D01*
G01*
X98070128Y-131371775D02*
G75*
G03*
X98301024Y-131096604I-22137J253033D01*
G01*
X97620510Y-122950498D02*
G75*
G03*
X97620510Y-122950498I-924573J0D01*
G01*
D10*
%TO.C,D6*%
X77470582Y-131433885D02*
X77400770Y-130635933D01*
D11*
X78258128Y-133149775D02*
X76992961Y-133260463D01*
D10*
X76211821Y-129896744D02*
X78443297Y-129701515D01*
X76285032Y-130733547D02*
X78516508Y-130538318D01*
X75915492Y-126509682D02*
X76285032Y-130733547D01*
X76222280Y-130016287D02*
X78453756Y-129821058D01*
D11*
X78378337Y-131609437D02*
X78489024Y-132874604D01*
D10*
X78516508Y-130538318D02*
X78146968Y-126314453D01*
X76232739Y-130135830D02*
X78464215Y-129940602D01*
D11*
X76837998Y-131489229D02*
X78103166Y-131378541D01*
D10*
X78146968Y-126314453D02*
X75915492Y-126509682D01*
X76965846Y-125664722D02*
X77027831Y-126373216D01*
D11*
X76717790Y-133029567D02*
X76607102Y-131764400D01*
X78258128Y-133149775D02*
G75*
G03*
X78489024Y-132874604I-22137J253033D01*
G01*
X76717791Y-133029567D02*
G75*
G03*
X76992961Y-133260463I253033J22138D01*
G01*
X78378336Y-131609437D02*
G75*
G03*
X78103166Y-131378541I-253033J-22137D01*
G01*
X76837998Y-131489228D02*
G75*
G03*
X76607102Y-131764400I22138J-253034D01*
G01*
X77808510Y-124728498D02*
G75*
G03*
X77808510Y-124728498I-924573J0D01*
G01*
D10*
%TO.C,D7*%
X80264582Y-124575885D02*
X80194770Y-123777933D01*
X78709492Y-119651682D02*
X79079032Y-123875547D01*
X79759846Y-118806722D02*
X79821831Y-119515216D01*
X79016280Y-123158287D02*
X81247756Y-122963058D01*
X80940968Y-119456453D02*
X78709492Y-119651682D01*
D11*
X81052128Y-126291775D02*
X79786961Y-126402463D01*
D10*
X81310508Y-123680318D02*
X80940968Y-119456453D01*
X79026739Y-123277830D02*
X81258215Y-123082602D01*
D11*
X81172337Y-124751437D02*
X81283024Y-126016604D01*
D10*
X79079032Y-123875547D02*
X81310508Y-123680318D01*
D11*
X79511790Y-126171567D02*
X79401102Y-124906400D01*
X79631998Y-124631229D02*
X80897166Y-124520541D01*
D10*
X79005821Y-123038744D02*
X81237297Y-122843515D01*
D11*
X79511791Y-126171567D02*
G75*
G03*
X79786961Y-126402463I253033J22138D01*
G01*
X81052128Y-126291775D02*
G75*
G03*
X81283024Y-126016604I-22137J253033D01*
G01*
X81172336Y-124751437D02*
G75*
G03*
X80897166Y-124520541I-253033J-22137D01*
G01*
X79631998Y-124631228D02*
G75*
G03*
X79401102Y-124906400I22138J-253034D01*
G01*
X80602510Y-117870498D02*
G75*
G03*
X80602510Y-117870498I-924573J0D01*
G01*
D10*
%TO.C,D18*%
X187765196Y-130665367D02*
X187498776Y-131324780D01*
X184857388Y-134872640D02*
X186934280Y-135711759D01*
X185595774Y-136034874D02*
X185895834Y-135292200D01*
X188522612Y-131780500D02*
X186445720Y-130941381D01*
X185127105Y-134205068D02*
X187203997Y-135044187D01*
X186445720Y-130941381D02*
X184857388Y-134872640D01*
D11*
X186324891Y-136603404D02*
X185849140Y-137780927D01*
D10*
X185082152Y-134316330D02*
X187159044Y-135155449D01*
X186934280Y-135711759D02*
X188522612Y-131780500D01*
X185172058Y-134093806D02*
X187248949Y-134932925D01*
D11*
X185518485Y-137921282D02*
X184340962Y-137445532D01*
X184200607Y-137114877D02*
X184676358Y-135937353D01*
X185007012Y-135796999D02*
X186184536Y-136272749D01*
X185518485Y-137921282D02*
G75*
G03*
X185849140Y-137780927I95150J235505D01*
G01*
X184200607Y-137114877D02*
G75*
G03*
X184340962Y-137445532I235505J-95150D01*
G01*
X186324891Y-136603404D02*
G75*
G03*
X186184536Y-136272749I-235505J95150D01*
G01*
X185007012Y-135796998D02*
G75*
G03*
X184676358Y-135937353I-95150J-235504D01*
G01*
X189041825Y-129794000D02*
G75*
G03*
X189041825Y-129794000I-924574J0D01*
G01*
%TO.C,D19*%
X109272252Y-121574214D02*
X109205785Y-120305954D01*
D10*
X108882205Y-118545477D02*
X111119135Y-118428244D01*
X108888486Y-118665312D02*
X111125416Y-118548080D01*
X109777185Y-114222513D02*
X109814407Y-114932738D01*
X111156817Y-119147257D02*
X110934913Y-114913068D01*
X108875925Y-118425641D02*
X111112855Y-118308409D01*
D11*
X109446144Y-120039009D02*
X110714403Y-119972543D01*
X110807456Y-121748106D02*
X109539197Y-121814573D01*
D10*
X108697983Y-115030301D02*
X108919887Y-119264490D01*
D11*
X110981348Y-120212901D02*
X111047815Y-121481161D01*
D10*
X108919887Y-119264490D02*
X111156817Y-119147257D01*
X110934913Y-114913068D02*
X108697983Y-115030301D01*
X110080273Y-120005776D02*
X110038352Y-119205874D01*
D11*
X109446144Y-120039009D02*
G75*
G03*
X109205785Y-120305954I13293J-253652D01*
G01*
X110807456Y-121748106D02*
G75*
G03*
X111047815Y-121481161I-13293J253652D01*
G01*
X109272252Y-121574214D02*
G75*
G03*
X109539197Y-121814573I253652J13293D01*
G01*
X110981347Y-120212901D02*
G75*
G03*
X110714403Y-119972543I-253651J-13293D01*
G01*
X110652574Y-113284000D02*
G75*
G03*
X110652574Y-113284000I-924574J0D01*
G01*
D10*
%TO.C,D12*%
X93980582Y-126607885D02*
X93910770Y-125809933D01*
D11*
X94768128Y-128323775D02*
X93502961Y-128434463D01*
D10*
X92795032Y-125907547D02*
X95026508Y-125712318D01*
X92732280Y-125190287D02*
X94963756Y-124995058D01*
X93475846Y-120838722D02*
X93537831Y-121547216D01*
X95026508Y-125712318D02*
X94656968Y-121488453D01*
D11*
X93227790Y-128203567D02*
X93117102Y-126938400D01*
X93347998Y-126663229D02*
X94613166Y-126552541D01*
D10*
X92742739Y-125309830D02*
X94974215Y-125114602D01*
X92425492Y-121683682D02*
X92795032Y-125907547D01*
X94656968Y-121488453D02*
X92425492Y-121683682D01*
D11*
X94888337Y-126783437D02*
X94999024Y-128048604D01*
D10*
X92721821Y-125070744D02*
X94953297Y-124875515D01*
D11*
X94888336Y-126783437D02*
G75*
G03*
X94613166Y-126552541I-253033J-22137D01*
G01*
X93227791Y-128203567D02*
G75*
G03*
X93502961Y-128434463I253033J22138D01*
G01*
X93347998Y-126663228D02*
G75*
G03*
X93117102Y-126938400I22138J-253034D01*
G01*
X94768128Y-128323775D02*
G75*
G03*
X94999024Y-128048604I-22137J253033D01*
G01*
X94318510Y-119902498D02*
G75*
G03*
X94318510Y-119902498I-924573J0D01*
G01*
%TO.C,D21*%
X117585348Y-126308901D02*
X117651815Y-127577161D01*
D10*
X115523887Y-125360490D02*
X117760817Y-125243257D01*
X117538913Y-121009068D02*
X115301983Y-121126301D01*
X115486205Y-124641477D02*
X117723135Y-124524244D01*
X115492486Y-124761312D02*
X117729416Y-124644080D01*
X117760817Y-125243257D02*
X117538913Y-121009068D01*
X116381185Y-120318513D02*
X116418407Y-121028738D01*
D11*
X116050144Y-126135009D02*
X117318403Y-126068543D01*
D10*
X116684273Y-126101776D02*
X116642352Y-125301874D01*
D11*
X115876252Y-127670214D02*
X115809785Y-126401954D01*
D10*
X115479925Y-124521641D02*
X117716855Y-124404409D01*
X115301983Y-121126301D02*
X115523887Y-125360490D01*
D11*
X117411456Y-127844106D02*
X116143197Y-127910573D01*
X116050144Y-126135009D02*
G75*
G03*
X115809785Y-126401954I13293J-253652D01*
G01*
X115876252Y-127670214D02*
G75*
G03*
X116143197Y-127910573I253652J13293D01*
G01*
X117411456Y-127844106D02*
G75*
G03*
X117651815Y-127577161I-13293J253652D01*
G01*
X117585347Y-126308901D02*
G75*
G03*
X117318403Y-126068543I-253651J-13293D01*
G01*
X117256574Y-119380000D02*
G75*
G03*
X117256574Y-119380000I-924574J0D01*
G01*
D10*
%TO.C,D10*%
X142598000Y-120054000D02*
X140358000Y-120054000D01*
X140358000Y-120054000D02*
X140358000Y-124294000D01*
X140358000Y-123574000D02*
X142598000Y-123574000D01*
D11*
X142367000Y-125349000D02*
X142367000Y-126619000D01*
X140843000Y-125095000D02*
X142113000Y-125095000D01*
X140589000Y-126619000D02*
X140589000Y-125349000D01*
D10*
X140358000Y-124294000D02*
X142598000Y-124294000D01*
X142598000Y-124294000D02*
X142598000Y-120054000D01*
X141478000Y-125095000D02*
X141478000Y-124294000D01*
D11*
X142113000Y-126873000D02*
X140843000Y-126873000D01*
D10*
X140358000Y-123694000D02*
X142598000Y-123694000D01*
X140358000Y-123454000D02*
X142598000Y-123454000D01*
X141478000Y-119303800D02*
X141478000Y-120015000D01*
D11*
X140843000Y-125095000D02*
G75*
G03*
X140589000Y-125349000I0J-254000D01*
G01*
X142367000Y-125349000D02*
G75*
G03*
X142113000Y-125095000I-254000J0D01*
G01*
X142113000Y-126873000D02*
G75*
G03*
X142367000Y-126619000I0J254000D01*
G01*
X140589000Y-126619000D02*
G75*
G03*
X140843000Y-126873000I254000J0D01*
G01*
X142402574Y-118364000D02*
G75*
G03*
X142402574Y-118364000I-924574J0D01*
G01*
%TO.C,D2*%
X65050128Y-130863775D02*
X63784961Y-130974463D01*
D10*
X63024739Y-127849830D02*
X65256215Y-127654602D01*
D11*
X63509790Y-130743567D02*
X63399102Y-129478400D01*
D10*
X64262582Y-129147885D02*
X64192770Y-128349933D01*
X63003821Y-127610744D02*
X65235297Y-127415515D01*
X63757846Y-123378722D02*
X63819831Y-124087216D01*
D11*
X63629998Y-129203229D02*
X64895166Y-129092541D01*
D10*
X62707492Y-124223682D02*
X63077032Y-128447547D01*
X63077032Y-128447547D02*
X65308508Y-128252318D01*
X64938968Y-124028453D02*
X62707492Y-124223682D01*
D11*
X65170337Y-129323437D02*
X65281024Y-130588604D01*
D10*
X63014280Y-127730287D02*
X65245756Y-127535058D01*
X65308508Y-128252318D02*
X64938968Y-124028453D01*
D11*
X65170336Y-129323437D02*
G75*
G03*
X64895166Y-129092541I-253033J-22137D01*
G01*
X65050128Y-130863775D02*
G75*
G03*
X65281024Y-130588604I-22137J253033D01*
G01*
X63509791Y-130743567D02*
G75*
G03*
X63784961Y-130974463I253033J22138D01*
G01*
X63629998Y-129203228D02*
G75*
G03*
X63399102Y-129478400I22138J-253034D01*
G01*
X64600510Y-122442498D02*
G75*
G03*
X64600510Y-122442498I-924573J0D01*
G01*
D10*
%TO.C,D8*%
X83061846Y-121854722D02*
X83123831Y-122563216D01*
D11*
X84474337Y-127799437D02*
X84585024Y-129064604D01*
D10*
X83566582Y-127623885D02*
X83496770Y-126825933D01*
X82381032Y-126923547D02*
X84612508Y-126728318D01*
X82011492Y-122699682D02*
X82381032Y-126923547D01*
X82318280Y-126206287D02*
X84549756Y-126011058D01*
X82328739Y-126325830D02*
X84560215Y-126130602D01*
X84612508Y-126728318D02*
X84242968Y-122504453D01*
X82307821Y-126086744D02*
X84539297Y-125891515D01*
D11*
X82933998Y-127679229D02*
X84199166Y-127568541D01*
D10*
X84242968Y-122504453D02*
X82011492Y-122699682D01*
D11*
X82813790Y-129219567D02*
X82703102Y-127954400D01*
X84354128Y-129339775D02*
X83088961Y-129450463D01*
X82933998Y-127679228D02*
G75*
G03*
X82703102Y-127954400I22138J-253034D01*
G01*
X82813791Y-129219567D02*
G75*
G03*
X83088961Y-129450463I253033J22138D01*
G01*
X84474336Y-127799437D02*
G75*
G03*
X84199166Y-127568541I-253033J-22137D01*
G01*
X84354128Y-129339775D02*
G75*
G03*
X84585024Y-129064604I-22137J253033D01*
G01*
X83904510Y-120918498D02*
G75*
G03*
X83904510Y-120918498I-924573J0D01*
G01*
%TO.C,D14*%
X163167917Y-129017526D02*
X163322691Y-127756992D01*
D10*
X165962015Y-122746296D02*
X163738711Y-122473308D01*
X165445289Y-126954692D02*
X165962015Y-122746296D01*
X164236020Y-127613227D02*
X164333637Y-126818198D01*
X163738711Y-122473308D02*
X163221985Y-126681704D01*
X163309731Y-125967071D02*
X165533035Y-126240058D01*
X164941789Y-121865194D02*
X164855116Y-122571093D01*
D11*
X164649603Y-129455361D02*
X163389069Y-129300587D01*
X163605753Y-127535840D02*
X164866286Y-127690614D01*
D10*
X163221985Y-126681704D02*
X165445289Y-126954692D01*
X163324356Y-125847965D02*
X165547659Y-126120953D01*
D11*
X165087438Y-127973676D02*
X164932664Y-129234209D01*
D10*
X163295107Y-126086176D02*
X165518410Y-126359164D01*
D11*
X165087439Y-127973676D02*
G75*
G03*
X164866286Y-127690614I-252106J30956D01*
G01*
X164649603Y-129455361D02*
G75*
G03*
X164932664Y-129234209I30955J252106D01*
G01*
X163167918Y-129017526D02*
G75*
G03*
X163389069Y-129300587I252106J-30955D01*
G01*
X163605753Y-127535840D02*
G75*
G03*
X163322691Y-127756992I-30955J-252107D01*
G01*
X165980896Y-120932399D02*
G75*
G03*
X165980896Y-120932399I-924574J0D01*
G01*
%TO.C,D5*%
X73535998Y-128441229D02*
X74801166Y-128330541D01*
D10*
X75214508Y-127490318D02*
X74844968Y-123266453D01*
X72920280Y-126968287D02*
X75151756Y-126773058D01*
X72983032Y-127685547D02*
X75214508Y-127490318D01*
X73663846Y-122616722D02*
X73725831Y-123325216D01*
X74168582Y-128385885D02*
X74098770Y-127587933D01*
X72909821Y-126848744D02*
X75141297Y-126653515D01*
D11*
X75076337Y-128561437D02*
X75187024Y-129826604D01*
X74956128Y-130101775D02*
X73690961Y-130212463D01*
D10*
X72930739Y-127087830D02*
X75162215Y-126892602D01*
D11*
X73415790Y-129981567D02*
X73305102Y-128716400D01*
D10*
X74844968Y-123266453D02*
X72613492Y-123461682D01*
X72613492Y-123461682D02*
X72983032Y-127685547D01*
D11*
X73415791Y-129981567D02*
G75*
G03*
X73690961Y-130212463I253033J22138D01*
G01*
X74956128Y-130101775D02*
G75*
G03*
X75187024Y-129826604I-22137J253033D01*
G01*
X75076336Y-128561437D02*
G75*
G03*
X74801166Y-128330541I-253033J-22137D01*
G01*
X73535998Y-128441228D02*
G75*
G03*
X73305102Y-128716400I22138J-253034D01*
G01*
X74506510Y-121680498D02*
G75*
G03*
X74506510Y-121680498I-924573J0D01*
G01*
%TO.C,D1*%
X61748128Y-127815775D02*
X60482961Y-127926463D01*
D10*
X59722739Y-124801830D02*
X61954215Y-124606602D01*
D11*
X60327998Y-126155229D02*
X61593166Y-126044541D01*
D10*
X60455846Y-120330722D02*
X60517831Y-121039216D01*
X60960582Y-126099885D02*
X60890770Y-125301933D01*
X62006508Y-125204318D02*
X61636968Y-120980453D01*
X59775032Y-125399547D02*
X62006508Y-125204318D01*
X59405492Y-121175682D02*
X59775032Y-125399547D01*
D11*
X61868337Y-126275437D02*
X61979024Y-127540604D01*
X60207790Y-127695567D02*
X60097102Y-126430400D01*
D10*
X61636968Y-120980453D02*
X59405492Y-121175682D01*
X59701821Y-124562744D02*
X61933297Y-124367515D01*
X59712280Y-124682287D02*
X61943756Y-124487058D01*
D11*
X60327998Y-126155228D02*
G75*
G03*
X60097102Y-126430400I22138J-253034D01*
G01*
X61748128Y-127815775D02*
G75*
G03*
X61979024Y-127540604I-22137J253033D01*
G01*
X60207791Y-127695567D02*
G75*
G03*
X60482961Y-127926463I253033J22138D01*
G01*
X61868336Y-126275437D02*
G75*
G03*
X61593166Y-126044541I-253033J-22137D01*
G01*
X61298510Y-119394498D02*
G75*
G03*
X61298510Y-119394498I-924573J0D01*
G01*
%TO.C,D16*%
X102414252Y-125130214D02*
X102347785Y-123861954D01*
D10*
X101839983Y-118586301D02*
X102061887Y-122820490D01*
D11*
X103949456Y-125304106D02*
X102681197Y-125370573D01*
X104123348Y-123768901D02*
X104189815Y-125037161D01*
D10*
X102017925Y-121981641D02*
X104254855Y-121864409D01*
X104298817Y-122703257D02*
X104076913Y-118469068D01*
X104076913Y-118469068D02*
X101839983Y-118586301D01*
X102061887Y-122820490D02*
X104298817Y-122703257D01*
D11*
X102588144Y-123595009D02*
X103856403Y-123528543D01*
D10*
X102919185Y-117778513D02*
X102956407Y-118488738D01*
X102024205Y-122101477D02*
X104261135Y-121984244D01*
X102030486Y-122221312D02*
X104267416Y-122104080D01*
X103222273Y-123561776D02*
X103180352Y-122761874D01*
D11*
X102414252Y-125130214D02*
G75*
G03*
X102681197Y-125370573I253652J13293D01*
G01*
X103949456Y-125304106D02*
G75*
G03*
X104189815Y-125037161I-13293J253652D01*
G01*
X102588144Y-123595009D02*
G75*
G03*
X102347785Y-123861954I13293J-253652D01*
G01*
X104123347Y-123768901D02*
G75*
G03*
X103856403Y-123528543I-253651J-13293D01*
G01*
X103794574Y-116840000D02*
G75*
G03*
X103794574Y-116840000I-924574J0D01*
G01*
D10*
%TO.C,D3*%
X66326739Y-130897830D02*
X68558215Y-130702602D01*
X66316280Y-130778287D02*
X68547756Y-130583058D01*
D11*
X68352128Y-133911775D02*
X67086961Y-134022463D01*
D10*
X67059846Y-126426722D02*
X67121831Y-127135216D01*
X66305821Y-130658744D02*
X68537297Y-130463515D01*
X66009492Y-127271682D02*
X66379032Y-131495547D01*
X67564582Y-132195885D02*
X67494770Y-131397933D01*
D11*
X66811790Y-133791567D02*
X66701102Y-132526400D01*
X68472337Y-132371437D02*
X68583024Y-133636604D01*
X66931998Y-132251229D02*
X68197166Y-132140541D01*
D10*
X68240968Y-127076453D02*
X66009492Y-127271682D01*
X66379032Y-131495547D02*
X68610508Y-131300318D01*
X68610508Y-131300318D02*
X68240968Y-127076453D01*
D11*
X66931998Y-132251228D02*
G75*
G03*
X66701102Y-132526400I22138J-253034D01*
G01*
X68352128Y-133911775D02*
G75*
G03*
X68583024Y-133636604I-22137J253033D01*
G01*
X66811791Y-133791567D02*
G75*
G03*
X67086961Y-134022463I253033J22138D01*
G01*
X68472336Y-132371437D02*
G75*
G03*
X68197166Y-132140541I-253033J-22137D01*
G01*
X67902510Y-125490498D02*
G75*
G03*
X67902510Y-125490498I-924573J0D01*
G01*
%TO.C,D15*%
X99540144Y-120547009D02*
X100808403Y-120480543D01*
D10*
X99013887Y-119772490D02*
X101250817Y-119655257D01*
X100174273Y-120513776D02*
X100132352Y-119713874D01*
X99871185Y-114730513D02*
X99908407Y-115440738D01*
X101250817Y-119655257D02*
X101028913Y-115421068D01*
X98976205Y-119053477D02*
X101213135Y-118936244D01*
X98982486Y-119173312D02*
X101219416Y-119056080D01*
X98969925Y-118933641D02*
X101206855Y-118816409D01*
D11*
X101075348Y-120720901D02*
X101141815Y-121989161D01*
X99366252Y-122082214D02*
X99299785Y-120813954D01*
X100901456Y-122256106D02*
X99633197Y-122322573D01*
D10*
X98791983Y-115538301D02*
X99013887Y-119772490D01*
X101028913Y-115421068D02*
X98791983Y-115538301D01*
D11*
X99366252Y-122082214D02*
G75*
G03*
X99633197Y-122322573I253652J13293D01*
G01*
X101075347Y-120720901D02*
G75*
G03*
X100808403Y-120480543I-253651J-13293D01*
G01*
X99540144Y-120547009D02*
G75*
G03*
X99299785Y-120813954I13293J-253652D01*
G01*
X100901456Y-122256106D02*
G75*
G03*
X101141815Y-121989161I-13293J253652D01*
G01*
X100746574Y-113792000D02*
G75*
G03*
X100746574Y-113792000I-924574J0D01*
G01*
D10*
%TO.C,U2*%
X183836000Y-49470000D02*
X185166000Y-49470000D01*
X183836000Y-50800000D02*
X183836000Y-49470000D01*
D11*
%TO.C,D9*%
X87776337Y-130847437D02*
X87887024Y-132112604D01*
D10*
X86363846Y-124902722D02*
X86425831Y-125611216D01*
X85620280Y-129254287D02*
X87851756Y-129059058D01*
D11*
X86115790Y-132267567D02*
X86005102Y-131002400D01*
D10*
X85630739Y-129373830D02*
X87862215Y-129178602D01*
X85609821Y-129134744D02*
X87841297Y-128939515D01*
D11*
X87656128Y-132387775D02*
X86390961Y-132498463D01*
D10*
X87914508Y-129776318D02*
X87544968Y-125552453D01*
X86868582Y-130671885D02*
X86798770Y-129873933D01*
X87544968Y-125552453D02*
X85313492Y-125747682D01*
X85313492Y-125747682D02*
X85683032Y-129971547D01*
X85683032Y-129971547D02*
X87914508Y-129776318D01*
D11*
X86235998Y-130727229D02*
X87501166Y-130616541D01*
X86235998Y-130727228D02*
G75*
G03*
X86005102Y-131002400I22138J-253034D01*
G01*
X87776336Y-130847437D02*
G75*
G03*
X87501166Y-130616541I-253033J-22137D01*
G01*
X86115791Y-132267567D02*
G75*
G03*
X86390961Y-132498463I253033J22138D01*
G01*
X87656128Y-132387775D02*
G75*
G03*
X87887024Y-132112604I-22137J253033D01*
G01*
X87206510Y-123966498D02*
G75*
G03*
X87206510Y-123966498I-924573J0D01*
G01*
%TO.C,D22*%
X189010554Y-138790759D02*
X188112528Y-139688785D01*
D10*
X188335974Y-136624184D02*
X189919893Y-138208103D01*
X188845091Y-136115067D02*
X190429010Y-137698986D01*
D11*
X186855292Y-138431549D02*
X187753318Y-137533523D01*
D10*
X188929944Y-136030214D02*
X190513863Y-137614133D01*
X192656538Y-133887539D02*
X192153644Y-134390433D01*
D11*
X188112528Y-137533523D02*
X189010554Y-138431549D01*
D10*
X189919893Y-138208103D02*
X192918026Y-135209970D01*
X192918026Y-135209970D02*
X191334107Y-133626051D01*
D11*
X187753318Y-139688785D02*
X186855292Y-138790759D01*
D10*
X188561541Y-137982536D02*
X189127934Y-137416143D01*
X191334107Y-133626051D02*
X188335974Y-136624184D01*
X188760238Y-136199920D02*
X190344157Y-137783839D01*
D11*
X187753318Y-139688785D02*
G75*
G03*
X188112528Y-139688785I179605J179604D01*
G01*
X186855292Y-138431549D02*
G75*
G03*
X186855292Y-138790759I179604J-179605D01*
G01*
X189010554Y-138790759D02*
G75*
G03*
X189010554Y-138431549I-179605J179605D01*
G01*
X188112528Y-137533523D02*
G75*
G03*
X187753318Y-137533523I-179605J-179605D01*
G01*
X194245651Y-133223000D02*
G75*
G03*
X194245651Y-133223000I-924574J0D01*
G01*
%TO.C,D20*%
X114283348Y-123260901D02*
X114349815Y-124529161D01*
D10*
X111999983Y-118078301D02*
X112221887Y-122312490D01*
X113079185Y-117270513D02*
X113116407Y-117980738D01*
D11*
X112574252Y-124622214D02*
X112507785Y-123353954D01*
D10*
X112177925Y-121473641D02*
X114414855Y-121356409D01*
X112190486Y-121713312D02*
X114427416Y-121596080D01*
D11*
X114109456Y-124796106D02*
X112841197Y-124862573D01*
D10*
X114236913Y-117961068D02*
X111999983Y-118078301D01*
X112184205Y-121593477D02*
X114421135Y-121476244D01*
X113382273Y-123053776D02*
X113340352Y-122253874D01*
X112221887Y-122312490D02*
X114458817Y-122195257D01*
X114458817Y-122195257D02*
X114236913Y-117961068D01*
D11*
X112748144Y-123087009D02*
X114016403Y-123020543D01*
X112574252Y-124622214D02*
G75*
G03*
X112841197Y-124862573I253652J13293D01*
G01*
X112748144Y-123087009D02*
G75*
G03*
X112507785Y-123353954I13293J-253652D01*
G01*
X114283347Y-123260901D02*
G75*
G03*
X114016403Y-123020543I-253651J-13293D01*
G01*
X114109456Y-124796106D02*
G75*
G03*
X114349815Y-124529161I-13293J253652D01*
G01*
X113954574Y-116332000D02*
G75*
G03*
X113954574Y-116332000I-924574J0D01*
G01*
%TO.C,D17*%
X107251456Y-128352106D02*
X105983197Y-128418573D01*
D10*
X105332486Y-125269312D02*
X107569416Y-125152080D01*
X105363887Y-125868490D02*
X107600817Y-125751257D01*
X105326205Y-125149477D02*
X107563135Y-125032244D01*
D11*
X107425348Y-126816901D02*
X107491815Y-128085161D01*
X105716252Y-128178214D02*
X105649785Y-126909954D01*
D10*
X107378913Y-121517068D02*
X105141983Y-121634301D01*
X106221185Y-120826513D02*
X106258407Y-121536738D01*
D11*
X105890144Y-126643009D02*
X107158403Y-126576543D01*
D10*
X107600817Y-125751257D02*
X107378913Y-121517068D01*
X105319925Y-125029641D02*
X107556855Y-124912409D01*
X106524273Y-126609776D02*
X106482352Y-125809874D01*
X105141983Y-121634301D02*
X105363887Y-125868490D01*
D11*
X107251456Y-128352106D02*
G75*
G03*
X107491815Y-128085161I-13293J253652D01*
G01*
X105716252Y-128178214D02*
G75*
G03*
X105983197Y-128418573I253652J13293D01*
G01*
X107425347Y-126816901D02*
G75*
G03*
X107158403Y-126576543I-253651J-13293D01*
G01*
X105890144Y-126643009D02*
G75*
G03*
X105649785Y-126909954I13293J-253652D01*
G01*
X107096574Y-119888000D02*
G75*
G03*
X107096574Y-119888000I-924574J0D01*
G01*
%TD*%
%LPC*%
D12*
%TO.C,SW6*%
X86995000Y-106045000D03*
D13*
X81934331Y-106487751D03*
X92055669Y-105602249D03*
D14*
X82978123Y-103846729D03*
X89082583Y-100762955D03*
%TD*%
D13*
%TO.C,SW7*%
X109721038Y-62599133D03*
D12*
X104648000Y-62865000D03*
D13*
X99574962Y-63130867D03*
D14*
X100710288Y-60527881D03*
X106918652Y-57659029D03*
%TD*%
D15*
%TO.C,D11*%
X90756063Y-124699502D03*
D16*
X90091937Y-117108498D03*
%TD*%
D15*
%TO.C,D4*%
X70944063Y-126223502D03*
D16*
X70279937Y-118632498D03*
%TD*%
D15*
%TO.C,D13*%
X97360063Y-130541502D03*
D16*
X96695937Y-122950498D03*
%TD*%
D15*
%TO.C,D6*%
X77548063Y-132319502D03*
D16*
X76883937Y-124728498D03*
%TD*%
D13*
%TO.C,SW1*%
X59582331Y-70038751D03*
X69703669Y-69153249D03*
D12*
X64643000Y-69596000D03*
D14*
X60626123Y-67397729D03*
X66730583Y-64313955D03*
%TD*%
D17*
%TO.C,H5*%
X183642000Y-141732000D03*
%TD*%
%TO.C,H2*%
X159258000Y-54864000D03*
%TD*%
D15*
%TO.C,D7*%
X80342063Y-125461502D03*
D16*
X79677937Y-117870498D03*
%TD*%
D18*
%TO.C,D18*%
X185262749Y-136859140D03*
D19*
X188117251Y-129794000D03*
%TD*%
D13*
%TO.C,SW13*%
X132080000Y-99060000D03*
D12*
X127000000Y-99060000D03*
D13*
X121920000Y-99060000D03*
D14*
X123190000Y-96520000D03*
X129540000Y-93980000D03*
%TD*%
D20*
%TO.C,D19*%
X110126800Y-120893558D03*
D21*
X109728000Y-113284000D03*
%TD*%
D15*
%TO.C,D12*%
X94058063Y-127493502D03*
D16*
X93393937Y-119902498D03*
%TD*%
D13*
%TO.C,SW18*%
X170295906Y-131954999D03*
D12*
X175006000Y-133858000D03*
D13*
X179716094Y-135761001D03*
D14*
X172424930Y-130075702D03*
X179264048Y-130099407D03*
%TD*%
D20*
%TO.C,D21*%
X116730800Y-126989558D03*
D21*
X116332000Y-119380000D03*
%TD*%
D12*
%TO.C,SW8*%
X105664000Y-81915000D03*
D13*
X100590962Y-82180867D03*
X110737038Y-81649133D03*
D14*
X101726288Y-79577881D03*
X107934652Y-76709029D03*
%TD*%
D22*
%TO.C,D10*%
X141478000Y-125984000D03*
D23*
X141478000Y-118364000D03*
%TD*%
D12*
%TO.C,SW17*%
X147193000Y-102235000D03*
D13*
X142119962Y-101969133D03*
X152266038Y-102500867D03*
D14*
X143521155Y-99499081D03*
X149995386Y-97294895D03*
%TD*%
D13*
%TO.C,SW5*%
X90404669Y-86552249D03*
X80283331Y-87437751D03*
D12*
X85344000Y-86995000D03*
D14*
X81327123Y-84796729D03*
X87431583Y-81712955D03*
%TD*%
D17*
%TO.C,H6*%
X78105000Y-114554000D03*
%TD*%
D12*
%TO.C,SW14*%
X153289000Y-128270000D03*
D13*
X158331134Y-128889096D03*
X148246866Y-127650904D03*
D14*
X149816947Y-125284611D03*
X156429163Y-123537414D03*
%TD*%
D13*
%TO.C,SW21*%
X171316038Y-103516867D03*
X161169962Y-102985133D03*
D12*
X166243000Y-103251000D03*
D14*
X162571155Y-100515081D03*
X169045386Y-98310895D03*
%TD*%
D15*
%TO.C,D2*%
X64340063Y-130033502D03*
D16*
X63675937Y-122442498D03*
%TD*%
D13*
%TO.C,SW11*%
X132080000Y-60960000D03*
X121920000Y-60960000D03*
D12*
X127000000Y-60960000D03*
D14*
X123190000Y-58420000D03*
X129540000Y-55880000D03*
%TD*%
D12*
%TO.C,SW12*%
X127000000Y-80010000D03*
D13*
X132080000Y-80010000D03*
X121920000Y-80010000D03*
D14*
X123190000Y-77470000D03*
X129540000Y-74930000D03*
%TD*%
D12*
%TO.C,SW19*%
X168275000Y-65151000D03*
D13*
X163201962Y-64885133D03*
X173348038Y-65416867D03*
D14*
X164603155Y-62415081D03*
X171077386Y-60210895D03*
%TD*%
D15*
%TO.C,D8*%
X83644063Y-128509502D03*
D16*
X82979937Y-120918498D03*
%TD*%
D12*
%TO.C,SW9*%
X106680000Y-100965000D03*
D13*
X101606962Y-101230867D03*
X111753038Y-100699133D03*
D14*
X102742288Y-98627881D03*
X108950652Y-95759029D03*
%TD*%
D24*
%TO.C,D14*%
X164127678Y-128495601D03*
D25*
X165056322Y-120932399D03*
%TD*%
D15*
%TO.C,D5*%
X74246063Y-129271502D03*
D16*
X73581937Y-121680498D03*
%TD*%
D15*
%TO.C,D1*%
X61038063Y-126985502D03*
D16*
X60373937Y-119394498D03*
%TD*%
D13*
%TO.C,SW2*%
X61233331Y-89088751D03*
D12*
X66294000Y-88646000D03*
D13*
X71354669Y-88203249D03*
D14*
X62277123Y-86447729D03*
X68381583Y-83363955D03*
%TD*%
D20*
%TO.C,D16*%
X103268800Y-124449558D03*
D21*
X102870000Y-116840000D03*
%TD*%
D17*
%TO.C,H4*%
X175260000Y-117602000D03*
%TD*%
D15*
%TO.C,D3*%
X67642063Y-133081502D03*
D16*
X66977937Y-125490498D03*
%TD*%
D20*
%TO.C,D15*%
X100220800Y-121401558D03*
D21*
X99822000Y-113792000D03*
%TD*%
D26*
%TO.C,U2*%
X185166000Y-50800000D03*
D27*
X185166000Y-53340000D03*
X185166000Y-55880000D03*
X185166000Y-58420000D03*
X185166000Y-60960000D03*
X185166000Y-63500000D03*
X185166000Y-66040000D03*
X185166000Y-68580000D03*
X185166000Y-71120000D03*
X185166000Y-73660000D03*
X185166000Y-76200000D03*
X185166000Y-78740000D03*
X185166000Y-81280000D03*
X185166000Y-83820000D03*
X185166000Y-86360000D03*
X185166000Y-88900000D03*
X185166000Y-91440000D03*
X185166000Y-93980000D03*
X185166000Y-96520000D03*
X185166000Y-99060000D03*
X200406000Y-99060000D03*
X200406000Y-96520000D03*
X200406000Y-93980000D03*
X200406000Y-91440000D03*
X200406000Y-88900000D03*
X200406000Y-86360000D03*
X200406000Y-83820000D03*
X200406000Y-81280000D03*
X200406000Y-78740000D03*
X200406000Y-76200000D03*
X200406000Y-73660000D03*
X200406000Y-71120000D03*
X200406000Y-68580000D03*
X200406000Y-66040000D03*
X200406000Y-63500000D03*
X200406000Y-60960000D03*
X200406000Y-58420000D03*
X200406000Y-55880000D03*
X200406000Y-53340000D03*
X200406000Y-50800000D03*
X196598000Y-95249000D03*
X194058000Y-95249000D03*
X191518000Y-95249000D03*
X188978000Y-95249000D03*
%TD*%
D13*
%TO.C,SW10*%
X135890000Y-127000000D03*
D12*
X130810000Y-127000000D03*
D13*
X125730000Y-127000000D03*
D14*
X127000000Y-124460000D03*
X133350000Y-121920000D03*
%TD*%
D13*
%TO.C,SW22*%
X198410102Y-150404102D03*
D12*
X194818000Y-146812000D03*
D13*
X191225898Y-143219898D03*
D14*
X193919974Y-142321872D03*
X200206154Y-145015949D03*
%TD*%
D13*
%TO.C,SW16*%
X143135962Y-82919133D03*
D12*
X148209000Y-83185000D03*
D13*
X153282038Y-83450867D03*
D14*
X144537155Y-80449081D03*
X151011386Y-78244895D03*
%TD*%
D15*
%TO.C,D9*%
X86946063Y-131557502D03*
D16*
X86281937Y-123966498D03*
%TD*%
D17*
%TO.C,H1*%
X73406000Y-60198000D03*
%TD*%
D13*
%TO.C,SW20*%
X162185962Y-83935133D03*
D12*
X167259000Y-84201000D03*
D13*
X172332038Y-84466867D03*
D14*
X163587155Y-81465081D03*
X170061386Y-79260895D03*
%TD*%
D13*
%TO.C,SW15*%
X144151962Y-63869133D03*
X154298038Y-64400867D03*
D12*
X149225000Y-64135000D03*
D14*
X145553155Y-61399081D03*
X152027386Y-59194895D03*
%TD*%
D28*
%TO.C,D22*%
X187932923Y-138611154D03*
D29*
X193321077Y-133223000D03*
%TD*%
D13*
%TO.C,SW4*%
X88728269Y-67476849D03*
D12*
X83667600Y-67919600D03*
D13*
X78606931Y-68362351D03*
D14*
X79650723Y-65721329D03*
X85755183Y-62637555D03*
%TD*%
D20*
%TO.C,D20*%
X113428800Y-123941558D03*
D21*
X113030000Y-116332000D03*
%TD*%
D12*
%TO.C,SW3*%
X67945000Y-107696000D03*
D13*
X73005669Y-107253249D03*
X62884331Y-108138751D03*
D14*
X63928123Y-105497729D03*
X70032583Y-102413955D03*
%TD*%
D20*
%TO.C,D17*%
X106570800Y-127497558D03*
D21*
X106172000Y-119888000D03*
%TD*%
M02*
