%TF.GenerationSoftware,KiCad,Pcbnew,5.99.0-unknown-47cb7f53fd~143~ubuntu20.04.1*%
%TF.CreationDate,2021-11-18T20:14:38+01:00*%
%TF.ProjectId,rad-pad,7261642d-7061-4642-9e6b-696361645f70,rev?*%
%TF.SameCoordinates,Original*%
%TF.FileFunction,Copper,L2,Bot*%
%TF.FilePolarity,Positive*%
%FSLAX46Y46*%
G04 Gerber Fmt 4.6, Leading zero omitted, Abs format (unit mm)*
G04 Created by KiCad (PCBNEW 5.99.0-unknown-47cb7f53fd~143~ubuntu20.04.1) date 2021-11-18 20:14:38*
%MOMM*%
%LPD*%
G01*
G04 APERTURE LIST*
G04 Aperture macros list*
%AMRoundRect*
0 Rectangle with rounded corners*
0 $1 Rounding radius*
0 $2 $3 $4 $5 $6 $7 $8 $9 X,Y pos of 4 corners*
0 Add a 4 corners polygon primitive as box body*
4,1,4,$2,$3,$4,$5,$6,$7,$8,$9,$2,$3,0*
0 Add four circle primitives for the rounded corners*
1,1,$1+$1,$2,$3*
1,1,$1+$1,$4,$5*
1,1,$1+$1,$6,$7*
1,1,$1+$1,$8,$9*
0 Add four rect primitives between the rounded corners*
20,1,$1+$1,$2,$3,$4,$5,0*
20,1,$1+$1,$4,$5,$6,$7,0*
20,1,$1+$1,$6,$7,$8,$9,0*
20,1,$1+$1,$8,$9,$2,$3,0*%
%AMHorizOval*
0 Thick line with rounded ends*
0 $1 width*
0 $2 $3 position (X,Y) of the first rounded end (center of the circle)*
0 $4 $5 position (X,Y) of the second rounded end (center of the circle)*
0 Add line between two ends*
20,1,$1,$2,$3,$4,$5,0*
0 Add two circle primitives to create the rounded ends*
1,1,$1,$2,$3*
1,1,$1,$4,$5*%
G04 Aperture macros list end*
%TA.AperFunction,ComponentPad*%
%ADD10C,2.250000*%
%TD*%
%TA.AperFunction,ComponentPad*%
%ADD11RoundRect,0.160000X0.693344X-0.581785X0.581785X0.693344X-0.693344X0.581785X-0.581785X-0.693344X0*%
%TD*%
%TA.AperFunction,ComponentPad*%
%ADD12HorizOval,1.600000X0.000000X0.000000X0.000000X0.000000X0*%
%TD*%
%TA.AperFunction,ComponentPad*%
%ADD13C,4.000000*%
%TD*%
%TA.AperFunction,ComponentPad*%
%ADD14RoundRect,0.160000X0.353649X-0.833146X0.833146X0.353649X-0.353649X0.833146X-0.833146X-0.353649X0*%
%TD*%
%TA.AperFunction,ComponentPad*%
%ADD15HorizOval,1.600000X0.000000X0.000000X0.000000X0.000000X0*%
%TD*%
%TA.AperFunction,ComponentPad*%
%ADD16RoundRect,0.160000X0.672618X-0.605628X0.605628X0.672618X-0.672618X0.605628X-0.605628X-0.672618X0*%
%TD*%
%TA.AperFunction,ComponentPad*%
%ADD17HorizOval,1.600000X0.000000X0.000000X0.000000X0.000000X0*%
%TD*%
%TA.AperFunction,ComponentPad*%
%ADD18RoundRect,0.160000X0.640000X-0.640000X0.640000X0.640000X-0.640000X0.640000X-0.640000X-0.640000X0*%
%TD*%
%TA.AperFunction,ComponentPad*%
%ADD19O,1.600000X1.600000*%
%TD*%
%TA.AperFunction,ComponentPad*%
%ADD20RoundRect,0.160000X0.557233X-0.713226X0.713226X0.557233X-0.557233X0.713226X-0.713226X-0.557233X0*%
%TD*%
%TA.AperFunction,ComponentPad*%
%ADD21HorizOval,1.600000X0.000000X0.000000X0.000000X0.000000X0*%
%TD*%
%TA.AperFunction,ComponentPad*%
%ADD22R,1.700000X1.700000*%
%TD*%
%TA.AperFunction,ComponentPad*%
%ADD23C,1.700000*%
%TD*%
%TA.AperFunction,ComponentPad*%
%ADD24RoundRect,0.160000X0.000000X-0.905097X0.905097X0.000000X0.000000X0.905097X-0.905097X0.000000X0*%
%TD*%
%TA.AperFunction,ComponentPad*%
%ADD25HorizOval,1.600000X0.000000X0.000000X0.000000X0.000000X0*%
%TD*%
%TA.AperFunction,Conductor*%
%ADD26C,0.254000*%
%TD*%
G04 APERTURE END LIST*
D10*
%TO.P,SW6,1,1*%
%TO.N,Net-(D6-Pad2)*%
X82978123Y-103846729D03*
%TO.P,SW6,2,2*%
%TO.N,col1*%
X89082583Y-100762955D03*
%TD*%
%TO.P,SW7,1,1*%
%TO.N,Net-(D7-Pad2)*%
X100710288Y-60527881D03*
%TO.P,SW7,2,2*%
%TO.N,col2*%
X106918652Y-57659029D03*
%TD*%
D11*
%TO.P,D11,1,K*%
%TO.N,row0*%
X90756063Y-124699502D03*
D12*
%TO.P,D11,2,A*%
%TO.N,Net-(D11-Pad2)*%
X90091937Y-117108498D03*
%TD*%
D11*
%TO.P,D4,1,K*%
%TO.N,row0*%
X70944063Y-126223502D03*
D12*
%TO.P,D4,2,A*%
%TO.N,Net-(D4-Pad2)*%
X70279937Y-118632498D03*
%TD*%
D11*
%TO.P,D13,1,K*%
%TO.N,row2*%
X97360063Y-130541502D03*
D12*
%TO.P,D13,2,A*%
%TO.N,Net-(D13-Pad2)*%
X96695937Y-122950498D03*
%TD*%
D11*
%TO.P,D6,1,K*%
%TO.N,row2*%
X77548063Y-132319502D03*
D12*
%TO.P,D6,2,A*%
%TO.N,Net-(D6-Pad2)*%
X76883937Y-124728498D03*
%TD*%
D10*
%TO.P,SW1,1,1*%
%TO.N,Net-(D1-Pad2)*%
X60626123Y-67397729D03*
%TO.P,SW1,2,2*%
%TO.N,col0*%
X66730583Y-64313955D03*
%TD*%
D13*
%TO.P,H5,*%
%TO.N,*%
X183642000Y-141732000D03*
%TD*%
%TO.P,H2,*%
%TO.N,*%
X159258000Y-54864000D03*
%TD*%
D11*
%TO.P,D7,1,K*%
%TO.N,row0*%
X80342063Y-125461502D03*
D12*
%TO.P,D7,2,A*%
%TO.N,Net-(D7-Pad2)*%
X79677937Y-117870498D03*
%TD*%
D14*
%TO.P,D18,1,K*%
%TO.N,row3*%
X185262749Y-136859140D03*
D15*
%TO.P,D18,2,A*%
%TO.N,Net-(D18-Pad2)*%
X188117251Y-129794000D03*
%TD*%
D10*
%TO.P,SW13,1,1*%
%TO.N,Net-(D13-Pad2)*%
X123190000Y-96520000D03*
%TO.P,SW13,2,2*%
%TO.N,col3*%
X129540000Y-93980000D03*
%TD*%
D16*
%TO.P,D19,1,K*%
%TO.N,row0*%
X110126800Y-120893558D03*
D17*
%TO.P,D19,2,A*%
%TO.N,Net-(D19-Pad2)*%
X109728000Y-113284000D03*
%TD*%
D11*
%TO.P,D12,1,K*%
%TO.N,row1*%
X94058063Y-127493502D03*
D12*
%TO.P,D12,2,A*%
%TO.N,Net-(D12-Pad2)*%
X93393937Y-119902498D03*
%TD*%
D10*
%TO.P,SW18,1,1*%
%TO.N,Net-(D18-Pad2)*%
X172424930Y-130075702D03*
%TO.P,SW18,2,2*%
%TO.N,col4*%
X179264048Y-130099407D03*
%TD*%
D16*
%TO.P,D21,1,K*%
%TO.N,row2*%
X116730800Y-126989558D03*
D17*
%TO.P,D21,2,A*%
%TO.N,Net-(D21-Pad2)*%
X116332000Y-119380000D03*
%TD*%
D10*
%TO.P,SW8,1,1*%
%TO.N,Net-(D8-Pad2)*%
X101726288Y-79577881D03*
%TO.P,SW8,2,2*%
%TO.N,col2*%
X107934652Y-76709029D03*
%TD*%
D18*
%TO.P,D10,1,K*%
%TO.N,row3*%
X141478000Y-125984000D03*
D19*
%TO.P,D10,2,A*%
%TO.N,Net-(D10-Pad2)*%
X141478000Y-118364000D03*
%TD*%
D10*
%TO.P,SW17,1,1*%
%TO.N,Net-(D17-Pad2)*%
X143521155Y-99499081D03*
%TO.P,SW17,2,2*%
%TO.N,col4*%
X149995386Y-97294895D03*
%TD*%
%TO.P,SW5,1,1*%
%TO.N,Net-(D5-Pad2)*%
X81327123Y-84796729D03*
%TO.P,SW5,2,2*%
%TO.N,col1*%
X87431583Y-81712955D03*
%TD*%
D13*
%TO.P,H6,*%
%TO.N,*%
X78105000Y-114554000D03*
%TD*%
D10*
%TO.P,SW14,1,1*%
%TO.N,Net-(D14-Pad2)*%
X149816947Y-125284611D03*
%TO.P,SW14,2,2*%
%TO.N,col3*%
X156429163Y-123537414D03*
%TD*%
%TO.P,SW21,1,1*%
%TO.N,Net-(D21-Pad2)*%
X162571155Y-100515081D03*
%TO.P,SW21,2,2*%
%TO.N,col5*%
X169045386Y-98310895D03*
%TD*%
D11*
%TO.P,D2,1,K*%
%TO.N,row1*%
X64340063Y-130033502D03*
D12*
%TO.P,D2,2,A*%
%TO.N,Net-(D2-Pad2)*%
X63675937Y-122442498D03*
%TD*%
D10*
%TO.P,SW11,1,1*%
%TO.N,Net-(D11-Pad2)*%
X123190000Y-58420000D03*
%TO.P,SW11,2,2*%
%TO.N,col3*%
X129540000Y-55880000D03*
%TD*%
%TO.P,SW12,1,1*%
%TO.N,Net-(D12-Pad2)*%
X123190000Y-77470000D03*
%TO.P,SW12,2,2*%
%TO.N,col3*%
X129540000Y-74930000D03*
%TD*%
%TO.P,SW19,1,1*%
%TO.N,Net-(D19-Pad2)*%
X164603155Y-62415081D03*
%TO.P,SW19,2,2*%
%TO.N,col5*%
X171077386Y-60210895D03*
%TD*%
D11*
%TO.P,D8,1,K*%
%TO.N,row1*%
X83644063Y-128509502D03*
D12*
%TO.P,D8,2,A*%
%TO.N,Net-(D8-Pad2)*%
X82979937Y-120918498D03*
%TD*%
D10*
%TO.P,SW9,1,1*%
%TO.N,Net-(D9-Pad2)*%
X102742288Y-98627881D03*
%TO.P,SW9,2,2*%
%TO.N,col2*%
X108950652Y-95759029D03*
%TD*%
D20*
%TO.P,D14,1,K*%
%TO.N,row3*%
X164127678Y-128495601D03*
D21*
%TO.P,D14,2,A*%
%TO.N,Net-(D14-Pad2)*%
X165056322Y-120932399D03*
%TD*%
D11*
%TO.P,D5,1,K*%
%TO.N,row1*%
X74246063Y-129271502D03*
D12*
%TO.P,D5,2,A*%
%TO.N,Net-(D5-Pad2)*%
X73581937Y-121680498D03*
%TD*%
D11*
%TO.P,D1,1,K*%
%TO.N,row0*%
X61038063Y-126985502D03*
D12*
%TO.P,D1,2,A*%
%TO.N,Net-(D1-Pad2)*%
X60373937Y-119394498D03*
%TD*%
D10*
%TO.P,SW2,1,1*%
%TO.N,Net-(D2-Pad2)*%
X62277123Y-86447729D03*
%TO.P,SW2,2,2*%
%TO.N,col0*%
X68381583Y-83363955D03*
%TD*%
D16*
%TO.P,D16,1,K*%
%TO.N,row1*%
X103268800Y-124449558D03*
D17*
%TO.P,D16,2,A*%
%TO.N,Net-(D16-Pad2)*%
X102870000Y-116840000D03*
%TD*%
D13*
%TO.P,H4,*%
%TO.N,*%
X175260000Y-117602000D03*
%TD*%
D11*
%TO.P,D3,1,K*%
%TO.N,row2*%
X67642063Y-133081502D03*
D12*
%TO.P,D3,2,A*%
%TO.N,Net-(D3-Pad2)*%
X66977937Y-125490498D03*
%TD*%
D16*
%TO.P,D15,1,K*%
%TO.N,row0*%
X100220800Y-121401558D03*
D17*
%TO.P,D15,2,A*%
%TO.N,Net-(D15-Pad2)*%
X99822000Y-113792000D03*
%TD*%
D22*
%TO.P,U2,1,PB12*%
%TO.N,unconnected-(U2-Pad1)*%
X185166000Y-50800000D03*
D23*
%TO.P,U2,2,PB13*%
%TO.N,unconnected-(U2-Pad2)*%
X185166000Y-53340000D03*
%TO.P,U2,3,PB14*%
%TO.N,unconnected-(U2-Pad3)*%
X185166000Y-55880000D03*
%TO.P,U2,4,PB15*%
%TO.N,unconnected-(U2-Pad4)*%
X185166000Y-58420000D03*
%TO.P,U2,5,PA8*%
%TO.N,unconnected-(U2-Pad5)*%
X185166000Y-60960000D03*
%TO.P,U2,6,PA9*%
%TO.N,unconnected-(U2-Pad6)*%
X185166000Y-63500000D03*
%TO.P,U2,7,PA10*%
%TO.N,unconnected-(U2-Pad7)*%
X185166000Y-66040000D03*
%TO.P,U2,8,PA11*%
%TO.N,unconnected-(U2-Pad8)*%
X185166000Y-68580000D03*
%TO.P,U2,9,PA12*%
%TO.N,unconnected-(U2-Pad9)*%
X185166000Y-71120000D03*
%TO.P,U2,10,PA15*%
%TO.N,col0*%
X185166000Y-73660000D03*
%TO.P,U2,11,PB3*%
%TO.N,col1*%
X185166000Y-76200000D03*
%TO.P,U2,12,PB4*%
%TO.N,col2*%
X185166000Y-78740000D03*
%TO.P,U2,13,PB5*%
%TO.N,col3*%
X185166000Y-81280000D03*
%TO.P,U2,14,PB6*%
%TO.N,col4*%
X185166000Y-83820000D03*
%TO.P,U2,15,PB7*%
%TO.N,col5*%
X185166000Y-86360000D03*
%TO.P,U2,16,PB8*%
%TO.N,unconnected-(U2-Pad16)*%
X185166000Y-88900000D03*
%TO.P,U2,17,PB9*%
%TO.N,unconnected-(U2-Pad17)*%
X185166000Y-91440000D03*
%TO.P,U2,18,5V*%
%TO.N,unconnected-(U2-Pad18)*%
X185166000Y-93980000D03*
%TO.P,U2,19,GND*%
%TO.N,GND*%
X185166000Y-96520000D03*
%TO.P,U2,20,3V3*%
%TO.N,unconnected-(U2-Pad20)*%
X185166000Y-99060000D03*
%TO.P,U2,21,VBat*%
%TO.N,unconnected-(U2-Pad21)*%
X200406000Y-99060000D03*
%TO.P,U2,22,PC13*%
%TO.N,unconnected-(U2-Pad22)*%
X200406000Y-96520000D03*
%TO.P,U2,23,PC14*%
%TO.N,unconnected-(U2-Pad23)*%
X200406000Y-93980000D03*
%TO.P,U2,24,PC15*%
%TO.N,unconnected-(U2-Pad24)*%
X200406000Y-91440000D03*
%TO.P,U2,25,RES*%
%TO.N,unconnected-(U2-Pad25)*%
X200406000Y-88900000D03*
%TO.P,U2,26,PA0*%
%TO.N,unconnected-(U2-Pad26)*%
X200406000Y-86360000D03*
%TO.P,U2,27,PA1*%
%TO.N,unconnected-(U2-Pad27)*%
X200406000Y-83820000D03*
%TO.P,U2,28,PA2*%
%TO.N,row0*%
X200406000Y-81280000D03*
%TO.P,U2,29,PA3*%
%TO.N,row1*%
X200406000Y-78740000D03*
%TO.P,U2,30,PA4*%
%TO.N,row2*%
X200406000Y-76200000D03*
%TO.P,U2,31,PA5*%
%TO.N,row3*%
X200406000Y-73660000D03*
%TO.P,U2,32,PA6*%
%TO.N,unconnected-(U2-Pad32)*%
X200406000Y-71120000D03*
%TO.P,U2,33,PA7*%
%TO.N,unconnected-(U2-Pad33)*%
X200406000Y-68580000D03*
%TO.P,U2,34,PB0*%
%TO.N,unconnected-(U2-Pad34)*%
X200406000Y-66040000D03*
%TO.P,U2,35,PB1*%
%TO.N,unconnected-(U2-Pad35)*%
X200406000Y-63500000D03*
%TO.P,U2,36,PB2*%
%TO.N,unconnected-(U2-Pad36)*%
X200406000Y-60960000D03*
%TO.P,U2,37,PB10*%
%TO.N,unconnected-(U2-Pad37)*%
X200406000Y-58420000D03*
%TO.P,U2,38,3V3*%
%TO.N,unconnected-(U2-Pad38)*%
X200406000Y-55880000D03*
%TO.P,U2,39,GND*%
%TO.N,GND*%
X200406000Y-53340000D03*
%TO.P,U2,40,5V*%
%TO.N,unconnected-(U2-Pad40)*%
X200406000Y-50800000D03*
%TO.P,U2,41,GND*%
%TO.N,GND*%
X196598000Y-95249000D03*
%TO.P,U2,42,SWCLK*%
%TO.N,unconnected-(U2-Pad42)*%
X194058000Y-95249000D03*
%TO.P,U2,43,SWIO*%
%TO.N,unconnected-(U2-Pad43)*%
X191518000Y-95249000D03*
%TO.P,U2,44,3V3*%
%TO.N,unconnected-(U2-Pad44)*%
X188978000Y-95249000D03*
%TD*%
D10*
%TO.P,SW10,1,1*%
%TO.N,Net-(D10-Pad2)*%
X127000000Y-124460000D03*
%TO.P,SW10,2,2*%
%TO.N,col2*%
X133350000Y-121920000D03*
%TD*%
%TO.P,SW22,1,1*%
%TO.N,Net-(D22-Pad2)*%
X193919974Y-142321872D03*
%TO.P,SW22,2,2*%
%TO.N,col5*%
X200206154Y-145015949D03*
%TD*%
%TO.P,SW16,1,1*%
%TO.N,Net-(D16-Pad2)*%
X144537155Y-80449081D03*
%TO.P,SW16,2,2*%
%TO.N,col4*%
X151011386Y-78244895D03*
%TD*%
D11*
%TO.P,D9,1,K*%
%TO.N,row2*%
X86946063Y-131557502D03*
D12*
%TO.P,D9,2,A*%
%TO.N,Net-(D9-Pad2)*%
X86281937Y-123966498D03*
%TD*%
D13*
%TO.P,H1,*%
%TO.N,*%
X73406000Y-60198000D03*
%TD*%
D10*
%TO.P,SW20,1,1*%
%TO.N,Net-(D20-Pad2)*%
X163587155Y-81465081D03*
%TO.P,SW20,2,2*%
%TO.N,col5*%
X170061386Y-79260895D03*
%TD*%
%TO.P,SW15,1,1*%
%TO.N,Net-(D15-Pad2)*%
X145553155Y-61399081D03*
%TO.P,SW15,2,2*%
%TO.N,col4*%
X152027386Y-59194895D03*
%TD*%
D24*
%TO.P,D22,1,K*%
%TO.N,row3*%
X187932923Y-138611154D03*
D25*
%TO.P,D22,2,A*%
%TO.N,Net-(D22-Pad2)*%
X193321077Y-133223000D03*
%TD*%
D10*
%TO.P,SW4,1,1*%
%TO.N,Net-(D4-Pad2)*%
X79650723Y-65721329D03*
%TO.P,SW4,2,2*%
%TO.N,col1*%
X85755183Y-62637555D03*
%TD*%
D16*
%TO.P,D20,1,K*%
%TO.N,row1*%
X113428800Y-123941558D03*
D17*
%TO.P,D20,2,A*%
%TO.N,Net-(D20-Pad2)*%
X113030000Y-116332000D03*
%TD*%
D10*
%TO.P,SW3,1,1*%
%TO.N,Net-(D3-Pad2)*%
X63928123Y-105497729D03*
%TO.P,SW3,2,2*%
%TO.N,col0*%
X70032583Y-102413955D03*
%TD*%
D16*
%TO.P,D17,1,K*%
%TO.N,row2*%
X106570800Y-127497558D03*
D17*
%TO.P,D17,2,A*%
%TO.N,Net-(D17-Pad2)*%
X106172000Y-119888000D03*
%TD*%
D26*
%TO.N,row0*%
X118120442Y-120893558D02*
X125984000Y-113030000D01*
X194818000Y-113030000D02*
X202438000Y-105410000D01*
X125984000Y-113030000D02*
X194818000Y-113030000D01*
X202438000Y-82804000D02*
X200914000Y-81280000D01*
X202438000Y-105410000D02*
X202438000Y-82804000D01*
X79580063Y-126223502D02*
X80342063Y-125461502D01*
X70182063Y-126985502D02*
X70944063Y-126223502D01*
X200914000Y-81280000D02*
X200406000Y-81280000D01*
X89994063Y-125461502D02*
X90756063Y-124699502D01*
X109618800Y-121401558D02*
X110126800Y-120893558D01*
X110126800Y-120893558D02*
X118120442Y-120893558D01*
%TO.N,Net-(D1-Pad2)*%
X58326810Y-68106052D02*
X58326810Y-117347371D01*
X60626123Y-67397729D02*
X59035133Y-67397729D01*
X59035133Y-67397729D02*
X58326810Y-68106052D01*
X58326810Y-117347371D02*
X60373937Y-119394498D01*
%TO.N,row1*%
X73484063Y-130033502D02*
X74246063Y-129271502D01*
X200914000Y-78740000D02*
X200406000Y-78740000D01*
X115790183Y-123941558D02*
X126194222Y-113537520D01*
X202946000Y-80772000D02*
X200914000Y-78740000D01*
X195028221Y-113537520D02*
X202946000Y-105619741D01*
X112920800Y-124449558D02*
X113428800Y-123941558D01*
X126194222Y-113537520D02*
X195028221Y-113537520D01*
X113428800Y-123941558D02*
X115790183Y-123941558D01*
X82882063Y-129271502D02*
X83644063Y-128509502D01*
X202946000Y-105619741D02*
X202946000Y-80772000D01*
%TO.N,Net-(D2-Pad2)*%
X58834330Y-88299532D02*
X58834330Y-115316000D01*
X63675937Y-120157607D02*
X63675937Y-122442498D01*
X60686133Y-86447729D02*
X58834330Y-88299532D01*
X58834330Y-115316000D02*
X63675937Y-120157607D01*
X62277123Y-86447729D02*
X60686133Y-86447729D01*
%TO.N,row2*%
X203453520Y-78739520D02*
X200914000Y-76200000D01*
X116222800Y-127497558D02*
X116730800Y-126989558D01*
X116730800Y-123718683D02*
X126404444Y-114045040D01*
X200914000Y-76200000D02*
X200406000Y-76200000D01*
X203453520Y-105829962D02*
X203453520Y-78739520D01*
X195238442Y-114045040D02*
X203453520Y-105829962D01*
X86184063Y-132319502D02*
X86946063Y-131557502D01*
X116730800Y-126989558D02*
X116730800Y-123718683D01*
X76786063Y-133081502D02*
X77548063Y-132319502D01*
X126404444Y-114045040D02*
X195238442Y-114045040D01*
%TO.N,Net-(D3-Pad2)*%
X61634271Y-105497729D02*
X59341850Y-107790150D01*
X59341850Y-115105778D02*
X66977937Y-122741866D01*
X63928123Y-105497729D02*
X61634271Y-105497729D01*
X66977937Y-122741866D02*
X66977937Y-125490498D01*
X59341850Y-107790150D02*
X59341850Y-115105778D01*
%TO.N,row3*%
X143002000Y-125984000D02*
X144526000Y-124460000D01*
X145797440Y-114552560D02*
X195448663Y-114552560D01*
X203961040Y-76707040D02*
X200914000Y-73660000D01*
X195448663Y-114552560D02*
X203961040Y-106040183D01*
X203961040Y-106040183D02*
X203961040Y-76707040D01*
X200914000Y-73660000D02*
X200406000Y-73660000D01*
X144526000Y-115824000D02*
X145797440Y-114552560D01*
X141478000Y-125984000D02*
X143002000Y-125984000D01*
X144526000Y-124460000D02*
X144526000Y-115824000D01*
%TO.N,Net-(D4-Pad2)*%
X74422000Y-117348000D02*
X73137502Y-118632498D01*
X73137502Y-118632498D02*
X70279937Y-118632498D01*
X79650723Y-65721329D02*
X76264671Y-65721329D01*
X74422000Y-67564000D02*
X74422000Y-117348000D01*
X76264671Y-65721329D02*
X74422000Y-67564000D01*
%TO.N,Net-(D5-Pad2)*%
X76747271Y-84796729D02*
X74929520Y-86614480D01*
X81327123Y-84796729D02*
X76747271Y-84796729D01*
X74929520Y-120332915D02*
X73581937Y-121680498D01*
X74929520Y-86614480D02*
X74929520Y-120332915D01*
%TO.N,Net-(D6-Pad2)*%
X78270311Y-103846729D02*
X75437040Y-106680000D01*
X75437040Y-123281601D02*
X76883937Y-124728498D01*
X82978123Y-103846729D02*
X78270311Y-103846729D01*
X75437040Y-106680000D02*
X75437040Y-123281601D01*
%TO.N,Net-(D7-Pad2)*%
X100634407Y-60452000D02*
X100710288Y-60527881D01*
X97206119Y-60527881D02*
X100710288Y-60527881D01*
X93726000Y-64008000D02*
X97206119Y-60527881D01*
X82281502Y-117870498D02*
X93726000Y-106426000D01*
X93726000Y-106426000D02*
X93726000Y-64008000D01*
X79677937Y-117870498D02*
X82281502Y-117870498D01*
%TO.N,Net-(D8-Pad2)*%
X94233520Y-106636221D02*
X82979937Y-117889805D01*
X82979937Y-117889805D02*
X82979937Y-120918498D01*
X101726288Y-79577881D02*
X97714119Y-79577881D01*
X97536000Y-79756000D02*
X94233520Y-83058480D01*
X94233520Y-83058480D02*
X94233520Y-106636221D01*
X97714119Y-79577881D02*
X97536000Y-79756000D01*
%TO.N,Net-(D9-Pad2)*%
X98222119Y-98627881D02*
X102742288Y-98627881D01*
X94742000Y-106845484D02*
X86281937Y-115305547D01*
X94742000Y-102108000D02*
X98222119Y-98627881D01*
X94742000Y-102108000D02*
X94742000Y-106845484D01*
X86281937Y-115305547D02*
X86281937Y-123966498D01*
%TO.N,Net-(D10-Pad2)*%
X127000000Y-124460000D02*
X133096000Y-118364000D01*
X133096000Y-118364000D02*
X141478000Y-118364000D01*
%TO.N,Net-(D11-Pad2)*%
X100584000Y-106426000D02*
X90091937Y-116918063D01*
X110236000Y-106426000D02*
X100584000Y-106426000D01*
X90091937Y-116918063D02*
X90091937Y-117108498D01*
X114300000Y-102362000D02*
X110236000Y-106426000D01*
X118618000Y-58420000D02*
X114300000Y-62738000D01*
X114300000Y-62738000D02*
X114300000Y-102362000D01*
X123190000Y-58420000D02*
X118618000Y-58420000D01*
%TO.N,Net-(D12-Pad2)*%
X118364000Y-77470000D02*
X117094000Y-78740000D01*
X110445741Y-106934000D02*
X100793742Y-106934000D01*
X93393937Y-114333805D02*
X93393937Y-119902498D01*
X100793742Y-106934000D02*
X93393937Y-114333805D01*
X117094000Y-78740000D02*
X114807520Y-81026480D01*
X114807520Y-81026480D02*
X114807520Y-102572221D01*
X114807520Y-102572221D02*
X110445741Y-106934000D01*
X123190000Y-77470000D02*
X118364000Y-77470000D01*
%TO.N,Net-(D13-Pad2)*%
X96695937Y-111749547D02*
X96695937Y-122950498D01*
X123190000Y-96520000D02*
X121577482Y-96520000D01*
X101003964Y-107441520D02*
X96695937Y-111749547D01*
X110655962Y-107441520D02*
X101003964Y-107441520D01*
X121577482Y-96520000D02*
X110655962Y-107441520D01*
%TO.N,Net-(D14-Pad2)*%
X149816947Y-125284611D02*
X154169159Y-120932399D01*
X154169159Y-120932399D02*
X165056322Y-120932399D01*
%TO.N,Net-(D15-Pad2)*%
X113405224Y-105410000D02*
X110866183Y-107949040D01*
X145553155Y-61399081D02*
X139514919Y-61399081D01*
X136398000Y-64516000D02*
X136398000Y-100076000D01*
X131064000Y-105410000D02*
X113405224Y-105410000D01*
X136398000Y-100076000D02*
X131064000Y-105410000D01*
X105664960Y-107949040D02*
X99822000Y-113792000D01*
X139514919Y-61399081D02*
X136398000Y-64516000D01*
X110866183Y-107949040D02*
X105664960Y-107949040D01*
%TO.N,Net-(D16-Pad2)*%
X113615446Y-105917520D02*
X111076404Y-108456560D01*
X102870000Y-111461742D02*
X102870000Y-116840000D01*
X105875182Y-108456560D02*
X102870000Y-111461742D01*
X131274221Y-105917520D02*
X113615446Y-105917520D01*
X111076404Y-108456560D02*
X105875182Y-108456560D01*
X136905520Y-100286221D02*
X131274221Y-105917520D01*
X144537155Y-80449081D02*
X139260919Y-80449081D01*
X139260919Y-80449081D02*
X136905520Y-82804480D01*
X136905520Y-82804480D02*
X136905520Y-100286221D01*
%TO.N,Net-(D17-Pad2)*%
X138410401Y-99499081D02*
X131484442Y-106425040D01*
X131484442Y-106425040D02*
X113825668Y-106425040D01*
X106172000Y-109726080D02*
X106172000Y-119888000D01*
X111286625Y-108964080D02*
X106934000Y-108964080D01*
X113825668Y-106425040D02*
X111286625Y-108964080D01*
X143521155Y-99499081D02*
X138410401Y-99499081D01*
X106934000Y-108964080D02*
X106172000Y-109726080D01*
%TO.N,Net-(D18-Pad2)*%
X174484632Y-128016000D02*
X186339251Y-128016000D01*
X186339251Y-128016000D02*
X188117251Y-129794000D01*
X172424930Y-130075702D02*
X174484632Y-128016000D01*
%TO.N,Net-(D19-Pad2)*%
X155702000Y-103632000D02*
X151638000Y-107696000D01*
X115316000Y-107696000D02*
X109728000Y-113284000D01*
X151638000Y-107696000D02*
X115316000Y-107696000D01*
X159072919Y-62415081D02*
X155702000Y-65786000D01*
X155702000Y-65786000D02*
X155702000Y-103632000D01*
X164603155Y-62415081D02*
X159072919Y-62415081D01*
%TO.N,Net-(D20-Pad2)*%
X151848221Y-108203520D02*
X116078480Y-108203520D01*
X163587155Y-81465081D02*
X158818439Y-81465081D01*
X116078480Y-108203520D02*
X116078000Y-108204000D01*
X158818439Y-81465081D02*
X156209520Y-84074000D01*
X156209520Y-103842221D02*
X151848221Y-108203520D01*
X116078000Y-108204000D02*
X115525742Y-108204000D01*
X113030000Y-110699742D02*
X113030000Y-116332000D01*
X115525742Y-108204000D02*
X113030000Y-110699742D01*
X156209520Y-84074000D02*
X156209520Y-103842221D01*
%TO.N,Net-(D21-Pad2)*%
X162571155Y-100515081D02*
X157801959Y-100515081D01*
X116332000Y-109982000D02*
X116332000Y-119380000D01*
X156717040Y-101600000D02*
X156717040Y-104052442D01*
X152058442Y-108711040D02*
X117602960Y-108711040D01*
X156717040Y-104052442D02*
X152058442Y-108711040D01*
X157801959Y-100515081D02*
X156717040Y-101600000D01*
X117602960Y-108711040D02*
X116332000Y-109982000D01*
%TO.N,Net-(D22-Pad2)*%
X193919974Y-142321872D02*
X193919974Y-133821897D01*
X193919974Y-133821897D02*
X193321077Y-133223000D01*
%TD*%
M02*
