%TF.GenerationSoftware,KiCad,Pcbnew,5.99.0-unknown-47cb7f53fd~143~ubuntu20.04.1*%
%TF.CreationDate,2021-11-18T20:14:39+01:00*%
%TF.ProjectId,rad-pad,7261642d-7061-4642-9e6b-696361645f70,rev?*%
%TF.SameCoordinates,Original*%
%TF.FileFunction,Legend,Bot*%
%TF.FilePolarity,Positive*%
%FSLAX46Y46*%
G04 Gerber Fmt 4.6, Leading zero omitted, Abs format (unit mm)*
G04 Created by KiCad (PCBNEW 5.99.0-unknown-47cb7f53fd~143~ubuntu20.04.1) date 2021-11-18 20:14:39*
%MOMM*%
%LPD*%
G01*
G04 APERTURE LIST*
G04 Aperture macros list*
%AMRoundRect*
0 Rectangle with rounded corners*
0 $1 Rounding radius*
0 $2 $3 $4 $5 $6 $7 $8 $9 X,Y pos of 4 corners*
0 Add a 4 corners polygon primitive as box body*
4,1,4,$2,$3,$4,$5,$6,$7,$8,$9,$2,$3,0*
0 Add four circle primitives for the rounded corners*
1,1,$1+$1,$2,$3*
1,1,$1+$1,$4,$5*
1,1,$1+$1,$6,$7*
1,1,$1+$1,$8,$9*
0 Add four rect primitives between the rounded corners*
20,1,$1+$1,$2,$3,$4,$5,0*
20,1,$1+$1,$4,$5,$6,$7,0*
20,1,$1+$1,$6,$7,$8,$9,0*
20,1,$1+$1,$8,$9,$2,$3,0*%
%AMHorizOval*
0 Thick line with rounded ends*
0 $1 width*
0 $2 $3 position (X,Y) of the first rounded end (center of the circle)*
0 $4 $5 position (X,Y) of the second rounded end (center of the circle)*
0 Add line between two ends*
20,1,$1,$2,$3,$4,$5,0*
0 Add two circle primitives to create the rounded ends*
1,1,$1,$2,$3*
1,1,$1,$4,$5*%
G04 Aperture macros list end*
%ADD10C,3.987800*%
%ADD11C,1.750000*%
%ADD12C,2.250000*%
%ADD13RoundRect,0.160000X0.693344X-0.581785X0.581785X0.693344X-0.693344X0.581785X-0.581785X-0.693344X0*%
%ADD14HorizOval,1.600000X0.000000X0.000000X0.000000X0.000000X0*%
%ADD15C,4.000000*%
%ADD16RoundRect,0.160000X0.353649X-0.833146X0.833146X0.353649X-0.353649X0.833146X-0.833146X-0.353649X0*%
%ADD17HorizOval,1.600000X0.000000X0.000000X0.000000X0.000000X0*%
%ADD18RoundRect,0.160000X0.672618X-0.605628X0.605628X0.672618X-0.672618X0.605628X-0.605628X-0.672618X0*%
%ADD19HorizOval,1.600000X0.000000X0.000000X0.000000X0.000000X0*%
%ADD20RoundRect,0.160000X0.640000X-0.640000X0.640000X0.640000X-0.640000X0.640000X-0.640000X-0.640000X0*%
%ADD21O,1.600000X1.600000*%
%ADD22RoundRect,0.160000X0.557233X-0.713226X0.713226X0.557233X-0.557233X0.713226X-0.713226X-0.557233X0*%
%ADD23HorizOval,1.600000X0.000000X0.000000X0.000000X0.000000X0*%
%ADD24R,1.700000X1.700000*%
%ADD25C,1.700000*%
%ADD26RoundRect,0.160000X0.000000X-0.905097X0.905097X0.000000X0.000000X0.905097X-0.905097X0.000000X0*%
%ADD27HorizOval,1.600000X0.000000X0.000000X0.000000X0.000000X0*%
G04 APERTURE END LIST*
%LPC*%
D10*
%TO.C,SW6*%
X86995000Y-106045000D03*
D11*
X81934331Y-106487751D03*
X92055669Y-105602249D03*
D12*
X82978123Y-103846729D03*
X89082583Y-100762955D03*
%TD*%
D11*
%TO.C,SW7*%
X109721038Y-62599133D03*
D10*
X104648000Y-62865000D03*
D11*
X99574962Y-63130867D03*
D12*
X100710288Y-60527881D03*
X106918652Y-57659029D03*
%TD*%
D13*
%TO.C,D11*%
X90756063Y-124699502D03*
D14*
X90091937Y-117108498D03*
%TD*%
D13*
%TO.C,D4*%
X70944063Y-126223502D03*
D14*
X70279937Y-118632498D03*
%TD*%
D13*
%TO.C,D13*%
X97360063Y-130541502D03*
D14*
X96695937Y-122950498D03*
%TD*%
D13*
%TO.C,D6*%
X77548063Y-132319502D03*
D14*
X76883937Y-124728498D03*
%TD*%
D11*
%TO.C,SW1*%
X59582331Y-70038751D03*
X69703669Y-69153249D03*
D10*
X64643000Y-69596000D03*
D12*
X60626123Y-67397729D03*
X66730583Y-64313955D03*
%TD*%
D15*
%TO.C,H5*%
X183642000Y-141732000D03*
%TD*%
%TO.C,H2*%
X159258000Y-54864000D03*
%TD*%
D13*
%TO.C,D7*%
X80342063Y-125461502D03*
D14*
X79677937Y-117870498D03*
%TD*%
D16*
%TO.C,D18*%
X185262749Y-136859140D03*
D17*
X188117251Y-129794000D03*
%TD*%
D11*
%TO.C,SW13*%
X132080000Y-99060000D03*
D10*
X127000000Y-99060000D03*
D11*
X121920000Y-99060000D03*
D12*
X123190000Y-96520000D03*
X129540000Y-93980000D03*
%TD*%
D18*
%TO.C,D19*%
X110126800Y-120893558D03*
D19*
X109728000Y-113284000D03*
%TD*%
D13*
%TO.C,D12*%
X94058063Y-127493502D03*
D14*
X93393937Y-119902498D03*
%TD*%
D11*
%TO.C,SW18*%
X170295906Y-131954999D03*
D10*
X175006000Y-133858000D03*
D11*
X179716094Y-135761001D03*
D12*
X172424930Y-130075702D03*
X179264048Y-130099407D03*
%TD*%
D18*
%TO.C,D21*%
X116730800Y-126989558D03*
D19*
X116332000Y-119380000D03*
%TD*%
D10*
%TO.C,SW8*%
X105664000Y-81915000D03*
D11*
X100590962Y-82180867D03*
X110737038Y-81649133D03*
D12*
X101726288Y-79577881D03*
X107934652Y-76709029D03*
%TD*%
D20*
%TO.C,D10*%
X141478000Y-125984000D03*
D21*
X141478000Y-118364000D03*
%TD*%
D10*
%TO.C,SW17*%
X147193000Y-102235000D03*
D11*
X142119962Y-101969133D03*
X152266038Y-102500867D03*
D12*
X143521155Y-99499081D03*
X149995386Y-97294895D03*
%TD*%
D11*
%TO.C,SW5*%
X90404669Y-86552249D03*
X80283331Y-87437751D03*
D10*
X85344000Y-86995000D03*
D12*
X81327123Y-84796729D03*
X87431583Y-81712955D03*
%TD*%
D15*
%TO.C,H6*%
X78105000Y-114554000D03*
%TD*%
D10*
%TO.C,SW14*%
X153289000Y-128270000D03*
D11*
X158331134Y-128889096D03*
X148246866Y-127650904D03*
D12*
X149816947Y-125284611D03*
X156429163Y-123537414D03*
%TD*%
D11*
%TO.C,SW21*%
X171316038Y-103516867D03*
X161169962Y-102985133D03*
D10*
X166243000Y-103251000D03*
D12*
X162571155Y-100515081D03*
X169045386Y-98310895D03*
%TD*%
D13*
%TO.C,D2*%
X64340063Y-130033502D03*
D14*
X63675937Y-122442498D03*
%TD*%
D11*
%TO.C,SW11*%
X132080000Y-60960000D03*
X121920000Y-60960000D03*
D10*
X127000000Y-60960000D03*
D12*
X123190000Y-58420000D03*
X129540000Y-55880000D03*
%TD*%
D10*
%TO.C,SW12*%
X127000000Y-80010000D03*
D11*
X132080000Y-80010000D03*
X121920000Y-80010000D03*
D12*
X123190000Y-77470000D03*
X129540000Y-74930000D03*
%TD*%
D10*
%TO.C,SW19*%
X168275000Y-65151000D03*
D11*
X163201962Y-64885133D03*
X173348038Y-65416867D03*
D12*
X164603155Y-62415081D03*
X171077386Y-60210895D03*
%TD*%
D13*
%TO.C,D8*%
X83644063Y-128509502D03*
D14*
X82979937Y-120918498D03*
%TD*%
D10*
%TO.C,SW9*%
X106680000Y-100965000D03*
D11*
X101606962Y-101230867D03*
X111753038Y-100699133D03*
D12*
X102742288Y-98627881D03*
X108950652Y-95759029D03*
%TD*%
D22*
%TO.C,D14*%
X164127678Y-128495601D03*
D23*
X165056322Y-120932399D03*
%TD*%
D13*
%TO.C,D5*%
X74246063Y-129271502D03*
D14*
X73581937Y-121680498D03*
%TD*%
D13*
%TO.C,D1*%
X61038063Y-126985502D03*
D14*
X60373937Y-119394498D03*
%TD*%
D11*
%TO.C,SW2*%
X61233331Y-89088751D03*
D10*
X66294000Y-88646000D03*
D11*
X71354669Y-88203249D03*
D12*
X62277123Y-86447729D03*
X68381583Y-83363955D03*
%TD*%
D18*
%TO.C,D16*%
X103268800Y-124449558D03*
D19*
X102870000Y-116840000D03*
%TD*%
D15*
%TO.C,H4*%
X175260000Y-117602000D03*
%TD*%
D13*
%TO.C,D3*%
X67642063Y-133081502D03*
D14*
X66977937Y-125490498D03*
%TD*%
D18*
%TO.C,D15*%
X100220800Y-121401558D03*
D19*
X99822000Y-113792000D03*
%TD*%
D24*
%TO.C,U2*%
X185166000Y-50800000D03*
D25*
X185166000Y-53340000D03*
X185166000Y-55880000D03*
X185166000Y-58420000D03*
X185166000Y-60960000D03*
X185166000Y-63500000D03*
X185166000Y-66040000D03*
X185166000Y-68580000D03*
X185166000Y-71120000D03*
X185166000Y-73660000D03*
X185166000Y-76200000D03*
X185166000Y-78740000D03*
X185166000Y-81280000D03*
X185166000Y-83820000D03*
X185166000Y-86360000D03*
X185166000Y-88900000D03*
X185166000Y-91440000D03*
X185166000Y-93980000D03*
X185166000Y-96520000D03*
X185166000Y-99060000D03*
X200406000Y-99060000D03*
X200406000Y-96520000D03*
X200406000Y-93980000D03*
X200406000Y-91440000D03*
X200406000Y-88900000D03*
X200406000Y-86360000D03*
X200406000Y-83820000D03*
X200406000Y-81280000D03*
X200406000Y-78740000D03*
X200406000Y-76200000D03*
X200406000Y-73660000D03*
X200406000Y-71120000D03*
X200406000Y-68580000D03*
X200406000Y-66040000D03*
X200406000Y-63500000D03*
X200406000Y-60960000D03*
X200406000Y-58420000D03*
X200406000Y-55880000D03*
X200406000Y-53340000D03*
X200406000Y-50800000D03*
X196598000Y-95249000D03*
X194058000Y-95249000D03*
X191518000Y-95249000D03*
X188978000Y-95249000D03*
%TD*%
D11*
%TO.C,SW10*%
X135890000Y-127000000D03*
D10*
X130810000Y-127000000D03*
D11*
X125730000Y-127000000D03*
D12*
X127000000Y-124460000D03*
X133350000Y-121920000D03*
%TD*%
D11*
%TO.C,SW22*%
X198410102Y-150404102D03*
D10*
X194818000Y-146812000D03*
D11*
X191225898Y-143219898D03*
D12*
X193919974Y-142321872D03*
X200206154Y-145015949D03*
%TD*%
D11*
%TO.C,SW16*%
X143135962Y-82919133D03*
D10*
X148209000Y-83185000D03*
D11*
X153282038Y-83450867D03*
D12*
X144537155Y-80449081D03*
X151011386Y-78244895D03*
%TD*%
D13*
%TO.C,D9*%
X86946063Y-131557502D03*
D14*
X86281937Y-123966498D03*
%TD*%
D15*
%TO.C,H1*%
X73406000Y-60198000D03*
%TD*%
D11*
%TO.C,SW20*%
X162185962Y-83935133D03*
D10*
X167259000Y-84201000D03*
D11*
X172332038Y-84466867D03*
D12*
X163587155Y-81465081D03*
X170061386Y-79260895D03*
%TD*%
D11*
%TO.C,SW15*%
X144151962Y-63869133D03*
X154298038Y-64400867D03*
D10*
X149225000Y-64135000D03*
D12*
X145553155Y-61399081D03*
X152027386Y-59194895D03*
%TD*%
D26*
%TO.C,D22*%
X187932923Y-138611154D03*
D27*
X193321077Y-133223000D03*
%TD*%
D11*
%TO.C,SW4*%
X88728269Y-67476849D03*
D10*
X83667600Y-67919600D03*
D11*
X78606931Y-68362351D03*
D12*
X79650723Y-65721329D03*
X85755183Y-62637555D03*
%TD*%
D18*
%TO.C,D20*%
X113428800Y-123941558D03*
D19*
X113030000Y-116332000D03*
%TD*%
D10*
%TO.C,SW3*%
X67945000Y-107696000D03*
D11*
X73005669Y-107253249D03*
X62884331Y-108138751D03*
D12*
X63928123Y-105497729D03*
X70032583Y-102413955D03*
%TD*%
D18*
%TO.C,D17*%
X106570800Y-127497558D03*
D19*
X106172000Y-119888000D03*
%TD*%
M02*
