<?xml version="1.0" standalone="no"?>
 <!DOCTYPE svg PUBLIC "-//W3C//DTD SVG 1.1//EN" 
 "http://www.w3.org/Graphics/SVG/1.1/DTD/svg11.dtd"> 
<svg
  xmlns:svg="http://www.w3.org/2000/svg"
  xmlns="http://www.w3.org/2000/svg"
  xmlns:xlink="http://www.w3.org/1999/xlink"
  version="1.1"
  width="15.016480cm" height="14.157960cm" viewBox="0 0 150164800 141579600">
<title>SVG Picture created as knuckle-pad-brd.svg date 2021/11/01 17:03:16 </title>
  <desc>Picture generated by PCBNEW </desc>
<g style="fill:#000000; fill-opacity:1.000000;stroke:#000000; stroke-opacity:1.000000;
stroke-linecap:round; stroke-linejoin:round;"
 transform="translate(0 0) scale(1 1)">
</g>
<g style="fill:#000000; fill-opacity:0.0; 
stroke:#000000; stroke-width:0.000000; stroke-opacity:1; 
stroke-linecap:round; stroke-linejoin:round;">
</g>
<g style="fill:#000000; fill-opacity:0.0; 
stroke:#000000; stroke-width:50000.000000; stroke-opacity:1; 
stroke-linecap:round; stroke-linejoin:round;">
<path d="M130272422.521671 141078131.669663 A2396232.000000 2396232.000000 0.0 0 0 133697202.222564 140398237.139103" />
<path d="M38456601 118724974
L56185801 118720200
" />
<path d="M12370801 111176400
L35916601 111176400
" />
<path d="M139091401.204941 12421200.005969 A1308655.000000 1308655.000000 0.0 0 0 137821403.005969 11074997.795059" />
<path d="M11075401 109906400
L11075401 15850200
" />
<path d="M139091401 12421200
L139091401 110998600
" />
<path d="M12345401.000000 14580200.000000 A1269999.000000 1269999.000000 0.0 0 0 11075401.000000 15850200.000000" />
<path d="M76226401 123167000
L92558601 123167000
" />
<path d="M56185801 118720200
L74194401 112167000
" />
<path d="M26186601 124691529
L26186601 127201471
" />
<path d="M10075401 110897255
L10075401 14941512
" />
<path d="M112548401 116993000
L126776622 125927894
" />
<path d="M53995401 11075000
L12345401 14580200
" />
<path d="M92558601 123167000
L108306601 127280000
" />
<path d="M140091401 11429126
L140091401 111354200
" />
<path d="M36186601.110655 118457174.000609 A1260860.000000 1260860.000000 0.0 0 0 37449627.000185 119724974.106757" />
<path d="M126776621.521671 125927894.669663 A2396232.000000 2396232.000000 0.0 0 0 130201401.222564 125248000.139103" />
<path d="M26186601.535731 127201470.999651 A2519407.000000 2519407.000000 0.0 0 0 28705330.000025 129719234.908771" />
<path d="M53995401 10075000
L11329402 13671512
" />
<path d="M127106821.521671 127311331.669663 A2396232.000000 2396232.000000 0.0 0 0 130531601.222564 126631437.139103" />
<path d="M94006401 112167000
L112548401 116993000
" />
<circle cx="110948201.000000" cy="4852200.000000" r="1600000.000000" /> 
<path d="M112167401 117932800
L127106822 127311331
" />
<path d="M26186600.999997 124691529.000000 A2515125.000000 2515125.000000 0.0 0 0 23671472.000000 122176400.000003" />
<path d="M75401.000002 119658636.000000 A2517761.000000 2517761.000000 0.0 0 0 2593165.000000 122176399.999998" />
<path d="M75401 119658636
L75401 7433400
" />
<path d="M36186601.221628 113446400.001646 A1260636.000000 1260636.000000 0.0 0 0 34926001.000000 112176400.000000" />
<path d="M116993401 11075000
L137821401 11075000
" />
<path d="M53995401 11075000
L116993401 11075000
" />
<circle cx="6045401.000000" cy="10343000.000000" r="1600000.000000" /> 
<path d="M37186601.000000 112446400.000000 A1269999.000000 1269999.000000 0.0 0 0 35916601.000000 111176400.000000" />
<path d="M53995401 10075000
L138825403 10075000
" />
<path d="M150091400.999999 2591400.000000 A2516398.000000 2516398.000000 0.0 0 0 147575001.000000 75000.000001" />
<circle cx="33744901.000000" cy="68479000.000000" r="1100000.000000" /> 
<circle cx="39231301.000000" cy="107277500.000000" r="1100000.000000" /> 
<path d="M130201401 125248000
L139091401 110998600
" />
<path d="M53995401 75000
L2487230 4434988
" />
<path d="M36186601 113446400
L36186601 118457174
" />
<path d="M11329402.002259 13671512.356295 A1262026.000000 1262026.000000 0.0 0 0 10075401.349956 14941511.997782" />
<path d="M53995401 75000
L147575001 75000
" />
<circle cx="118517401.000000" cy="95657000.000000" r="1100000.000000" /> 
<path d="M37186601 112446400
L37186601 117454974
" />
<path d="M140091400.109429 11429125.971262 A1312594.000000 1312594.000000 0.0 0 0 138825402.990483 10075000.271906" />
<path d="M93828601 113167000
L112167401 117932800
" />
<circle cx="111278401.000000" cy="68479000.000000" r="1100000.000000" /> 
<path d="M130531601 126631437
L140091401 111354200
" />
<path d="M28705330 129724974
L58179701 129724974
" />
<path d="M108306601 127280000
L130272423 141078131
" />
<path d="M133697202 140398237
L150091401 114148200
" />
<path d="M150091401 2591400
L150091401 114148200
" />
<circle cx="111278401.000000" cy="30379000.000000" r="1100000.000000" /> 
<circle cx="144908001.000000" cy="5461600.000000" r="1600000.000000" /> 
<path d="M58179701 129724974
L76226401 123167000
" />
<path d="M2593165 122176400
L23671472 122176400
" />
<circle cx="33744901.000000" cy="30379000.000000" r="1100000.000000" /> 
<path d="M11380200 112176400
L34926001 112176400
" />
<path d="M37449627 119724974
L56414401 119724974
" />
<path d="M74194401 112167000
L94006401 112167000
" />
<path d="M2487229.927057 4434987.639567 A3009103.000000 3009103.000000 0.0 0 0 75400.612925 7433400.006317" />
<path d="M37186601.000000 117454974.000000 A1269999.000000 1269999.000000 0.0 0 0 38456601.000000 118724974.000000" />
<path d="M10075401.293163 110906399.993222 A1300058.000000 1300058.000000 0.0 0 0 11380200.000171 112176400.043581" />
<circle cx="5792201.000000" cy="116967800.000000" r="1600000.000000" /> 
<path d="M56414401 119724974
L74423001 113167000
" />
<path d="M74423001 113167000
L93828601 113167000
" />
<path d="M11075401.019601 109906399.999612 A1295655.000000 1295655.000000 0.0 0 0 12370801.000000 111176400.000000" />
<g >
</g>
<g >
</g>
<g >
</g>
</g> 
</svg>
