<?xml version="1.0" standalone="no"?>
<!DOCTYPE svg PUBLIC "-//W3C//DTD SVG 20010904//EN"
 "http://www.w3.org/TR/2001/REC-SVG-20010904/DTD/svg10.dtd">
<svg version="1.0" xmlns="http://www.w3.org/2000/svg"
 width="2550.000000pt" height="1500.000000pt" viewBox="0 0 2550.000000 1500.000000"
 preserveAspectRatio="xMidYMid meet">

<g transform="translate(0.000000,1500.000000) scale(0.100000,-0.100000)"
fill="#000000" stroke="none">
<path d="M0 13355 l0 -1645 525 0 525 0 0 640 0 640 540 0 540 0 0 365 0 365
-540 0 -540 0 0 270 0 270 715 0 715 0 0 370 0 370 -1240 0 -1240 0 0 -1645z"/>
<path d="M3030 13941 c0 -1057 5 -1235 36 -1391 100 -498 428 -799 977 -895
150 -27 374 -37 544 -25 639 44 1029 307 1178 793 60 198 58 146 62 1415 l4
1162 -526 0 -525 0 0 -1122 c-1 -1216 -1 -1215 -55 -1336 -32 -72 -82 -123
-150 -154 -40 -18 -68 -22 -145 -22 -84 -1 -102 2 -152 27 -101 50 -154 136
-184 297 -11 60 -13 295 -14 1193 l0 1117 -525 0 -525 0 0 -1059z"/>
<path d="M7590 13862 c0 -738 -4 -1167 -11 -1222 -24 -196 -98 -266 -279 -264
-195 1 -380 106 -579 327 -23 27 -44 47 -46 45 -27 -31 -455 -631 -455 -638 0
-15 180 -167 270 -229 222 -153 454 -229 766 -252 250 -18 556 15 736 81 340
124 521 341 610 730 22 94 22 103 25 1328 l4 1232 -521 0 -520 0 0 -1138z"/>
<path d="M9330 13355 l0 -1645 525 0 525 0 0 1645 0 1645 -525 0 -525 0 0
-1645z"/>
<path d="M10810 14991 c0 -5 159 -642 354 -1417 195 -775 380 -1511 412 -1636
l56 -228 519 0 c286 0 519 3 519 8 0 23 338 1864 344 1869 3 4 8 4 11 2 3 -4
335 -1858 335 -1875 0 -2 233 -4 519 -4 l519 0 406 1628 c224 895 409 1635
412 1645 5 16 -25 17 -534 17 l-540 0 -6 -32 c-8 -45 -266 -1827 -266 -1838 0
-6 -6 -10 -13 -10 -9 0 -59 262 -176 913 -90 501 -166 924 -168 940 l-5 27
-488 0 -488 0 -6 -27 c-8 -39 -286 -1829 -286 -1842 0 -6 -6 -11 -13 -11 -10
0 -56 255 -173 940 l-159 940 -542 0 c-304 0 -543 -4 -543 -9z"/>
<path d="M16321 14968 c-6 -18 -233 -746 -506 -1618 -273 -872 -500 -1597
-505 -1612 l-9 -28 538 0 538 0 76 293 c43 160 80 302 83 315 l6 22 443 0 442
0 79 -312 79 -313 538 -3 c510 -2 538 -1 533 15 -9 32 -1006 3176 -1022 3226
l-16 47 -643 0 -643 0 -11 -32z m801 -1414 c64 -258 118 -477 118 -486 0 -17
-19 -18 -255 -18 -140 0 -255 3 -255 8 0 6 202 790 241 935 6 21 15 37 22 34
6 -2 64 -215 129 -473z"/>
<path d="M19030 13355 l0 -1645 520 0 520 0 0 625 0 626 122 -3 122 -3 259
-622 260 -623 575 0 c455 0 573 3 569 13 -9 21 -615 1293 -631 1325 l-16 30
83 41 c286 142 427 419 427 841 0 503 -225 840 -648 974 -193 61 -161 59
-1204 63 l-958 4 0 -1646z m1593 885 c98 -49 140 -134 141 -281 1 -87 -2 -100
-29 -154 -34 -67 -93 -118 -158 -137 -27 -8 -122 -12 -272 -12 l-230 -1 -3
308 -2 308 252 -3 c246 -3 254 -4 301 -28z"/>
<path d="M23167 14993 c-6 -9 -1027 -3270 -1027 -3278 0 -3 241 -4 537 -3
l536 3 82 310 81 310 444 0 443 0 79 -309 c43 -171 80 -311 82 -313 1 -2 243
-2 537 -1 l535 3 -521 1642 -520 1643 -642 0 c-353 0 -644 -3 -646 -7z m792
-1448 c66 -267 121 -487 121 -490 0 -3 -115 -5 -255 -5 -197 0 -255 3 -255 13
-2 33 246 967 256 967 7 0 61 -200 133 -485z"/>
<path d="M0 10635 l0 -385 12750 0 12750 0 0 385 0 385 -12750 0 -12750 0 0
-385z"/>
<path d="M0 9945 l0 -145 12750 0 12750 0 0 145 0 145 -12750 0 -12750 0 0
-145z"/>
<path d="M9990 8939 c-34 -138 -60 -257 -58 -266 6 -29 284 -117 500 -157 227
-43 511 -63 658 -49 l75 8 6 55 c4 30 10 148 13 261 l7 206 -243 6 c-388 10
-596 49 -825 153 l-72 32 -61 -249z"/>
<path d="M780 9095 l0 -85 -330 0 -330 0 0 -220 0 -220 333 -2 332 -3 3 -57 3
-58 239 0 240 0 0 60 0 60 310 0 310 0 0 -60 0 -60 250 0 250 0 0 60 0 60 335
0 335 0 0 220 0 220 -336 0 -336 0 6 33 c3 17 20 54 36 80 17 27 30 50 30 53
0 2 -128 4 -285 4 l-285 0 0 -85 0 -85 -310 0 -310 0 0 30 c0 17 11 53 25 80
14 27 25 52 25 55 0 3 -121 5 -270 5 l-270 0 0 -85z"/>
<path d="M17098 9038 l-3 -133 -587 -3 -588 -2 0 -830 c0 -525 -4 -866 -11
-928 -26 -235 -94 -500 -203 -790 l-73 -196 82 -31 c103 -39 225 -120 338
-226 48 -45 89 -80 91 -78 11 12 102 315 131 434 40 167 57 260 85 460 44 321
51 449 57 1068 l5 597 362 -2 361 -3 3 -527 2 -528 -307 -2 -308 -3 0 -700 0
-700 1005 0 1005 0 3 703 2 702 -440 0 -440 0 0 140 0 140 490 0 490 0 0 250
0 250 -495 0 -496 0 3 138 3 137 528 3 527 2 0 265 0 265 -539 0 c-598 0 -576
-2 -565 63 14 86 28 125 55 160 l30 37 -300 0 -300 0 -3 -132z m932 -2428 l0
-200 -490 0 -490 0 0 200 0 200 490 0 490 0 0 -200z"/>
<path d="M13241 8926 l-183 -184 93 -72 c95 -74 264 -189 339 -231 l40 -23
-89 -46 c-189 -98 -289 -211 -321 -365 -33 -158 34 -320 222 -540 52 -60 154
-177 227 -260 138 -156 240 -298 288 -400 25 -53 28 -71 28 -160 0 -89 -3
-106 -28 -157 -48 -97 -117 -121 -213 -73 -65 33 -139 99 -213 191 -49 61 -62
72 -67 57 -51 -148 -161 -336 -260 -442 l-55 -59 63 -45 c136 -97 279 -171
433 -224 106 -36 152 -45 245 -44 195 0 349 94 475 291 86 135 124 255 132
427 7 145 -6 242 -50 362 -59 165 -286 463 -522 686 -208 196 -232 242 -184
342 52 107 240 202 489 247 52 10 104 19 116 22 19 3 21 12 27 116 4 62 7 185
7 273 l0 160 -163 1 c-131 1 -177 5 -242 22 -154 41 -304 136 -402 255 -19 23
-38 45 -42 49 -4 4 -89 -75 -190 -176z"/>
<path d="M7494 9013 c-10 -114 3 -657 20 -818 13 -126 30 -249 55 -405 5 -30
7 -59 5 -65 -3 -5 -54 -41 -115 -79 -255 -158 -410 -299 -535 -486 -83 -125
-114 -212 -121 -341 -19 -333 218 -622 627 -764 154 -53 324 -92 484 -111 179
-21 628 -14 1011 16 143 11 266 20 274 20 11 0 13 47 9 285 -2 156 -7 287 -10
290 -3 3 -81 -3 -174 -14 -675 -80 -1243 -61 -1498 48 -144 62 -195 163 -149
296 21 62 128 173 234 242 162 105 432 224 729 321 257 84 437 128 702 172 68
11 137 22 154 25 l32 5 -45 138 c-25 75 -60 202 -77 282 l-32 145 -45 -1
c-117 -4 -678 -165 -896 -257 l-82 -35 -8 47 c-4 25 -8 217 -8 426 0 296 4
412 18 524 9 79 17 150 17 157 0 12 -50 14 -284 14 l-284 0 -8 -77z"/>
<path d="M3620 8233 c0 -470 -5 -910 -10 -988 -28 -381 -96 -649 -212 -828
l-51 -77 119 -123 c122 -125 194 -222 240 -322 14 -31 27 -55 29 -53 1 2 35
76 75 166 40 89 79 162 86 162 27 0 174 -109 264 -197 52 -51 95 -91 96 -90 0
1 146 201 322 444 177 242 324 448 328 456 3 10 -20 32 -73 69 -85 60 -229
174 -238 189 -4 5 71 9 189 9 l196 0 0 -360 0 -360 -195 -2 -195 -3 41 -55
c61 -81 118 -208 142 -321 20 -92 24 -99 46 -99 56 0 497 62 526 74 72 30 142
130 164 234 6 31 11 159 11 314 l0 260 60 -115 c72 -141 156 -276 245 -394 71
-95 244 -293 254 -292 3 0 40 43 81 95 41 52 123 142 182 201 l107 107 -95 99
c-167 173 -302 356 -387 522 l-36 70 144 3 145 3 0 704 0 705 -360 0 -360 0 0
90 0 90 448 2 447 3 3 228 2 227 -1390 0 -1390 0 0 -847z m1360 292 l0 -95
-350 0 -350 0 0 -690 0 -690 101 0 101 0 -57 -107 c-83 -157 -167 -296 -240
-398 -74 -103 -226 -280 -255 -295 -18 -10 -17 -5 7 57 54 141 123 363 150
483 l28 125 3 840 c1 462 4 846 7 853 3 9 99 12 430 12 l425 0 0 -95z m778
-522 l-3 -108 -515 0 -515 0 -3 94 c-1 52 -1 100 2 108 4 11 102 13 521 13
l516 0 -3 -107z m2 -523 l0 -50 -520 0 -520 0 0 43 c0 24 3 47 7 50 3 4 237 7
520 7 l513 0 0 -50z m-2 -459 c-4 -12 -220 -191 -230 -191 -5 0 -8 45 -8 100
l0 100 121 0 c69 0 119 -4 117 -9z"/>
<path d="M1600 8423 c-61 -48 -174 -101 -231 -109 l-48 -6 55 -79 56 -79 -56
0 -56 0 0 -160 0 -160 211 0 c165 0 210 -3 206 -12 -3 -7 -17 -42 -32 -78 -15
-36 -32 -71 -37 -77 -8 -10 -61 -13 -204 -13 l-194 0 0 -195 0 -195 80 0 c80
0 81 0 69 -22 -17 -31 -193 -208 -207 -208 -9 0 -12 168 -12 680 l0 680 -485
0 -485 0 -1 -307 c0 -170 -4 -551 -9 -848 -7 -484 -10 -553 -29 -665 -34 -195
-88 -352 -165 -476 l-26 -41 191 -108 c104 -59 192 -106 194 -104 22 23 145
355 145 394 0 7 4 16 9 20 20 12 63 -75 117 -238 l56 -168 46 7 c98 13 189 37
235 62 65 35 132 110 170 190 l32 67 5 375 5 375 65 -192 c35 -106 67 -193 70
-193 3 0 49 56 104 125 l99 124 43 -60 c24 -32 44 -68 44 -78 0 -19 -46 -82
-111 -153 -53 -56 -160 -142 -230 -183 -35 -20 -66 -39 -68 -41 -2 -1 12 -25
31 -51 48 -66 91 -146 119 -220 13 -35 28 -63 32 -63 15 0 265 242 317 306 61
75 130 192 130 219 0 11 -16 40 -35 64 -19 24 -35 47 -35 50 0 3 38 27 83 52
l82 46 8 -200 c5 -110 6 -211 2 -224 -7 -29 -93 -73 -142 -73 -63 0 -62 4 -35
-160 l25 -149 45 -7 c117 -18 322 24 396 81 20 16 49 49 64 74 26 44 27 53 30
209 2 89 7 162 11 162 11 0 144 -195 173 -255 14 -27 35 -80 47 -118 13 -37
26 -66 29 -64 4 2 42 25 84 51 43 25 79 46 82 46 2 0 38 16 81 35 l77 35 -40
73 c-56 105 -141 239 -215 342 l-65 90 41 43 c70 73 66 74 159 -33 45 -52 85
-95 88 -95 3 0 16 26 29 57 34 77 111 203 177 290 l55 72 -82 83 c-46 46 -107
112 -136 148 l-54 65 93 5 93 5 3 193 2 192 -217 0 c-120 0 -223 4 -230 8 -10
6 -83 154 -83 168 0 2 108 4 240 4 l240 0 0 160 0 160 -106 0 c-84 0 -105 3
-101 13 3 7 34 58 70 114 l65 100 -157 11 c-89 6 -175 17 -200 27 -25 8 -48
12 -52 8 -4 -5 -21 -62 -39 -128 -17 -66 -37 -126 -44 -133 -9 -9 -34 -12 -78
-10 l-65 3 30 107 c17 60 28 110 26 112 -3 3 -108 6 -234 8 l-229 3 -18 -75
c-35 -140 -39 -150 -52 -150 -13 0 -70 95 -132 223 -21 42 -43 77 -49 76 -5 0
-30 -16 -55 -36z m-790 -573 l0 -150 -105 0 -105 0 0 150 0 150 105 0 105 0 0
-150z m1449 -57 c13 -49 30 -126 31 -135 0 -5 -43 -8 -95 -8 -52 0 -95 2 -95
5 0 8 71 149 82 163 6 6 23 12 39 12 24 0 30 -5 38 -37z m-1442 -520 c-4 -54
-7 -117 -7 -140 l0 -43 -105 0 -105 0 0 140 0 140 112 0 111 0 -6 -97z m1383
-13 l227 0 47 -104 c30 -65 45 -109 40 -118 -19 -31 -157 -203 -165 -206 -5
-2 -9 73 -9 172 l0 176 -192 -2 -193 -3 -5 -203 -5 -203 -110 132 c-60 72
-109 135 -108 139 1 5 32 53 67 108 69 105 94 125 150 117 16 -3 131 -5 256
-5z m-1380 -675 c0 -260 -10 -272 -253 -310 -27 -4 -28 -3 -23 23 21 97 48
281 53 360 l6 92 109 0 108 0 0 -165z m1606 29 c30 -20 54 -41 54 -47 0 -14
-114 -127 -128 -127 -9 0 -12 33 -12 111 0 127 -5 123 86 63z"/>
<path d="M10745 8294 c-407 -60 -595 -106 -921 -220 -99 -35 -192 -68 -206
-73 l-26 -10 38 -148 c21 -81 48 -213 60 -293 12 -80 23 -146 24 -147 2 -2 59
22 127 53 392 176 704 272 989 305 91 10 119 10 204 -5 155 -26 220 -70 275
-186 22 -47 26 -69 26 -145 0 -99 -20 -161 -86 -271 -101 -168 -359 -374 -632
-504 -242 -116 -410 -158 -659 -167 -93 -3 -168 -8 -168 -10 0 -3 9 -18 20
-34 68 -95 166 -348 197 -509 15 -81 19 -89 37 -85 12 2 53 9 91 15 165 26
401 96 596 175 605 247 986 617 1106 1075 19 73 26 130 30 245 14 402 -92 661
-331 809 -152 95 -286 126 -566 131 -107 2 -208 1 -225 -1z"/>
<path d="M14695 7748 c-75 -62 -171 -120 -272 -164 -43 -19 -77 -38 -76 -42 1
-4 36 -61 77 -126 181 -283 365 -725 467 -1122 l23 -92 76 70 c41 38 108 90
148 115 72 45 201 103 228 103 28 0 24 29 -20 152 -133 366 -347 793 -546
1089 l-45 66 -60 -49z"/>
<path d="M25107 7691 c-37 -44 -67 -83 -67 -86 0 -4 22 -32 50 -63 58 -65 119
-178 149 -276 86 -281 21 -620 -168 -870 l-48 -63 87 -94 88 -94 57 88 c112
173 200 394 231 585 38 232 -14 500 -141 728 -40 70 -151 224 -163 224 -4 0
-37 -36 -75 -79z"/>
<path d="M20035 7663 c-53 -74 -150 -267 -189 -381 -48 -139 -68 -255 -68
-392 -1 -189 37 -340 127 -518 55 -108 166 -267 186 -267 6 0 41 35 79 79 l68
79 -58 69 c-70 83 -132 204 -160 313 -24 92 -29 290 -10 395 27 151 100 316
190 432 l48 62 -80 88 c-45 48 -85 88 -89 88 -5 0 -24 -21 -44 -47z"/>
<path d="M20990 7588 c-32 -113 -8 -103 -249 -106 l-211 -2 0 -655 0 -655 590
0 590 0 0 660 0 660 -245 0 -245 0 0 33 c0 18 7 43 16 55 12 18 13 23 2 26
-33 11 -207 56 -216 56 -6 0 -20 -33 -32 -72z m520 -383 l0 -55 -385 0 -385 0
0 55 0 55 385 0 385 0 0 -55z m-5 -370 l0 -80 -382 -3 -383 -2 0 85 0 85 383
-2 382 -3 0 -80z m5 -370 l0 -55 -385 0 -385 0 0 55 0 55 385 0 385 0 0 -55z"/>
<path d="M22504 7590 l-7 -50 -253 0 -254 0 0 -195 c0 -211 -3 -203 58 -186
l32 10 0 -39 0 -39 118 -3 117 -3 -46 -28 c-59 -35 -190 -83 -252 -92 -26 -4
-47 -10 -45 -14 2 -3 22 -43 45 -88 l43 -82 37 16 c82 34 222 108 301 159 45
30 87 54 92 54 13 0 52 -68 46 -79 -13 -20 -148 -103 -228 -140 -84 -39 -221
-85 -290 -96 l-38 -6 61 -77 c34 -42 65 -81 69 -85 15 -16 305 138 464 246
l60 40 28 -34 28 -34 -22 -17 c-62 -48 -230 -155 -302 -194 -96 -50 -225 -96
-319 -114 -37 -7 -67 -16 -65 -20 11 -28 123 -210 130 -210 4 0 138 72 298
160 160 88 294 160 297 160 3 0 3 -18 0 -40 -11 -84 -77 -130 -187 -130 l-60
0 0 -90 0 -90 58 0 c81 0 184 24 244 57 73 40 97 81 108 188 5 48 10 89 12 90
2 1 72 -75 157 -171 l154 -174 32 83 c17 45 43 100 57 122 l26 40 -150 151
-150 151 126 88 c70 49 128 91 130 94 2 3 -34 51 -80 106 -59 70 -80 101 -69
103 8 2 15 14 15 28 0 23 3 24 70 24 l70 0 0 205 0 205 -286 0 -286 0 26 45
27 45 -120 0 -120 0 -7 -50z m556 -305 l0 -25 -435 0 -435 0 0 25 0 25 435 0
435 0 0 -25z m-105 -305 c-55 -55 -102 -100 -105 -100 -4 1 -83 97 -143 176
l-19 24 183 0 184 0 -100 -100z"/>
<path d="M23578 7143 l-4 -458 -26 -95 c-33 -116 -51 -162 -89 -217 -16 -23
-29 -44 -29 -46 0 -2 42 -40 94 -85 l94 -81 30 67 c31 67 92 243 92 265 0 7 5
29 11 50 l10 37 144 0 145 0 0 -170 0 -170 105 0 105 0 0 170 0 170 130 0 130
0 0 -79 c0 -99 -6 -105 -112 -110 -69 -3 -78 -5 -72 -20 22 -52 33 -89 34
-112 0 -15 3 -41 6 -58 6 -27 11 -31 38 -31 47 0 151 27 199 51 55 28 75 46
98 91 18 35 19 69 19 663 l0 625 -574 0 -575 0 -3 -457z m472 137 l0 -80 -125
0 -125 0 0 80 0 80 125 0 125 0 0 -80z m470 0 l0 -80 -130 0 -130 0 0 80 0 80
130 0 130 0 0 -80z m-470 -390 l0 -90 -125 0 -125 0 0 90 0 90 125 0 125 0 0
-90z m470 0 l0 -90 -130 0 -130 0 0 90 0 90 130 0 130 0 0 -90z"/>
<path d="M12957 7367 c-134 -286 -350 -567 -570 -744 -40 -31 -76 -60 -81 -64
-5 -5 13 -32 39 -61 55 -61 141 -186 210 -306 38 -67 50 -81 60 -70 6 7 48 54
92 103 175 197 381 483 460 638 54 109 105 248 101 276 -4 23 -235 350 -248
351 -3 0 -31 -55 -63 -123z"/>
<path d="M0 5055 l0 -145 12750 0 12750 0 0 145 0 145 -12750 0 -12750 0 0
-145z"/>
<path d="M0 4365 l0 -385 12748 2 12747 3 3 383 2 382 -12750 0 -12750 0 0
-385z"/>
<path d="M14560 3369 c-613 -35 -978 -363 -1019 -914 -29 -389 78 -704 300
-883 145 -118 301 -181 657 -268 352 -86 444 -130 497 -239 37 -74 34 -171 -8
-233 -54 -82 -176 -119 -360 -109 -265 15 -501 109 -758 303 l-96 72 -168
-320 -168 -320 29 -24 c16 -14 82 -60 146 -103 315 -211 646 -312 1082 -328
680 -25 1133 254 1257 773 58 244 37 559 -51 766 -83 193 -241 351 -455 453
-110 52 -232 92 -476 155 -280 73 -348 99 -410 159 -56 54 -68 96 -50 177 15
67 50 110 116 140 43 21 66 24 162 24 206 0 406 -54 651 -175 120 -60 145 -69
151 -56 5 9 61 157 126 330 94 251 115 315 104 323 -8 5 -76 40 -151 77 -339
170 -708 243 -1108 220z"/>
<path d="M4150 3359 c-305 -39 -568 -161 -771 -356 -249 -240 -392 -542 -456
-963 -25 -164 -24 -540 1 -705 112 -735 519 -1195 1161 -1311 137 -25 451 -25
582 -1 209 39 390 111 549 217 162 108 342 318 439 510 233 463 268 1157 85
1675 -186 524 -574 848 -1115 930 -108 16 -364 18 -475 4z m345 -725 c174 -52
294 -251 353 -584 25 -141 24 -596 -2 -735 -57 -309 -154 -483 -313 -558 -61
-29 -77 -32 -158 -32 -102 0 -156 19 -232 81 -105 86 -186 262 -229 499 -16
83 -19 150 -19 390 1 278 2 295 28 418 32 151 73 262 126 343 111 172 263 232
446 178z"/>
<path d="M20870 3364 c-14 -2 -68 -12 -120 -20 -422 -72 -767 -330 -963 -721
-228 -454 -264 -1144 -86 -1660 127 -368 367 -656 675 -811 332 -167 813 -198
1189 -76 203 66 370 168 520 319 303 303 455 736 455 1290 0 278 -29 481 -100
696 -83 252 -190 430 -359 599 -192 191 -398 300 -683 361 -71 16 -141 21
-298 24 -113 2 -216 2 -230 -1z m268 -719 c141 -19 271 -158 340 -361 105
-309 108 -870 7 -1179 -57 -172 -153 -298 -267 -351 -55 -25 -75 -29 -153 -29
-82 0 -97 3 -157 33 -150 74 -250 249 -302 530 -38 202 -40 552 -6 770 55 347
203 563 405 592 27 4 59 6 70 4 11 -1 39 -5 63 -9z"/>
<path d="M0 2905 l0 -385 415 0 415 0 2 -1217 3 -1218 473 -3 472 -2 0 1220 0
1220 415 0 415 0 0 385 0 385 -1305 0 -1305 0 0 -385z"/>
<path d="M6340 1685 l0 -1605 470 0 470 0 0 625 0 625 490 0 490 0 0 355 0
355 -490 0 -490 0 0 265 0 265 650 0 650 0 0 360 0 360 -1120 0 -1120 0 0
-1605z"/>
<path d="M9083 2138 c3 -1126 4 -1155 24 -1248 57 -260 150 -439 301 -581 119
-113 239 -182 412 -237 160 -51 287 -67 525 -66 226 0 329 13 495 61 430 124
689 449 749 938 7 60 11 454 11 1188 l0 1097 -470 0 -469 0 -4 -1122 c-3
-1018 -5 -1129 -20 -1186 -51 -189 -158 -273 -328 -259 -131 11 -212 83 -254
226 -32 107 -35 223 -35 1278 l0 1063 -470 0 -471 0 4 -1152z"/>
<path d="M16440 1685 l0 -1605 470 0 470 0 0 625 0 625 385 0 385 0 2 -622 3
-623 473 -3 472 -2 0 1605 0 1605 -475 0 -475 0 0 -620 0 -620 -385 0 -385 0
0 620 0 620 -470 0 -470 0 0 -1605z"/>
<path d="M23030 1685 l0 -1605 470 0 470 0 0 529 0 529 343 5 c369 5 406 9
574 66 132 45 227 105 328 206 140 140 221 307 261 540 22 132 22 385 0 517
-66 396 -275 652 -622 761 -171 54 -225 57 -1058 57 l-766 0 0 -1605z m1353
856 c98 -48 141 -147 141 -326 0 -180 -45 -281 -149 -334 -47 -25 -59 -26
-227 -29 l-178 -3 0 361 0 361 183 -3 c168 -3 186 -5 230 -27z"/>
</g>
</svg>
