<?xml version="1.0" standalone="no"?>
 <!DOCTYPE svg PUBLIC "-//W3C//DTD SVG 1.1//EN" 
 "http://www.w3.org/Graphics/SVG/1.1/DTD/svg11.dtd"> 
<svg
  xmlns:svg="http://www.w3.org/2000/svg"
  xmlns="http://www.w3.org/2000/svg"
  xmlns:xlink="http://www.w3.org/1999/xlink"
  version="1.1"
  width="2.730500cm" height="4.028440cm" viewBox="0 0 27305000 40284400">
<title>SVG Picture created as knuckle-pad-brd.svg date 2021/09/30 14:18:02 </title>
  <desc>Picture generated by PCBNEW </desc>
<g style="fill:#000000; fill-opacity:1.000000;stroke:#000000; stroke-opacity:1.000000;
stroke-linecap:round; stroke-linejoin:round;"
 transform="translate(0 0) scale(1 1)">
</g>
<g style="fill:#000000; fill-opacity:0.0; 
stroke:#000000; stroke-width:0.000000; stroke-opacity:1; 
stroke-linecap:round; stroke-linejoin:round;">
</g>
<g style="fill:#000000; fill-opacity:0.0; 
stroke:#000000; stroke-width:50000.000000; stroke-opacity:1; 
stroke-linecap:round; stroke-linejoin:round;">
<circle cx="22681447.000000" cy="36016002.000000" r="1100000.000000" /> 
<path d="M25909485.995211 40213002.192249 A1311958.000000 1311958.000000 0.0 0 0 27253446.622285 38943260.987914" />
<path d="M1421649 75000
L25983449 75000
" />
<path d="M1421649.000000 75000.000000 A1346202.000000 1346202.000000 0.0 0 0 75446.000000 1421201.000000" />
<path d="M27253447.204941 1421202.005969 A1308655.000000 1308655.000000 0.0 0 0 25983449.005969 74999.795059" />
<path d="M75447 1421202
L75447 38871093
" />
<path d="M25909486 40213002
L1350443 40213002
" />
<path d="M75446.511202 38871092.987225 A1308141.000000 1308141.000000 0.0 0 0 1341455.173406 40212745.641375" />
<circle cx="4647447.000000" cy="36016002.000000" r="1100000.000000" /> 
<path d="M27253447 1421202
L27253447 38943261
" />
<g >
</g>
<g >
</g>
<g >
</g>
</g> 
</svg>
